<svg xmlns="http://www.w3.org/2000/svg" xmlns:svg="http://www.w3.org/2000/svg" id="WAS-WSFGSVP----" width="260" height="220" version="1.1" viewBox="0 0 260 220"><metadata id="metadata47"/><g id="g3" transform="translate(-70,-90)"><svg id="_0.WAS-WSFG--P----" width="400" height="400" version="1.1" viewBox="0 0 400 400"><line style="stroke:#fff700;stroke-width:20" id="line6" x1="160" x2="240" y1="200" y2="200"/></svg></g><g id="g8" transform="translate(-150,10)"><svg id="_1.WAS-WSFG--P----" width="400" height="400" version="1.1" viewBox="0 0 400 400"><line style="stroke:#fff700;stroke-width:20" id="line11" x1="160" x2="240" y1="200" y2="200"/></svg></g><g id="g13" transform="translate(-70,10)"><svg id="_2.WAS-WSFG--P----" width="400" height="400" version="1.1" viewBox="0 0 400 400"><line style="stroke:#fff700;stroke-width:20" id="line16" x1="160" x2="240" y1="200" y2="200"/></svg></g><g id="g18" transform="translate(10,10)"><svg id="_3.WAS-WSFG--P----" width="400" height="400" version="1.1" viewBox="0 0 400 400"><line style="stroke:#fff700;stroke-width:20" id="line21" x1="160" x2="240" y1="200" y2="200"/></svg></g><g id="g23" transform="translate(-150,-90)"><svg id="_4.WAS-WSFG--P----" width="400" height="400" version="1.1" viewBox="0 0 400 400"><line style="stroke:#fff700;stroke-width:20" id="line26" x1="160" x2="240" y1="200" y2="200"/></svg></g><g id="g28" transform="translate(10,-90)"><svg id="_5.WAS-WSFG--P----" width="400" height="400" version="1.1" viewBox="0 0 400 400"><line style="stroke:#fff700;stroke-width:20" id="line31" x1="160" x2="240" y1="200" y2="200"/></svg></g><g id="g33" transform="translate(-150,-190)"><svg id="_6.WAS-WSFG--P----" width="400" height="400" version="1.1" viewBox="0 0 400 400"><line style="stroke:#fff700;stroke-width:20" id="line36" x1="160" x2="240" y1="200" y2="200"/></svg></g><g id="g38" transform="translate(10,-190)"><svg id="_7.WAS-WSFG--P----" width="400" height="400" version="1.1" viewBox="0 0 400 400"><line style="stroke:#fff700;stroke-width:20" id="line41" x1="160" x2="240" y1="200" y2="200"/></svg></g></svg>