<svg xmlns="http://www.w3.org/2000/svg" xmlns:svg="http://www.w3.org/2000/svg" id="WAS-WSD-HCP----" width="253" height="298.501" version="1.1" viewBox="0 0 253 298.501"><metadata id="metadata35"/><g id="g3" transform="translate(7.5,3.5)"><svg id="_0.WAS-WSD--------" width="400" height="400" version="1.1" viewBox="0 0 400 400"><circle style="fill:green;stroke:green;stroke-width:1" id="circle6" cx="220" cy="127" r="25" d="m 245,127 c 0,13.80712 -11.19288,25 -25,25 -13.80712,0 -25,-11.19288 -25,-25 0,-13.80712 11.19288,-25 25,-25 13.80712,0 25,11.19288 25,25 z"/><path style="fill:green;stroke:green;stroke-width:1" id="path8" d="m 220,152.5 c 2.179,12.429 -21,36 -21,36 32.107,0.179 45.902,-33.494 45.857,-58.429"/></svg></g><g id="g10" transform="translate(-194.5,3.5)"><svg id="_1.WAS-WSD--------" width="400" height="400" version="1.1" viewBox="0 0 400 400"><circle style="fill:green;stroke:green;stroke-width:1" id="circle13" cx="220" cy="127" r="25" d="m 245,127 c 0,13.80712 -11.19288,25 -25,25 -13.80712,0 -25,-11.19288 -25,-25 0,-13.80712 11.19288,-25 25,-25 13.80712,0 25,11.19288 25,25 z"/><path style="fill:green;stroke:green;stroke-width:1" id="path15" d="m 220,152.5 c 2.179,12.429 -21,36 -21,36 32.107,0.179 45.902,-33.494 45.857,-58.429"/></svg></g><g id="g17" transform="translate(-91.5,-101.5)"><svg id="_2.WAS-WSD--------" width="400" height="400" version="1.1" viewBox="0 0 400 400"><circle style="fill:green;stroke:green;stroke-width:1" id="circle20" cx="220" cy="127" r="25" d="m 245,127 c 0,13.80712 -11.19288,25 -25,25 -13.80712,0 -25,-11.19288 -25,-25 0,-13.80712 11.19288,-25 25,-25 13.80712,0 25,11.19288 25,25 z"/><path style="fill:green;stroke:green;stroke-width:1" id="path22" d="m 220,152.5 c 2.179,12.429 -21,36 -21,36 32.107,0.179 45.902,-33.494 45.857,-58.429"/></svg></g><g id="g24" transform="translate(-92.5,109.5)"><svg id="_3.WAS-WSD--------" width="400" height="400" version="1.1" viewBox="0 0 400 400"><circle style="fill:green;stroke:green;stroke-width:1" id="circle27" cx="220" cy="127" r="25" d="m 245,127 c 0,13.80712 -11.19288,25 -25,25 -13.80712,0 -25,-11.19288 -25,-25 0,-13.80712 11.19288,-25 25,-25 13.80712,0 25,11.19288 25,25 z"/><path style="fill:green;stroke:green;stroke-width:1" id="path29" d="m 220,152.5 c 2.179,12.429 -21,36 -21,36 32.107,0.179 45.902,-33.494 45.857,-58.429"/></svg></g></svg>