<svg xmlns="http://www.w3.org/2000/svg" xmlns:svg="http://www.w3.org/2000/svg" id="WAS-WSRST-P----" width="110" height="335.35" version="1.1" viewBox="0 0 110 335.35"><metadata id="metadata22"/><g id="g3" transform="translate(-145,30.35)"><svg id="_0.WAS----SL-P----" width="400" height="400" version="1.1" viewBox="0 0 400 400"><polygon style="fill:none;stroke:green;stroke-width:10" id="polygon6" points="150 150 250 150 200 300"/></svg></g><g id="g8" transform="matrix(0.7,0,0,0.7,-85,-16.65)"><svg id="_1.WAS-WSR--------" width="400" height="400" version="1.1" viewBox="0 0 400 400"><circle style="fill:green;stroke:green;stroke-width:1" id="circle11" cx="200" cy="200" r="50" d="m 250,200 c 0,27.61424 -22.38576,50 -50,50 -27.61424,0 -50,-22.38576 -50,-50 0,-27.61424 22.38576,-50 50,-50 27.61424,0 50,22.38576 50,50 z"/></svg></g><g id="g13" transform="matrix(0.7,0,0,0.7,-85,-104.65)"><svg id="_2.WAS-WSR--------" width="400" height="400" version="1.1" viewBox="0 0 400 400"><circle style="fill:green;stroke:green;stroke-width:1" id="circle16" cx="200" cy="200" r="50" d="m 250,200 c 0,27.61424 -22.38576,50 -50,50 -27.61424,0 -50,-22.38576 -50,-50 0,-27.61424 22.38576,-50 50,-50 27.61424,0 50,22.38576 50,50 z"/></svg></g></svg>