<svg xmlns="http://www.w3.org/2000/svg" xmlns:svg="http://www.w3.org/2000/svg" id="WAS-GNFL--P----" width="335" height="335" version="1.1" viewBox="0 0 335 335"><metadata id="metadata18"/><g id="g3" transform="translate(-32.5,-32.5)"><svg id="_0.WAS-GNFL--P----" width="400" height="400" version="1.1" viewBox="0 0 400 400"><polygon style="fill:none;stroke:#000;stroke-width:15" id="polygon6" points="360 40 40 40 40 360 360 360"/><ellipse style="fill:#000;stroke:none" id="ellipse8" cx="200" cy="150" d="m 230,150 c 0,16.56854 -13.43146,30 -30,30 -16.56854,0 -30,-13.43146 -30,-30 0,-16.56854 13.43146,-30 30,-30 16.56854,0 30,13.43146 30,30 z" rx="30" ry="30"/><ellipse style="fill:#000;stroke:none" id="ellipse10" cx="140" cy="250" d="m 170,250 c 0,16.56854 -13.43146,30 -30,30 -16.56854,0 -30,-13.43146 -30,-30 0,-16.56854 13.43146,-30 30,-30 16.56854,0 30,13.43146 30,30 z" rx="30" ry="30"/><ellipse style="fill:#000;stroke:none" id="ellipse12" cx="260" cy="250" d="m 290,250 c 0,16.56854 -13.43146,30 -30,30 -16.56854,0 -30,-13.43146 -30,-30 0,-16.56854 13.43146,-30 30,-30 16.56854,0 30,13.43146 30,30 z" rx="30" ry="30"/></svg></g></svg>