<svg xmlns="http://www.w3.org/2000/svg" xmlns:svg="http://www.w3.org/2000/svg" id="WAS-WSTSH-P----" width="162.202" height="382.289" version="1.1" viewBox="0 0 162.202 382.289"><metadata id="metadata16"/><g id="g3" transform="translate(-118.89892,-8.8554)"><svg id="_0.WAS-WSTSH-P----" width="400" height="400" version="1.1" viewBox="0 0 400 400"><path style="fill:#c61021;stroke:#c61021;stroke-width:5" id="path6" d="M 134.647,229.123 C 86.2582,141.512 180.855,33.6544 250.524,11.3554 c 0,0 -50.616,75.0656 -50.881,117.7156"/><path style="fill:#c61021;stroke:#c61021;stroke-width:5" id="path8" d="M 134.647,229.123 C 86.2582,141.512 180.855,33.6544 250.524,11.3554 c 0,0 -50.616,75.0656 -50.881,117.7156" transform="matrix(-1,0,0,-1,400,400)"/><circle style="fill:#c61021;stroke:#c61021;stroke-width:10" id="circle10" cx="200" cy="200" r="70" d="m 270,200 c 0,38.65993 -31.34007,70 -70,70 -38.65993,0 -70,-31.34007 -70,-70 0,-38.65993 31.34007,-70 70,-70 38.65993,0 70,31.34007 70,70 z"/></svg></g></svg>