<svg xmlns="http://www.w3.org/2000/svg" xmlns:svg="http://www.w3.org/2000/svg" id="WAS-WSR-HCP----" width="361" height="301" version="1.1" viewBox="0 0 361 301"><metadata id="metadata27"/><g id="g3" transform="translate(-149.5,-49.5)"><svg id="_0.WAS-WSR--------" width="400" height="400" version="1.1" viewBox="0 0 400 400"><circle style="fill:green;stroke:green;stroke-width:1" id="circle6" cx="200" cy="200" r="50" d="m 250,200 c 0,27.61424 -22.38576,50 -50,50 -27.61424,0 -50,-22.38576 -50,-50 0,-27.61424 22.38576,-50 50,-50 27.61424,0 50,22.38576 50,50 z"/></svg></g><g id="g8" transform="translate(110.5,-49.5)"><svg id="_1.WAS-WSR--------" width="400" height="400" version="1.1" viewBox="0 0 400 400"><circle style="fill:green;stroke:green;stroke-width:1" id="circle11" cx="200" cy="200" r="50" d="m 250,200 c 0,27.61424 -22.38576,50 -50,50 -27.61424,0 -50,-22.38576 -50,-50 0,-27.61424 22.38576,-50 50,-50 27.61424,0 50,22.38576 50,50 z"/></svg></g><g id="g13" transform="translate(-19.5,50.5)"><svg id="_2.WAS-WSR--------" width="400" height="400" version="1.1" viewBox="0 0 400 400"><circle style="fill:green;stroke:green;stroke-width:1" id="circle16" cx="200" cy="200" r="50" d="m 250,200 c 0,27.61424 -22.38576,50 -50,50 -27.61424,0 -50,-22.38576 -50,-50 0,-27.61424 22.38576,-50 50,-50 27.61424,0 50,22.38576 50,50 z"/></svg></g><g id="g18" transform="translate(-19.5,-149.5)"><svg id="_3.WAS-WSR--------" width="400" height="400" version="1.1" viewBox="0 0 400 400"><circle style="fill:green;stroke:green;stroke-width:1" id="circle21" cx="200" cy="200" r="50" d="m 250,200 c 0,27.61424 -22.38576,50 -50,50 -27.61424,0 -50,-22.38576 -50,-50 0,-27.61424 22.38576,-50 50,-50 27.61424,0 50,22.38576 50,50 z"/></svg></g></svg>