<svg xmlns="http://www.w3.org/2000/svg" xmlns:svg="http://www.w3.org/2000/svg" id="WAS-WSDFMHP----" width="390" height="190" version="1.1" viewBox="0 0 390 190"><metadata id="metadata30"/><g id="g3" transform="translate(95,-105)"><svg id="_0.WAS-WSD--------" width="400" height="400" version="1.1" viewBox="0 0 400 400"><g id="g6" transform="translate(-24,56)"><circle style="fill:#c61021;stroke:#c61021;stroke-width:1" id="circle8" cx="220" cy="127" r="25" d="m 245,127 c 0,13.80712 -11.19288,25 -25,25 -13.80712,0 -25,-11.19288 -25,-25 0,-13.80712 11.19288,-25 25,-25 13.80712,0 25,11.19288 25,25 z"/><path style="fill:#c61021;stroke:#c61021;stroke-width:1" id="path10" d="m 220,152.5 c 2.179,12.429 -21,36 -21,36 32.107,0.179 45.902,-33.494 45.857,-58.429"/></g></svg></g><g id="g12" transform="translate(-105,-105)"><svg id="_1.WAS-WSD--------" width="400" height="400" version="1.1" viewBox="0 0 400 400"><g id="g15" transform="translate(-24,56)"><circle style="fill:#c61021;stroke:#c61021;stroke-width:1" id="circle17" cx="220" cy="127" r="25" d="m 245,127 c 0,13.80712 -11.19288,25 -25,25 -13.80712,0 -25,-11.19288 -25,-25 0,-13.80712 11.19288,-25 25,-25 13.80712,0 25,11.19288 25,25 z"/><path style="fill:#c61021;stroke:#c61021;stroke-width:1" id="path19" d="m 220,152.5 c 2.179,12.429 -21,36 -21,36 32.107,0.179 45.902,-33.494 45.857,-58.429"/></g></svg></g><g id="g21" transform="translate(-5,-105)"><svg id="_2.WAS-WSDF-------" width="400" height="400" version="1.1" viewBox="0 0 400 400"><path style="fill:none;stroke:#c61021;stroke-width:10" id="path24" d="M 40,267 C 23,252 10,227 10,200 c 0,-50 40,-90 90,-90 50,0 80,40 100,90 20,50 50,90 100,90 50,0 90,-40 90,-90 0,-27 -13,-52 -30,-67"/></svg></g></svg>