<svg xmlns="http://www.w3.org/2000/svg" xmlns:svg="http://www.w3.org/2000/svg" id="WAS-IMS---P----" width="370" height="240" version="1.1" viewBox="0 0 370 240"><metadata id="metadata30"/><g id="g3" transform="translate(-15,-80)"><svg id="_0.WAS-IM----P----" width="400" height="400" version="1.1" viewBox="0 0 400 400"><path style="fill:none;stroke:#806010;stroke-width:10" id="path6" d="m 20,200 c 0,50 30,85 90,85 60,0 90,-35 90,-85 0,-50 30,-85 90,-85 60,0 90,35 90,85"/></svg></g><g id="g8" transform="translate(-105,-65)"><svg id="_1.WAS-I-S---P----" width="400" height="400" version="1.1" viewBox="0 0 400 400"><line style="fill:none;stroke:#806010;stroke-width:10" id="line11" x1="200" x2="200" y1="100" y2="300"/><line style="fill:none;stroke:#806010;stroke-width:10" id="line13" x1="160" x2="160" y1="100" y2="300"/><line style="fill:none;stroke:#806010;stroke-width:10" id="line15" x1="240" x2="240" y1="100" y2="300"/></svg></g><g id="g17" transform="translate(75,-95)"><svg id="_2.WAS-I-S---P----" width="400" height="400" version="1.1" viewBox="0 0 400 400"><line style="fill:none;stroke:#806010;stroke-width:10" id="line20" x1="200" x2="200" y1="100" y2="300"/><line style="fill:none;stroke:#806010;stroke-width:10" id="line22" x1="160" x2="160" y1="100" y2="300"/><line style="fill:none;stroke:#806010;stroke-width:10" id="line24" x1="240" x2="240" y1="100" y2="300"/></svg></g></svg>