<svg xmlns="http://www.w3.org/2000/svg" xmlns:svg="http://www.w3.org/2000/svg" id="WAS-WSTMR-P----" width="165" height="300" version="1.1" viewBox="0 0 165 300"><metadata id="metadata29"/><g id="g3" transform="translate(-120,-155)"><svg id="_0.WAS-----R-P----" width="400" height="400" version="1.1" viewBox="0 0 400 400"><circle style="fill:#c61021;stroke:#c61021;stroke-width:1" id="circle6" cx="160" cy="200" r="25" d="m 185,200 c 0,13.80712 -11.19288,25 -25,25 -13.80712,0 -25,-11.19288 -25,-25 0,-13.80712 11.19288,-25 25,-25 13.80712,0 25,11.19288 25,25 z"/><line style="fill:none;stroke:#c61021;stroke-width:10" id="line8" x1="222" x2="278" y1="200" y2="200"/><line style="fill:none;stroke:#c61021;stroke-width:10" id="line10" x1="227" x2="277" y1="175" y2="225"/><line style="fill:none;stroke:#c61021;stroke-width:10" id="line12" x1="277" x2="227" y1="175" y2="225"/><line style="stroke:#c61021;stroke-width:10" id="line14" x1="225" x2="175" y1="160" y2="240"/></svg></g><g id="g16" transform="translate(-120,-5)"><svg id="_1.WAS-WST---P----" width="400" height="400" version="1.1" viewBox="0 0 400 400"><line style="stroke:#c61021;stroke-width:10" id="line19" x1="150" x2="150" y1="100" y2="300"/><polyline style="fill:none;stroke:#c61021;stroke-width:10" id="polyline21" points="125 100 275 100 217 200 275 290"/><polyline style="fill:none;stroke:#c61021;stroke-width:10" id="polyline23" points="275 250 280 300 240 275"/></svg></g></svg>