<svg xmlns="http://www.w3.org/2000/svg" xmlns:svg="http://www.w3.org/2000/svg" id="WAS-WSRFL-P----" width="390" height="190" version="1.1" viewBox="0 0 390 190"><metadata id="metadata17"/><g id="g3" transform="translate(-105,-105)"><svg id="_0.WAS-WSR--------" width="400" height="400" version="1.1" viewBox="0 0 400 400"><circle style="fill:#c61021;stroke:#c61021;stroke-width:1" id="circle6" cx="200" cy="200" r="50" d="m 250,200 c 0,27.61424 -22.38576,50 -50,50 -27.61424,0 -50,-22.38576 -50,-50 0,-27.61424 22.38576,-50 50,-50 27.61424,0 50,22.38576 50,50 z"/></svg></g><g id="g8" transform="translate(-5,-105)"><svg id="_1.WAS-WSDF-------" width="400" height="400" version="1.1" viewBox="0 0 400 400"><path style="fill:none;stroke:#c61021;stroke-width:10" id="path11" d="M 40,267 C 23,252 10,227 10,200 c 0,-50 40,-90 90,-90 50,0 80,40 100,90 20,50 50,90 100,90 50,0 90,-40 90,-90 0,-27 -13,-52 -30,-67"/></svg></g></svg>