<svg xmlns="http://www.w3.org/2000/svg" xmlns:svg="http://www.w3.org/2000/svg" id="WAS-WSS-HCP----" width="260" height="360" version="1.1" viewBox="0 0 260 360"><metadata id="metadata43"/><g id="g3" transform="translate(-70,105)"><svg id="_0.WAS-WSS-LCP----" width="400" height="400" version="1.1" viewBox="0 0 400 400"><line style="fill:none;stroke:green;stroke-width:10" id="line6" x1="150" x2="250" y1="200" y2="200"/><line style="fill:none;stroke:green;stroke-width:10" id="line8" x1="167" x2="233" y1="150" y2="250"/><line style="fill:none;stroke:green;stroke-width:10" id="line10" x1="233" x2="167" y1="150" y2="250"/></svg></g><g id="g12" transform="translate(-70,-145)"><svg id="_1.WAS-WSS-LCP----" width="400" height="400" version="1.1" viewBox="0 0 400 400"><line style="fill:none;stroke:green;stroke-width:10" id="line15" x1="150" x2="250" y1="200" y2="200"/><line style="fill:none;stroke:green;stroke-width:10" id="line17" x1="167" x2="233" y1="150" y2="250"/><line style="fill:none;stroke:green;stroke-width:10" id="line19" x1="233" x2="167" y1="150" y2="250"/></svg></g><g id="g21" transform="translate(-145,-20)"><svg id="_2.WAS-WSS-LCP----" width="400" height="400" version="1.1" viewBox="0 0 400 400"><line style="fill:none;stroke:green;stroke-width:10" id="line24" x1="150" x2="250" y1="200" y2="200"/><line style="fill:none;stroke:green;stroke-width:10" id="line26" x1="167" x2="233" y1="150" y2="250"/><line style="fill:none;stroke:green;stroke-width:10" id="line28" x1="233" x2="167" y1="150" y2="250"/></svg></g><g id="g30" transform="translate(5,-20)"><svg id="_3.WAS-WSS-LCP----" width="400" height="400" version="1.1" viewBox="0 0 400 400"><line style="fill:none;stroke:green;stroke-width:10" id="line33" x1="150" x2="250" y1="200" y2="200"/><line style="fill:none;stroke:green;stroke-width:10" id="line35" x1="167" x2="233" y1="150" y2="250"/><line style="fill:none;stroke:green;stroke-width:10" id="line37" x1="233" x2="167" y1="150" y2="250"/></svg></g></svg>