<svg xmlns="http://www.w3.org/2000/svg" xmlns:svg="http://www.w3.org/2000/svg" id="WAS-WSPLH-P----" width="230" height="360" version="1.1" viewBox="0 0 230 360"><metadata id="metadata35"/><g id="g3" transform="translate(-25,-20)"><svg id="_0.WAS-WSPLL-P----" width="400" height="400" version="1.1" viewBox="0 0 400 400"><polygon style="fill:none;stroke:#c61021;stroke-width:10" id="polygon6" points="150 250 200 150 250 250"/><circle style="fill:#c61021;stroke:#c61021;stroke-width:1" id="circle8" cx="200" cy="210" r="7.5" d="m 207.5,210 c 0,4.14214 -3.35786,7.5 -7.5,7.5 -4.14214,0 -7.5,-3.35786 -7.5,-7.5 0,-4.14214 3.35786,-7.5 7.5,-7.5 4.14214,0 7.5,3.35786 7.5,7.5 z"/></svg></g><g id="g10" transform="translate(-145,-20)"><svg id="_1.WAS-WSPLL-P----" width="400" height="400" version="1.1" viewBox="0 0 400 400"><polygon style="fill:none;stroke:#c61021;stroke-width:10" id="polygon13" points="150 250 200 150 250 250"/><circle style="fill:#c61021;stroke:#c61021;stroke-width:1" id="circle15" cx="200" cy="210" r="7.5" d="m 207.5,210 c 0,4.14214 -3.35786,7.5 -7.5,7.5 -4.14214,0 -7.5,-3.35786 -7.5,-7.5 0,-4.14214 3.35786,-7.5 7.5,-7.5 4.14214,0 7.5,3.35786 7.5,7.5 z"/></svg></g><g id="g17" transform="translate(-85,105)"><svg id="_2.WAS-WSPLL-P----" width="400" height="400" version="1.1" viewBox="0 0 400 400"><polygon style="fill:none;stroke:#c61021;stroke-width:10" id="polygon20" points="150 250 200 150 250 250"/><circle style="fill:#c61021;stroke:#c61021;stroke-width:1" id="circle22" cx="200" cy="210" r="7.5" d="m 207.5,210 c 0,4.14214 -3.35786,7.5 -7.5,7.5 -4.14214,0 -7.5,-3.35786 -7.5,-7.5 0,-4.14214 3.35786,-7.5 7.5,-7.5 4.14214,0 7.5,3.35786 7.5,7.5 z"/></svg></g><g id="g24" transform="translate(-85,-145)"><svg id="_3.WAS-WSPLL-P----" width="400" height="400" version="1.1" viewBox="0 0 400 400"><polygon style="fill:none;stroke:#c61021;stroke-width:10" id="polygon27" points="150 250 200 150 250 250"/><circle style="fill:#c61021;stroke:#c61021;stroke-width:1" id="circle29" cx="200" cy="210" r="7.5" d="m 207.5,210 c 0,4.14214 -3.35786,7.5 -7.5,7.5 -4.14214,0 -7.5,-3.35786 -7.5,-7.5 0,-4.14214 3.35786,-7.5 7.5,-7.5 4.14214,0 7.5,3.35786 7.5,7.5 z"/></svg></g></svg>