<svg xmlns="http://www.w3.org/2000/svg" xmlns:svg="http://www.w3.org/2000/svg" id="WAS-WC----P----" width="310" height="310" version="1.1" viewBox="0 0 310 310"><metadata id="metadata14"/><g id="g3" transform="translate(-45,-45)"><svg id="_0.WAS-WC----P----" width="400" height="400" version="1.1" viewBox="0 0 400 400"><circle style="fill:none;stroke:#000;stroke-width:10" id="circle6" cx="200" cy="200" r="150" d="M 350,200 C 350,282.84271 282.84271,350 200,350 117.15729,350 50,282.84271 50,200 50,117.15729 117.15729,50 200,50 c 82.84271,0 150,67.15729 150,150 z"/><circle style="fill:none;stroke:#000;stroke-width:10" id="circle8" cx="200" cy="200" r="50" d="m 250,200 c 0,27.61424 -22.38576,50 -50,50 -27.61424,0 -50,-22.38576 -50,-50 0,-27.61424 22.38576,-50 50,-50 27.61424,0 50,22.38576 50,50 z"/></svg></g></svg>