<svg xmlns="http://www.w3.org/2000/svg" xmlns:svg="http://www.w3.org/2000/svg" id="WAS-WSDD--P----" width="160" height="340" version="1.1" viewBox="0 0 160 340"><metadata id="metadata12"/><g id="g3" transform="translate(-95,-30)"><svg id="_0.WAS-WSDD--P----" width="400" height="400" version="1.1" viewBox="0 0 400 400"><path style="fill:none;stroke:#ad694a;stroke-width:10" id="path6" d="m 250,65 c 0,-20 -30,-30 -50,-30 -40,0 -100,35 -100,75 0,40 60,75 100,75 20,0 50,-10 50,-30 0,-20 -30,-30 -50,-30 -40,0 -100,35 -100,75 0,40 60,75 100,75 20,0 50,-10 50,-30 0,-20 -30,-30 -50,-30 -40,0 -100,35 -100,75 0,40 60,75 100,75 20,0 50,-10 50,-30"/></svg></g></svg>