<svg xmlns="http://www.w3.org/2000/svg" xmlns:svg="http://www.w3.org/2000/svg" id="WAS-WSMSMHP----" width="110" height="365.35" version="1.1" viewBox="0 0 110 365.35"><metadata id="metadata28"/><g id="g3" transform="translate(-145,60.35)"><svg id="_0.WAS----SMHP----" width="400" height="400" version="1.1" viewBox="0 0 400 400"><polygon style="fill:none;stroke:green;stroke-width:10" id="polygon6" points="150 150 250 150 200 300"/><line style="stroke:green;stroke-width:10" id="line8" x1="160" x2="240" y1="180" y2="180"/></svg></g><g id="g10" transform="translate(-145,-64.65)"><svg id="_1.WAS-WSS-LCP----" width="400" height="400" version="1.1" viewBox="0 0 400 400"><line style="fill:none;stroke:green;stroke-width:10" id="line13" x1="150" x2="250" y1="200" y2="200"/><line style="fill:none;stroke:green;stroke-width:10" id="line15" x1="167" x2="233" y1="150" y2="250"/><line style="fill:none;stroke:green;stroke-width:10" id="line17" x1="233" x2="167" y1="150" y2="250"/></svg></g><g id="g19" transform="matrix(0.7,0,0,0.7,-85,-104.65)"><svg id="_2.WAS-WSR--------" width="400" height="400" version="1.1" viewBox="0 0 400 400"><circle style="fill:green;stroke:green;stroke-width:1" id="circle22" cx="200" cy="200" r="50" d="m 250,200 c 0,27.61424 -22.38576,50 -50,50 -27.61424,0 -50,-22.38576 -50,-50 0,-27.61424 22.38576,-50 50,-50 27.61424,0 50,22.38576 50,50 z"/></svg></g></svg>