<svg xmlns="http://www.w3.org/2000/svg" xmlns:svg="http://www.w3.org/2000/svg" id="WO-DHPBA---L---" width="380" height="160" version="1.1" viewBox="0 0 380 160"><metadata id="metadata37"/><g id="g3" transform="matrix(0.5,0,0,0.5,140,-20)"><svg id="_0.WOS-HPBA--P----" width="400" height="400" version="1.1" viewBox="0 0 400 400"><line style="fill:none;stroke:#f0f;stroke-width:20" id="line6" x1="200" x2="200" y1="50" y2="350"/><line style="fill:none;stroke:#f0f;stroke-width:20" id="line8" x1="75" x2="325" y1="125" y2="125"/><path style="fill:none;stroke:#f0f;stroke-width:20" id="path10" d="m 35,280 c 5,50 165,70 165,70 0,0 160,-20 165,-70"/></svg></g><g id="g12" transform="translate(-160,-120)"><svg id="_1.WO-DHPBA---L---" width="400" height="400" version="1.1" viewBox="0 0 400 400"><line style="fill:none;stroke:#f0f;stroke-width:10" id="line15" x1="165" x2="235" y1="185" y2="185"/><path style="fill:none;stroke:#f0f;stroke-width:10" id="path17" d="m 174,185 c 14,40 38,40 52,0"/></svg></g><g id="g19" transform="translate(-60,-120)"><svg id="_2.WO-DHPBA---L---" width="400" height="400" version="1.1" viewBox="0 0 400 400"><line style="fill:none;stroke:#f0f;stroke-width:10" id="line22" x1="165" x2="235" y1="185" y2="185"/><path style="fill:none;stroke:#f0f;stroke-width:10" id="path24" d="m 174,185 c 14,40 38,40 52,0"/></svg></g><g id="g26" transform="translate(140,-120)"><svg id="_3.WO-DHPBA---L---" width="400" height="400" version="1.1" viewBox="0 0 400 400"><line style="fill:none;stroke:#f0f;stroke-width:10" id="line29" x1="165" x2="235" y1="185" y2="185"/><path style="fill:none;stroke:#f0f;stroke-width:10" id="path31" d="m 174,185 c 14,40 38,40 52,0"/></svg></g></svg>