<svg xmlns="http://www.w3.org/2000/svg" xmlns:svg="http://www.w3.org/2000/svg" xmlns:xlink="http://www.w3.org/1999/xlink" id="WO-DHPBA----A--" width="105" height="96" version="1.1" viewBox="0 0 105 96"><metadata id="metadata4119"/><g id="g4000" transform="matrix(0.3,0,0,0.3,-7.5,-12)"><svg id="_0.WOS-HPBA--P----" width="400" height="400" version="1.1" viewBox="0 0 400 400"><line style="fill:none;stroke:#f0f;stroke-width:20" id="line4003" x1="200" x2="200" y1="50" y2="350"/><line style="fill:none;stroke:#f0f;stroke-width:20" id="line4005" x1="75" x2="325" y1="125" y2="125"/><path style="fill:none;stroke:#f0f;stroke-width:20" id="path4007" d="m 35,280 c 5,50 165,70 165,70 0,0 160,-20 165,-70"/></svg></g><g id="g4009" transform="translate(-147.6,-270)"><svg id="_1.WO-DHPBA----A--" width="400" height="400" version="1.1" viewBox="0 0 400 400"><defs id="defs4012"><g id="chevron" transform="matrix(0.4,0,0,0.4,120,0)"><line style="fill:none;stroke:#f0f;stroke-width:10" id="line4015" x1="165" x2="235" y1="185" y2="185"/><path style="fill:none;stroke:#f0f;stroke-width:10" id="path4017" d="m 174,185 c 14,40 38,40 52,0"/></g></defs><g id="g4019"><use id="use4021" width="400" height="400" x="0" y="0" xlink:href="#chevron"/></g><g id="g4023" transform="matrix(0.96592583,0.25881905,-0.25881905,0.96592583,58.578644,-44.948974)"><use id="use4025" width="400" height="400" x="0" y="0" xlink:href="#chevron"/></g><g id="g4027" transform="matrix(0.8660254,0.5,-0.5,0.8660254,126.79492,-73.205081)"><use id="use4029" width="400" height="400" x="0" y="0" xlink:href="#chevron"/></g><g id="g4031" transform="matrix(0.70710678,0.70710678,-0.70710678,0.70710678,200,-82.842712)"><use id="use4033" width="400" height="400" x="0" y="0" xlink:href="#chevron"/></g><g id="g4035" transform="matrix(0.5,0.8660254,-0.8660254,0.5,273.20508,-73.205081)"><use id="use4037" width="400" height="400" x="0" y="0" xlink:href="#chevron"/></g><g id="g4039" transform="matrix(0.25881905,0.96592583,-0.96592583,0.25881905,341.42136,-44.948974)"><use id="use4041" width="400" height="400" x="0" y="0" xlink:href="#chevron"/></g><g id="g4043" transform="matrix(0,1,-1,0,400,0)"><use id="use4045" width="400" height="400" x="0" y="0" xlink:href="#chevron"/></g><g id="g4047" transform="matrix(-0.25881905,0.96592583,-0.96592583,-0.25881905,444.94897,58.578644)"><use id="use4049" width="400" height="400" x="0" y="0" xlink:href="#chevron"/></g><g id="g4051" transform="matrix(-0.5,0.8660254,-0.8660254,-0.5,473.20508,126.79492)"><use id="use4053" width="400" height="400" x="0" y="0" xlink:href="#chevron"/></g><g id="g4055" transform="matrix(-0.70710678,0.70710678,-0.70710678,-0.70710678,482.84271,200)"><use id="use4057" width="400" height="400" x="0" y="0" xlink:href="#chevron"/></g><g id="g4059" transform="matrix(-0.8660254,0.5,-0.5,-0.8660254,473.20508,273.20508)"><use id="use4061" width="400" height="400" x="0" y="0" xlink:href="#chevron"/></g><g id="g4063" transform="matrix(-0.96592583,0.25881905,-0.25881905,-0.96592583,444.94897,341.42136)"><use id="use4065" width="400" height="400" x="0" y="0" xlink:href="#chevron"/></g><g id="g4067" transform="matrix(-1,0,0,-1,400,400)"><use id="use4069" width="400" height="400" x="0" y="0" xlink:href="#chevron"/></g><g id="g4071" transform="matrix(-0.96592583,-0.25881905,0.25881905,-0.96592583,341.42136,444.94897)"><use id="use4073" width="400" height="400" x="0" y="0" xlink:href="#chevron"/></g><g id="g4075" transform="matrix(-0.8660254,-0.5,0.5,-0.8660254,273.20508,473.20508)"><use id="use4077" width="400" height="400" x="0" y="0" xlink:href="#chevron"/></g><g id="g4079" transform="matrix(-0.70710678,-0.70710678,0.70710678,-0.70710678,200,482.84271)"><use id="use4081" width="400" height="400" x="0" y="0" xlink:href="#chevron"/></g><g id="g4083" transform="matrix(-0.5,-0.8660254,0.8660254,-0.5,126.79492,473.20508)"><use id="use4085" width="400" height="400" x="0" y="0" xlink:href="#chevron"/></g><g id="g4087" transform="matrix(-0.25881905,-0.96592583,0.96592583,-0.25881905,58.578644,444.94897)"><use id="use4089" width="400" height="400" x="0" y="0" xlink:href="#chevron"/></g><g id="g4091" transform="matrix(0,-1,1,0,0,400)"><use id="use4093" width="400" height="400" x="0" y="0" xlink:href="#chevron"/></g><g id="g4095" transform="matrix(0.25881905,-0.96592583,0.96592583,0.25881905,-44.948974,341.42136)"><use id="use4097" width="400" height="400" x="0" y="0" xlink:href="#chevron"/></g><g id="g4099" transform="matrix(0.5,-0.8660254,0.8660254,0.5,-73.205081,273.20508)"><use id="use4101" width="400" height="400" x="0" y="0" xlink:href="#chevron"/></g><g id="g4103" transform="matrix(0.70710678,-0.70710678,0.70710678,0.70710678,-82.842712,200)"><use id="use4105" width="400" height="400" x="0" y="0" xlink:href="#chevron"/></g><g id="g4107" transform="matrix(0.8660254,-0.5,0.5,0.8660254,-73.205081,126.79492)"><use id="use4109" width="400" height="400" x="0" y="0" xlink:href="#chevron"/></g><g id="g4111" transform="matrix(0.96592583,-0.25881905,0.25881905,0.96592583,-44.948974,58.578644)"><use id="use4113" width="400" height="400" x="0" y="0" xlink:href="#chevron"/></g></svg></g></svg>