<svg xmlns="http://www.w3.org/2000/svg" xmlns:svg="http://www.w3.org/2000/svg" id="WO-DHPMO--P----" width="360" height="360" version="1.1" viewBox="0 0 360 360"><metadata id="metadata18"/><g id="g3" transform="translate(-20,-25)"><svg id="_0.WO-DHPMO--P----" width="400" height="400" version="1.1" viewBox="0 0 400 400"><line style="fill:none;stroke:#000;stroke-width:10" id="line6" x1="25" x2="375" y1="350" y2="350"/><polyline style="fill:none;stroke:#000;stroke-width:10" id="polyline8" points="50 350 100 125 300 125 350 350"/><circle style="fill:none;stroke:#000;stroke-width:10" id="circle10" cx="200" cy="75" r="45" d="m 245,75 c 0,24.852814 -20.14719,45 -45,45 -24.85281,0 -45,-20.147186 -45,-45 0,-24.852814 20.14719,-45 45,-45 24.85281,0 45,20.147186 45,45 z"/><circle style="fill:#fff;stroke:#000;stroke-width:10" id="circle12" cx="200" cy="350" r="30" d="m 230,350 c 0,16.56854 -13.43146,30 -30,30 -16.56854,0 -30,-13.43146 -30,-30 0,-16.56854 13.43146,-30 30,-30 16.56854,0 30,13.43146 30,30 z"/></svg></g></svg>