<svg xmlns="http://www.w3.org/2000/svg" xmlns:svg="http://www.w3.org/2000/svg" xmlns:xlink="http://www.w3.org/1999/xlink" id="WOS-HALH--P----" width="320" height="280" version="1.1" viewBox="0 0 320 280"><metadata id="metadata5355"/><g id="g5299" transform="translate(-40,-80)"><svg id="_0.WOS-HALH--P----" width="400" height="400" version="1.1" viewBox="0 0 400 400"><defs id="defs5302"><g id="rayOfLight"><line style="fill:none;stroke:#000;stroke-width:10" id="line5305" x1="200" x2="200" y1="10" y2="70"/></g></defs><line style="fill:none;stroke:#000;stroke-width:20" id="line5307" x1="50" x2="350" y1="350" y2="350"/><circle style="fill:none;stroke:#000;stroke-width:10" id="circle5309" cx="200" cy="125" r="40" d="m 240,125 c 0,22.09139 -17.90861,40 -40,40 -22.09139,0 -40,-17.90861 -40,-40 0,-22.09139 17.90861,-40 40,-40 22.09139,0 40,17.90861 40,40 z"/><line style="fill:none;stroke:#000;stroke-width:10" id="line5311" x1="125" x2="166" y1="350" y2="146"/><line style="fill:none;stroke:#000;stroke-width:10" id="line5313" x1="275" x2="234" y1="350" y2="146"/><g id="g5315" transform="matrix(0,-1,1,0,75,325)"><use id="use5317" width="400" height="400" x="0" y="0" xlink:href="#rayOfLight"/></g><g id="g5319" transform="matrix(0.38268343,-0.92387953,0.92387953,0.38268343,7.978372,261.94048)"><use id="use5321" width="400" height="400" x="0" y="0" xlink:href="#rayOfLight"/></g><g id="g5323" transform="matrix(0.70710678,-0.70710678,0.70710678,0.70710678,-29.809704,178.03301)"><use id="use5325" width="400" height="400" x="0" y="0" xlink:href="#rayOfLight"/></g><g id="g5327" transform="matrix(0.92387953,-0.38268343,0.38268343,0.92387953,-32.611336,86.051745)"><use id="use5329" width="400" height="400" x="0" y="0" xlink:href="#rayOfLight"/></g><g id="g5331"><use id="use5333" width="400" height="400" x="0" y="0" xlink:href="#rayOfLight"/></g><g id="g5335" transform="matrix(0.92387953,0.38268343,-0.38268343,0.92387953,63.059523,-67.021628)"><use id="use5337" width="400" height="400" x="0" y="0" xlink:href="#rayOfLight"/></g><g id="g5339" transform="matrix(0.70710678,0.70710678,-0.70710678,0.70710678,146.96699,-104.8097)"><use id="use5341" width="400" height="400" x="0" y="0" xlink:href="#rayOfLight"/></g><g id="g5343" transform="matrix(0.38268343,0.92387953,-0.92387953,0.38268343,238.94826,-107.61134)"><use id="use5345" width="400" height="400" x="0" y="0" xlink:href="#rayOfLight"/></g><g id="g5347" transform="matrix(0,1,-1,0,325,-75)"><use id="use5349" width="400" height="400" x="0" y="0" xlink:href="#rayOfLight"/></g></svg></g></svg>