<svg xmlns="http://www.w3.org/2000/svg" xmlns:svg="http://www.w3.org/2000/svg" id="WOS-IBII--P----" width="310" height="260" version="1.1" viewBox="0 0 310 260"><metadata id="metadata56"/><g id="g3" transform="translate(-45,-70)"><svg id="_0.WOS-IBII--P----" width="400" height="400" version="1.1" viewBox="0 0 400 400"><polygon style="fill:none;stroke:#000;stroke-width:10" id="polygon6" points="350 200 275 325 125 325 50 200 125 75 275 75"/><line style="fill:none;stroke:#000;stroke-width:5" id="line8" x1="337.2" x2="250" y1="180" y2="325"/><line style="fill:none;stroke:#000;stroke-width:5" id="line10" x1="324.8" x2="225" y1="159" y2="325"/><line style="fill:none;stroke:#000;stroke-width:5" id="line12" x1="312.4" x2="200" y1="138" y2="325"/><line style="fill:none;stroke:#000;stroke-width:5" id="line14" x1="300" x2="175" y1="117" y2="325"/><line style="fill:none;stroke:#000;stroke-width:5" id="line16" x1="287.6" x2="150" y1="96" y2="325"/><line style="fill:none;stroke:#000;stroke-width:5" id="line18" x1="275" x2="125" y1="75" y2="325"/><line style="fill:none;stroke:#000;stroke-width:5" id="line20" x1="250" x2="112" y1="75" y2="305"/><line style="fill:none;stroke:#000;stroke-width:5" id="line22" x1="225" x2="99.6" y1="75" y2="284"/><line style="fill:none;stroke:#000;stroke-width:5" id="line24" x1="200" x2="87.2" y1="75" y2="263"/><line style="fill:none;stroke:#000;stroke-width:5" id="line26" x1="175" x2="74.8" y1="75" y2="242"/><line style="fill:none;stroke:#000;stroke-width:5" id="line28" x1="150" x2="62.4" y1="75" y2="221"/><line style="fill:none;stroke:#000;stroke-width:5" id="line30" x1="150" x2="62.4" y1="325" y2="180"/><line style="fill:none;stroke:#000;stroke-width:5" id="line32" x1="175" x2="74.8" y1="325" y2="159"/><line style="fill:none;stroke:#000;stroke-width:5" id="line34" x1="200" x2="87.2" y1="325" y2="138"/><line style="fill:none;stroke:#000;stroke-width:5" id="line36" x1="225" x2="99.6" y1="325" y2="117"/><line style="fill:none;stroke:#000;stroke-width:5" id="line38" x1="250" x2="112" y1="325" y2="96"/><line style="fill:none;stroke:#000;stroke-width:5" id="line40" x1="275" x2="125" y1="325" y2="75"/><line style="fill:none;stroke:#000;stroke-width:5" id="line42" x1="287.6" x2="150" y1="305" y2="75"/><line style="fill:none;stroke:#000;stroke-width:5" id="line44" x1="300" x2="175" y1="284" y2="75"/><line style="fill:none;stroke:#000;stroke-width:5" id="line46" x1="312.4" x2="200" y1="263" y2="75"/><line style="fill:none;stroke:#000;stroke-width:5" id="line48" x1="324.8" x2="225" y1="242" y2="75"/><line style="fill:none;stroke:#000;stroke-width:5" id="line50" x1="337.2" x2="250" y1="221" y2="75"/></svg></g></svg>