<svg xmlns="http://www.w3.org/2000/svg" xmlns:svg="http://www.w3.org/2000/svg" id="WOS-HABB--P----" width="360.813" height="235" version="1.1" viewBox="0 0 360.813 235"><metadata id="metadata18"/><g id="g3" transform="translate(-20,-97.5)"><svg id="_0.WOS-HABB--P----" width="400" height="400" version="1.1" viewBox="0 0 400 400"><line style="fill:none;stroke:#000;stroke-width:10" id="line6" x1="25" x2="375" y1="300" y2="300"/><circle style="fill:#fff;stroke:#000;stroke-width:5" id="circle8" cx="200" cy="200" r="100" d="m 300,200 c 0,55.22847 -44.77153,100 -100,100 -55.22847,0 -100,-44.77153 -100,-100 0,-55.22847 44.77153,-100 100,-100 55.22847,0 100,44.77153 100,100 z"/><circle style="fill:#fff;stroke:#000;stroke-width:5" id="circle10" cx="200" cy="300" r="30" d="m 230,300 c 0,16.56854 -13.43146,30 -30,30 -16.56854,0 -30,-13.43146 -30,-30 0,-16.56854 13.43146,-30 30,-30 16.56854,0 30,13.43146 30,30 z"/><text style="font-size:120px;fill:#f0f;stroke:#f0f;font-family:Times" id="text12" x="325" y="246">?</text></svg></g></svg>