<svg xmlns="http://www.w3.org/2000/svg" xmlns:svg="http://www.w3.org/2000/svg" id="WOS-HALV--P----" width="420" height="300" version="1.1" viewBox="0 0 420 300"><metadata id="metadata28"/><g id="g3" transform="translate(10,-45)"><svg id="_0.WOS-HALV--P----" width="400" height="400" version="1.1" viewBox="0 0 400 400"><line style="fill:none;stroke:#000;stroke-width:20" id="line6" x1="0" x2="400" y1="300" y2="300"/><circle style="fill:#fff;stroke:#000;stroke-width:10" id="circle8" cx="200" cy="300" r="40" d="m 240,300 c 0,22.09139 -17.90861,40 -40,40 -22.09139,0 -40,-17.90861 -40,-40 0,-22.09139 17.90861,-40 40,-40 22.09139,0 40,17.90861 40,40 z"/><path style="fill:none;stroke:#000;stroke-width:10" id="path10" d="M 50,300 10,200 c 25,25 100,25 100,25 l 180,0 c 0,0 75,0 100,-25 l -40,100"/><line style="fill:none;stroke:#000;stroke-width:10" id="line12" x1="30" x2="100" y1="250" y2="250"/><line style="fill:none;stroke:#000;stroke-width:10" id="line14" x1="370" x2="300" y1="250" y2="250"/><line style="fill:none;stroke:#000;stroke-width:10" id="line16" x1="200" x2="200" y1="225" y2="50"/><line style="fill:none;stroke:#000;stroke-width:10" id="line18" x1="100" x2="100" y1="225" y2="100"/><line style="fill:none;stroke:#000;stroke-width:10" id="line20" x1="300" x2="300" y1="225" y2="100"/><line style="fill:none;stroke:#000;stroke-width:20" id="line22" x1="180" x2="220" y1="75" y2="75"/></svg></g></svg>