<svg xmlns="http://www.w3.org/2000/svg" xmlns:svg="http://www.w3.org/2000/svg" id="WOS-TCCW--P----" width="306.5" height="106.557" version="1.1" viewBox="0 0 306.5 106.557"><metadata id="metadata12"/><g id="g3" transform="translate(-46,-146.44266)"><svg id="_0.WOS-TCCW--P----" width="400" height="400" version="1.1" viewBox="0 0 400 400"><path style="fill:none;stroke:gray;stroke-width:5" id="path6" d="m 48.5,250.5 c 34.394,-12.049 46.784,-101.958 67.111,-101.556 6.655,0.132 11.574,3.406 12.445,6.889 9.553,38.215 -54.7431,18.148 21.944,94.167 32.894,-11.549 45.284,-101.458 65.611,-101.056 6.655,0.132 11.574,3.406 12.445,6.889 9.553,38.215 -54.743,18.148 21.944,94.167 32.894,-11.549 45.284,-101.458 65.611,-101.056 6.655,0.132 11.574,3.406 12.445,6.889 9.553,38.215 -54.743,18.148 21.944,94.167"/></svg></g></svg>