<svg xmlns="http://www.w3.org/2000/svg" xmlns:svg="http://www.w3.org/2000/svg" id="WOS-HPFS--P----" width="370" height="310" version="1.1" viewBox="0 0 370 310"><metadata id="metadata28"/><g id="g3" transform="translate(-15,-45)"><svg id="_0.WOS-HOFS--P----" width="400" height="400" version="1.1" viewBox="0 0 400 400"><path style="fill:none;stroke:silver;stroke-width:10" id="path6" d="m 50,250 50,-50 c 65,-75 185,-75 250,0 -65,75 -185,75 -250,0 L 50,150"/><polyline style="fill:none;stroke:silver;stroke-width:10" id="polyline8" points="20 150 20 50 380 50 380 150"/><line style="fill:none;stroke:silver;stroke-width:10" id="line10" x1="200" x2="200" y1="50" y2="150"/><line style="fill:none;stroke:silver;stroke-width:10" id="line12" x1="290" x2="290" y1="50" y2="150"/><line style="fill:none;stroke:silver;stroke-width:10" id="line14" x1="110" x2="110" y1="50" y2="150"/><polyline style="fill:none;stroke:silver;stroke-width:10" id="polyline16" points="20 250 20 350 380 350 380 250"/><line style="fill:none;stroke:silver;stroke-width:10" id="line18" x1="200" x2="200" y1="350" y2="250"/><line style="fill:none;stroke:silver;stroke-width:10" id="line20" x1="290" x2="290" y1="350" y2="250"/><line style="fill:none;stroke:silver;stroke-width:10" id="line22" x1="110" x2="110" y1="350" y2="250"/></svg></g></svg>