<svg xmlns="http://www.w3.org/2000/svg" xmlns:svg="http://www.w3.org/2000/svg" id="WOS-HPB-A-P----" width="350" height="320" version="1.1" viewBox="0 0 350 320"><metadata id="metadata21"/><g id="g3" transform="translate(-25,-40)"><svg id="_0.WOS-HPBA--P----" width="400" height="400" version="1.1" viewBox="0 0 400 400"><line style="fill:none;stroke:#f0f;stroke-width:20" id="line6" x1="200" x2="200" y1="50" y2="350"/><line style="fill:none;stroke:#f0f;stroke-width:20" id="line8" x1="75" x2="325" y1="125" y2="125"/><path style="fill:none;stroke:#f0f;stroke-width:20" id="path10" d="m 35,280 c 5,50 165,70 165,70 0,0 160,-20 165,-70"/></svg></g><g id="g12" transform="matrix(0.5,0,0,0.5,75,60)"><svg id="_1.WOS-HPB---P----" width="400" height="400" version="1.1" viewBox="0 0 400 400"><circle style="fill:#fff;stroke:#f0f;stroke-width:10" id="circle15" cx="200" cy="200" r="100" d="m 300,200 c 0,55.22847 -44.77153,100 -100,100 -55.22847,0 -100,-44.77153 -100,-100 0,-55.22847 44.77153,-100 100,-100 55.22847,0 100,44.77153 100,100 z"/></svg></g></svg>