<svg xmlns="http://www.w3.org/2000/svg" xmlns:svg="http://www.w3.org/2000/svg" id="svg2" width="400" height="400" version="1.1" viewBox="0 0 400 400"><metadata id="metadata22"/><g id="g4" transform="scale(0.8 0.8) translate(50 55)"><polyline style="fill:#fff;stroke:#000;stroke-width:10;stroke-dasharray:10" id="polyline6" points="120 160 120 240 210 240 250 280 250 120 210 160 120 160 120 240"/><line style="stroke:#000;stroke-width:10;stroke-dasharray:10" id="line8" x1="250" x2="290" y1="217" y2="217"/><line style="stroke:#000;stroke-width:10;stroke-dasharray:10" id="line10" x1="250" x2="290" y1="183" y2="183"/><line style="stroke:#000;stroke-width:10;stroke-dasharray:10" id="line12" x1="250" x2="290" y1="150" y2="150" transform="translate(270 150) scale(1 1) translate(-270 -150)"/><line style="stroke:#000;stroke-width:10;stroke-dasharray:10" id="line14" x1="250" x2="290" y1="250" y2="250"/></g><g style="font-size:65px;font-weight:700;text-anchor:middle;fill:#000;font-family:Arial" id="text16"><path style="font-size:65px;font-weight:700;text-anchor:middle;fill:#000;font-family:Arial" id="path3000" d="m 140.67139,160 -11.1084,-46.52832 9.6167,0 7.01416,31.96045 8.50586,-31.96045 11.17187,0 8.15674,32.5 7.14111,-32.5 9.45801,0 L 179.32861,160 169.36279,160 160.09521,125.21484 150.85937,160 z"/></g></svg>