<svg xmlns="http://www.w3.org/2000/svg" xmlns:svg="http://www.w3.org/2000/svg" id="svg2" width="400" height="400" version="1.1" viewBox="0 0 400 400"><metadata id="metadata16"/><ellipse style="fill:none;stroke:#fff;stroke-width:10;stroke-dasharray:10" id="ellipse4" cx="200" cy="180" rx="20" ry="20"/><line style="stroke:#fff;stroke-width:10;stroke-dasharray:10" id="line6" x1="200" x2="200" y1="200" y2="310"/><line style="stroke:#fff;stroke-width:10;stroke-dasharray:10" id="line8" x1="170" x2="230" y1="230" y2="230"/><g style="font-size:55px;font-weight:700;text-anchor:middle;fill:#fff;font-family:Arial" id="text10"><path style="font-size:55px;font-weight:700;text-anchor:middle;fill:#fff;font-family:Arial" id="path2994" d="m 157.86377,145 0,-32.70996 -11.68213,0 0,-6.66016 31.28662,0 0,6.66016 -11.65527,0 0,32.70996 z"/><path style="font-size:55px;font-weight:700;text-anchor:middle;fill:#fff;font-family:Arial" id="path2996" d="m 200.93994,130.5249 0,-6.6333 17.13379,0 0,15.6836 c -1.66508,1.61133 -4.07759,3.03019 -7.23755,4.25659 -3.16002,1.2264 -6.36029,1.8396 -9.60083,1.8396 -4.11786,0 -7.70753,-0.86385 -10.76904,-2.59156 -3.06153,-1.72769 -5.36215,-4.19839 -6.90186,-7.41211 -1.53971,-3.21369 -2.30957,-6.70937 -2.30957,-10.48706 0,-4.09991 0.85937,-7.7433 2.57813,-10.93017 1.71874,-3.18682 4.2342,-5.63066 7.54638,-7.33154 2.5244,-1.30693 5.66649,-1.96041 9.42627,-1.96045 4.88767,4e-5 8.70562,1.02502 11.45386,3.07495 2.74817,2.05 4.51616,4.88325 5.30396,8.49975 l -7.89551,1.47705 c -0.55504,-1.93356 -1.59793,-3.45985 -3.12866,-4.57885 -1.53079,-1.11895 -3.442,-1.67844 -5.73365,-1.67847 -3.47332,3e-5 -6.23496,1.10111 -8.28491,3.30322 -2.04998,2.20218 -3.07496,5.46959 -3.07495,9.80225 -1e-5,4.67287 1.0384,8.1775 3.11524,10.51391 2.0768,2.33644 4.79815,3.50465 8.16406,3.50464 1.66501,1e-5 3.33453,-0.32673 5.00854,-0.98022 1.67396,-0.65348 3.11073,-1.44571 4.31031,-2.37671 l 0,-4.99512 z"/><path style="font-size:55px;font-weight:700;text-anchor:middle;fill:#fff;font-family:Arial" id="path2998" d="m 234.24072,145 0,-32.70996 -11.68213,0 0,-6.66016 31.28662,0 0,6.66016 -11.65527,0 0,32.70996 z"/></g></svg>