<svg xmlns="http://www.w3.org/2000/svg" xmlns:svg="http://www.w3.org/2000/svg" id="svg2" width="400" height="400" version="1.1" viewBox="0 0 400 400"><metadata id="metadata18"/><line style="stroke:#fff;stroke-width:10;stroke-dasharray:10" id="line4" x1="96" x2="304" y1="130" y2="270"/><ellipse style="fill:none;stroke:#fff;stroke-width:10;stroke-dasharray:10" id="ellipse6" cx="200" cy="180" rx="20" ry="20"/><line style="stroke:#fff;stroke-width:10;stroke-dasharray:10" id="line8" x1="200" x2="200" y1="200" y2="310"/><line style="stroke:#fff;stroke-width:10;stroke-dasharray:10" id="line10" x1="170" x2="230" y1="230" y2="230"/><g style="font-size:65px;font-weight:700;text-anchor:middle;fill:#fff;font-family:Arial" id="text12"><path style="font-size:65px;font-weight:700;text-anchor:middle;fill:#fff;font-family:Arial" id="path2996" d="m 154.01123,150 0,-46.52832 14.06006,0 8.44238,31.73828 8.34717,-31.73828 14.0918,0 0,46.52832 -8.72803,0 0,-36.62598 -9.23584,36.62598 -9.04541,0 -9.2041,-36.62598 0,36.62598 z"/><path style="font-size:65px;font-weight:700;text-anchor:middle;fill:#fff;font-family:Arial" id="path2998" d="m 208.28369,103.47168 9.39453,0 0,25.20019 c -1e-5,3.99905 0.11636,6.591 0.34912,7.77588 0.40201,1.90431 1.35944,3.43304 2.87232,4.58619 1.51284,1.15316 3.58111,1.72974 6.20483,1.72973 2.66599,1e-5 4.67608,-0.54483 6.03028,-1.63452 1.35413,-1.08967 2.16875,-2.42797 2.44384,-4.01489 0.27504,-1.5869 0.41257,-4.22118 0.4126,-7.90283 l 0,-25.73975 9.39453,0 0,24.43848 c -4e-5,5.58595 -0.25395,9.53207 -0.76172,11.83838 -0.50785,2.30632 -1.44413,4.25293 -2.80883,5.83984 -1.36479,1.58692 -3.18974,2.85116 -5.47486,3.79272 -2.28518,0.94157 -5.26858,1.41236 -8.95019,1.41236 -4.44338,0 -7.81293,-0.51311 -10.10865,-1.53931 -2.29574,-1.0262 -4.11011,-2.35921 -5.44311,-3.99902 -1.33302,-1.63981 -2.21111,-3.35896 -2.63428,-5.15747 -0.61361,-2.66601 -0.92041,-6.60155 -0.92041,-11.80664 z"/></g></svg>