<svg xmlns="http://www.w3.org/2000/svg" xmlns:svg="http://www.w3.org/2000/svg" id="svg2" width="400" height="400" version="1.1" viewBox="0 0 400 400"><metadata id="metadata18"/><line style="stroke:#fff;stroke-width:10;stroke-dasharray:10" id="line4" x1="96" x2="304" y1="130" y2="270"/><ellipse style="fill:none;stroke:#fff;stroke-width:10;stroke-dasharray:10" id="ellipse6" cx="200" cy="180" rx="20" ry="20"/><line style="stroke:#fff;stroke-width:10;stroke-dasharray:10" id="line8" x1="200" x2="200" y1="200" y2="310"/><line style="stroke:#fff;stroke-width:10;stroke-dasharray:10" id="line10" x1="170" x2="230" y1="230" y2="230"/><g style="font-size:65px;font-weight:700;text-anchor:middle;fill:#fff;font-family:Arial" id="text12"><path style="font-size:65px;font-weight:700;text-anchor:middle;fill:#fff;font-family:Arial" id="path2996" d="m 161.31104,150 0,-46.52832 34.49951,0 0,7.87109 -25.10498,0 0,10.31494 23.35937,0 0,7.83936 -23.35937,0 0,12.66357 25.99365,0 0,7.83936 z"/><path style="font-size:65px;font-weight:700;text-anchor:middle;fill:#fff;font-family:Arial" id="path2998" d="m 200,150 15.90088,-24.27979 -14.40918,-22.24853 10.98144,0 9.33106,14.94873 9.14062,-14.94873 10.88623,0 L 227.3584,126.06934 243.25928,150 231.92871,150 221.61377,133.90869 211.26709,150 z"/></g></svg>