<svg xmlns:xlink="http://www.w3.org/1999/xlink" width="400" height="400" viewBox="0 0 400 400"><g><path d="M95 200 C95 230 137 230 137 200 C137 170 179 170 179 200 C179 230 221 230 221 200 C221 170 263 170 263 200" transform="translate(370 21) rotate(90)" style="fill:none;stroke:#fff;stroke-width:10;stroke-dasharray:10"/></g><g><path d="M95 200 C95 230 137 230 137 200 C137 170 179 170 179 200 C179 230 221 230 221 200 C221 170 263 170 263 200" transform="translate(430 21) rotate(90)" style="fill:none;stroke:#fff;stroke-width:10;stroke-dasharray:10"/></g></svg>