<svg xmlns="http://www.w3.org/2000/svg" xmlns:svg="http://www.w3.org/2000/svg" id="svg2" width="400" height="400" version="1.1" viewBox="0 0 400 400"><metadata id="metadata10"/><g style="font-size:90px;font-weight:700;text-anchor:middle;fill:#fff;stroke:#000;stroke-width:4;stroke-miterlimit:4;stroke-opacity:1;stroke-dasharray:8,4;stroke-dashoffset:0;font-family:Arial" id="text4"><path style="font-size:90px;font-weight:700;text-anchor:middle;fill:#fff;stroke:#000;stroke-width:4;stroke-miterlimit:4;stroke-opacity:1;stroke-dasharray:8,4;stroke-dashoffset:0;font-family:Arial" id="path2988" d="m 113.20801,232 -15.380862,-64.42383 13.315432,0 9.71191,44.25293 11.77735,-44.25293 15.46875,0 11.29394,45 9.8877,-45 13.0957,0 L 166.7334,232 152.93457,232 140.10254,183.83594 127.31445,232 z"/><path style="font-size:90px;font-weight:700;text-anchor:middle;fill:#fff;stroke:#000;stroke-width:4;stroke-miterlimit:4;stroke-opacity:1;stroke-dasharray:8,4;stroke-dashoffset:0;font-family:Arial" id="path2990" d="m 189.01367,232 0,-64.42383 13.00781,0 0,25.35645 25.48829,0 0,-25.35645 13.00781,0 0,64.42383 -13.00781,0 0,-28.16895 -25.48829,0 0,28.16895 z"/><path style="font-size:90px;font-weight:700;text-anchor:middle;fill:#fff;stroke:#000;stroke-width:4;stroke-miterlimit:4;stroke-opacity:1;stroke-dasharray:8,4;stroke-dashoffset:0;font-family:Arial" id="path2992" d="m 268.51074,232 0,-53.52539 -19.11621,0 0,-10.89844 51.19629,0 0,10.89844 -19.07227,0 0,53.52539 z"/></g></svg>