<svg xmlns="http://www.w3.org/2000/svg" xmlns:svg="http://www.w3.org/2000/svg" id="svg2" width="400" height="400" version="1.1" viewBox="0 0 400 400"><metadata id="metadata32"/><ellipse style="fill:none;stroke:#fff;stroke-width:10;stroke-dasharray:10" id="ellipse4" cx="200" cy="195" rx="20" ry="20"/><line style="stroke:#fff;stroke-width:10;stroke-dasharray:10" id="line6" x1="200" x2="200" y1="215" y2="310"/><line style="stroke:#fff;stroke-width:10;stroke-dasharray:10" id="line8" x1="175" x2="225" y1="240" y2="240"/><g id="g10" transform="translate(-60 -20)"><ellipse style="fill:none;stroke:#fff;stroke-width:10;stroke-dasharray:10" id="ellipse12" cx="200" cy="195" d="m 220,195 c 0,11.04569 -8.95431,20 -20,20 -11.04569,0 -20,-8.95431 -20,-20 0,-11.04569 8.95431,-20 20,-20 11.04569,0 20,8.95431 20,20 z" rx="20" ry="20"/><line style="stroke:#fff;stroke-width:10;stroke-dasharray:10" id="line14" x1="200" x2="200" y1="215" y2="310"/><line style="stroke:#fff;stroke-width:10;stroke-dasharray:10" id="line16" x1="175" x2="225" y1="240" y2="240"/></g><g id="g18" transform="translate(60 -20)"><ellipse style="fill:none;stroke:#fff;stroke-width:10;stroke-dasharray:10" id="ellipse20" cx="200" cy="195" d="m 220,195 c 0,11.04569 -8.95431,20 -20,20 -11.04569,0 -20,-8.95431 -20,-20 0,-11.04569 8.95431,-20 20,-20 11.04569,0 20,8.95431 20,20 z" rx="20" ry="20"/><line style="stroke:#fff;stroke-width:10;stroke-dasharray:10" id="line22" x1="200" x2="200" y1="215" y2="310"/><line style="stroke:#fff;stroke-width:10;stroke-dasharray:10" id="line24" x1="175" x2="225" y1="240" y2="240"/></g><g style="font-size:55px;font-weight:700;text-anchor:middle;fill:#fff;font-family:Arial" id="text26"><path style="font-size:55px;font-weight:700;text-anchor:middle;fill:#fff;font-family:Arial" id="path3010" d="m 170.43213,145 0,-39.37012 26.98974,0 0,6.66016 -19.04052,0 0,9.31885 16.43554,0 0,6.66015 -16.43554,0 0,16.73096 z"/><path style="font-size:55px;font-weight:700;text-anchor:middle;fill:#fff;font-family:Arial" id="path3012" d="m 204.05518,145 0,-39.37012 26.98974,0 0,6.66016 -19.04053,0 0,9.31885 16.43555,0 0,6.66015 -16.43555,0 0,16.73096 z"/></g></svg>