<svg xmlns:xlink="http://www.w3.org/1999/xlink" width="400" height="400" viewBox="0 0 400 400"><text style="fill:#fff;font-family:Arial;font-size:88;font-weight:700;text-anchor:middle" x="202" y="225">IED</text><polyline points="86.4 197.2 125.6 167.6 118.4 122.8 148.8 144.4 157.6 104.4 183.2 151.6 196 90.8 213.6 137.2 242.4 102.8 248 147.6 276.8 123.6 276.8 173.2 311.2 204.4 276.8 233.2 284 265.2 251.2 249.2 246.4 289.2 220.8 243.6 200 308.4 179.2 258.8 160.8 284.4 144.8 236.4 111.2 250.8 121.6 228.4 86.4 197.2" transform="matrix(1 0 0 1 0 0)" style="fill:none;stroke:#fff;stroke-width:8"/></svg>