<svg xmlns="http://www.w3.org/2000/svg" xmlns:svg="http://www.w3.org/2000/svg" id="G*GPAPD---****X" width="145" height="280" contentScriptType="application/ecmascript" contentStyleType="text/css" preserveAspectRatio="xMidYMid meet" version="1.1" viewBox="0 0 145 280" zoomAndPan="magnify"><metadata id="metadata27"/><g id="g3" transform="translate(-127.5,-97.5)"><svg id="_0.GP------------X" width="400" height="400" contentScriptType="application/ecmascript" contentStyleType="text/css" preserveAspectRatio="xMidYMid meet" version="1.1" viewBox="0 0 400 400" zoomAndPan="magnify"><rect style="fill:none;stroke:#fff;stroke-width:5;stroke-dasharray:20,15" id="rect6" width="140" height="180" x="130" y="100"/><polyline style="fill:none;stroke:#fff;stroke-width:5;stroke-dasharray:20,15" id="polyline8" points="130 281 200 375 270 281"/></svg></g><g id="g10" transform="translate(-127.5,-97.5)"><svg id="_1.G-G-APD-------X" width="400" height="400" contentScriptType="application/ecmascript" contentStyleType="text/css" preserveAspectRatio="xMidYMid meet" version="1.1" viewBox="0 0 400 400" zoomAndPan="magnify"><line style="fill:none;stroke:#fff;stroke-width:5" id="line13" x1="160" x2="240" y1="265" y2="265"/><line style="fill:none;stroke:#fff;stroke-width:5" id="line15" x1="200" x2="200" y1="265" y2="180"/><line style="fill:none;stroke:#fff;stroke-width:5" id="line17" x1="200" x2="250" y1="180" y2="130"/><line style="fill:none;stroke:#fff;stroke-width:5" id="line19" x1="200" x2="150" y1="180" y2="130"/><circle style="fill:#fff;stroke:#fff;stroke-width:1" id="circle21" cx="200" cy="135" r="25" d="m 225,135 c 0,13.80712 -11.19288,25 -25,25 -13.80712,0 -25,-11.19288 -25,-25 0,-13.80712 11.19288,-25 25,-25 13.80712,0 25,11.19288 25,25 z"/></svg></g></svg>