<svg xmlns="http://www.w3.org/2000/svg" xmlns:svg="http://www.w3.org/2000/svg" id="_0.G-GPGPWA------X" width="345.75" height="345.75" x="0" y="0" enable-background="new 0 0 400 400" version="1.1" viewBox="0 0 345.75 345.75" xml:space="preserve"><metadata id="metadata3001"/><path id="path2991" d="M 172.875,4 C 125.709,4 85.774,20.366 53.056,53.07 20.366,85.774 4,125.709 4,172.875 c 0,47.166 16.366,87.102 49.056,119.818 32.718,32.69 72.653,49.057 119.819,49.057 47.166,0 87.102,-16.366 119.805,-49.057 32.704,-32.717 49.07,-72.652 49.07,-119.818 0,-47.166 -16.366,-87.101 -49.07,-119.805 C 259.977,20.366 220.041,4 172.875,4 z" style="fill:none;stroke:#fff;stroke-width:8;stroke-opacity:1;stroke-dasharray:27"/><path id="path2993" d="m 302.375,172.645 c 0,-35.504 -12.334,-65.64 -36.98,-90.385 -24.647,-24.745 -54.754,-37.135 -90.328,-37.135 -35.848,0 -66.039,12.306 -90.552,36.911 -24.5,24.612 -36.764,54.81 -36.764,90.601 0,35.519 12.334,65.583 36.967,90.195 24.668,24.611 54.768,36.918 90.35,36.918 35.58,0 65.681,-12.307 90.328,-36.911 24.645,-24.605 36.979,-54.677 36.979,-90.194 z" style="fill:none;stroke:#fff;stroke-width:8;stroke-opacity:1;stroke-dasharray:27"/><path id="path2995" d="m 174.395,220.125 c -13.742,0 -25.445,-4.76 -35.141,-14.23 -9.667,-9.5 -14.504,-21.099 -14.504,-34.77 0,-13.958 4.774,-25.62 14.301,-34.972 9.555,-9.352 21.329,-14.028 35.344,-14.028 13.74,0 25.375,4.76 34.916,14.245 9.541,9.485 14.314,21.084 14.314,34.755 0,13.671 -4.773,25.264 -14.314,34.77 -9.541,9.47 -21.176,14.23 -34.916,14.23 z" style="fill:none;stroke:#fff;stroke-width:8;stroke-opacity:1;stroke-dasharray:27"/></svg>