<svg xmlns="http://www.w3.org/2000/svg" xmlns:svg="http://www.w3.org/2000/svg" id="G*GPGPWG--****X" width="310" height="289.181" contentScriptType="application/ecmascript" contentStyleType="text/css" preserveAspectRatio="xMidYMid meet" version="1.1" viewBox="0 0 310 289.181" zoomAndPan="magnify"><metadata id="metadata14"/><g id="g3" transform="translate(-45,-16)"><svg id="_0.G-G-GPWG------X" width="400" height="400" contentScriptType="application/ecmascript" contentStyleType="text/css" preserveAspectRatio="xMidYMid meet" version="1.1" viewBox="0 0 400 400" zoomAndPan="magnify"><path style="fill:none;stroke:#fff;stroke-width:10;stroke-dasharray:15" id="path6" d="m 125,300 c 0,0 -65.3074,2.842 -50,-14 15.3074,-16.842 100,-19 100,-19 l 25,-142 25,142 c 0,0 84.857,2.74 100,19 15.143,16.26 -50,14 -50,14 z"/><path style="fill:none;stroke:#fff;stroke-width:10;stroke-dasharray:15" id="path8" d="m 200,21 c 82.842,0 150,62.579 150,104 0,29.938 -43.902,61.631 -80,63 -35.15,1.333 -34.055,-62.18 -70,-62.5 -35.945,-0.32 -33.143,63.331 -69,62.5 C 94.3078,187.15 50,155.758 50,125 50,83.579 117.158,21 200,21 z"/></svg></g></svg>