<svg xmlns="http://www.w3.org/2000/svg" xmlns:svg="http://www.w3.org/2000/svg" id="_0.G-MPOAOF------X" width="394.298" height="356.364" x="0" y="0" enable-background="new 0 0 400 400" version="1.1" viewBox="0 0 394.298 356.364" xml:space="preserve"><metadata id="metadata53"/><g id="g3" transform="translate(-2.3509998,-45.72)"><line id="line5" x1="75.75" x2="75.75" y1="399.584" y2="353.918" style="fill:none;stroke:#fff;stroke-width:5;stroke-dasharray:20,8"/><line id="line7" x1="323.25" x2="323.25" y1="399.584" y2="353.918" style="fill:none;stroke:#fff;stroke-width:5;stroke-dasharray:20,8"/><line id="line9" x1="273.749" x2="273.749" y1="399.584" y2="353.918" style="fill:none;stroke:#fff;stroke-width:5;stroke-dasharray:20,8"/><line id="line11" x1="224.249" x2="224.249" y1="399.584" y2="353.918" style="fill:none;stroke:#fff;stroke-width:5;stroke-dasharray:20,8"/><line id="line13" x1="174.75" x2="174.75" y1="399.584" y2="353.918" style="fill:none;stroke:#fff;stroke-width:5;stroke-dasharray:20,8"/><line id="line15" x1="125.25" x2="125.25" y1="399.584" y2="353.918" style="fill:none;stroke:#fff;stroke-width:5;stroke-dasharray:20,8"/></g><polygon id="polygon17" points="288.032 201.563 376.563 354.902 199.5 354.902 22.435 354.902 110.968 201.561 199.5 48.22" transform="translate(-2.3509998,-45.72)" style="fill:none;stroke:#fff;stroke-width:5;stroke-dasharray:25,26"/><g id="g19" transform="translate(-2.3509998,-45.72)"><g id="g21"><line id="line23" x1="128.601" x2="168.148" y1="74.913" y2="97.746" style="fill:none;stroke:#fff;stroke-width:5;stroke-dasharray:20,8"/><line id="line25" x1="4.851" x2="44.398" y1="289.254" y2="312.087" style="fill:none;stroke:#fff;stroke-width:5;stroke-dasharray:20,8"/><line id="line27" x1="29.602" x2="69.149" y1="246.385" y2="269.218" style="fill:none;stroke:#fff;stroke-width:5;stroke-dasharray:20,8"/><line id="line29" x1="54.352" x2="93.899" y1="203.517" y2="226.35" style="fill:none;stroke:#fff;stroke-width:5;stroke-dasharray:20,8"/><line id="line31" x1="79.101" x2="118.648" y1="160.649" y2="183.482" style="fill:none;stroke:#fff;stroke-width:5;stroke-dasharray:20,8"/><line id="line33" x1="103.851" x2="143.398" y1="117.781" y2="140.614" style="fill:none;stroke:#fff;stroke-width:5;stroke-dasharray:20,8"/></g><g id="g35"><line id="line37" x1="394.149" x2="354.602" y1="289.254" y2="312.088" style="fill:none;stroke:#fff;stroke-width:5;stroke-dasharray:20,8"/><line id="line39" x1="270.398" x2="230.852" y1="74.912" y2="97.745" style="fill:none;stroke:#fff;stroke-width:5;stroke-dasharray:20,8"/><line id="line41" x1="295.149" x2="255.602" y1="117.781" y2="140.614" style="fill:none;stroke:#fff;stroke-width:5;stroke-dasharray:20,8"/><line id="line43" x1="319.899" x2="280.352" y1="160.649" y2="183.482" style="fill:none;stroke:#fff;stroke-width:5;stroke-dasharray:20,8"/><line id="line45" x1="344.649" x2="305.102" y1="203.518" y2="226.352" style="fill:none;stroke:#fff;stroke-width:5;stroke-dasharray:20,8"/><line id="line47" x1="369.399" x2="329.852" y1="246.387" y2="269.219" style="fill:none;stroke:#fff;stroke-width:5;stroke-dasharray:20,8"/></g></g></svg>