<svg xmlns="http://www.w3.org/2000/svg" xmlns:svg="http://www.w3.org/2000/svg" id="_0.G-GPGPUUB-----X" width="297.6" height="327.25" x="0" y="0" enable-background="new 0 0 400 400" version="1.1" viewBox="0 0 297.6 327.25" xml:space="preserve"><metadata id="metadata15"/><path id="path3" d="M 62.125,170.375 V 85.5 h 31.626 c 18.592,0 27.874,7.147 27.874,21.427 0,7.847 -3.857,13.874 -11.578,18.074 10.633,3.36 15.953,10.374 15.953,21.014 0,16.24 -10.57,24.36 -31.731,24.36 H 62.125 z m 10.5,-49 h 19.047 c 4.235,0 7.749,-0.273 10.57,-0.847 5.936,-1.967 8.89,-5.922 8.89,-11.851 0,-6.209 -2.814,-10.297 -8.463,-12.278 -2.527,-0.847 -6.755,-1.274 -12.691,-1.274 H 72.625 v 26.25 z m 0,38.5 h 21.441 7.987 c 4.214,-0.833 7.861,-3.199 10.941,-7.112 0.847,-2.786 1.26,-5.019 1.26,-6.699 0,-3.066 -0.833,-5.999 -2.513,-8.792 C 108.64,133.093 102.2,131 92.379,131 H 72.625 v 28.875 z m 163.037,-20.013 11.718,2.926 c -5.278,18.977 -16.954,28.462 -35,28.462 -17.5,0 -29.315,-7.287 -35.427,-21.889 -3.066,-7.287 -4.578,-15.001 -4.578,-23.149 0,-18.515 6.384,-31.269 19.166,-38.297 6.098,-3.36 13.041,-5.047 20.825,-5.047 17.772,0 28.875,8.351 33.334,25.032 l -11.306,2.541 C 230.755,98.485 223.37,92.5 212.212,92.5 c -18.978,0 -28.462,11.235 -28.462,33.712 0,23.611 9.064,35.413 27.209,35.413 13.671,0 21.917,-7.245 24.703,-21.763 z" style="fill:#fff"/><polygon id="polygon5" points="345.6 274.35 198.366 360.75 54 274.35" transform="translate(-51,-36.5)" style="fill:none;stroke:#fff;stroke-width:6;stroke-dasharray:27"/><line id="line7" x1="51" x2="240.5" y1="3" y2="3" style="fill:none;stroke:#fff;stroke-width:6;stroke-dasharray:27"/><line id="line9" x1="148.5" x2="148.5" y1="3" y2="238.5" style="fill:none;stroke:#fff;stroke-width:6;stroke-dasharray:27"/></svg>