<svg xmlns="http://www.w3.org/2000/svg" xmlns:svg="http://www.w3.org/2000/svg" id="_0.G-MPOAOF------X" width="359.128" height="311.684" x="0" y="0" enable-background="new 0 0 400 400" version="1.1" viewBox="0 0 359.128 311.684" xml:space="preserve"><metadata id="metadata17"/><g id="g3" transform="translate(-19.936,-44.908)"><path id="path5" d="m 202.307,246.78 c -15.24,-21.011 -35.04,-35.63 -56.587,-38.886 -1.441,-0.358 -2.941,-0.571 -4.494,-0.571 -10.217,0 -18.5,8.282 -18.5,18.5 0,10.217 8.283,18.5 18.5,18.5 10.217,0 18.5,-8.283 18.5,-18.5 0,-2.554 -0.518,-4.986 -1.453,-7.199 14.096,5.803 27.369,17.085 38.369,32.267 15.401,21.231 26.214,49.922 28.658,80.786 l 6.977,-0.554 c -2.56,-32.139 -13.746,-61.948 -29.97,-84.343 z" style="fill:#fff"/><path id="path7" d="m 196.693,246.78 c 15.241,-21.011 35.04,-35.63 56.588,-38.886 1.441,-0.358 2.941,-0.571 4.494,-0.571 10.217,0 18.5,8.282 18.5,18.5 0,10.217 -8.283,18.5 -18.5,18.5 -10.217,0 -18.5,-8.283 -18.5,-18.5 0,-2.554 0.518,-4.986 1.453,-7.199 -14.097,5.803 -27.369,17.085 -38.369,32.267 -15.401,21.231 -26.215,49.922 -28.657,80.786 l -6.977,-0.554 c 2.558,-32.139 13.745,-61.948 29.968,-84.343 z" style="fill:#fff"/></g><polygon id="polygon9" points="288.032 200.751 376.564 354.091 199.5 354.091 22.436 354.092 110.968 200.749 199.501 47.408" transform="translate(-19.936,-44.908)" style="fill:none;stroke:#fff;stroke-width:5;stroke-dasharray:25,26"/><line id="line11" x1="7.631" x2="265.996" y1="306.221" y2="157.055" style="fill:none;stroke:#fff;stroke-width:5;stroke-dasharray:24,24"/></svg>