<svg xmlns="http://www.w3.org/2000/svg" xmlns:svg="http://www.w3.org/2000/svg" id="_2.G-G-GPAA------X" width="359.999" height="210" x="0" y="0" contentScriptType="application/ecmascript" contentStyleType="text/css" enable-background="new 0 0 400 400" preserveAspectRatio="xMidYMid meet" version="1.1" viewBox="0 0 359.999 210" zoomAndPan="magnify" xml:space="preserve"><metadata id="metadata15"/><g id="g3" transform="translate(-19.417,-94.5)"><line id="line5" x1="24.417" x2="374.416" y1="299.5" y2="299.5" style="fill:none;stroke:#fff;stroke-width:10;stroke-dasharray:27"/><line id="line7" x1="24.417" x2="374.416" y1="99.5" y2="99.5" style="fill:none;stroke:#fff;stroke-width:10;stroke-dasharray:27"/></g><polygon id="polygon9" points="268.516 188.89 203.645 188.89 203.645 176.677 247.076 176.677 247.076 125.591 203.645 125.591 203.645 110.109 195.386 110.109 195.386 125.591 151.953 125.591 151.953 176.677 195.386 176.677 195.386 188.89 130.515 188.89 130.515 189.397 87.843 214.034 44.759 238.908 87.843 263.781 130.515 288.42 130.515 288.891 268.516 288.891 268.516 288.234 311.156 263.613 354.24 238.74 311.156 213.866 268.516 189.247" transform="translate(-19.417,-94.5)" style="fill:#fff"/></svg>