<svg xmlns="http://www.w3.org/2000/svg" xmlns:svg="http://www.w3.org/2000/svg" id="_0.G-GPGPUUL-----X" width="297.6" height="327.25" x="0" y="0" enable-background="new 0 0 400 400" version="1.1" viewBox="0 0 297.6 327.25" xml:space="preserve"><metadata id="metadata17"/><polygon id="polygon3" points="341.6 278.35 194.366 364.75 50 278.35" transform="translate(-47,-40.5)" style="fill:none;stroke:#fff;stroke-width:6;stroke-dasharray:27"/><polygon id="polygon5" points="129.5 201.25 165.5 201.25 165.5 209.5 120.5 209.5 120.5 133.75 129.5 133.75" transform="translate(-47,-40.5)" style="fill:#fff"/><path id="path7" d="m 222.996,142.096 10.044,2.508 c -4.524,16.266 -14.532,24.396 -30,24.396 -15,0 -25.128,-6.246 -30.366,-18.762 -2.628,-6.246 -3.924,-12.858 -3.924,-19.842 0,-15.87 5.473,-26.802 16.428,-32.826 5.227,-2.88 11.178,-4.326 17.85,-4.326 15.234,0 24.75,7.158 28.572,21.456 l -9.689,2.178 C 218.79,106.63 212.46,101.5 202.896,101.5 c -16.267,0 -24.396,9.63 -24.396,28.896 0,20.238 7.77,30.354 23.322,30.354 11.718,0 18.785,-6.21 21.174,-18.654 z" style="fill:#fff"/><line id="line9" x1="51" x2="240.5" y1="3" y2="3" style="fill:none;stroke:#fff;stroke-width:6;stroke-dasharray:27"/><line id="line11" x1="148.5" x2="148.5" y1="3" y2="238.5" style="fill:none;stroke:#fff;stroke-width:6;stroke-dasharray:27"/></svg>