<svg xmlns="http://www.w3.org/2000/svg" xmlns:svg="http://www.w3.org/2000/svg" id="_0.G-MPOAOF------X" width="380.472" height="354.069" x="0" y="0" enable-background="new 0 0 400 400" version="1.1" viewBox="0 0 380.472 354.069" xml:space="preserve"><metadata id="metadata53"/><path id="path3" d="M 279.34946,154.376 190.22046,0 101.09146,154.376 11.962464,308.753 h 178.257996 178.258 l -89.129,-154.377 z M 19.885464,303.889 105.05246,156.375 l 85.168,-147.514 85.167,147.515 85.168,147.514 H 190.22046 19.885464 l 0,-10e-4 z" style="fill:#fff"/><rect id="rect7" width="5.333" height="45.666" x="63.804" y="308.403" style="fill:#fff"/><rect id="rect9" width="5.332" height="45.666" x="311.304" y="308.403" style="fill:#fff"/><rect id="rect11" width="5.334" height="45.666" x="261.803" y="308.403" style="fill:#fff"/><rect id="rect13" width="5.333" height="45.666" x="212.303" y="308.403" style="fill:#fff"/><rect id="rect15" width="5.333" height="45.666" x="162.804" y="308.403" style="fill:#fff"/><rect id="rect17" width="5.333" height="45.666" x="113.304" y="308.403" style="fill:#fff"/><rect id="rect23" width="5.332" height="45.664" x="202.142" y="-165.453" transform="matrix(-0.500011,0.86601905,-0.86601905,-0.500011,0,0)" style="fill:#fff"/><rect id="rect25" width="5.332" height="45.664" x="-45.384" y="-165.448" transform="matrix(-0.500011,0.86601905,-0.86601905,-0.500011,0,0)" style="fill:#fff"/><rect id="rect27" width="5.334" height="45.664" x="4.115" y="-165.448" transform="matrix(-0.500011,0.86601905,-0.86601905,-0.500011,0,0)" style="fill:#fff"/><rect id="rect29" width="5.333" height="45.668" x="53.603" y="-165.455" transform="matrix(-0.500086,0.86597575,-0.86597575,-0.500086,0,0)" style="fill:#fff"/><rect id="rect31" width="5.332" height="45.664" x="103.126" y="-165.453" transform="matrix(-0.500011,0.86601905,-0.86601905,-0.500011,0,0)" style="fill:#fff"/><rect id="rect33" width="5.332" height="45.664" x="152.639" y="-165.454" transform="matrix(-0.500011,0.86601905,-0.86601905,-0.500011,0,0)" style="fill:#fff"/><rect id="rect37" width="5.332" height="45.664" x="392.361" y="-209.719" transform="matrix(0.500011,0.86601905,-0.86601905,0.500011,0,0)" style="fill:#fff"/><rect id="rect39" width="5.332" height="45.664" x="144.865" y="-209.734" transform="matrix(0.500011,0.86601905,-0.86601905,0.500011,0,0)" style="fill:#fff"/><rect id="rect41" width="5.335" height="45.666" x="194.386" y="-209.693" transform="matrix(0.500086,0.86597575,-0.86597575,0.500086,0,0)" style="fill:#fff"/><rect id="rect43" width="5.332" height="45.664" x="243.847" y="-209.695" transform="matrix(0.500011,0.86601905,-0.86601905,0.500011,0,0)" style="fill:#fff"/><rect id="rect45" width="5.333" height="45.669" x="293.386" y="-209.658" transform="matrix(0.50020429,0.86590743,-0.86590743,0.50020429,0,0)" style="fill:#fff"/><rect id="rect47" width="5.332" height="45.664" x="342.862" y="-209.72" transform="matrix(0.500011,0.86601905,-0.86601905,0.500011,0,0)" style="fill:#fff"/></svg>