<svg xmlns="http://www.w3.org/2000/svg" xmlns:svg="http://www.w3.org/2000/svg" id="G*GPGPRI--****X" width="210" height="350" version="1.1" viewBox="0 0 210 350"><metadata id="metadata14"/><g id="g3" transform="translate(-95,-25)"><svg id="_0.G-GPGPRI------X" width="400" height="400" version="1.1" viewBox="0 0 400 400"><path id="path8" d="M 200,25 C 142.008,25.002 95.003,72.008 95,130 c 0.001,23.645 7.819,45.461 21.006,63.012 L 200,375 283.996,193.009 C 297.182,175.459 304.998,153.644 305,130 304.996,72.008 257.989,25.002 200,25 z M 132.824,62.824 C 150.033,45.625 173.75,35.002 200,35 c 26.249,0.002 49.967,10.625 67.174,27.824 17.199,17.208 27.822,40.926 27.824,67.176 -10e-4,18.359 -5.204,35.478 -14.214,50 -3.871,6.24 -8.441,12.003 -13.61,17.175 -17.207,17.198 -40.925,27.821 -67.174,27.823 -26.25,-0.002 -49.967,-10.625 -67.176,-27.823 -5.169,-5.171 -9.739,-10.935 -13.61,-17.175 -9.01,-14.522 -14.212,-31.641 -14.214,-50 0.002,-26.25 10.625,-49.967 27.824,-67.176 z" style="fill:#fff"/></svg></g></svg>