<svg xmlns="http://www.w3.org/2000/svg" xmlns:svg="http://www.w3.org/2000/svg" id="_2.G-G-GPAA------X" width="210" height="360" x="0" y="0" enable-background="new 0 0 400 400" version="1.1" viewBox="0 0 210 360" xml:space="preserve"><metadata id="metadata19"/><g id="g3" transform="translate(-94.5,-19.5)"><line id="line5" x1="99.5" x2="99.5" y1="24.5" y2="374.5" style="fill:none;stroke:#fff;stroke-width:10"/><line id="line7" x1="299.5" x2="299.5" y1="24.5" y2="374.5" style="fill:none;stroke:#fff;stroke-width:10"/></g><g id="g9" transform="translate(-94.5,-19.5)"><text id="text11" font-size="68.754" transform="translate(128.8662,142.9712)" style="font-size:68.75370026px;fill:#fff;font-family:Arial-BoldMT">MIW</text><path id="path13" d="m 278.655,278.453 v -11.941 l -72.464,-71.8 v -31.374 c 0,-3.583 -2.903,-6.489 -6.487,-6.489 -3.585,0 -6.489,2.906 -6.489,6.489 v 30.971 l -72.87,72.203 v 11.941 l 72.87,-45.881 v 58.074 l -16.942,16.566 v 7.143 l 18.656,-7.611 0.395,0.684 4.383,7.59 4.382,-7.59 0.497,-0.861 19.09,7.789 v -7.143 l -17.483,-17.094 v -57.291 l 72.462,45.625 z" style="fill:#fff"/></g></svg>