<svg xmlns="http://www.w3.org/2000/svg" xmlns:svg="http://www.w3.org/2000/svg" id="_0.G-MPOAOF------X" width="356.516" height="308.753" x="0" y="0" enable-background="new 0 0 400 400" version="1.1" viewBox="0 0 356.516 308.753" xml:space="preserve"><metadata id="metadata17"/><path id="path3" d="M 267.387,154.376 178.258,0 89.129,154.376 0,308.753 H 178.258 356.516 L 267.387,154.376 z M 7.923,303.889 93.09,156.375 178.258,8.861 263.425,156.376 348.593,303.89 H 178.258 7.923 l 0,-10e-4 z" style="fill:#fff"/><rect id="rect5" width="4.999" height="298.234" x="264.557" y="-151.652" transform="matrix(0.500086,0.86597575,-0.86597575,0.500086,0,0)" style="fill:#fff"/><g id="g7" transform="translate(-21.242,-45.515)" style="fill:#fff"><path id="path9" d="m 202.307,246.78 c -15.24,-21.01 -35.04,-35.63 -56.588,-38.885 -1.441,-0.359 -2.941,-0.572 -4.494,-0.572 -10.217,0 -18.5,8.283 -18.5,18.5 0,10.217 8.283,18.5 18.5,18.5 10.217,0 18.5,-8.283 18.5,-18.5 0,-2.554 -0.518,-4.986 -1.453,-7.199 14.096,5.803 27.369,17.085 38.369,32.266 15.401,21.232 26.215,49.923 28.658,80.787 l 6.977,-0.554 c -2.559,-32.138 -13.745,-61.948 -29.969,-84.343 z" style="fill:#fff"/><path id="path11" d="m 196.693,246.78 c 15.24,-21.01 35.039,-35.63 56.588,-38.885 1.441,-0.359 2.941,-0.572 4.494,-0.572 10.217,0 18.5,8.283 18.5,18.5 0,10.217 -8.283,18.5 -18.5,18.5 -10.217,0 -18.5,-8.283 -18.5,-18.5 0,-2.554 0.518,-4.986 1.453,-7.199 -14.096,5.803 -27.369,17.085 -38.369,32.266 -15.401,21.232 -26.215,49.923 -28.657,80.787 l -6.977,-0.554 c 2.558,-32.138 13.745,-61.948 29.968,-84.343 z" style="fill:#fff"/></g></svg>