<svg xmlns="http://www.w3.org/2000/svg" xmlns:svg="http://www.w3.org/2000/svg" id="G*GPGPOD--****X" width="365" height="295.5" version="1.1" viewBox="0 0 365 295.5"><metadata id="metadata21"/><g id="g3" transform="translate(-17.5,-90)"><svg id="_0.G-GPGPO-------X" width="400" height="400" version="1.1" viewBox="0 0 400 400"><line style="fill:none;stroke:#fff;stroke-width:15" id="line6" x1="25" x2="375" y1="200" y2="200"/><path style="fill:none;stroke:#fff;stroke-width:10" id="path8" d="m 25,125 c 10,-40 60,-40 70,0 10,40 60,40 70,0 10,-40 60,-40 70,0 10,40 60,40 70,0 10,-40 60,-40 70,0"/><path style="fill:none;stroke:#fff;stroke-width:10" id="path10" d="m 25,125 c 10,-40 60,-40 70,0 10,40 60,40 70,0 10,-40 60,-40 70,0 10,40 60,40 70,0 10,-40 60,-40 70,0" transform="translate(0,150)"/></svg></g><g id="g12" transform="translate(-17.5,-90)"><svg id="_1.G-GPGPOD------X" width="400" height="400" version="1.1" viewBox="0 0 400 400"><text style="font-size:90px;fill:#fff;stroke:#fff" id="text15" x="170" y="385">D</text></svg></g></svg>