<svg xmlns="http://www.w3.org/2000/svg" xmlns:svg="http://www.w3.org/2000/svg" id="G*GPGPUYT-****X" width="174.75" height="339.75" version="1.1" viewBox="0 0 174.75 339.75"><metadata id="metadata19"/><g id="g3" transform="translate(-110,-30)"><svg id="_0.G-G-GPUY------X" width="400" height="400" version="1.1" viewBox="0 0 400 400"><g id="g6" transform="matrix(6,0,0,6,110,30)"><path id="path8" d="m 29.125,42.029 c 0,4.125 -1.398,7.588 -4.195,10.393 -2.797,2.801 -6.254,4.203 -10.367,4.203 -4.074,0 -7.521,-1.412 -10.338,-4.234 C 1.408,49.566 0,46.113 0,42.029 c 0,-4.123 1.398,-7.596 4.195,-10.42 2.797,-2.822 6.254,-4.234 10.367,-4.234 4.074,0 7.521,1.422 10.338,4.266 2.817,2.844 4.225,6.306 4.225,10.388 z m -1.125,0 c 0,-3.809 -1.291,-7.016 -3.869,-9.621 -2.58,-2.605 -5.77,-3.908 -9.568,-3.908 -3.798,0 -6.988,1.303 -9.568,3.908 -2.578,2.605 -3.869,5.813 -3.869,9.621 0,3.77 1.301,6.957 3.898,9.563 2.602,2.605 5.781,3.908 9.539,3.908 3.758,0 6.938,-1.303 9.537,-3.908 2.599,-2.605 3.9,-5.793 3.9,-9.563 z M 17.875,0 l 0,17.77 -4.016,-5.039 0.061,14.586 1.205,0.059 0,-10.927 4.074,4.621 0,-21.07 z" style="fill:#fff"/></g></svg></g><g id="g10" transform="translate(-110,-30)"><svg id="_1.G-G-GPUYT-----X" width="400" height="400" version="1.1" viewBox="0 0 400 400"><text style="font-size:110px;fill:#fff;stroke:#fff;font-family:Arial" id="text13" x="160" y="320">T</text></svg></g></svg>