<svg xmlns="http://www.w3.org/2000/svg" xmlns:svg="http://www.w3.org/2000/svg" id="G*GPGPUUL-****X" width="291.6" height="324.75" version="1.1" viewBox="0 0 291.6 324.75"><metadata id="metadata14"/><g id="g3" transform="translate(-50,-40)"><svg id="_0.G-GPGPUUL-----X" width="400" height="400" version="1.1" viewBox="0 0 400 400"><g id="g6" transform="matrix(6,0,0,6,50,40)"><path id="path8" d="M 48.6,39.725 24.061,54.125 0,39.725 z M 7.875,1.25 l 0,-1.25 31.75,0 0,1.25 z m 3.875,27 0,-12.625 1.5,0 0,11.25 6,0 0,1.375 z m 11.875,11.596 0,-39.846 1.125,0 0,39.846 z m 13.041,-16.08 1.674,0.418 c -0.754,2.711 -2.422,4.066 -5,4.066 -2.5,0 -4.188,-1.041 -5.061,-3.127 -0.438,-1.041 -0.654,-2.143 -0.654,-3.307 0,-2.645 0.912,-4.467 2.738,-5.471 0.871,-0.48 1.863,-0.721 2.975,-0.721 2.539,0 4.125,1.193 4.762,3.576 l -1.615,0.363 C 35.965,17.855 34.91,17 33.316,17 c -2.711,0 -4.066,1.605 -4.066,4.816 0,3.373 1.295,5.059 3.887,5.059 1.953,0 3.131,-1.035 3.529,-3.109 z" style="fill:#fff"/></g></svg></g></svg>