<svg xmlns="http://www.w3.org/2000/svg" xmlns:svg="http://www.w3.org/2000/svg" id="G*MPOMW---****X" width="388.403" height="301.324" version="1.1" viewBox="0 0 388.403 301.324"><metadata id="metadata22"/><g id="g3" transform="translate(-5.32175,-46.25)"><svg id="_0.G-MPOMW-------X" width="400" height="400" version="1.1" viewBox="0 0 400 400"><g id="g6" transform="matrix(2.5,0,0,2.5,-450,-480)"><circle style="fill:#fff;stroke:#fff;stroke-width:2" id="circle8" cx="218" cy="204.5" r="34" d="m 252,204.5 c 0,18.77768 -15.22232,34 -34,34 -18.77768,0 -34,-15.22232 -34,-34 0,-18.77768 15.22232,-34 34,-34 18.77768,0 34,15.22232 34,34 z" transform="translate(42,41)"/><line style="fill:#fff;stroke:#fff;stroke-width:2" id="line10" x1="254" x2="234" y1="279" y2="333" transform="translate(-12.8713,-2.9703)"/><line style="fill:#fff;stroke:#fff;stroke-width:2" id="line12" x1="234" x2="196" y1="332.211" y2="264" transform="translate(-12.8713,-2.9703)"/><line style="fill:#fff;stroke:#fff;stroke-width:2" id="line14" x1="279" x2="259" y1="231" y2="285" transform="matrix(-1,0,0,1,557.48979,43.564)"/><line style="fill:#fff;stroke:#fff;stroke-width:2" id="line16" x1="259" x2="221" y1="284.211" y2="216" transform="matrix(-1,0,0,1,557.48979,43.564)"/></g></svg></g></svg>