<svg xmlns="http://www.w3.org/2000/svg" xmlns:svg="http://www.w3.org/2000/svg" id="G*OPHO----****X" width="373.8" height="222.25" version="1.1" viewBox="0 0 373.8 222.25"><metadata id="metadata14"/><g id="g3" transform="translate(-10,-80)"><svg id="_0.G-OPHO--------X" width="400" height="400" version="1.1" viewBox="0 0 400 400"><g id="g6" transform="matrix(7,0,0,7,10,80)"><path id="path8" d="m 0,31.5 0,-15.375 0.875,0 0,15.375 z m 0.875,-14.375 52.525,0 0,-1 -52.525,0 z m 8.605,-1 0.9,0 L 10.38,0 9.42,0 z m 9.241,0 0,-7.045 -8.34,0 0,7.045 z M 38,31.75 l 0,-14.625 1,0 0,14.625 z m 9.875,0 0.965,0 0,-14.869 -0.965,0 z" style="fill:#fff"/></g></svg></g></svg>