<svg xmlns="http://www.w3.org/2000/svg" xmlns:svg="http://www.w3.org/2000/svg" id="G*OPHI----****X" width="370.08" height="280" version="1.1" viewBox="0 0 370.08 280"><metadata id="metadata14"/><g id="g3" transform="translate(-15,-60)"><svg id="_0.G-OPHI--------X" width="400" height="400" version="1.1" viewBox="0 0 400 400"><g id="g6" transform="matrix(8,0,0,8,15,60)"><path id="path8" d="m 4.559,17.6 -4.559,0 0,-1.32 3.959,0 z m 32.64,6.361 -5.881,-6.422 -8.699,14.762 -8.279,-14.762 -6.24,6 L 3.959,16.291 22.559,0 l 19.08,16.295 -5.76,9.525 z m 0,-0.002 -1.26,1.801 L 31.378,20.24 22.619,35 14.34,20.24 l -5.1,5.1 -1.14,-1.801 6.24,-6 8.279,14.762 8.699,-14.762 z m 4.442,-7.68 4.619,0 0,1.32 -5.34,0 z" style="fill:#fff"/></g></svg></g></svg>