<svg xmlns="http://www.w3.org/2000/svg" xmlns:svg="http://www.w3.org/2000/svg" id="G*OPEP----****X" width="310" height="204.068" version="1.1" viewBox="0 0 310 204.068"><metadata id="metadata23"/><g id="g3" transform="translate(-45,-100.932)"><svg id="_0.G-O-E---------W" width="400" height="400" version="1.1" viewBox="0 0 400 400"><polyline style="fill:none;stroke:#fff;stroke-width:10;stroke-linecap:square" id="polyline6" points="50 300 100 250 150 300 200 250 250 300 300 250 350 300"/></svg></g><g id="g8" transform="translate(-45,-100.932)"><svg id="_1.G-O-EP--------X" width="400" height="400" version="1.1" viewBox="0 0 400 400"><polygon style="fill:#fff;stroke:#fff;stroke-width:5" id="polygon11" points="151.716 131.716 180 103.432 220 103.432 248.284 131.716 248.284 171.716 220 200 180 200 151.716 171.716"/><line style="fill:none;stroke:#fff;stroke-width:10" id="line13" x1="200" x2="200" y1="200" y2="250"/><polygon style="fill:#fff;stroke:#fff;stroke-width:5" id="polygon15" points="75 200 75 240 92 257 75 275 50 250 50 200"/><polygon style="fill:#fff;stroke:#fff;stroke-width:5" id="polygon17" points="325 200 325 240 308 257 325 275 350 250 350 200"/></svg></g></svg>