<svg xmlns="http://www.w3.org/2000/svg" xmlns:svg="http://www.w3.org/2000/svg" id="G*SPPSG---****X" width="145" height="280" contentScriptType="application/ecmascript" contentStyleType="text/css" preserveAspectRatio="xMidYMid meet" version="1.1" viewBox="0 0 145 280" zoomAndPan="magnify"><metadata id="metadata30"/><g id="g3" transform="translate(-127.5,-97.5)"><svg id="_0.GP------------X" width="400" height="400" contentScriptType="application/ecmascript" contentStyleType="text/css" preserveAspectRatio="xMidYMid meet" version="1.1" viewBox="0 0 400 400" zoomAndPan="magnify"><rect style="fill:none;stroke:#fff;stroke-width:5;stroke-dasharray:15" id="rect6" width="140" height="180" x="130" y="100"/><polyline style="fill:none;stroke:#fff;stroke-width:5;stroke-dasharray:15" id="polyline8" points="130 281 200 375 270 281"/></svg></g><g id="g10" transform="translate(-127.5,-97.5)"><svg id="_1.GSP-----------X" width="400" height="400" contentScriptType="application/ecmascript" contentStyleType="text/css" preserveAspectRatio="xMidYMid meet" version="1.1" viewBox="0 0 400 400" zoomAndPan="magnify"><line style="fill:none;stroke:#fff;stroke-width:5;stroke-dasharray:15" id="line13" x1="130" x2="270" y1="250" y2="250"/></svg></g><g id="g15" transform="translate(-127.5,-97.5)"><svg id="_2.G-S-PSG-------X" width="400" height="400" contentScriptType="application/ecmascript" contentStyleType="text/css" preserveAspectRatio="xMidYMid meet" version="1.1" viewBox="0 0 400 400" zoomAndPan="magnify"><g id="g18" transform="matrix(0.75,0,0,0.75,50.5,25)"><ellipse style="fill:#fff;stroke:#fff;stroke-width:10" id="ellipse20" cx="140" cy="200" d="m 158,200 c 0,9.94113 -8.05887,18 -18,18 -9.94113,0 -18,-8.05887 -18,-18 0,-9.94113 8.05887,-18 18,-18 9.94113,0 18,8.05887 18,18 z" rx="18" ry="18"/><ellipse style="fill:#fff;stroke:#fff;stroke-width:10" id="ellipse22" cx="260" cy="200" d="m 278,200 c 0,9.94113 -8.05887,18 -18,18 -9.94113,0 -18,-8.05887 -18,-18 0,-9.94113 8.05887,-18 18,-18 9.94113,0 18,8.05887 18,18 z" rx="18" ry="18"/><path style="fill:none;stroke:#fff;stroke-width:5" id="path24" d="m 145,190 c 35,-30 75,-30 110,0"/></g></svg></g></svg>