<svg xmlns="http://www.w3.org/2000/svg" xmlns:svg="http://www.w3.org/2000/svg" id="G*SPPSF---****X" width="145" height="280" version="1.1" viewBox="0 0 145 280"><metadata id="metadata32"/><g id="g3" transform="translate(-127.5,-97.5)"><svg id="_0.GP------------X" width="400" height="400" version="1.1" viewBox="0 0 400 400"><rect style="fill:none;stroke:#fff;stroke-width:5" id="rect6" width="140" height="180" x="130" y="100"/><polyline style="fill:none;stroke:#fff;stroke-width:5" id="polyline8" points="130 281 200 375 270 281"/></svg></g><g id="g10" transform="translate(-127.5,-97.5)"><svg id="_1.GSP-----------X" width="400" height="400" version="1.1" viewBox="0 0 400 400"><line style="fill:none;stroke:#fff;stroke-width:5" id="line13" x1="130" x2="270" y1="250" y2="250"/></svg></g><g id="g15" transform="translate(-127.5,-97.5)"><svg id="_2.G-S-PSF-------X" width="400" height="400" version="1.1" viewBox="0 0 400 400"><circle style="fill:none;stroke:#fff;stroke-width:5" id="circle18" cx="200" cy="130" r="20" d="m 220,130 c 0,11.04569 -8.95431,20 -20,20 -11.04569,0 -20,-8.95431 -20,-20 0,-11.04569 8.95431,-20 20,-20 11.04569,0 20,8.95431 20,20 z"/><line style="fill:none;stroke:#fff;stroke-width:5" id="line20" x1="165" x2="235" y1="165" y2="165"/><line style="fill:none;stroke:#fff;stroke-width:5" id="line22" x1="200" x2="200" y1="150" y2="210"/><line style="fill:none;stroke:#fff;stroke-width:5" id="line24" x1="200" x2="170" y1="205" y2="235"/><line style="fill:none;stroke:#fff;stroke-width:5" id="line26" x1="200" x2="230" y1="205" y2="235"/></svg></g></svg>