<svg xmlns="http://www.w3.org/2000/svg" xmlns:svg="http://www.w3.org/2000/svg" id="G*SPPSI---****X" width="145" height="280" version="1.1" viewBox="0 0 145 280"><metadata id="metadata40"/><g id="g3" transform="translate(-127.5,-97.5)"><svg id="_0.GP------------X" width="400" height="400" version="1.1" viewBox="0 0 400 400"><rect style="fill:none;stroke:#fff;stroke-width:5" id="rect6" width="140" height="180" x="130" y="100"/><polyline style="fill:none;stroke:#fff;stroke-width:5" id="polyline8" points="130 281 200 375 270 281"/></svg></g><g id="g10" transform="translate(-127.5,-97.5)"><svg id="_1.GSP-----------X" width="400" height="400" version="1.1" viewBox="0 0 400 400"><line style="fill:none;stroke:#fff;stroke-width:5" id="line13" x1="130" x2="270" y1="250" y2="250"/></svg></g><g id="g15" transform="translate(-127.5,-97.5)"><svg id="_2.G-S-PSI-------X" width="400" height="400" version="1.1" viewBox="0 0 400 400"><circle style="fill:none;stroke:#fff;stroke-width:5" id="circle18" cx="200" cy="175" r="40" d="m 240,175 c 0,22.09139 -17.90861,40 -40,40 -22.09139,0 -40,-17.90861 -40,-40 0,-22.09139 17.90861,-40 40,-40 22.09139,0 40,17.90861 40,40 z"/><line style="fill:none;stroke:#fff;stroke-width:5" id="line20" x1="200" x2="200" y1="135" y2="115"/><line style="fill:none;stroke:#fff;stroke-width:5" id="line22" x1="200" x2="200" y1="215" y2="235"/><line style="fill:none;stroke:#fff;stroke-width:5" id="line24" x1="240" x2="260" y1="175" y2="175"/><line style="fill:none;stroke:#fff;stroke-width:5" id="line26" x1="160" x2="140" y1="175" y2="175"/><line style="fill:none;stroke:#fff;stroke-width:5" id="line28" x1="170" x2="155" y1="150" y2="135"/><line style="fill:none;stroke:#fff;stroke-width:5" id="line30" x1="230" x2="245" y1="150" y2="135"/><line style="fill:none;stroke:#fff;stroke-width:5" id="line32" x1="230" x2="245" y1="200" y2="215"/><line style="fill:none;stroke:#fff;stroke-width:5" id="line34" x1="170" x2="155" y1="200" y2="215"/></svg></g></svg>