<svg xmlns="http://www.w3.org/2000/svg" xmlns:svg="http://www.w3.org/2000/svg" id="G*TPD-----****X" width="372.496" height="235.861" version="1.1" viewBox="0 0 372.496 235.861"><metadata id="metadata48"/><g id="g3" transform="translate(-14.347248,-74.500259)"><svg id="_0.G-TPD---------X" width="400" height="400" version="1.1" viewBox="0 0 400 400"><g id="g6" transform="matrix(1.75,0,0,1.75,-160,-190)"><line style="fill:#fff;stroke:#fff;stroke-width:2" id="line8" x1="104.105" x2="125.105" y1="280.654" y2="267.432"/><line style="fill:#fff;stroke:#fff;stroke-width:2" id="line10" x1="132.938" x2="150.938" y1="262.787" y2="251.343"/><line style="fill:#fff;stroke:#fff;stroke-width:2" id="line12" x1="158" x2="176.938" y1="247" y2="235.232"/><line style="fill:#fff;stroke:#fff;stroke-width:2" id="line14" x1="182" x2="191.96" y1="232" y2="225.81"/><line style="fill:#fff;stroke:#fff;stroke-width:2" id="line16" x1="195.093" x2="215.538" y1="223.721" y2="210.943"/><line style="fill:#fff;stroke:#fff;stroke-width:2" id="line18" x1="220.705" x2="238" y1="207.565" y2="197"/><line style="fill:#fff;stroke:#fff;stroke-width:2" id="line20" x1="246" x2="259.593" y1="192" y2="183.454"/><line style="fill:#fff;stroke:#fff;stroke-width:2" id="line22" x1="266.416" x2="284.305" y1="179.143" y2="168.143"/><line style="fill:#fff;stroke:#fff;stroke-width:2" id="line24" x1="291.86" x2="303.86" y1="163.365" y2="155.699"/><line style="fill:#fff;stroke:#fff;stroke-width:2" id="line26" x1="192.205" x2="212.871" y1="209.432" y2="222.321"/><line style="fill:#fff;stroke:#fff;stroke-width:2" id="line28" x1="220" x2="237.193" y1="227" y2="237.699"/><line style="fill:#fff;stroke:#fff;stroke-width:2" id="line30" x1="249.138" x2="265.582" y1="245.276" y2="255.387"/><line style="fill:#fff;stroke:#fff;stroke-width:2" id="line32" x1="278.593" x2="292" y1="263.476" y2="272"/><line style="fill:#fff;stroke:#fff;stroke-width:2" id="line34" x1="299.927" x2="311.482" y1="276.921" y2="284.921"/><line style="fill:#fff;stroke:#fff;stroke-width:2" id="line36" x1="185.56" x2="168.005" y1="205.521" y2="194.299"/><line style="fill:#fff;stroke:#fff;stroke-width:2" id="line38" x1="159.116" x2="143.893" y1="188.854" y2="179.299"/><line style="fill:#fff;stroke:#fff;stroke-width:2" id="line40" x1="133.405" x2="119.071" y1="172.699" y2="163.699"/><line style="fill:#fff;stroke:#fff;stroke-width:2" id="line42" x1="111.182" x2="100.627" y1="158.81" y2="152.143"/></g></svg></g></svg>