<svg xmlns="http://www.w3.org/2000/svg" xmlns:svg="http://www.w3.org/2000/svg" id="G*TPN-----****X" width="371" height="234.5" version="1.1" viewBox="0 0 371 234.5"><metadata id="metadata30"/><g id="g3" transform="translate(-11.5,-76.5)"><svg id="_0.G-TPN---------X" width="400" height="400" version="1.1" viewBox="0 0 400 400"><g id="g6" transform="matrix(1.75,0,0,1.75,-230,-200)"><line style="fill:#fff;stroke:#fff;stroke-width:2" id="line8" x1="104.322" x2="125.656" y1="280.81" y2="267.31" transform="translate(39,6)"/><line style="fill:#fff;stroke:#fff;stroke-width:2" id="line10" x1="132.938" x2="151.656" y1="262.787" y2="251.143" transform="translate(39,6)"/><line style="fill:#fff;stroke:#fff;stroke-width:2" id="line12" x1="157.756" x2="181.422" y1="247.377" y2="232.543" transform="translate(39,6)"/><line style="fill:#fff;stroke:#fff;stroke-width:2" id="line14" x1="192.821" x2="216.154" y1="226.003" y2="211.336" transform="translate(34.91837,8.04082)"/><line style="fill:#fff;stroke:#fff;stroke-width:2" id="line16" x1="220.889" x2="238.389" y1="208.01" y2="196.843" transform="translate(39,6)"/><line style="fill:#fff;stroke:#fff;stroke-width:2" id="line18" x1="245.722" x2="259.656" y1="192.343" y2="183.543" transform="translate(39,6)"/><line style="fill:#fff;stroke:#fff;stroke-width:2" id="line20" x1="266.322" x2="284.322" y1="179.543" y2="168.377" transform="translate(39,6)"/><line style="fill:#fff;stroke:#fff;stroke-width:2" id="line22" x1="291.689" x2="303.856" y1="163.91" y2="156.077" transform="translate(39,6)"/><line style="fill:#fff;stroke:#fff;stroke-width:2" id="line24" x1="100" x2="310" y1="153" y2="285" transform="translate(39,6)"/></g></svg></g></svg>