<svg xmlns="http://www.w3.org/2000/svg" xmlns:svg="http://www.w3.org/2000/svg" id="_0.SFG-U----------" width="400" height="400" x="0" y="0" enable-background="new 0 0 400 400" version="1.1" viewBox="0 0 400 400" xml:space="preserve"><metadata id="metadata3099"/><g id="g3087"><path id="path3089" fill="#010101" d="M138.578,216.65l11.725-17.902l-10.625-16.398h8.078l6.875,11.016l6.737-11.016h8.029l-10.666,16.651 l11.71,17.631h-8.338l-7.615-11.842l-7.622,11.842h-8.304v0.018H138.578z" style="fill:#fff"/><path id="path3091" fill="#010101" d="M183.562,216.65l11.716-17.902l-10.616-16.398h8.09l6.882,11.016l6.72-11.016h8.038l-10.656,16.646 l11.706,17.637h-8.344l-7.614-11.854l-7.63,11.854h-8.295v0.012h0.003V216.65L183.562,216.65z" style="fill:#fff"/><path id="path3093" fill="#010101" d="M228.583,216.65l11.719-17.899l-10.638-16.401h8.09l6.875,11.024l6.721-11.024h8.038l-10.663,16.651 l11.713,17.631h-8.344l-7.599-11.854l-7.63,11.859h-8.294v0.012H228.583L228.583,216.65z" style="fill:#fff"/></g></svg>