<svg xmlns="http://www.w3.org/2000/svg" xmlns:svg="http://www.w3.org/2000/svg" id="_0.SHG-U----------" width="128" height="128" x="0" y="0" enable-background="new 0 0 128 128" version="1.1" viewBox="0 0 128 128" xml:space="preserve"><metadata id="metadata3349"/><g id="g3333"><path id="path3335" fill="#010101" d="M51.001,68.988l3.749-5.729l-3.397-5.248h2.589l2.202,3.525l2.151-3.525h2.571l-3.409,5.327l3.746,5.645 h-2.67l-2.437-3.793l-2.442,3.793H51v0.004h0.001V68.988L51.001,68.988z" style="fill:#fff"/><path id="path3337" fill="#010101" d="M65.807,68.988l3.75-5.729l-3.404-5.249h2.591l2.198,3.528l2.15-3.528h2.572l-3.412,5.329L76,68.982h-2.67 l-2.432-3.793l-2.441,3.795h-2.654v0.004H65.807L65.807,68.988z" style="fill:#fff"/></g><rect id="rect3339" width="2" height="18" x="46.5" y="53.5" style="fill:#fff"/><rect id="rect3341" width="2" height="18" x="78.5" y="53.5" style="fill:#fff"/><rect id="rect3343" width="34" height="2" x="46.5" y="53.5" style="fill:#fff"/></svg>