<svg xmlns="http://www.w3.org/2000/svg" xmlns:svg="http://www.w3.org/2000/svg" id="_0.SHG-U----------" width="128" height="128" x="0" y="0" enable-background="new 0 0 128 128" version="1.1" viewBox="0 0 128 128" xml:space="preserve"><metadata id="metadata3370"/><g id="g3352"><path id="path3354" fill="#010101" d="M44.005,68.988l3.752-5.729l-3.4-5.248h2.585l2.2,3.525l2.156-3.525h2.569l-3.413,5.329l3.747,5.643h-2.668 l-2.437-3.789l-2.439,3.789H44v0.007L44.005,68.988L44.005,68.988z" style="fill:#fff"/><path id="path3356" fill="#010101" d="M58.4,68.988l3.749-5.729l-3.397-5.248h2.589l2.202,3.525l2.15-3.525h2.572l-3.41,5.327l3.746,5.645h-2.67 l-2.438-3.793l-2.442,3.793h-2.654v0.004H58.4V68.988L58.4,68.988z" style="fill:#fff"/><path id="path3358" fill="#010101" d="M72.807,68.988l3.75-5.729l-3.404-5.249h2.591l2.198,3.528l2.15-3.528h2.572l-3.412,5.329L83,68.982h-2.67 l-2.432-3.793l-2.441,3.795h-2.654v0.004H72.807L72.807,68.988z" style="fill:#fff"/></g><rect id="rect3360" width="2" height="18" x="39.5" y="53.5" style="fill:#fff"/><rect id="rect3362" width="2" height="18" x="85.5" y="53.5" style="fill:#fff"/><rect id="rect3364" width="48" height="2" x="39.5" y="53.5" style="fill:#fff"/></svg>