<svg xmlns="http://www.w3.org/2000/svg" xmlns:svg="http://www.w3.org/2000/svg" id="_0.SHG-U----------" width="128" height="128" x="0" y="0" enable-background="new 0 0 128 128" version="1.1" viewBox="0 0 128 128" xml:space="preserve"><metadata id="metadata3393"/><g id="g3373"><path id="path3375" fill="#010101" d="M37.002,68.988l3.749-5.729l-3.398-5.248h2.589l2.2,3.525l2.155-3.525h2.568l-3.414,5.327l3.75,5.645H44.53 l-2.433-3.795l-2.441,3.795H37v0.007L37.002,68.988L37.002,68.988z" style="fill:#fff"/><path id="path3377" fill="#010101" d="M51.272,68.988l3.752-5.729l-3.4-5.248h2.585l2.2,3.525l2.156-3.525h2.57l-3.414,5.329l3.748,5.643H58.8 l-2.437-3.789l-2.439,3.789h-2.656v0.007L51.272,68.988L51.272,68.988z" style="fill:#fff"/><path id="path3379" fill="#010101" d="M65.534,68.988l3.749-5.729l-3.396-5.248h2.588l2.202,3.525l2.151-3.525h2.57l-3.408,5.327l3.746,5.645 h-2.67l-2.438-3.793l-2.44,3.793h-2.653v0.004h0.001L65.534,68.988L65.534,68.988z" style="fill:#fff"/><path id="path3381" fill="#010101" d="M79.807,68.988l3.75-5.729l-3.404-5.249h2.591l2.198,3.528l2.15-3.528h2.572l-3.412,5.329L90,68.982h-2.67 l-2.432-3.793l-2.441,3.795h-2.654v0.004H79.807L79.807,68.988z" style="fill:#fff"/></g><rect id="rect3383" width="2" height="18" x="32.5" y="53.5" style="fill:#fff"/><rect id="rect3385" width="2" height="18" x="92.5" y="53.5" style="fill:#fff"/><rect id="rect3387" width="62" height="2" x="32.5" y="53.5" style="fill:#fff"/></svg>