<svg xmlns="http://www.w3.org/2000/svg" xmlns:svg="http://www.w3.org/2000/svg" id="_0.SHG-U----------" width="128" height="128" x="0" y="0" enable-background="new 0 0 128 128" version="1.1" viewBox="0 0 128 128" xml:space="preserve"><metadata id="metadata3445"/><g id="g3421"><path id="path3423" fill="#010101" d="M23,68.984l3.749-5.729l-3.398-5.246h2.59l2.2,3.526l2.157-3.526h2.566l-3.414,5.327l3.75,5.645h-2.671 l-2.434-3.791l-2.44,3.791H23V68.984z" style="fill:#fff;fill-opacity:1"/><path id="path3425" fill="#010101" d="M37.16,68.986l3.749-5.729l-3.397-5.247h2.591l2.2,3.525l2.155-3.525h2.567l-3.413,5.326l3.751,5.645 h-2.674l-2.433-3.793l-2.44,3.795h-2.657L37.16,68.986L37.16,68.986z" style="fill:#fff;fill-opacity:1"/><path id="path3427" fill="#010101" d="M51.322,68.986l3.749-5.729l-3.398-5.248h2.59l2.2,3.525l2.155-3.525h2.568l-3.413,5.327l3.749,5.645H58.85 l-2.434-3.795l-2.44,3.795H51.32v0.006H51.322L51.322,68.986z" style="fill:#fff;fill-opacity:1"/><path id="path3429" fill="#010101" d="M65.484,68.986l3.752-5.729l-3.399-5.248h2.585l2.2,3.525l2.155-3.525h2.57l-3.414,5.329l3.748,5.643 h-2.668l-2.438-3.789l-2.439,3.789H65.48v0.006H65.484L65.484,68.986z" style="fill:#fff;fill-opacity:1"/><path id="path3431" fill="#010101" d="M79.641,68.986l3.75-5.729l-3.396-5.248h2.589l2.202,3.525l2.149-3.525h2.57l-3.408,5.327l3.745,5.645 h-2.67l-2.437-3.793l-2.442,3.793h-2.653V68.986L79.641,68.986L79.641,68.986L79.641,68.986z" style="fill:#fff;fill-opacity:1"/><path id="path3433" fill="#010101" d="M93.807,68.989l3.75-5.729l-3.404-5.248h2.591l2.198,3.527l2.15-3.527h2.572l-3.412,5.328L104,68.982h-2.67 l-2.432-3.791l-2.441,3.793h-2.654v0.005H93.807L93.807,68.989z" style="fill:#fff;fill-opacity:1"/></g><rect id="rect3435" width="2" height="18" x="18.5" y="53.5" style="fill:#fff"/><rect id="rect3437" width="2" height="18" x="106.5" y="53.5" style="fill:#fff"/><rect id="rect3439" width="90" height="2" x="18.5" y="53.5" style="fill:#fff"/></svg>