<svg xmlns="http://www.w3.org/2000/svg" xmlns:svg="http://www.w3.org/2000/svg" id="_0.SNG-U----------" width="400" height="400" x="0" y="0" enable-background="new 0 0 400 400" version="1.1" viewBox="0 0 400 400" xml:space="preserve"><metadata id="metadata3526"/><g id="g3514"><path id="path3516" d="m 70.874,199.865 c 0,-10.771 -8.652,-18.661 -19.443,-18.661 -10.788,0 -18.707,7.89 -18.707,18.661 0,10.036 7.922,18.646 18.707,18.646 10.794,0.001 19.443,-8.61 19.443,-18.646 z" style="fill:none;stroke:#fff;stroke-width:10;stroke-linecap:round"/><path id="path3518" d="m 366.765,199.865 c 0,-10.771 -8.648,-18.661 -18.724,-18.661 -10.806,0 -18.727,7.89 -18.727,18.661 0,10.036 7.927,18.646 18.727,18.646 10.075,0.001 18.724,-8.61 18.724,-18.646 z" style="fill:none;stroke:#fff;stroke-width:10;stroke-linecap:round"/><line id="line3520" x1="31.996" x2="366.033" y1="180.489" y2="180.489" style="fill:none;stroke:#fff;stroke-width:10;stroke-linecap:round"/></g></svg>