<svg xmlns="http://www.w3.org/2000/svg" xmlns:svg="http://www.w3.org/2000/svg" id="_0.SNG-U----------" width="400" height="400" x="0" y="0" enable-background="new 0 0 400 400" version="1.1" viewBox="0 0 400 400" xml:space="preserve"><metadata id="metadata3543"/><g id="g3529"><path id="path3531" d="m 366.413,199.882 c 0,-11.048 -8.631,-19.147 -18.685,-19.147 -10.777,0 -18.685,8.099 -18.685,19.147 0,10.306 7.907,19.125 18.685,19.125 10.054,0 18.685,-8.819 18.685,-19.125 z" style="fill:none;stroke:#fff;stroke-width:10;stroke-linecap:round"/><line id="line3533" x1="32.351" x2="365.688" y1="179.994" y2="179.994" style="fill:none;stroke:#fff;stroke-width:10;stroke-linecap:round"/><path id="path3535" d="m 218.416,199.882 c 0,-11.048 -8.618,-19.147 -18.672,-19.147 -10.781,0 -18.683,8.099 -18.683,19.147 0,10.306 7.906,19.125 18.683,19.125 10.06,0 18.672,-8.819 18.672,-19.125 z" style="fill:none;stroke:#fff;stroke-width:10;stroke-linecap:round"/><path id="path3537" d="m 71.148,199.882 c 0,-11.048 -8.632,-19.147 -19.4,-19.147 -10.769,0 -18.674,8.099 -18.674,19.147 0,10.306 7.908,19.125 18.674,19.125 10.766,0 19.4,-8.819 19.4,-19.125 z" style="fill:none;stroke:#fff;stroke-width:10;stroke-linecap:round"/></g></svg>