<svg xmlns="http://www.w3.org/2000/svg" xmlns:svg="http://www.w3.org/2000/svg" id="_0.SNG-U----------" width="400" height="400" x="0" y="0" enable-background="new 0 0 400 400" version="1.1" viewBox="0 0 400 400" xml:space="preserve"><metadata id="metadata3580"/><g id="g3568"><path id="path3570" d="m 70.088,199.136 c 0,-10.811 -8.655,-18.744 -18.744,-18.744 -10.811,0 -18.737,7.933 -18.737,18.744 0,10.815 7.93,19.473 18.737,19.473 10.089,-0.006 18.744,-8.658 18.744,-19.473 z" style="fill:none;stroke:#fff;stroke-width:10"/><path id="path3572" d="m 366.394,199.136 c 0,-10.811 -8.646,-18.744 -18.753,-18.744 -10.812,0 -18.725,7.933 -18.725,18.744 0,10.815 7.917,19.473 18.725,19.473 10.107,-0.006 18.753,-8.658 18.753,-19.473 z" style="fill:none;stroke:#fff;stroke-width:10"/><line id="line3574" x1="70.812" x2="328.916" y1="199.136" y2="199.136" style="fill:none;stroke:#fff;stroke-width:10"/></g></svg>