<svg xmlns="http://www.w3.org/2000/svg" xmlns:svg="http://www.w3.org/2000/svg" id="_0.SNG-U----------" width="400" height="400" x="0" y="0" enable-background="new 0 0 400 400" version="1.1" viewBox="0 0 400 400" xml:space="preserve"><metadata id="metadata3599"/><g id="g3583"><line id="line3585" x1="32.529" x2="366.472" y1="180.431" y2="180.431" stroke-miterlimit="10" style="fill:none;stroke:#fff;stroke-width:10;stroke-linecap:round;stroke-linejoin:round;stroke-miterlimit:10"/><path id="path3587" stroke-miterlimit="10" d="m 71.392,199.854 c 0,-10.782 -8.648,-18.697 -19.436,-18.697 -10.786,0 -18.708,7.916 -18.708,18.697 0,10.068 7.919,18.714 18.708,18.714 10.792,0 19.436,-8.639 19.436,-18.714 z" style="fill:none;stroke:#fff;stroke-width:10;stroke-linecap:round;stroke-linejoin:round;stroke-miterlimit:10"/><path id="path3589" stroke-miterlimit="10" d="m 111.692,199.854 c 0,-10.782 -8.639,-18.697 -18.708,-18.697 -10.791,0 -18.708,7.916 -18.708,18.697 0,10.068 7.917,18.714 18.708,18.714 10.07,0 18.708,-8.639 18.708,-18.714 z" style="fill:none;stroke:#fff;stroke-width:10;stroke-linecap:round;stroke-linejoin:round;stroke-miterlimit:10"/><path id="path3591" stroke-miterlimit="10" d="m 326.173,199.854 c 0,-10.782 -8.646,-18.697 -18.717,-18.697 -10.805,0 -18.718,7.916 -18.718,18.697 0,10.068 7.913,18.714 18.718,18.714 10.078,0 18.717,-8.639 18.717,-18.714 z" style="fill:none;stroke:#fff;stroke-width:10;stroke-linecap:round;stroke-linejoin:round;stroke-miterlimit:10"/><path id="path3593" stroke-miterlimit="10" d="m 366.472,199.854 c 0,-10.782 -8.633,-18.697 -18.72,-18.697 -10.792,0 -18.69,7.916 -18.69,18.697 0,10.068 7.898,18.714 18.69,18.714 10.09,0 18.72,-8.639 18.72,-18.714 z" style="fill:none;stroke:#fff;stroke-width:10;stroke-linecap:round;stroke-linejoin:round;stroke-miterlimit:10"/></g></svg>