<svg xmlns="http://www.w3.org/2000/svg" xmlns:svg="http://www.w3.org/2000/svg" id="_0.SNG-U----------" width="400" height="400" x="0" y="0" enable-background="new 0 0 400 400" version="1.1" viewBox="0 0 400 400" xml:space="preserve"><metadata id="metadata3654"/><g id="g3646"><path id="path3648" d="m 32.613,199.5 c 0,-13.165 10.672,-23.841 23.841,-23.841 13.167,0 23.84,10.677 23.84,23.841 0,13.167 10.674,23.843 23.841,23.843 13.17,0 23.844,-10.676 23.844,-23.843 0,-13.165 10.67,-23.841 23.839,-23.841 13.167,0 23.84,10.677 23.84,23.841 0,13.167 10.677,23.843 23.844,23.843 13.164,0 23.843,-10.676 23.843,-23.843 0,-13.165 10.676,-23.841 23.841,-23.841 13.17,0 23.842,10.677 23.842,23.841 0,13.167 10.67,23.843 23.84,23.843 13.171,0 23.844,-10.676 23.844,-23.843 0,-13.165 10.673,-23.841 23.836,-23.841 13.165,0 23.846,10.677 23.846,23.841" style="fill:none;stroke:#fff;stroke-width:10;stroke-linecap:round"/></g></svg>