<svg xmlns="http://www.w3.org/2000/svg" xmlns:svg="http://www.w3.org/2000/svg" id="svg2" width="400" height="400" version="1.1" viewBox="0 0 400 400"><metadata id="metadata14"/><g id="g6" transform="matrix(0.5,0,0,0.5,101,42.500003)" style="stroke:none"><g style="font-size:150px;font-weight:700;fill:#fff;stroke:none;font-family:Arial" id="text8" transform="translate(-34.875,101.7)"><path style="font-size:150px;font-weight:700;fill:#fff;stroke:none;font-family:Arial" id="path3767" d="m 189.83984,44.626953 39.62403,0 c 8.93548,1.07e-4 15.747,0.683701 20.43457,2.050781 6.29875,1.855573 11.69425,5.151468 16.18652,9.887696 4.4921,4.736419 7.91006,10.534753 10.25391,17.395019 2.34365,6.860423 3.51552,15.319887 3.51562,25.378418 -10e-5,8.837933 -1.09873,16.455113 -3.2959,22.851563 -2.68564,7.81252 -6.51864,14.13576 -11.49902,18.96973 -3.75985,3.66211 -8.83797,6.51856 -15.23437,8.56933 C 245.03997,151.24316 238.6435,152 230.63574,152 l -40.7959,0 z m 21.67969,18.164063 0,71.118164 16.18652,0 c 6.05464,2e-5 10.42475,-0.34178 13.11036,-1.02539 3.51556,-0.87889 6.43303,-2.36814 8.75244,-4.46777 2.31926,-2.09959 4.21135,-5.55417 5.67627,-10.36377 1.46476,-4.80954 2.19718,-11.3647 2.19726,-19.665531 -8e-5,-8.30072 -0.7325,-14.672784 -2.19726,-19.116211 -1.46492,-4.443282 -3.5157,-7.910076 -6.15235,-10.400391 -2.63678,-2.490149 -5.98151,-4.174717 -10.03418,-5.053711 -3.0274,-0.683505 -8.96001,-1.025301 -17.79785,-1.02539 z"/></g></g><path style="fill:#fff;fill-opacity:1;stroke:#000;stroke-width:6;stroke-miterlimit:4;stroke-opacity:1;stroke-dasharray:12,6;stroke-dashoffset:0" id="polyline4" d="m 100,160 0,40 100,60 100,-60 0,-40 -100,60 z"/></svg>