<svg xmlns="http://www.w3.org/2000/svg" xmlns:svg="http://www.w3.org/2000/svg" id="svg2" width="400" height="400" version="1.1" viewBox="0 0 400 400"><metadata id="metadata10"/><path id="path2988" d="m 170.6665,208.5254 12.61231,3.99902 c -1.93366,7.03126 -5.14899,12.25343 -9.646,15.6665 -4.49712,3.41309 -10.20268,5.11963 -17.1167,5.11963 -8.55471,0 -15.58596,-2.92236 -21.09375,-8.76709 -5.50782,-5.84471 -8.26172,-13.83542 -8.26172,-23.97217 0,-10.72261 2.76855,-19.05024 8.30567,-24.98291 5.53709,-5.93255 12.81735,-8.89887 21.84082,-8.89893 7.88081,6e-5 14.28217,2.32916 19.2041,6.98731 2.92963,2.75397 5.12689,6.70903 6.59179,11.86524 l -12.87597,3.07616 c -0.76177,-3.3398 -2.35112,-5.9765 -4.76806,-7.91015 -2.41704,-1.93354 -5.35404,-2.90033 -8.81103,-2.90039 -4.77542,6e-5 -8.64994,1.71392 -11.62354,5.1416 -2.97365,3.42778 -4.46047,8.97954 -4.46045,16.65528 -2e-5,8.14455 1.46483,13.94533 4.39453,17.40234 2.92967,3.45704 6.73826,5.18556 11.42578,5.18555 3.457,1e-5 6.43063,-1.09862 8.9209,-3.2959 2.49019,-2.19725 4.2773,-5.65428 5.36133,-10.37109 z" style="font-size:90px;font-weight:700;text-anchor:middle;fill:#fff;fill-opacity:1;stroke:#000;stroke-width:6;stroke-miterlimit:4;stroke-opacity:1;stroke-dasharray:12,6;stroke-dashoffset:0;font-family:Arial"/><path id="path2990" d="m 194.08935,232.21192 0,-64.42383 13.00782,0 0,64.42383 z" style="font-size:90px;font-weight:700;text-anchor:middle;fill:#fff;fill-opacity:1;stroke:#000;stroke-width:6;stroke-miterlimit:4;stroke-opacity:1;stroke-dasharray:12,6;stroke-dashoffset:0;font-family:Arial"/><path id="path2992" d="m 235.88134,232.21192 -23.02734,-64.42383 14.10645,0 16.30371,47.68067 15.77636,-47.68067 13.79883,0 -23.07129,64.42383 z" style="font-size:90px;font-weight:700;text-anchor:middle;fill:#fff;fill-opacity:1;stroke:#000;stroke-width:6;stroke-miterlimit:4;stroke-opacity:1;stroke-dasharray:12,6;stroke-dashoffset:0;font-family:Arial"/></svg>