<svg xmlns="http://www.w3.org/2000/svg" xmlns:svg="http://www.w3.org/2000/svg" id="svg2" width="400" height="400" version="1.1" viewBox="0 0 400 400"><metadata id="metadata12"/><g style="font-size:150px;font-weight:700;text-anchor:middle;fill:#fff;stroke:#000;stroke-width:6;stroke-miterlimit:4;stroke-opacity:1;stroke-dasharray:12,6;stroke-dashoffset:0;font-family:Arial" id="text4"><path style="font-size:150px;font-weight:700;text-anchor:middle;fill:#fff;stroke:#000;stroke-width:6;stroke-miterlimit:4;stroke-opacity:1;stroke-dasharray:12,6;stroke-dashoffset:0;font-family:Arial" id="path2990" d="m 157.00684,265 0,-107.37305 21.67968,0 0,47.68067 43.79883,-47.68067 29.15039,0 -40.42969,41.82129 42.62696,65.55176 -28.05176,0 -29.5166,-50.39063 -17.57813,17.94434 0,32.44629 z"/></g><g style="font-size:65px;font-weight:700;text-anchor:middle;fill:#fff;stroke:none;stroke-width:6;stroke-miterlimit:4;stroke-opacity:1;stroke-dasharray:none;stroke-dashoffset:0;font-family:Arial" id="text6"><path style="font-size:65px;font-weight:700;text-anchor:middle;fill:#fff;stroke:none;stroke-width:6;stroke-miterlimit:4;stroke-opacity:1;stroke-dasharray:none;stroke-dashoffset:0;font-family:Arial" id="path2993" d="m 181.27441,103.47168 18.59864,0 c 3.68161,5e-5 6.42697,0.15345 8.23608,0.4602 1.80905,0.30685 3.4277,0.94691 4.85596,1.92017 1.42818,0.97335 2.61837,2.26933 3.57055,3.88794 0.95211,1.61869 1.42819,3.43306 1.42823,5.44312 -4e-5,2.17939 -0.5872,4.1789 -1.76148,5.99853 -1.17435,1.81969 -2.76655,3.18443 -4.77661,4.09424 2.83525,0.82522 5.01461,2.23228 6.53809,4.22119 1.52339,1.98895 2.28511,4.327 2.28515,7.01416 -4e-5,2.1159 -0.49198,4.17359 -1.47583,6.1731 -0.98392,1.99951 -2.32751,3.59701 -4.03076,4.79248 -1.70332,1.19547 -3.80334,1.93074 -6.30005,2.20581 -1.56578,0.16927 -5.34263,0.27506 -11.33056,0.31738 l -15.83741,0 z m 9.39454,7.74414 0,10.75928 6.15722,0 c 3.66046,3e-5 5.93503,-0.0529 6.82373,-0.15869 1.60805,-0.19041 2.87229,-0.74582 3.79273,-1.66626 0.92038,-0.92038 1.38058,-2.13173 1.38061,-3.63404 -3e-5,-1.43876 -0.39676,-2.60779 -1.19018,-3.50708 -0.79349,-0.89921 -1.9731,-1.44405 -3.53882,-1.63452 -0.93102,-0.10575 -3.60761,-0.15865 -8.02979,-0.15869 z m 0,18.50342 0,12.4414 8.69628,0 c 3.38539,1e-5 5.53302,-0.0952 6.44288,-0.28564 1.39645,-0.2539 2.53374,-0.87279 3.41186,-1.85669 0.87806,-0.98388 1.31711,-2.30101 1.31714,-3.95142 -3e-5,-1.39646 -0.33858,-2.58136 -1.01563,-3.55468 -0.67711,-0.97329 -1.65571,-1.68211 -2.93579,-2.12647 -1.28014,-0.44431 -4.05723,-0.66648 -8.3313,-0.6665 z"/></g></svg>