<svg xmlns="http://www.w3.org/2000/svg" xmlns:svg="http://www.w3.org/2000/svg" id="svg2" width="400" height="400" version="1.1" viewBox="0 0 400 400"><metadata id="metadata24"/><g id="g4" transform="scale(0.8 0.8) translate(50 -30)" style="fill:none;fill-opacity:1;stroke:#000;stroke-opacity:1;stroke-width:7.5;stroke-miterlimit:4;stroke-dasharray:15,7.5;stroke-dashoffset:0"><path style="fill:none;stroke:#000;stroke-dasharray:15,7.5;fill-opacity:1;stroke-opacity:1;stroke-width:7.5;stroke-miterlimit:4;stroke-dashoffset:0" id="path6" d="M200 200 L145 175 C90 150 90 250 145 225 L200 200 L255 175 C310 150 310 250 255 225 L200 200"/></g><g id="g8" transform="scale(0.7 0.7) translate(80 120)"><polyline style="fill:#fff;stroke:#000;stroke-width:10;stroke-dasharray:10" id="polyline10" points="120 160 120 240 210 240 250 280 250 120 210 160 120 160 120 240"/><line style="stroke:#000;stroke-width:10;stroke-dasharray:10" id="line12" x1="250" x2="290" y1="217" y2="217"/><line style="stroke:#000;stroke-width:10;stroke-dasharray:10" id="line14" x1="250" x2="290" y1="183" y2="183"/><line style="stroke:#000;stroke-width:10;stroke-dasharray:10" id="line16" x1="250" x2="290" y1="150" y2="150" transform="translate(270 150) scale(1 1) translate(-270 -150)"/><line style="stroke:#000;stroke-width:10;stroke-dasharray:10" id="line18" x1="250" x2="290" y1="250" y2="250"/></g></svg>