<svg xmlns="http://www.w3.org/2000/svg" xmlns:svg="http://www.w3.org/2000/svg" id="svg2" width="400" height="400" version="1.1" viewBox="0 0 400 400"><metadata id="metadata10"/><g style="font-size:90px;fill:#fff;stroke:#000;stroke-width:6;stroke-miterlimit:4;stroke-opacity:1;stroke-dasharray:12,6;stroke-dashoffset:0;font-family:Arial" id="text4"><path style="font-size:90px;fill:#fff;stroke:#000;stroke-width:6;stroke-miterlimit:4;stroke-opacity:1;stroke-dasharray:12,6;stroke-dashoffset:0;font-family:Arial" id="path2988" d="m 149.04297,212.30176 8.04199,-0.70313 c 0.38085,3.22268 1.26708,5.86672 2.65869,7.93213 1.39159,2.06544 3.55223,3.73536 6.48194,5.00977 2.92966,1.27442 6.22555,1.91162 9.88769,1.91162 3.25192,0 6.12301,-0.48339 8.61328,-1.4502 2.49019,-0.96678 4.34322,-2.29247 5.55908,-3.97705 1.21578,-1.68455 1.82369,-3.52293 1.82373,-5.51513 -4e-5,-2.02147 -0.58598,-3.7866 -1.75781,-5.29541 -1.17192,-1.50877 -3.10551,-2.77586 -5.80078,-3.80127 -1.72855,-0.6738 -5.55179,-1.72117 -11.46973,-3.14209 -5.91799,-1.42087 -10.06349,-2.7612 -12.43652,-4.021 -3.07618,-1.61129 -5.36866,-3.6108 -6.87744,-5.99854 -1.5088,-2.38765 -2.26319,-5.06099 -2.26318,-8.02001 -1e-5,-3.25191 0.92284,-6.29145 2.76855,-9.11866 1.84569,-2.82709 4.541,-4.97308 8.08594,-6.43799 3.5449,-1.46477 7.48533,-2.1972 11.82129,-2.19726 4.77535,6e-5 8.98678,0.76911 12.63427,2.30713 3.64742,1.53815 6.45259,3.80133 8.41553,6.78955 1.96284,2.98833 3.01753,6.37212 3.16406,10.15137 l -8.17382,0.61523 c -0.4395,-4.07222 -1.92632,-7.14838 -4.46045,-9.22852 -2.53422,-2.08002 -6.27689,-3.12005 -11.22803,-3.12011 -5.15627,6e-5 -8.91359,0.94488 -11.27197,2.83447 -2.35842,1.8897 -3.53762,4.16753 -3.5376,6.8335 -2e-5,2.3145 0.83495,4.21879 2.50488,5.71289 1.64061,1.49418 5.92527,3.02494 12.85401,4.59228 6.92867,1.56742 11.68208,2.93705 14.26025,4.10889 3.74995,1.72855 6.5185,3.91849 8.30566,6.56982 1.78706,2.65139 2.68061,5.70559 2.68067,9.1626 -6e-5,3.42775 -0.9815,6.65773 -2.94434,9.68994 -1.96294,3.03223 -4.78276,5.39063 -8.45947,7.0752 -3.6768,1.68457 -7.81498,2.52685 -12.41455,2.52685 -5.8301,0 -10.71535,-0.84961 -14.65576,-2.54883 -3.94045,-1.69921 -7.03126,-4.25536 -9.27246,-7.66845 -2.24122,-3.41308 -3.42042,-7.27294 -3.5376,-11.57959 z"/><path style="font-size:90px;fill:#fff;stroke:#000;stroke-width:6;stroke-miterlimit:4;stroke-opacity:1;stroke-dasharray:12,6;stroke-dashoffset:0;font-family:Arial" id="path2990" d="m 212.5,233 0,-64.42383 43.46191,0 0,7.60254 -34.93652,0 0,19.95117 30.23438,0 0,7.60254 -30.23438,0 0,29.26758 z"/></g></svg>