<svg xmlns="http://www.w3.org/2000/svg" xmlns:svg="http://www.w3.org/2000/svg" id="svg2" width="400" height="400" version="1.1" viewBox="0 0 400 400"><metadata id="metadata22"/><line style="stroke:#fff;stroke-width:10;stroke-dasharray:10" id="line4" x1="140" x2="260" y1="200" y2="200"/><path style="fill:none;stroke:#fff;stroke-width:10;stroke-dasharray:10" id="path6" d="M285 175 C250 175 250 225 285 225"/><path style="fill:none;stroke:#fff;stroke-width:10;stroke-dasharray:10" id="path8" d="M115 175 C150 175 150 225 115 225"/><polyline style="fill:none;stroke:#fff;stroke-width:10;stroke-miterlimit:4;stroke-dasharray:20,10;stroke-dashoffset:0" id="polyline14" points="20 80 70 200 20 320"/><polyline style="fill:none;stroke:#fff;stroke-width:10;stroke-miterlimit:4;stroke-dasharray:20,10;stroke-dashoffset:0" id="polyline16" points="380 80 330 200 380 320"/><g id="g10" transform="translate(0,-30)" style="stroke:none"><g style="font-size:65px;font-weight:700;text-anchor:middle;fill:#fff;stroke:none;font-family:Arial" id="text12"><path style="font-size:65px;font-weight:700;text-anchor:middle;fill:#fff;stroke:none;font-family:Arial" id="path3000" d="m 181.27441,307 0,-46.52832 9.39454,0 0,18.31299 18.4082,0 0,-18.31299 9.39453,0 0,46.52832 -9.39453,0 0,-20.34424 -18.4082,0 0,20.34424 z"/></g></g></svg>