<svg xmlns="http://www.w3.org/2000/svg" xmlns:svg="http://www.w3.org/2000/svg" id="svg2" width="400" height="400" version="1.1" viewBox="0 0 400 400"><metadata id="metadata14"/><polyline style="fill:none;stroke:#fff;stroke-width:10;stroke-miterlimit:4;stroke-dasharray:20,10;stroke-dashoffset:0" id="polyline8" points="380 80 330 200 380 320"/><path id="path6" d="m 254.7495,262.15625 c -8.4305,0 -18.876,-2.0215 -31.343,-6.084 -37.1345,-11.83 -66.7745,-32.552 -88.92,-62.1595 -1.8785,-2.4895 -6.2465,-10.27 -13.104,-23.361 -5.941,-11.1995 -9.685,-22.1065 -11.232,-32.708 l 120.25,0 c 0,2.184 0,4.5175 0,7.007 0,13.4095 2.184,26.3315 6.552,38.7985 6.552,17.758 14.209,32.097 22.9385,42.9845 9.9775,11.843 19.968,23.6925 29.9585,35.5225 z" style="fill:none;stroke:#fff;stroke-width:9.89999962;stroke-miterlimit:4;stroke-opacity:1;stroke-dasharray:19.8,9.9;stroke-dashoffset:0"/></svg>