<svg xmlns="http://www.w3.org/2000/svg" xmlns:svg="http://www.w3.org/2000/svg" id="svg2" width="400" height="400" version="1.1" viewBox="0 0 400 400"><metadata id="metadata28"/><line style="stroke:#fff;stroke-width:10;stroke-dasharray:10" id="line6" x1="380" x2="20" y1="80" y2="320"/><g id="g10" transform="translate(120 55) scale(0.4 0.4)"><ellipse style="fill:none;stroke:#fff;stroke-width:18;stroke-dasharray:10" id="ellipse12" cx="200" cy="104" d="m 216,104 c 0,8.83656 -7.16344,16 -16,16 -8.83656,0 -16,-7.16344 -16,-16 0,-8.836556 7.16344,-16 16,-16 8.83656,0 16,7.163444 16,16 z" rx="16" ry="16"/><line style="stroke:#fff;stroke-width:18;stroke-dasharray:10" id="line14" x1="200" x2="200" y1="120" y2="280"/><line style="stroke:#fff;stroke-width:18;stroke-dasharray:10" id="line16" x1="120" x2="280" y1="130" y2="130"/><path style="fill:#fff;stroke:#fff;stroke-width:18;stroke-dasharray:10" id="path18" d="M100 200 C150 300 250 300 300 200 C250 315 150 315 100 200"/><path style="fill:#fff;stroke:#fff;stroke-width:18;stroke-dasharray:10" id="path20" d="M100 200 C108 245 113 245 113 245 L128 225 C115 220 110 210 103 203"/><path style="fill:#fff;stroke:#fff;stroke-width:18;stroke-dasharray:10" id="path22" d="M300 200 C292 245 287 245 287 245 L272 225 C285 220 290 210 297 203"/></g><ellipse style="fill:#fff;stroke:#000;stroke-width:6;stroke-miterlimit:4;stroke-opacity:1;stroke-dasharray:12,6;stroke-dashoffset:0" id="ellipse4" cx="200" cy="200" rx="18" ry="18"/><polyline style="fill:#fff;stroke:#000;stroke-width:6;stroke-miterlimit:4;stroke-opacity:1;stroke-dasharray:12,6;stroke-dashoffset:0" id="polyline8" points="200 200 110 150 110 250 200 200 290 150 290 250 200 200"/></svg>