<svg xmlns="http://www.w3.org/2000/svg" xmlns:svg="http://www.w3.org/2000/svg" id="svg2" width="400" height="400" version="1.1" viewBox="0 0 400 400"><metadata id="metadata26"/><g id="g4" transform="translate(20 50) scale(0.9 0.9)"><ellipse style="fill:none;stroke:#fff;stroke-width:10;stroke-dasharray:10" id="ellipse6" cx="200" cy="200" d="m 280,200 c 0,44.18278 -35.81722,80 -80,80 -44.18278,0 -80,-35.81722 -80,-80 0,-44.18278 35.81722,-80 80,-80 44.18278,0 80,35.81722 80,80 z" rx="80" ry="80"/><line style="stroke:#fff;stroke-width:10;stroke-dasharray:10" id="line8" x1="136" x2="264" y1="156" y2="244"/><line style="stroke:#fff;stroke-width:10;stroke-dasharray:10" id="line10" x1="136" x2="264" y1="244" y2="156"/><line style="stroke:#fff;stroke-width:10;stroke-dasharray:10" id="line12" x1="200" x2="200" y1="120" y2="280"/></g><polyline style="fill:none;stroke:#fff;stroke-width:10;stroke-miterlimit:4;stroke-dasharray:20,10;stroke-dashoffset:0" id="polyline18" points="20 80 70 200 20 320"/><polyline style="fill:none;stroke:#fff;stroke-width:10;stroke-miterlimit:4;stroke-dasharray:20,10;stroke-dashoffset:0" id="polyline20" points="380 80 330 200 380 320"/><g id="g14" transform="matrix(0.8,0,0,0.8,39,-34.999996)" style="fill:#fff;fill-opacity:1;stroke:none"><g style="font-size:65px;font-weight:700;text-anchor:middle;fill:#fff;fill-opacity:1;stroke:none;font-family:Arial" id="text16"><path style="font-size:65px;font-weight:700;text-anchor:middle;fill:#fff;fill-opacity:1;stroke:none;font-family:Arial" id="path3004" d="m 130.5249,223 0,-46.52832 14.06006,0 8.44238,31.73828 8.34717,-31.73828 14.0918,0 0,46.52832 -8.72803,0 0,-36.62598 -9.23584,36.62598 -9.04541,0 -9.2041,-36.62598 0,36.62598 z"/><path style="font-size:65px;font-weight:700;text-anchor:middle;fill:#fff;fill-opacity:1;stroke:none;font-family:Arial" id="path3006" d="m 214.63135,205.89307 9.10888,2.88818 c -1.39652,5.07813 -3.7187,8.8497 -6.96655,11.3147 -3.24792,2.465 -7.3686,3.69751 -12.36206,3.69751 -6.1784,0 -11.25652,-2.1106 -15.23437,-6.33179 -3.97787,-4.22118 -5.9668,-9.99225 -5.9668,-17.31323 0,-7.74411 1.99951,-13.75851 5.99853,-18.04322 3.99901,-4.28462 9.25698,-6.42695 15.77393,-6.427 5.6917,5e-5 10.31491,1.68218 13.86963,5.04639 2.11584,1.98897 3.70276,4.84541 4.76074,8.56934 l -9.29932,2.22167 c -0.55016,-2.41207 -1.69803,-4.31637 -3.4436,-5.71289 -1.74563,-1.39644 -3.86681,-2.09468 -6.36352,-2.09472 -3.44892,4e-5 -6.24717,1.23783 -8.39478,3.71338 -2.14764,2.47562 -3.22145,6.48521 -3.22144,12.02881 -1e-5,5.88217 1.05793,10.07162 3.17383,12.56835 2.11587,2.49676 4.86652,3.74513 8.25196,3.74512 2.49671,1e-5 4.64434,-0.79345 6.44287,-2.38037 1.79847,-1.5869 3.08916,-4.08364 3.87207,-7.49023 z"/><path style="font-size:65px;font-weight:700;text-anchor:middle;fill:#fff;fill-opacity:1;stroke:none;font-family:Arial" id="path3008" d="m 261.604,205.89307 9.10889,2.88818 c -1.39653,5.07813 -3.71871,8.8497 -6.96655,11.3147 -3.24792,2.465 -7.3686,3.69751 -12.36206,3.69751 -6.17841,0 -11.25653,-2.1106 -15.23438,-6.33179 -3.97787,-4.22118 -5.9668,-9.99225 -5.96679,-17.31323 -1e-5,-7.74411 1.9995,-13.75851 5.99853,-18.04322 3.99901,-4.28462 9.25698,-6.42695 15.77393,-6.427 5.6917,5e-5 10.3149,1.68218 13.86963,5.04639 2.11584,1.98897 3.70275,4.84541 4.76074,8.56934 l -9.29932,2.22167 c -0.55016,-2.41207 -1.69803,-4.31637 -3.4436,-5.71289 -1.74564,-1.39644 -3.86681,-2.09468 -6.36353,-2.09472 -3.44891,4e-5 -6.24717,1.23783 -8.39477,3.71338 -2.14764,2.47562 -3.22145,6.48521 -3.22144,12.02881 -1e-5,5.88217 1.05793,10.07162 3.17383,12.56835 2.11587,2.49676 4.86652,3.74513 8.25195,3.74512 2.49672,1e-5 4.64434,-0.79345 6.44287,-2.38037 1.79847,-1.5869 3.08916,-4.08364 3.87207,-7.49023 z"/></g></g></svg>