<svg xmlns="http://www.w3.org/2000/svg" xmlns:svg="http://www.w3.org/2000/svg" id="svg2" width="400" height="400" version="1.1" viewBox="0 0 400 400"><metadata id="metadata14"/><path style="fill:none;stroke:#fff;stroke-width:10;stroke-dasharray:10" id="path8" d="M24 320 C100 180 300 180 376 320"/><g id="g4" transform="matrix(0.9,0,0,0.9,20.000004,-10.000003)" style="stroke:none"><g style="font-size:90px;font-weight:700;text-anchor:middle;fill:#fff;stroke:none;font-family:Arial" id="text6"><path style="font-size:90px;font-weight:700;text-anchor:middle;fill:#fff;stroke:none;font-family:Arial" id="path2992" d="m 104.02344,232 0,-64.42383 13.00781,0 0,25.35645 25.48828,0 0,-25.35645 13.00781,0 0,64.42383 -13.00781,0 0,-28.16895 -25.48828,0 0,28.16895 z"/><path style="font-size:90px;font-weight:700;text-anchor:middle;fill:#fff;stroke:none;font-family:Arial" id="path2994" d="m 168.84277,232 0,-64.42383 19.46778,0 11.68945,43.94531 11.55762,-43.94531 19.51172,0 0,64.42383 -12.08497,0 0,-50.71289 L 206.19629,232 l -12.52442,0 -12.74414,-50.71289 0,50.71289 z"/><path style="font-size:90px;font-weight:700;text-anchor:middle;fill:#fff;stroke:none;font-family:Arial" id="path2996" d="m 244.0332,167.57617 23.77442,0 c 5.36129,7e-5 9.4482,0.41022 12.26074,1.23047 3.77925,1.11334 7.01655,3.09088 9.71191,5.93262 2.69526,2.84185 4.74604,6.32085 6.15235,10.43701 1.40619,4.11625 2.10931,9.19193 2.10937,15.22705 -6e-5,5.30276 -0.65924,9.87307 -1.97754,13.71094 -1.61138,4.68751 -3.91118,8.48145 -6.89941,11.38183 -2.25591,2.19727 -5.30278,3.91114 -9.14063,5.14161 -2.87113,0.9082 -6.70902,1.3623 -11.51367,1.3623 l -24.47754,0 z m 13.00782,10.89844 0,42.6709 9.71191,0 c 3.63278,1e-5 6.25485,-0.20507 7.86621,-0.61524 2.10934,-0.52733 3.85982,-1.42088 5.25147,-2.68066 1.39155,-1.25975 2.52681,-3.3325 3.40576,-6.21826 0.87886,-2.88572 1.31831,-6.81882 1.31836,-11.79932 -5e-5,-4.98043 -0.4395,-8.80367 -1.31836,-11.46973 -0.87895,-2.66596 -2.10942,-4.74604 -3.69141,-6.24023 -1.58207,-1.49409 -3.5889,-2.50483 -6.02051,-3.03223 -1.81644,-0.4101 -5.376,-0.61518 -10.67871,-0.61523 z"/></g></g></svg>