<svg xmlns:xlink="http://www.w3.org/1999/xlink" width="400" height="400" viewBox="0 0 400 400"><polygon points="125 250 125 200 275 200 275 250" style="fill:#fff;stroke:#000;stroke-width:10;stroke-dasharray:10"/><ellipse cx="150" cy="250" rx="20" ry="20" style="fill:#fff;stroke:#000;stroke-width:10;stroke-dasharray:10"/><ellipse cx="250" cy="250" rx="20" ry="20" style="fill:#fff;stroke:#000;stroke-width:10;stroke-dasharray:10"/><line style="stroke:#000;stroke-width:10;stroke-dasharray:10" x1="175" x2="190" y1="200" y2="150"/><line style="stroke:#000;stroke-width:10;stroke-dasharray:10" x1="200" x2="200" y1="204" y2="250" transform="matrix(1 0 0 1 0 0)"/><line style="stroke:#000;stroke-width:10;stroke-dasharray:10" x1="181" x2="181" y1="205" y2="250" transform="matrix(1 0 0 1 0 0) translate(1 0) translate(-1 0) translate(0 -1)"/><line style="stroke:#000;stroke-width:10;stroke-dasharray:10" x1="219" x2="219" y1="205" y2="250" transform="matrix(1 0 0 1 0 0) translate(0 -1)"/></svg>