<svg xmlns="http://www.w3.org/2000/svg" xmlns:svg="http://www.w3.org/2000/svg" id="svg2" width="400" height="400" version="1.1" viewBox="0 0 400 400"><metadata id="metadata20"/><line style="stroke:#fff;stroke-width:10;stroke-dasharray:10" id="line12" x1="200" x2="200" y1="93" y2="298"/><polyline style="fill:#fff;stroke:#fff;stroke-width:1;stroke-dasharray:10" id="polyline14" points="99 219 200 310 301 219"/><g id="g4" transform="matrix(0.5,0,0,0.5,37.999995,74.999995)" style="stroke:none;stroke-width:12;stroke-miterlimit:4;stroke-opacity:1;stroke-dasharray:24,12;stroke-dashoffset:0"><g style="font-size:150px;font-weight:700;text-anchor:middle;fill:#fff;stroke:none;stroke-width:12;stroke-miterlimit:4;stroke-opacity:1;stroke-dasharray:24,12;stroke-dashoffset:0;font-family:Arial" id="text6"><path style="font-size:150px;font-weight:700;text-anchor:middle;fill:#fff;stroke:none;stroke-width:12;stroke-miterlimit:4;stroke-opacity:1;stroke-dasharray:24,12;stroke-dashoffset:0;font-family:Arial" id="path2998" d="m 160.81543,230 0,-107.37305 79.61426,0 0,18.16407 -57.93457,0 0,23.80371 53.90625,0 0,18.09082 -53.90625,0 0,29.22363 59.98535,0 0,18.09082 z"/></g></g><g id="g8" transform="matrix(0.5,0,0,0.5,147.99999,74.999995)" style="stroke:none;stroke-width:12;stroke-miterlimit:4;stroke-opacity:1;stroke-dasharray:24,12;stroke-dashoffset:0"><g style="font-size:150px;font-weight:700;text-anchor:middle;fill:#fff;stroke:none;stroke-width:12;stroke-miterlimit:4;stroke-opacity:1;stroke-dasharray:24,12;stroke-dashoffset:0;font-family:Arial" id="text10"><path style="font-size:150px;font-weight:700;text-anchor:middle;fill:#fff;stroke:none;stroke-width:12;stroke-miterlimit:4;stroke-opacity:1;stroke-dasharray:24,12;stroke-dashoffset:0;font-family:Arial" id="path3001" d="m 155.39551,230 -25.63477,-107.37305 22.19238,0 16.18653,73.75489 19.6289,-73.75489 25.78125,0 18.82325,75 16.47949,-75 21.82617,0 L 244.60449,230 221.60645,230 200.21973,149.72656 178.90625,230 z"/></g></g></svg>