<svg xmlns="http://www.w3.org/2000/svg" xmlns:svg="http://www.w3.org/2000/svg" id="svg2" width="400" height="400" version="1.1" viewBox="0 0 400 400"><metadata id="metadata14"/><polyline style="fill:none;stroke:#fff;stroke-width:10;stroke-dasharray:10" id="polyline4" points="20 80 200 220 200 180 380 320"/><g id="g6" transform="translate(63 -20) scale(0.8 0.8)"><g style="font-size:65px;font-weight:700;text-anchor:middle;fill:#fff;font-family:Arial" id="text8"><path style="font-size:65px;font-weight:700;text-anchor:middle;fill:#fff;font-family:Arial" id="path2992" d="m 134.07959,223 0,-46.52832 14.06006,0 8.44238,31.73828 8.34717,-31.73828 14.0918,0 0,46.52832 -8.72803,0 0,-36.62598 -9.23584,36.62598 -9.04541,0 -9.2041,-36.62598 0,36.62598 z"/><path style="font-size:65px;font-weight:700;text-anchor:middle;fill:#fff;font-family:Arial" id="path2994" d="m 186.03516,207.86084 9.14062,-0.88867 c 0.55012,3.06804 1.66625,5.32146 3.34839,6.76025 1.68211,1.43881 3.9514,2.15821 6.80786,2.1582 3.02569,10e-6 5.30556,-0.64004 6.8396,-1.92016 1.53399,-1.2801 2.301,-2.77709 2.30103,-4.49097 -3e-5,-1.10024 -0.32271,-2.03652 -0.96802,-2.80884 -0.64538,-0.77228 -1.77208,-1.44407 -3.38013,-2.01538 -1.10028,-0.38084 -3.60761,-1.05792 -7.52197,-2.03125 -5.03582,-1.24835 -8.56935,-2.78236 -10.60059,-4.60205 -2.85645,-2.56019 -4.28467,-5.68112 -4.28466,-9.36279 -1e-5,-2.36976 0.67178,-4.58614 2.01538,-6.64917 1.34358,-2.06295 3.27961,-3.63399 5.8081,-4.71314 2.52847,-1.07905 5.58063,-1.6186 9.1565,-1.61865 5.83981,5e-5 10.23556,1.28016 13.18725,3.84033 2.95162,2.56027 4.50151,5.97742 4.64966,10.25147 l -9.39453,0.4126 c -0.40205,-2.39092 -1.26427,-4.11007 -2.58667,-5.15747 -1.32246,-1.04733 -3.3061,-1.57101 -5.95093,-1.57105 -2.72951,4e-5 -4.86655,0.56075 -6.41113,1.68213 -0.99448,0.71944 -1.49171,1.68217 -1.4917,2.88818 -1e-5,1.1003 0.46548,2.04187 1.39648,2.82471 1.18488,0.9945 4.06248,2.03128 8.63282,3.11035 4.57028,1.07913 7.9504,2.19526 10.14038,3.34839 2.1899,1.15318 3.90377,2.72952 5.1416,4.72901 1.23775,1.99953 1.85665,4.46982 1.85669,7.41088 -4e-5,2.66603 -0.7406,5.16277 -2.22168,7.49024 -1.48116,2.32748 -3.57588,4.05721 -6.28418,5.18921 -2.70836,1.132 -6.0832,1.69799 -10.12451,1.698 -5.88218,-1e-5 -10.39959,-1.35946 -13.55225,-4.07837 -3.15267,-2.71891 -5.03581,-6.6809 -5.64941,-11.88599 z"/><path style="font-size:65px;font-weight:700;text-anchor:middle;fill:#fff;font-family:Arial" id="path2996" d="m 231.8335,223 0,-46.52832 34.49951,0 0,7.87109 -25.10498,0 0,10.31494 23.35937,0 0,7.83936 -23.35937,0 0,12.66357 25.99365,0 0,7.83936 z"/></g></g></svg>