<svg xmlns="http://www.w3.org/2000/svg" xmlns:svg="http://www.w3.org/2000/svg" id="svg2" width="400" height="400" version="1.1" viewBox="0 0 400 400"><metadata id="metadata26"/><line style="stroke:#fff;stroke-width:10;stroke-dasharray:10" id="line8" x1="125" x2="153" y1="133" y2="107"/><line style="stroke:#fff;stroke-width:10;stroke-dasharray:10" id="line10" x1="147" x2="178" y1="107" y2="133"/><line style="stroke:#fff;stroke-width:10;stroke-dasharray:10" id="line12" x1="172" x2="203" y1="133" y2="107"/><line style="stroke:#fff;stroke-width:10;stroke-dasharray:10" id="line14" x1="197" x2="228" y1="107" y2="133"/><line style="stroke:#fff;stroke-width:10;stroke-dasharray:10" id="line16" x1="222" x2="253" y1="133" y2="107"/><line style="stroke:#fff;stroke-width:10;stroke-dasharray:10" id="line18" x1="247" x2="275" y1="107" y2="133"/><line style="stroke:#fff;stroke-width:10;stroke-dasharray:10" id="line20" x1="200" x2="200" y1="110" y2="220"/><g id="g4" transform="translate(0,65)" style="stroke:#fff;stroke-width:6;stroke-miterlimit:4;stroke-opacity:1;stroke-dasharray:12,6;stroke-dashoffset:0"><g style="font-size:90px;font-weight:700;text-anchor:middle;fill:#fff;stroke:#fff;stroke-width:6;stroke-miterlimit:4;stroke-opacity:1;stroke-dasharray:12,6;stroke-dashoffset:0;font-family:Arial" id="text6"><path style="font-size:90px;font-weight:700;text-anchor:middle;fill:#fff;stroke:#fff;stroke-width:6;stroke-miterlimit:4;stroke-opacity:1;stroke-dasharray:12,6;stroke-dashoffset:0;font-family:Arial" id="path3004" d="m 156.3623,232 0,-64.42383 19.46778,0 11.68945,43.94531 11.55762,-43.94531 19.51172,0 0,64.42383 -12.08496,0 0,-50.71289 L 193.71582,232 l -12.52441,0 -12.74414,-50.71289 0,50.71289 z"/><path style="font-size:90px;font-weight:700;text-anchor:middle;fill:#fff;stroke:#fff;stroke-width:6;stroke-miterlimit:4;stroke-opacity:1;stroke-dasharray:12,6;stroke-dashoffset:0;font-family:Arial" id="path3006" d="m 231.20117,232 0,-64.42383 13.00781,0 0,64.42383 z"/></g></g></svg>