<svg xmlns="http://www.w3.org/2000/svg" xmlns:svg="http://www.w3.org/2000/svg" id="svg2" width="400" height="400" version="1.1" viewBox="0 0 400 400"><metadata id="metadata16"/><line style="stroke:#fff;stroke-width:10;stroke-dasharray:10" id="line8" x1="150" x2="200" y1="105" y2="175"/><line style="stroke:#fff;stroke-width:10;stroke-dasharray:10" id="line10" x1="250" x2="200" y1="105" y2="175"/><g id="g4" transform="matrix(0.9,0,0,0.9,16.000001,49.999997)" style="fill:#fff;fill-opacity:1;stroke:none"><g style="font-size:90px;font-weight:700;text-anchor:middle;fill:#fff;fill-opacity:1;stroke:none;font-family:Arial" id="text6"><path style="font-size:90px;font-weight:700;text-anchor:middle;fill:#fff;fill-opacity:1;stroke:none;font-family:Arial" id="path3762" d="m 111.27441,232 0,-64.42383 19.46778,0 11.68945,43.94531 11.55762,-43.94531 19.51172,0 0,64.42383 -12.08496,0 0,-50.71289 L 148.62793,232 l -12.52441,0 -12.74414,-50.71289 0,50.71289 z"/><path style="font-size:90px;font-weight:700;text-anchor:middle;fill:#fff;fill-opacity:1;stroke:none;font-family:Arial" id="path3764" d="m 186.50879,232 0,-64.42383 47.76855,0 0,10.89844 -34.76074,0 0,14.28223 32.34375,0 0,10.85449 -32.34375,0 0,17.53418 35.99121,0 0,10.85449 z"/><path style="font-size:90px;font-weight:700;text-anchor:middle;fill:#fff;fill-opacity:1;stroke:none;font-family:Arial" id="path3766" d="m 261.12793,232 0,-53.52539 -19.11621,0 0,-10.89844 51.19629,0 0,10.89844 -19.07227,0 0,53.52539 z"/></g></g></svg>