<svg xmlns:xlink="http://www.w3.org/1999/xlink" width="400" height="400" viewBox="0 0 400 400"><g><text style="fill:#fff;font-family:Arial;font-size:90;font-weight:700;text-anchor:middle" x="200" y="232" transform="translate(0 40)">EW</text></g><g style="clip-rule:nonzero;fill:none;stroke:#fff;stroke-width:1"><clipPath id="FrameClip"><rect style="fill:#fff" width="360" height="240" x="20" y="80"/></clipPath><g style="clip-path:url(#FrameClip)"><path d="M20 159 C20 162 53 170 53 140 C53 110 95 110 95 140 C95 170 137 170 137 140 C137 110 179 110 179 140 C179 170 221 170 221 140 C221 110 263 110 263 140 C263 170 305 170 305 140 C305 110 347 110 347 140 C347 170 380 162 380 159" transform="translate(200 117.5) scale(1 0.644444) translate(-200 -117.5) translate(20 140) scale(0.866667 1) translate(-20 -140) translate(20 140) scale(0.900641 1) translate(-20 -140) translate(20 140) scale(0.879004 1) translate(-20 -140) translate(200 117.5) scale(1 0.896552) translate(-200 -117.5) translate(40.8097 -22.5) translate(20 140) scale(0.935223 1) translate(-20 -140) translate(15.5844 -10.3846) translate(-86.1727 -2.0362) translate(-1.83346 14.2534) translate(4.67532 -1.73077)" style="fill:none;stroke:#fff;stroke-width:10"/><path d="M20 159 C20 162 53 170 53 140 C53 110 95 110 95 140 C95 170 137 170 137 140 C137 110 179 110 179 140 C179 170 221 170 221 140 C221 110 263 110 263 140 C263 170 305 170 305 140 C305 110 347 110 347 140 C347 170 380 162 380 159" transform="matrix(0.641667 0 0 0.577778 71.696 119.67) translate(214.026 -143.077)" style="fill:none;stroke:#fff;stroke-width:10"/><path d="M20 159 C20 162 53 170 53 140 C53 110 95 110 95 140 C95 170 137 170 137 140 C137 110 179 110 179 140 C179 170 221 170 221 140 C221 110 263 110 263 140 C263 170 305 170 305 140 C305 110 347 110 347 140 C347 170 380 162 380 159" transform="matrix(0.641667 0 0 0.577778 -36.304 119.67) translate(42.0779 -96.9231) translate(0 6.92308)" style="fill:none;stroke:#fff;stroke-width:10"/><path d="M20 159 C20 162 53 170 53 140 C53 110 95 110 95 140 C95 170 137 170 137 140 C137 110 179 110 179 140 C179 170 221 170 221 140 C221 110 263 110 263 140 C263 170 305 170 305 140 C305 110 347 110 347 140 C347 170 380 162 380 159" transform="matrix(0.641667 0 0 0.577778 181.029 120.003) translate(42.0779 -96.923) translate(0 6.92307)" style="fill:none;stroke:#fff;stroke-width:10"/></g></g></svg>