<svg xmlns:xlink="http://www.w3.org/1999/xlink" width="400" height="400" viewBox="0 0 400 400"><g><path d="M0 7.125 L1.75 7.125 L1.75 23.375 L0 23.375 zM5.75 14.125 L5.75 12.004 L1.75 12.004 L1.75 14.125 zM5.75 18.34 L5.75 16.25 L1.75 16.25 L1.75 18.34 zM7.625 0 L7.625 35.375 L5.75 35.303 L5.75 0 zM11.25 14.125 L11.25 12.004 L7.625 12.004 L7.625 14.125 zM11.25 18.484 L11.25 16.25 L7.625 16.25 L7.625 18.484 zM11.25 7.125 L13.125 7.125 L13.125 23.375 L11.25 23.375 z" transform="translate(156 96) scale(6.5 5.9)" style="fill:#fff"/></g></svg>