<svg xmlns:xlink="http://www.w3.org/1999/xlink" width="400" height="400" viewBox="0 0 400 400"><g transform="translate(0 29) scale(1 0.8)"><line style="stroke:#fff;stroke-width:10" x1="120" x2="120" y1="130" y2="270"/><line style="stroke:#fff;stroke-width:10" x1="280" x2="280" y1="130" y2="270"/><line style="stroke:#fff;stroke-width:10" x1="120" x2="280" y1="265" y2="265"/><path d="M120 134 C190 160 210 160 280 134" style="fill:none;stroke:#fff;stroke-width:10"/></g><g style="clip-rule:nonzero;fill:none;stroke:#fff;stroke-width:1"><clipPath id="FrameClip"><rect style="fill:#fff" width="160" height="120" x="120" y="140"/></clipPath><g style="clip-path:url(#FrameClip)"><path d="M20 159 C20 162 53 170 53 140 C53 110 95 110 95 140 C95 170 137 170 137 140 C137 110 179 110 179 140 C179 170 221 170 221 140 C221 110 263 110 263 140 C263 170 305 170 305 140 C305 110 347 110 347 140 C347 170 380 162 380 159" transform="translate(100 125) scale(0.5 0.5)" style="fill:none;stroke:#fff;stroke-width:20"/></g></g><ellipse cx="130" cy="260" rx="13" ry="13" style="fill:none;stroke:#fff;stroke-width:10"/><ellipse cx="270" cy="260" rx="13" ry="13" style="fill:none;stroke:#fff;stroke-width:10"/></svg>