<svg xmlns:xlink="http://www.w3.org/1999/xlink" width="400" height="400" viewBox="0 0 400 400"><g transform="translate(100 106) scale(0.5 0.4)"><ellipse cx="130" cy="160" rx="18" ry="18" style="fill:#fff;stroke:#fff;stroke-width:10"/><ellipse cx="270" cy="160" rx="18" ry="18" style="fill:#fff;stroke:#fff;stroke-width:10"/><path d="M140 145 C200 180 210 200 235 290" style="fill:none;stroke:#fff;stroke-width:10"/><path d="M260 145 C200 180 190 200 165 290" style="fill:none;stroke:#fff;stroke-width:10"/></g><line style="stroke:#fff;stroke-width:10" x1="380" x2="20" y1="80" y2="320"/><g><path d="M140 140 C80 140 80 260 140 260 L260 260 C320 260 320 140 260 140 z" transform="translate(10 0) scale(0.95 0.88)" style="fill:none;stroke:#fff;stroke-width:10"/></g><ellipse cx="120" cy="245" rx="13" ry="13" style="fill:none;stroke:#fff;stroke-width:10"/><ellipse cx="200" cy="245" rx="13" ry="13" style="fill:none;stroke:#fff;stroke-width:10"/><ellipse cx="280" cy="245" rx="13" ry="13" style="fill:none;stroke:#fff;stroke-width:10"/><g><text style="fill:#fff;font-family:Arial;font-size:150;font-weight:700;text-anchor:middle" x="200" y="230" transform="translate(141 93) scale(0.3 0.3)">RS</text></g></svg>