<svg xmlns="http://www.w3.org/2000/svg" xmlns:svg="http://www.w3.org/2000/svg" id="svg2" width="400" height="400" version="1.1" viewBox="0 0 400 400"><metadata id="metadata12"/><g id="g4" transform="matrix(5.75,0,0,5.75,119,85)" style="stroke:#000;stroke-width:1.04347825;stroke-miterlimit:4;stroke-opacity:1;stroke-dasharray:2.08695652,1.04347826;stroke-dashoffset:0"><path style="fill:#fff;stroke:#000;stroke-width:1.04347825;stroke-miterlimit:4;stroke-opacity:1;stroke-dasharray:2.08695652,1.04347826;stroke-dashoffset:0" id="path6" d="m 28.08,32.361 c -0.961,0.191 -2.377,0.432 -4.248,0.719 -0.912,0.098 -2.279,0.193 -4.104,0.289 -0.145,0.432 -0.193,1.006 -0.145,1.725 -0.289,0 -0.816,0.098 -1.584,0.289 -0.02,0 -0.02,0.48 0,1.438 l -3.313,-0.072 c -0.096,0.332 -0.311,1.375 -0.646,3.127 -0.145,-0.719 -0.314,-1.699 -0.506,-2.945 -0.096,-0.096 -1.248,-0.145 -3.455,-0.145 0,-0.094 0.023,-0.297 0.072,-0.609 0.047,-0.313 0.072,-0.539 0.072,-0.684 C 9.694,35.206 9.118,35.061 8.494,35.061 8.494,34.87 8.469,34.608 8.422,34.272 8.373,33.936 8.35,33.672 8.35,33.481 5.664,33.098 2.879,32.715 0,32.332 L 0,30.535 C -0.049,29.674 0.264,28.812 0.936,27.949 2.52,26.273 4.799,23.711 7.776,20.261 8.401,19.495 8.784,18.681 8.928,17.818 9.6,14.177 10.104,11.568 10.44,9.986 11.112,6.922 11.76,4.431 12.385,2.513 12.959,0.838 13.512,0 14.041,0 c 0.287,0 0.646,0.457 1.078,1.367 0.863,1.773 1.584,4.1 2.16,6.975 0.383,2.207 0.768,4.436 1.152,6.688 0.191,0.912 0.553,2.23 1.08,3.957 0.238,0.574 0.672,1.27 1.297,2.084 1.246,1.344 2.494,2.686 3.744,4.027 2.352,2.637 3.527,4.268 3.527,4.891 l 0,2.372 z"/></g></svg>