<svg xmlns="http://www.w3.org/2000/svg" xmlns:svg="http://www.w3.org/2000/svg" id="svg2" width="400" height="400" version="1.1" viewBox="0 0 400 400"><metadata id="metadata12"/><g style="font-size:150px;font-weight:700;text-anchor:middle;fill:#fff;stroke:#000;stroke-width:6;stroke-miterlimit:4;stroke-opacity:1;stroke-dasharray:12,6;stroke-dashoffset:0;font-family:Arial" id="text4"><path style="font-size:150px;font-weight:700;text-anchor:middle;fill:#fff;stroke:#000;stroke-width:6;stroke-miterlimit:4;stroke-opacity:1;stroke-dasharray:12,6;stroke-dashoffset:0;font-family:Arial" id="path2990" d="m 157.00684,265 0,-107.37305 21.67968,0 0,47.68067 43.79883,-47.68067 29.15039,0 -40.42969,41.82129 42.62696,65.55176 -28.05176,0 -29.5166,-50.39063 -17.57813,17.94434 0,32.44629 z"/></g><g style="font-size:65px;font-weight:700;text-anchor:middle;fill:#fff;stroke:none;font-family:Arial" id="text6"><path style="font-size:65px;font-weight:700;text-anchor:middle;fill:#fff;stroke:none;font-family:Arial" id="path2993" d="m 181.21094,103.47168 17.17041,0 c 3.87204,5e-5 6.8237,0.29627 8.85498,0.88867 2.72946,0.80408 5.06751,2.2323 7.01416,4.28467 1.94657,2.05245 3.42769,4.56506 4.44336,7.53784 1.01558,2.97285 1.52339,6.63862 1.52344,10.99732 -5e-5,3.82977 -0.47612,7.13055 -1.42823,9.90234 -1.16378,3.38543 -2.82474,6.12549 -4.98291,8.22021 -1.62927,1.58692 -3.82978,2.82471 -6.60156,3.71338 -2.0736,0.65593 -4.8454,0.98389 -8.31543,0.98389 l -17.67822,0 z m 9.39453,7.87109 0,30.81787 7.01416,0 c 2.62367,1e-5 4.51739,-0.1481 5.68115,-0.44433 1.52341,-0.38085 2.78765,-1.0262 3.79273,-1.93604 1.00501,-0.90982 1.82491,-2.4068 2.45971,-4.49096 0.63473,-2.08413 0.95212,-4.92471 0.95215,-8.52173 -3e-5,-3.59698 -0.31742,-6.35821 -0.95215,-8.28369 -0.6348,-1.92543 -1.52347,-3.4277 -2.66601,-4.50684 -1.14261,-1.07906 -2.59199,-1.80904 -4.34815,-2.18994 -1.31187,-0.29619 -3.88267,-0.4443 -7.7124,-0.44434 z"/></g></svg>