<svg xmlns="http://www.w3.org/2000/svg" xmlns:svg="http://www.w3.org/2000/svg" id="svg2" width="400" height="400" version="1.1" viewBox="0 0 400 400"><metadata id="metadata10"/><g style="font-size:75px;fill:#fff;stroke:#000;stroke-width:6;stroke-miterlimit:4;stroke-opacity:1;stroke-dasharray:12,6;stroke-dashoffset:0;font-family:Arial" id="text4"><path style="font-size:75px;fill:#fff;stroke:#000;stroke-width:6;stroke-miterlimit:4;stroke-opacity:1;stroke-dasharray:12,6;stroke-dashoffset:0;font-family:Arial" id="path2988" d="m 166.01562,174.31348 7.1045,0 0,31.01806 c -5e-5,5.39553 -0.6104,9.68019 -1.83106,12.85401 -1.22075,3.17383 -3.42411,5.75562 -6.6101,7.74536 -3.18608,1.98974 -7.36698,2.98462 -12.54273,2.98462 -5.02932,0 -9.14308,-0.8667 -12.34131,-2.6001 -3.19825,-1.7334 -5.48096,-4.24194 -6.84814,-7.52564 -1.3672,-3.28367 -2.05079,-7.76975 -2.05078,-13.45825 l 0,-31.01806 7.10449,0 0,30.98144 c -1e-5,4.66311 0.43333,8.09938 1.30005,10.30884 0.86668,2.20948 2.35594,3.91236 4.46777,5.10864 2.1118,1.1963 4.69358,1.79444 7.74536,1.79444 5.22458,0 8.94772,-1.18408 11.16944,-3.55225 2.22164,-2.36815 3.33247,-6.92137 3.33251,-13.65967 z"/><path style="font-size:75px;fill:#fff;stroke:#000;stroke-width:6;stroke-miterlimit:4;stroke-opacity:1;stroke-dasharray:12,6;stroke-dashoffset:0;font-family:Arial" id="path2990" d="m 184.98535,228 0,-53.68652 18.49365,0 c 4.17478,5e-5 7.36081,0.2564 9.55811,0.76904 3.07613,0.70806 5.70064,1.9898 7.87353,3.84521 2.83199,2.39263 4.94991,5.45049 6.35376,9.17359 1.40376,3.72318 2.10567,7.97733 2.10572,12.76245 -5e-5,4.07717 -0.47613,7.69045 -1.42823,10.83984 -0.95219,3.14943 -2.17289,5.75563 -3.6621,7.81861 -1.48931,2.06299 -3.11894,3.68653 -4.88892,4.8706 -1.77006,1.18409 -3.90629,2.0813 -6.40869,2.69165 C 210.47971,227.69482 207.60495,228 204.35791,228 z m 7.10449,-6.33545 11.46241,0 c 3.54001,1e-5 6.3171,-0.32958 8.33129,-0.98877 2.01413,-0.65917 3.61935,-1.5869 4.81568,-2.7832 1.68453,-1.68456 2.99678,-3.94896 3.93677,-6.79321 0.9399,-2.84422 1.40987,-6.29271 1.40991,-10.34546 -4e-5,-5.61521 -0.92167,-9.93039 -2.76489,-12.94556 -1.8433,-3.01509 -4.08329,-5.03536 -6.71997,-6.06079 -1.90433,-0.73238 -4.96829,-1.09859 -9.1919,-1.09863 l -11.2793,0 z"/><path style="font-size:75px;fill:#fff;stroke:#000;stroke-width:6;stroke-miterlimit:4;stroke-opacity:1;stroke-dasharray:12,6;stroke-dashoffset:0;font-family:Arial" id="path2992" d="m 252.84424,228 0,-47.35107 -17.68799,0 0,-6.33545 42.55371,0 0,6.33545 -17.76123,0 0,47.35107 z"/></g></svg>