<svg xmlns="http://www.w3.org/2000/svg" xmlns:svg="http://www.w3.org/2000/svg" id="svg2" width="400" height="400" version="1.1" viewBox="0 0 400 400"><metadata id="metadata10"/><g style="font-size:90px;font-weight:700;text-anchor:middle;fill:#fff;stroke:#000;stroke-width:6;stroke-miterlimit:4;stroke-opacity:1;stroke-dasharray:12,6;stroke-dashoffset:0;font-family:Arial" id="text4"><path style="font-size:90px;font-weight:700;text-anchor:middle;fill:#fff;stroke:#000;stroke-width:6;stroke-miterlimit:4;stroke-opacity:1;stroke-dasharray:12,6;stroke-dashoffset:0;font-family:Arial" id="path2988" d="m 143.96973,232 0,-64.42383 20.87402,0 c 7.91012,7e-5 13.06637,0.32233 15.46875,0.9668 3.69136,0.96686 6.78218,3.06891 9.27246,6.30615 2.49018,3.23736 3.7353,7.41948 3.73535,12.54639 -5e-5,3.95512 -0.71783,7.28031 -2.15332,9.97558 -1.4356,2.69535 -3.25933,4.81205 -5.47119,6.3501 -2.21196,1.53811 -4.46049,2.55618 -6.7456,3.0542 -3.10551,0.61526 -7.60258,0.92288 -13.49122,0.92285 l -8.48144,0 0,24.30176 z m 13.00781,-53.52539 0,18.28125 7.11914,0 c 5.12692,3e-5 8.55465,-0.33688 10.2832,-1.01074 1.72848,-0.67379 3.08346,-1.72848 4.06494,-3.16407 0.98141,-1.4355 1.47213,-3.10542 1.47217,-5.00976 -4e-5,-2.3437 -0.68852,-4.2773 -2.06543,-5.80078 -1.37699,-1.52339 -3.12015,-2.47554 -5.22949,-2.85645 -1.55277,-0.29291 -4.67288,-0.4394 -9.36035,-0.43945 z"/><path style="font-size:90px;font-weight:700;text-anchor:middle;fill:#fff;stroke:#000;stroke-width:6;stroke-miterlimit:4;stroke-opacity:1;stroke-dasharray:12,6;stroke-dashoffset:0;font-family:Arial" id="path2990" d="m 262.18262,232 -14.15039,0 -5.625,-14.63379 -25.75196,0 -5.31738,14.63379 -13.79883,0 25.09278,-64.42383 13.75488,0 z m -23.9502,-25.48828 -8.87695,-23.90625 -8.70117,23.90625 z"/></g></svg>