<svg xmlns:xlink="http://www.w3.org/1999/xlink" width="400" height="400" viewBox="0 0 400 400"><ellipse cx="200" cy="200" rx="60" ry="60" style="fill:none;stroke:#fff;stroke-width:10;stroke-dasharray:10"/><g transform="translate(200 200) rotate(0)"><line style="stroke:#fff;stroke-width:10;stroke-dasharray:10" x1="60" x2="110" y1="0" y2="0"/></g><g transform="translate(200 200) rotate(315)"><line style="stroke:#fff;stroke-width:10;stroke-dasharray:10" x1="60" x2="110" y1="0" y2="0"/></g><g transform="translate(200 200) rotate(270)"><line style="stroke:#fff;stroke-width:10;stroke-dasharray:10" x1="60" x2="110" y1="0" y2="0"/></g><g transform="translate(200 200) rotate(225)"><line style="stroke:#fff;stroke-width:10;stroke-dasharray:10" x1="60" x2="110" y1="0" y2="0"/></g><g transform="translate(200 200) rotate(180)"><line style="stroke:#fff;stroke-width:10;stroke-dasharray:10" x1="60" x2="110" y1="0" y2="0"/></g><g transform="translate(200 200) rotate(135)"><line style="stroke:#fff;stroke-width:10;stroke-dasharray:10" x1="60" x2="110" y1="0" y2="0"/></g><g transform="translate(200 200) rotate(90)"><line style="stroke:#fff;stroke-width:10;stroke-dasharray:10" x1="60" x2="110" y1="0" y2="0"/></g><g transform="translate(200 200) rotate(45)"><line style="stroke:#fff;stroke-width:10;stroke-dasharray:10" x1="60" x2="110" y1="0" y2="0"/></g></svg>