<svg xmlns="http://www.w3.org/2000/svg" xmlns:svg="http://www.w3.org/2000/svg" id="svg2" width="400" height="400" version="1.1" viewBox="0 0 400 400"><metadata id="metadata12"/><g id="g4" transform="matrix(6,0,0,6,112.56437,117.95719)" style="fill:#fff"><path style="fill:#fff" id="path6" d="M 3.746,3.412 C 3.41,3.652 2.904,4.324 2.232,5.43 1.848,6.15 1.512,6.51 1.225,6.51 1.176,6.51 0.959,6.463 0.577,6.365 c -0.049,0 -0.24,0 -0.576,0 C 0.384,4.744 1.319,3.279 2.808,1.967 4.295,0.656 5.662,0 6.912,0 7.295,0 8.519,0.398 10.584,1.195 7.619,1.383 5.658,1.85 4.701,2.6 4.3289376,2.8834034 3.9153665,3.2144398 3.746,3.412 z"/></g><path style="fill:none;stroke:#fff;stroke-width:6.9000001;stroke-linecap:butt;stroke-linejoin:miter;stroke-miterlimit:4;stroke-opacity:1;stroke-dasharray:13.8,6.9;stroke-dashoffset:0" id="path2989" d="m 139.27625,133.88941 144.70338,144.7034"/><g style="fill:#fff" id="g3790" transform="matrix(-6,0,0,6,287.43563,117.95719)"><path id="path3792" d="M 3.746,3.412 C 3.41,3.652 2.904,4.324 2.232,5.43 1.848,6.15 1.512,6.51 1.225,6.51 1.176,6.51 0.959,6.463 0.577,6.365 c -0.049,0 -0.24,0 -0.576,0 C 0.384,4.744 1.319,3.279 2.808,1.967 4.295,0.656 5.662,0 6.912,0 7.295,0 8.519,0.398 10.584,1.195 7.619,1.383 5.658,1.85 4.701,2.6 4.3289376,2.8834034 3.9153665,3.2144398 3.746,3.412 z" style="fill:#fff"/></g><path id="path3794" d="M 260.72375,133.88941 116.02037,278.59281" style="fill:none;stroke:#fff;stroke-width:6.9000001;stroke-linecap:butt;stroke-linejoin:miter;stroke-miterlimit:4;stroke-opacity:1;stroke-dasharray:13.8,6.9;stroke-dashoffset:0"/></svg>