<svg xmlns="http://www.w3.org/2000/svg" xmlns:svg="http://www.w3.org/2000/svg" id="svg2" width="400" height="400" version="1.1" viewBox="0 0 400 400"><metadata id="metadata16"/><polyline style="fill:none;stroke:#fff;stroke-width:10;stroke-miterlimit:4;stroke-dasharray:20,10;stroke-dashoffset:0" id="polyline8" points="70 155 100 200 70 245"/><polyline style="fill:none;stroke:#fff;stroke-width:10;stroke-miterlimit:4;stroke-dasharray:20,10;stroke-dashoffset:0" id="polyline10" points="330 155 300 200 330 245"/><g id="g4" transform="matrix(0.8,0,0,0.8,44.999997,40.000004)" style="stroke:#000;stroke-width:6.25;stroke-miterlimit:4;stroke-opacity:1;stroke-dasharray:12.5,6.25;stroke-dashoffset:0"><g style="font-size:90px;font-weight:700;text-anchor:middle;fill:#fff;stroke:#000;stroke-width:6.25;stroke-miterlimit:4;stroke-opacity:1;stroke-dasharray:12.5,6.25;stroke-dashoffset:0;font-family:Arial" id="text6"><path style="font-size:90px;font-weight:700;text-anchor:middle;fill:#fff;stroke:#000;stroke-width:6.25;stroke-miterlimit:4;stroke-opacity:1;stroke-dasharray:12.5,6.25;stroke-dashoffset:0;font-family:Arial" id="path2994" d="m 162.0752,232 -14.1504,0 -5.625,-14.63379 -25.75195,0 -5.31738,14.63379 -13.798829,0 25.092769,-64.42383 13.75489,0 z m -23.9502,-25.48828 -8.87695,-23.90625 -8.70117,23.90625 z"/><path style="font-size:90px;font-weight:700;text-anchor:middle;fill:#fff;stroke:#000;stroke-width:6.25;stroke-miterlimit:4;stroke-opacity:1;stroke-dasharray:12.5,6.25;stroke-dashoffset:0;font-family:Arial" id="path2996" d="m 168.97461,167.57617 23.77441,0 c 5.3613,7e-5 9.44821,0.41022 12.26075,1.23047 3.77925,1.11334 7.01655,3.09088 9.71191,5.93262 2.69526,2.84185 4.74604,6.32085 6.15234,10.43701 1.40619,4.11625 2.10932,9.19193 2.10938,15.22705 -6e-5,5.30276 -0.65924,9.87307 -1.97754,13.71094 -1.61139,4.68751 -3.91119,8.48145 -6.89941,11.38183 -2.25591,2.19727 -5.30279,3.91114 -9.14063,5.14161 C 202.09469,231.5459 198.2568,232 193.45215,232 l -24.47754,0 z m 13.00781,10.89844 0,42.6709 9.71192,0 c 3.63278,1e-5 6.25484,-0.20507 7.86621,-0.61524 2.10933,-0.52733 3.85982,-1.42088 5.25146,-2.68066 1.39156,-1.25975 2.52681,-3.3325 3.40576,-6.21826 0.87886,-2.88572 1.31832,-6.81882 1.31836,-11.79932 -4e-5,-4.98043 -0.4395,-8.80367 -1.31836,-11.46973 -0.87895,-2.66596 -2.10942,-4.74604 -3.6914,-6.24023 -1.58207,-1.49409 -3.58891,-2.50483 -6.02051,-3.03223 -1.81644,-0.4101 -5.37601,-0.61518 -10.67871,-0.61523 z"/><path style="font-size:90px;font-weight:700;text-anchor:middle;fill:#fff;stroke:#000;stroke-width:6.25;stroke-miterlimit:4;stroke-opacity:1;stroke-dasharray:12.5,6.25;stroke-dashoffset:0;font-family:Arial" id="path2998" d="m 233.88184,232 0,-64.42383 19.46777,0 11.68945,43.94531 11.55762,-43.94531 19.51172,0 0,64.42383 -12.08496,0 0,-50.71289 L 271.23535,232 l -12.52441,0 -12.74414,-50.71289 0,50.71289 z"/></g></g></svg>