<svg xmlns="http://www.w3.org/2000/svg" xmlns:svg="http://www.w3.org/2000/svg" id="svg2" width="400" height="400" version="1.1" viewBox="0 0 400 400"><metadata id="metadata14"/><polyline style="fill:none;stroke:#fff;stroke-width:10;stroke-dasharray:10" id="polyline4" points="96 130 200 220 200 180 304 270"/><g id="g6" transform="translate(85 3) scale(0.7 0.7)"><g style="font-size:65px;font-weight:700;text-anchor:middle;fill:#fff;font-family:Arial" id="text8"><path style="font-size:65px;font-weight:700;text-anchor:middle;fill:#fff;font-family:Arial" id="path2992" d="m 154.51904,223 -10.21972,0 -4.0625,-10.56885 -18.59864,0 -3.84033,10.56885 -9.96582,0 18.12256,-46.52832 9.93408,0 z m -17.29736,-18.4082 -6.41113,-17.26563 -6.28418,17.26563 z"/><path style="font-size:65px;font-weight:700;text-anchor:middle;fill:#fff;font-family:Arial" id="path2994" d="m 159.56543,223 0,-46.52832 19.77295,0 c 4.9723,5e-5 8.58517,0.41793 10.83862,1.25366 2.25338,0.83582 4.05717,2.32223 5.41138,4.45923 1.35412,2.13708 2.03121,4.58093 2.03125,7.33154 -4e-5,3.49124 -1.02625,6.37414 -3.07861,8.64868 -2.05245,2.2746 -5.12048,3.70812 -9.20411,4.30054 2.03122,1.18492 3.70806,2.48619 5.03052,3.90381 1.32239,1.41766 3.10502,3.93556 5.3479,7.55371 l 5.68115,9.07715 -11.23535,0 -6.79199,-10.12451 c -2.41213,-3.61815 -4.06252,-5.89802 -4.95117,-6.8396 -0.8887,-0.94155 -1.83026,-1.5869 -2.82471,-1.93604 -0.99448,-0.3491 -2.57082,-0.52366 -4.729,-0.52368 l -1.9043,0 0,19.42383 z m 9.39453,-26.85059 6.95068,0 c 4.50681,3e-5 7.32094,-0.1904 8.44239,-0.57129 1.12139,-0.38083 1.99948,-1.03675 2.63427,-1.96777 0.63474,-0.93096 0.95212,-2.09469 0.95215,-3.49121 -3e-5,-1.56572 -0.41792,-2.82996 -1.25366,-3.79272 -0.8358,-0.96269 -2.01541,-1.57101 -3.53882,-1.82496 -0.76174,-0.10575 -3.0469,-0.15865 -6.85547,-0.15869 l -7.33154,0 z"/><path style="font-size:65px;font-weight:700;text-anchor:middle;fill:#fff;font-family:Arial" id="path2996" d="m 206.50635,223 0,-46.52832 34.49951,0 0,7.87109 -25.10498,0 0,10.31494 23.35937,0 0,7.83936 -23.35937,0 0,12.66357 25.99365,0 0,7.83936 z"/><path style="font-size:65px;font-weight:700;text-anchor:middle;fill:#fff;font-family:Arial" id="path2998" d="m 291.88232,223 -10.21972,0 -4.0625,-10.56885 -18.59864,0 -3.84033,10.56885 -9.96582,0 18.12256,-46.52832 9.93408,0 z m -17.29736,-18.4082 -6.41113,-17.26563 -6.28418,17.26563 z"/></g></g></svg>