<svg xmlns="http://www.w3.org/2000/svg" xmlns:svg="http://www.w3.org/2000/svg" id="svg2" width="400" height="400" version="1.1" viewBox="0 0 400 400"><metadata id="metadata16"/><line style="stroke:#fff;stroke-width:10;stroke-dasharray:10" id="line4" x1="304" x2="96" y1="130" y2="270"/><path style="fill:none;stroke:#fff;stroke-width:10;stroke-dasharray:10" id="path6" d="M44 218 C47 217 53 210 53 200 C53 170 95 170 95 200 C95 230 137 230 137 200 C137 170 179 170 179 200 C179 230 221 230 221 200 C221 170 263 170 263 200 C263 230 305 230 305 200 C305 170 347 170 347 200 C347 210 353 217 356 218"/><g id="g8" transform="matrix(0.4,0,0,0.4,78,69.999999)" style="stroke:none;stroke-width:15;stroke-miterlimit:4;stroke-opacity:1;stroke-dasharray:30,15;stroke-dashoffset:0"><text style="font-size:150px;font-weight:700;text-anchor:middle;fill:#fff;stroke:none;stroke-width:15;stroke-miterlimit:4;stroke-opacity:1;stroke-dasharray:30,15;stroke-dashoffset:0;font-family:Arial" id="text10" x="200" y="230">D</text></g></svg>