<svg xmlns="http://www.w3.org/2000/svg" xmlns:svg="http://www.w3.org/2000/svg" id="svg2" width="400" height="400" version="1.1" viewBox="0 0 400 400"><metadata id="metadata20"/><line style="stroke:#fff;stroke-width:10;stroke-dasharray:10" id="line4" x1="200" x2="200" y1="30" y2="370"/><line style="stroke:#fff;stroke-width:10;stroke-dasharray:10" id="line6" x1="100" x2="300" y1="200" y2="200"/><polyline style="fill:none;stroke:#fff;stroke-width:10;stroke-miterlimit:4;stroke-dasharray:20,10;stroke-dashoffset:0" id="polyline8" points="70 155 100 200 70 245"/><polyline style="fill:none;stroke:#fff;stroke-width:10;stroke-miterlimit:4;stroke-dasharray:20,10;stroke-dashoffset:0" id="polyline10" points="330 155 300 200 330 245"/><g id="g12" transform="matrix(0.4,0,0,0.4,170,180)"><g style="font-size:150px;font-weight:700;text-anchor:middle;fill:#fff;font-family:Arial" id="text14"><path style="font-size:150px;font-weight:700;text-anchor:middle;fill:#fff;font-family:Arial" id="path2998" d="m 156.64062,122.62695 39.62403,0 c 8.93549,1.1e-4 15.747,0.6837 20.43457,2.05078 6.29875,1.85558 11.69425,5.15147 16.18652,9.8877 4.4921,4.73642 7.91006,10.53475 10.25391,17.39502 2.34365,6.86042 3.51552,15.31989 3.51562,25.37842 -1e-4,8.83793 -1.09873,16.45511 -3.2959,22.85156 -2.68564,7.81252 -6.51864,14.13576 -11.49902,18.96973 -3.75985,3.66211 -8.83797,6.51856 -15.23437,8.56933 C 211.84075,229.24316 205.44428,230 197.43652,230 l -40.7959,0 z m 21.67969,18.16407 0,71.11816 16.18653,0 c 6.05463,2e-5 10.42474,-0.34178 13.11035,-1.02539 3.51556,-0.87889 6.43303,-2.36814 8.75244,-4.46777 2.31926,-2.09959 4.21135,-5.55417 5.67627,-10.36377 1.46476,-4.80954 2.19719,-11.3647 2.19726,-19.66553 -7e-5,-8.30072 -0.7325,-14.67278 -2.19726,-19.11621 -1.46492,-4.44328 -3.5157,-7.91008 -6.15235,-10.40039 -2.63678,-2.49015 -5.9815,-4.17472 -10.03418,-5.05371 -3.0274,-0.68351 -8.96001,-1.02531 -17.79785,-1.02539 z"/></g></g></svg>