<svg xmlns="http://www.w3.org/2000/svg" xmlns:svg="http://www.w3.org/2000/svg" id="svg2" width="400" height="400" version="1.1" viewBox="0 0 400 400"><metadata id="metadata10"/><g style="font-size:140px;font-weight:700;text-anchor:middle;fill:#fff;stroke:#000;stroke-width:6;stroke-miterlimit:4;stroke-opacity:1;stroke-dasharray:12,6;stroke-dashoffset:0;font-family:Arial" id="text4"><path style="font-size:140px;font-weight:700;text-anchor:middle;fill:#fff;stroke:#000;stroke-width:6;stroke-miterlimit:4;stroke-opacity:1;stroke-dasharray:12,6;stroke-dashoffset:0;font-family:Arial" id="path2988" d="m 112.8418,250 0,-100.21484 32.4707,0 c 12.30463,1e-4 20.32546,0.5014 24.0625,1.5039 5.74212,1.50401 10.55005,4.77386 14.42383,9.80957 3.87361,5.03589 5.81046,11.54142 5.81054,19.5166 -8e-5,6.15241 -1.11662,11.32493 -3.3496,15.51758 -2.23316,4.19276 -5.07007,7.4854 -8.51075,9.87793 -3.44082,2.39262 -6.93854,3.97628 -10.49316,4.75098 -4.83079,0.95707 -11.82623,1.43558 -20.98633,1.43555 l -13.19336,0 0,37.80273 z m 20.23437,-83.26172 0,28.4375 11.07422,0 c 7.97521,6e-5 13.30724,-0.52403 15.99609,-1.57226 2.68875,-1.04812 4.79649,-2.68875 6.32325,-4.92188 1.52662,-2.23301 2.28997,-4.83066 2.29004,-7.79297 -7e-5,-3.64576 -1.07103,-6.65357 -3.2129,-9.02344 -2.14198,-2.36971 -4.85357,-3.85083 -8.13476,-4.44336 -2.41542,-0.45564 -7.26893,-0.68351 -14.56055,-0.68359 z"/><path style="font-size:140px;font-weight:700;text-anchor:middle;fill:#fff;stroke:#000;stroke-width:6;stroke-miterlimit:4;stroke-opacity:1;stroke-dasharray:12,6;stroke-dashoffset:0;font-family:Arial" id="path2990" d="m 270.47852,213.1543 19.61914,6.2207 c -3.00791,10.93752 -8.00953,19.06088 -15.00489,24.37012 -6.99551,5.30924 -15.87083,7.96386 -26.62597,7.96386 -13.30733,0 -24.24482,-4.54589 -32.8125,-13.63769 -8.56772,-9.09178 -12.85157,-21.52178 -12.85157,-37.29004 0,-16.67962 4.30663,-29.63371 12.91993,-38.8623 8.61325,-9.22842 19.93811,-13.84268 33.97461,-13.84278 12.25904,1e-4 22.21672,3.62315 29.87304,10.86914 4.55721,4.28394 7.97517,10.43628 10.25391,18.45703 l -20.0293,4.78516 c -1.18497,-5.19524 -3.65729,-9.2968 -7.41699,-12.30469 -3.75983,-3.00773 -8.32851,-4.51163 -13.70606,-4.51172 -7.42843,9e-5 -13.45544,2.6661 -18.08105,7.99805 -4.62568,5.3321 -6.9385,13.96816 -6.93848,25.9082 -2e-5,12.66931 2.27862,21.69274 6.83594,27.07032 4.55725,5.37762 10.48173,8.06642 17.77344,8.0664 5.37755,2e-5 10.00319,-1.70896 13.87695,-5.12695 3.87363,-3.41795 6.65358,-8.79554 8.33985,-16.13281 z"/></g></svg>