<svg xmlns="http://www.w3.org/2000/svg" xmlns:svg="http://www.w3.org/2000/svg" id="svg2" width="400" height="400" version="1.1" viewBox="0 0 400 400"><metadata id="metadata20"/><path style="fill:#fff;fill-opacity:1;stroke:#000;stroke-width:6;stroke-miterlimit:4;stroke-opacity:1;stroke-dasharray:12,6;stroke-dashoffset:0" id="polygon4" d="m 187.5,100 0,36.21875 c -8.658,1.68788 -16.72193,5.05698 -23.78125,9.8125 l -24.875,-24.875 -17.6875,17.6875 24.875,24.875 C 141.73617,170.09457 138.5719,177.2909 136.75,185 l -51.75,0 0,30 20.25,0 94.75,90 94.75,-90 20.25,0 0,-30 -51.75,0 c -1.8219,-7.7091 -4.98617,-14.90543 -9.28125,-21.28125 l 24.875,-24.875 -17.6875,-17.6875 -24.875,24.875 C 229.22193,141.27573 221.158,137.90663 212.5,136.21875 l 0,-36.21875 -25,0 z"/></svg>