<svg xmlns:xlink="http://www.w3.org/1999/xlink" width="400" height="400" viewBox="0 0 400 400"><polygon points="200 305 100 210 300 210" transform="matrix(1 0 0 1 0 0)" style="fill:#fff;stroke:#fff;stroke-width:1"/><rect style="fill:#fff;stroke:#fff;stroke-width:1" width="230" height="30" x="85" y="185" transform="matrix(1 0 0 1 0 0)"/><ellipse cx="200" cy="200" rx="65" ry="65" transform="matrix(1 0 0 1 0 0)" style="fill:#fff;stroke:#fff;stroke-width:1"/><line style="stroke:#fff;stroke-width:25" x1="200" x2="130" y1="200" y2="130" transform="matrix(1 0 0 1 0 0)"/><line style="stroke:#fff;stroke-width:25" x1="200" x2="200" y1="200" y2="100" transform="matrix(1 0 0 1 0 0)"/><line style="stroke:#fff;stroke-width:25" x1="200" x2="270" y1="200" y2="130" transform="matrix(1 0 0 1 0 0)"/></svg>