<svg xmlns="http://www.w3.org/2000/svg" xmlns:svg="http://www.w3.org/2000/svg" id="svg2" width="400" height="400" version="1.1" viewBox="0 0 400 400"><metadata id="metadata16"/><g style="font-size:65px;font-weight:700;text-anchor:middle;fill:#fff;stroke:none;stroke-width:6;stroke-miterlimit:4;stroke-opacity:1;stroke-dasharray:12,6;stroke-dashoffset:0;font-family:Arial" id="text6" transform="translate(0,-5e-6)"><path style="font-size:65px;font-weight:700;text-anchor:middle;fill:#fff;stroke:none;stroke-width:6;stroke-miterlimit:4;stroke-opacity:1;stroke-dasharray:12,6;stroke-dashoffset:0;font-family:Arial" id="path3001" d="m 177.49756,307 0,-46.52832 14.06006,0 8.44238,31.73828 8.34717,-31.73828 14.09179,0 0,46.52832 -8.72802,0 0,-36.62598 L 204.4751,307 l -9.04541,0 -9.2041,-36.62598 0,36.62598 z"/></g><g id="g8" transform="matrix(0.5,0,0,0.5,100,39.999995)" style="stroke:none;stroke-width:12;stroke-miterlimit:4;stroke-opacity:1;stroke-dasharray:24,12;stroke-dashoffset:0"><g style="font-size:150px;font-weight:700;text-anchor:middle;fill:#fff;stroke:none;stroke-width:12;stroke-miterlimit:4;stroke-opacity:1;stroke-dasharray:24,12;stroke-dashoffset:0;font-family:Arial" id="text10"><path style="font-size:150px;font-weight:700;text-anchor:middle;fill:#fff;stroke:none;stroke-width:12;stroke-miterlimit:4;stroke-opacity:1;stroke-dasharray:24,12;stroke-dashoffset:0;font-family:Arial" id="path3004" d="m 156.56738,122.62695 21.67969,0 0,58.1543 c -3e-5,9.22856 0.26852,15.20999 0.80566,17.94434 0.9277,4.39455 3.13718,7.92238 6.62842,10.58349 3.49117,2.66115 8.26411,3.99172 14.31885,3.9917 6.15228,2e-5 10.79095,-1.25731 13.91602,-3.77197 3.12492,-2.51463 5.00481,-5.603 5.63964,-9.26514 0.6347,-3.66207 0.95208,-9.74117 0.95215,-18.2373 l 0,-59.39942 21.67969,0 0,56.39649 c -1e-4,12.89066 -0.58603,21.9971 -1.75781,27.31933 -1.17197,5.32229 -3.33261,9.81447 -6.48194,13.47657 -3.1495,3.66211 -7.36092,6.57959 -12.63427,8.75244 -5.27351,2.17285 -12.15827,3.25927 -20.6543,3.25927 -10.25395,0 -18.02982,-1.18408 -23.32764,-3.55224 -5.29787,-2.36816 -9.48488,-5.44433 -12.56103,-9.22852 -3.07619,-3.78416 -5.10256,-7.75144 -6.0791,-11.90185 -1.41603,-6.15232 -2.12404,-15.23434 -2.12403,-27.2461 z"/></g></g><path style="fill:#fff;stroke:#000;stroke-width:6;stroke-miterlimit:4;stroke-opacity:1;stroke-dasharray:12,6;stroke-dashoffset:0" id="polyline4" d="M 200,199.99999 110,150 l 0,99.99999 90,-50 L 290,150 l 0,99.99999 -90,-50"/></svg>