<svg xmlns="http://www.w3.org/2000/svg" xmlns:svg="http://www.w3.org/2000/svg" id="svg2" width="400" height="400" version="1.1" viewBox="0 0 400 400"><metadata id="metadata10"/><g style="font-size:150px;font-weight:700;text-anchor:middle;fill:#fff;stroke:#000;stroke-width:6;stroke-miterlimit:4;stroke-opacity:1;stroke-dasharray:12,6;stroke-dashoffset:0;font-family:Arial" id="text4"><path style="font-size:150px;font-weight:700;text-anchor:middle;fill:#fff;stroke:#000;stroke-width:6;stroke-miterlimit:4;stroke-opacity:1;stroke-dasharray:12,6;stroke-dashoffset:0;font-family:Arial" id="path2988" d="m 207.91016,122.62695 21.60644,0 0,67.96875 c -7e-5,8.88675 -0.78132,15.72268 -2.34375,20.50782 -2.09967,6.25001 -5.90826,11.26709 -11.42578,15.05127 -5.51763,3.78417 -12.79301,5.67626 -21.82617,5.67626 -10.59573,0 -18.75002,-2.9663 -24.46289,-8.89892 -5.7129,-5.93261 -8.59375,-14.63621 -8.64258,-26.11084 L 181.25,194.47754 c 0.24412,6.15237 1.14744,10.49807 2.70996,13.03711 2.34372,3.85744 5.90817,5.78615 10.69336,5.78613 4.83394,2e-5 8.25191,-1.37938 10.25391,-4.13818 2.0019,-2.75877 3.00288,-8.48386 3.00293,-17.1753 z"/></g></svg>