<svg xmlns="http://www.w3.org/2000/svg" xmlns:svg="http://www.w3.org/2000/svg" id="svg2" width="400" height="400" version="1.1" viewBox="0 0 400 400"><metadata id="metadata24"/><g id="g4" transform="matrix(0.8,0,0,0.8,40,-24)" style="fill:none;stroke:#000;stroke-width:7.5;stroke-miterlimit:4;stroke-opacity:1;stroke-dasharray:15,7.5;stroke-dashoffset:0"><path style="fill:none;stroke:#000;stroke-width:7.5;stroke-miterlimit:4;stroke-opacity:1;stroke-dasharray:15,7.5;stroke-dashoffset:0" id="path6" d="m 200,200 -55,-25 c -55,-25 -55,75 0,50 l 55,-25 55,-25 c 55,-25 55,75 0,50 l -55,-25"/></g><g id="g8" transform="matrix(0.7,0,0,0.7,56,84)"><polyline style="fill:#fff;stroke:#000;stroke-width:10;stroke-dasharray:10" id="polyline10" points="120 160 120 240 210 240 250 280 250 120 210 160 120 160 120 240"/><line style="stroke:#000;stroke-width:10;stroke-dasharray:10" id="line12" x1="250" x2="290" y1="217" y2="217"/><line style="stroke:#000;stroke-width:10;stroke-dasharray:10" id="line14" x1="250" x2="290" y1="183" y2="183"/><line style="stroke:#000;stroke-width:10;stroke-dasharray:10" id="line16" x1="250" x2="290" y1="150" y2="150"/><line style="stroke:#000;stroke-width:10;stroke-dasharray:10" id="line18" x1="250" x2="290" y1="250" y2="250"/></g></svg>