<svg xmlns:xlink="http://www.w3.org/1999/xlink" width="400" height="400" viewBox="0 0 400 400"><g><path d="M200 200 L145 175 C90 150 90 250 145 225 L200 200 L255 175 C310 150 310 250 255 225 L200 200" transform="scale(0.8 0.8) translate(50 -30)" style="fill:#000;stroke:none"/></g><g transform="scale(0.7 0.7) translate(80 120)"><polyline points="120 160 120 240 210 240 250 280 250 120 210 160 120 160 120 240" style="fill:#fff;stroke:#000;stroke-width:10"/><line style="stroke:#000;stroke-width:10" x1="250" x2="290" y1="217" y2="217"/><line style="stroke:#000;stroke-width:10" x1="250" x2="290" y1="183" y2="183"/><line style="stroke:#000;stroke-width:10" x1="250" x2="290" y1="150" y2="150" transform="translate(270 150) scale(1 1) translate(-270 -150)"/><line style="stroke:#000;stroke-width:10" x1="250" x2="290" y1="250" y2="250"/></g></svg>