<svg xmlns="http://www.w3.org/2000/svg" xmlns:svg="http://www.w3.org/2000/svg" id="svg2" width="400" height="400" version="1.1" viewBox="0 0 400 400"><metadata id="metadata10"/><g style="font-size:90px;font-weight:700;text-anchor:middle;fill:#fff;font-family:Arial;stroke:#000;stroke-opacity:1;stroke-width:6;stroke-miterlimit:4;stroke-dasharray:12,6;stroke-dashoffset:0" id="text4"><path style="font-size:90px;font-weight:700;text-anchor:middle;fill:#fff;font-family:Arial;stroke:#000;stroke-opacity:1;stroke-width:6;stroke-miterlimit:4;stroke-dasharray:12,6;stroke-dashoffset:0" id="path2988" d="m 202.76855,208.31348 12.61231,3.99902 c -1.93365,7.03126 -5.14898,12.25343 -9.646,15.6665 -4.49711,3.41309 -10.20267,5.11963 -17.1167,5.11963 -8.55471,0 -15.58595,-2.92236 -21.09375,-8.76709 -5.50782,-5.84471 -8.26172,-13.83542 -8.26171,-23.97217 -1e-5,-10.72261 2.76854,-19.05024 8.30566,-24.98291 5.53709,-5.93255 12.81736,-8.89886 21.84082,-8.89892 7.88082,6e-5 14.28218,2.32916 19.2041,6.9873 2.92963,2.75397 5.1269,6.70904 6.5918,11.86524 l -12.87598,3.07617 c -0.76176,-3.3398 -2.35112,-5.97651 -4.76806,-7.91016 -2.41704,-1.93354 -5.35405,-2.90033 -8.81104,-2.90039 -4.77542,6e-5 -8.64993,1.71392 -11.62354,5.1416 -2.97365,3.42778 -4.46046,8.97954 -4.46044,16.65528 -2e-5,8.14455 1.46482,13.94533 4.39453,17.40234 2.92966,3.45704 6.73825,5.18556 11.42578,5.18555 3.45699,1e-5 6.43062,-1.09862 8.9209,-3.2959 2.49019,-2.19725 4.27729,-5.65428 5.36132,-10.37109 z"/><path style="font-size:90px;font-weight:700;text-anchor:middle;fill:#fff;font-family:Arial;stroke:#000;stroke-opacity:1;stroke-width:6;stroke-miterlimit:4;stroke-dasharray:12,6;stroke-dashoffset:0" id="path2990" d="m 226.19141,232 0,-64.42383 13.00781,0 0,64.42383 z"/></g></svg>