<svg xmlns="http://www.w3.org/2000/svg" xmlns:svg="http://www.w3.org/2000/svg" id="svg2" width="400" height="400" version="1.1" viewBox="0 0 400 400"><metadata id="metadata16"/><line style="stroke:#fff;stroke-width:10;stroke-dasharray:10;fill:#fff" id="line4" x1="332" x2="68" y1="68" y2="332"/><path style="fill:#fff;stroke:#fff;stroke-width:10;stroke-dasharray:10" id="path6" d="M68 179 C68 178 95 173 95 200 C95 230 137 230 137 200 C137 170 179 170 179 200 C179 230 221 230 221 200 C221 170 263 170 263 200 C263 230 305 229.556 305 200 C305 173 332 178 332 179"/><g id="g8" transform="matrix(0.4,0,0,0.4,77.999996,70)" style="stroke:none;stroke-width:15;stroke-miterlimit:4;stroke-opacity:1;stroke-dasharray:30,15;stroke-dashoffset:0;fill:#fff"><g style="font-size:150px;font-weight:700;text-anchor:middle;fill:#fff;stroke:none;stroke-width:15;stroke-miterlimit:4;stroke-opacity:1;stroke-dasharray:30,15;stroke-dashoffset:0;font-family:Arial" id="text10"><path style="font-size:150px;font-weight:700;text-anchor:middle;fill:#fff;stroke:none;stroke-width:15;stroke-miterlimit:4;stroke-opacity:1;stroke-dasharray:30,15;stroke-dashoffset:0;font-family:Arial" id="path2994" d="m 165.20996,230 0,-107.37305 73.6084,0 0,18.16407 -51.92871,0 0,25.41503 44.82422,0 0,18.16407 -44.82422,0 0,45.62988 z"/></g></g></svg>