<svg xmlns="http://www.w3.org/2000/svg" xmlns:svg="http://www.w3.org/2000/svg" id="svg2" width="400" height="400" version="1.1" viewBox="0 0 400 400"><metadata id="metadata12"/><g id="g4" transform="matrix(5,0,0,5,124,132)" style="stroke:#000;stroke-width:1;stroke-miterlimit:4;stroke-opacity:1;stroke-dasharray:2,1;stroke-dashoffset:0"><path style="fill:#fff;stroke:#000;stroke-width:1;stroke-miterlimit:4;stroke-opacity:1;stroke-dasharray:2,1;stroke-dashoffset:0" id="path6" d="m 24.264,7.203 c 2.111,2.594 3.168,5.381 3.168,8.357 0,3.363 -1.213,6.172 -3.637,8.43 -2.424,2.258 -5.244,3.385 -8.459,3.385 -3.313,0 -6.158,-1.15 -8.533,-3.451 C 4.426,21.623 3.239,18.77 3.239,15.363 3.239,12.439 4.294,9.754 6.407,7.308 4.965,6.158 2.83,3.881 0,0.477 c 1.008,0.672 3.455,2.641 7.344,5.904 2.303,-2.064 4.943,-3.098 7.92,-3.098 -0.098,0 0.383,0.072 1.439,0.217 2.398,0.289 4.584,1.225 6.553,2.809 L 30.455,0 c -2.256,3.17 -4.32,5.57 -6.191,7.203 z"/></g></svg>