<svg xmlns="http://www.w3.org/2000/svg" xmlns:svg="http://www.w3.org/2000/svg" id="svg2" width="400" height="400" version="1.1" viewBox="0 0 400 400"><metadata id="metadata22"/><g style="font-size:65px;font-weight:700;text-anchor:middle;fill:#fff;stroke:none;stroke-width:6;stroke-miterlimit:4;stroke-opacity:1;stroke-dasharray:12,6;stroke-dashoffset:0;font-family:Arial" id="text4" transform="translate(1.0593017e-6,0)"><path style="font-size:65px;font-weight:700;text-anchor:middle;fill:#fff;stroke:none;stroke-width:6;stroke-miterlimit:4;stroke-opacity:1;stroke-dasharray:12,6;stroke-dashoffset:0;font-family:Arial" id="path3768" d="m 183.02002,307 0,-46.52832 15.07568,0 c 5.71287,5e-5 9.43682,0.23279 11.17188,0.69824 2.66598,0.69829 4.89824,2.21644 6.69678,4.55445 1.79846,2.33809 2.69771,5.35851 2.69775,9.06127 -4e-5,2.85648 -0.51843,5.25801 -1.55518,7.20459 -1.03682,1.94664 -2.35396,3.47537 -3.95141,4.58619 -1.59753,1.11086 -3.22147,1.84612 -4.87183,2.20581 -2.24286,0.44435 -5.49075,0.66652 -9.74365,0.6665 l -6.12549,0 0,17.55127 z m 9.39453,-38.65723 0,13.20313 5.1416,0 c 3.70278,2e-5 6.17836,-0.2433 7.42676,-0.72998 1.24834,-0.48663 2.22694,-1.24835 2.93579,-2.28516 0.70879,-1.03675 1.0632,-2.24281 1.06323,-3.61816 -3e-5,-1.69268 -0.49726,-3.08916 -1.4917,-4.18946 -0.99449,-1.10022 -2.25344,-1.78788 -3.77685,-2.06298 -1.12144,-0.21155 -3.37486,-0.31735 -6.76026,-0.31739 z"/></g><g id="g6" transform="translate(200,200)" style="stroke:#000;stroke-opacity:1"><path style="fill:#fff;stroke:#000;stroke-width:10;stroke-opacity:1;stroke-dasharray:10" id="path8" d="m 0,0 -45,-80 c 0,-30 90,-30 90,0 z"/></g><g id="g10" transform="matrix(-0.5,0.8660254,-0.8660254,-0.5,200,200)" style="stroke:#000;stroke-opacity:1"><path style="fill:#fff;stroke:#000;stroke-width:10;stroke-opacity:1;stroke-dasharray:10" id="path12" d="m 0,0 -45,-80 c 0,-30 90,-30 90,0 z"/></g><g id="g14" transform="matrix(-0.5,-0.8660254,0.8660254,-0.5,200,200)" style="stroke:#000;stroke-opacity:1"><path style="fill:#fff;stroke:#000;stroke-width:10;stroke-opacity:1;stroke-dasharray:10" id="path16" d="m 0,0 -45,-80 c 0,-30 90,-30 90,0 z"/></g></svg>