<svg xmlns:xlink="http://www.w3.org/1999/xlink" width="400" height="400" viewBox="0 0 400 400"><polygon points="125 250 125 200 175 200 175 150 225 150 225 200 275 200 275 250" style="fill:#fff;stroke:#000;stroke-width:10;stroke-dasharray:10"/><ellipse cx="250" cy="255" rx="20" ry="20" style="fill:#fff;stroke:#000;stroke-width:10;stroke-dasharray:10"/><ellipse cx="150" cy="255" rx="20" ry="20" style="fill:#fff;stroke:#000;stroke-width:10;stroke-dasharray:10"/><rect style="fill:none;stroke:#000;stroke-width:5;stroke-dasharray:10" width="28" height="37" x="186" y="163" transform="matrix(1 0 0 1 0 0) translate(214 200) scale(0.842857 0.881081) translate(-214 -200) translate(0 1.13497) translate(-1.18644 0) translate(-1.18644 0) translate(0 -1.13497) translate(0 1.13497) translate(0 -1.13497) translate(0 -1.13497) translate(0 -1.13497) translate(0 -1.13497) translate(1.18644 0) translate(-1.18644 0) translate(0 1.13497) translate(0 1.13497) translate(0 1.13497) translate(0 1.13497) translate(0 1.13497) translate(0 1.13497) translate(200 200) scale(1 1.30675) translate(-200 -200) translate(214 181.5) scale(1.11864 1) translate(-214 -181.5) translate(186 181.5) scale(1.09091 1) translate(-186 -181.5) translate(0 -0.868545) translate(200 200) scale(1 0.982928) translate(-200 -200) translate(200 163) scale(1 1.00597) translate(-200 -163) translate(200 163) scale(1 0.997032) translate(-200 -163)"/></svg>