<svg xmlns="http://www.w3.org/2000/svg" xmlns:svg="http://www.w3.org/2000/svg" id="svg2" width="400" height="400" version="1.1" viewBox="0 0 400 400"><metadata id="metadata22"/><ellipse style="fill:#fff;stroke:#fff;stroke-width:10;stroke-dasharray:10" id="ellipse4" cx="130" cy="160" rx="18" ry="18"/><ellipse style="fill:#fff;stroke:#fff;stroke-width:10;stroke-dasharray:10" id="ellipse6" cx="270" cy="160" rx="18" ry="18"/><path style="fill:none;stroke:#fff;stroke-width:10;stroke-dasharray:10" id="path8" d="M140 145 C200 180 210 200 235 290"/><path style="fill:none;stroke:#fff;stroke-width:10;stroke-dasharray:10" id="path10" d="M260 145 C200 180 190 200 165 290"/><g id="g12" transform="translate(100 38) scale(0.5 0.5)"><g style="font-size:150px;font-weight:700;text-anchor:middle;fill:#fff;font-family:Arial" id="text14"><path style="font-size:150px;font-weight:700;text-anchor:middle;fill:#fff;font-family:Arial" id="path3000" d="m 155.32227,195.06348 21.09375,-2.05078 c 1.2695,7.0801 3.84518,12.28029 7.72705,15.60058 3.88179,3.32033 9.11861,4.98049 15.71045,4.98047 6.98236,2e-5 12.24359,-1.47703 15.78369,-4.43115 3.53997,-2.95408 5.30998,-6.40867 5.31006,-10.36377 -8e-5,-2.53903 -0.7447,-4.69967 -2.23389,-6.48194 -1.48933,-1.78218 -4.08942,-3.33247 -7.80029,-4.65087 -2.53913,-0.87887 -8.32525,-2.44137 -17.3584,-4.6875 -11.62113,-2.88081 -19.77542,-6.42085 -24.46289,-10.62012 -6.59181,-5.90814 -9.88771,-13.11028 -9.8877,-21.60645 -1e-5,-5.46866 1.55028,-10.5834 4.65088,-15.34424 3.10057,-4.76064 7.56834,-8.38612 13.40332,-10.87646 5.83493,-2.49013 12.87838,-3.73524 21.13037,-3.73535 13.4765,1.1e-4 23.62054,2.95421 30.43213,8.8623 6.81144,5.9083 10.3881,13.79403 10.72998,23.65723 l -21.67969,0.95215 c -0.9278,-5.5175 -2.91754,-9.48478 -5.96923,-11.90186 -3.05182,-2.4169 -7.62945,-3.62539 -13.73291,-3.62549 -6.29887,1e-4 -11.23051,1.29404 -14.79493,3.88184 -2.29495,1.66024 -3.44241,3.88192 -3.44238,6.66504 -3e-5,2.53914 1.07419,4.71199 3.22266,6.51855 2.73434,2.295 9.37495,4.68757 19.92187,7.17774 10.54681,2.4903 18.3471,5.06598 23.40088,7.72705 5.05363,2.66119 9.0087,6.29888 11.86524,10.91309 2.85635,4.6143 4.28457,10.31497 4.28466,17.10205 -9e-5,6.15236 -1.70907,11.91408 -5.12695,17.28515 -3.41805,5.3711 -8.25203,9.3628 -14.50195,11.9751 -6.25007,2.6123 -14.03815,3.91845 -23.36426,3.91846 -13.57426,-1e-5 -23.99905,-3.13721 -31.27442,-9.41162 -7.2754,-6.2744 -11.6211,-15.41746 -13.0371,-27.4292 z"/></g></g><line style="stroke:#fff;stroke-width:10;stroke-dasharray:10" id="line16" x1="200" x2="200" y1="68" y2="332"/></svg>