<svg xmlns="http://www.w3.org/2000/svg" xmlns:svg="http://www.w3.org/2000/svg" id="svg2" width="400" height="400" version="1.1" viewBox="0 0 400 400"><metadata id="metadata14"/><polyline style="fill:none;stroke:#fff;stroke-width:10;stroke-dasharray:10" id="polyline4" points="68 68 200 220 200 180 332 332"/><g id="g6" transform="translate(63 -20) scale(0.8 0.8)"><g style="font-size:65px;font-weight:700;text-anchor:middle;fill:#fff;font-family:Arial" id="text8"><path style="font-size:65px;font-weight:700;text-anchor:middle;fill:#fff;font-family:Arial" id="path2992" d="m 139.91943,223 0,-46.14746 9.39453,0 0,38.3081 23.35938,0 0,7.83936 z"/><path style="font-size:65px;font-weight:700;text-anchor:middle;fill:#fff;font-family:Arial" id="path2994" d="m 179.40186,223 0,-46.52832 34.49951,0 0,7.87109 -25.10498,0 0,10.31494 23.35937,0 0,7.83936 -23.35937,0 0,12.66357 25.99365,0 0,7.83936 z"/><path style="font-size:65px;font-weight:700;text-anchor:middle;fill:#fff;font-family:Arial" id="path2996" d="m 222.91504,223 0,-46.52832 9.14062,0 19.04297,31.07178 0,-31.07178 8.72803,0 0,46.52832 -9.42627,0 -18.75732,-30.3418 0,30.3418 z"/></g></g></svg>