<svg xmlns="http://www.w3.org/2000/svg" xmlns:svg="http://www.w3.org/2000/svg" id="svg2" width="400" height="400" version="1.1" viewBox="0 0 400 400"><metadata id="metadata16"/><g id="g4" transform="matrix(0.9,0,0,0.9,20.000001,89.999994)" style="stroke:#000;stroke-width:4.44444444;stroke-miterlimit:4;stroke-opacity:1;stroke-dasharray:8.88888889,4.44444444;stroke-dashoffset:0"><g style="font-size:90px;font-weight:700;text-anchor:middle;fill:#fff;stroke:#000;stroke-width:4.44444444;stroke-miterlimit:4;stroke-opacity:1;stroke-dasharray:8.88888889,4.44444444;stroke-dashoffset:0;font-family:Arial" id="text6"><path style="font-size:90px;font-weight:700;text-anchor:middle;fill:#fff;stroke:#000;stroke-width:4.44444444;stroke-miterlimit:4;stroke-opacity:1;stroke-dasharray:8.88888889,4.44444444;stroke-dashoffset:0;font-family:Arial" id="path2994" d="m 156.3623,232 0,-64.42383 19.46778,0 11.68945,43.94531 11.55762,-43.94531 19.51172,0 0,64.42383 -12.08496,0 0,-50.71289 L 193.71582,232 l -12.52441,0 -12.74414,-50.71289 0,50.71289 z"/><path style="font-size:90px;font-weight:700;text-anchor:middle;fill:#fff;stroke:#000;stroke-width:4.44444444;stroke-miterlimit:4;stroke-opacity:1;stroke-dasharray:8.88888889,4.44444444;stroke-dashoffset:0;font-family:Arial" id="path2996" d="m 231.20117,232 0,-64.42383 13.00781,0 0,64.42383 z"/></g></g><g id="g8" transform="matrix(0.9,0,0,0.9,16.000001,-20.000003)" style="stroke:#000;stroke-width:4.44444444;stroke-miterlimit:4;stroke-opacity:1;stroke-dasharray:8.88888889,4.44444444;stroke-dashoffset:0"><g style="font-size:90px;font-weight:700;text-anchor:middle;fill:#fff;stroke:#000;stroke-width:4.44444444;stroke-miterlimit:4;stroke-opacity:1;stroke-dasharray:8.88888889,4.44444444;stroke-dashoffset:0;font-family:Arial" id="text10"><path style="font-size:90px;font-weight:700;text-anchor:middle;fill:#fff;stroke:#000;stroke-width:4.44444444;stroke-miterlimit:4;stroke-opacity:1;stroke-dasharray:8.88888889,4.44444444;stroke-dashoffset:0;font-family:Arial" id="path2999" d="m 111.27441,232 0,-64.42383 19.46778,0 11.68945,43.94531 11.55762,-43.94531 19.51172,0 0,64.42383 -12.08496,0 0,-50.71289 L 148.62793,232 l -12.52441,0 -12.74414,-50.71289 0,50.71289 z"/><path style="font-size:90px;font-weight:700;text-anchor:middle;fill:#fff;stroke:#000;stroke-width:4.44444444;stroke-miterlimit:4;stroke-opacity:1;stroke-dasharray:8.88888889,4.44444444;stroke-dashoffset:0;font-family:Arial" id="path3001" d="m 186.50879,232 0,-64.42383 47.76855,0 0,10.89844 -34.76074,0 0,14.28223 32.34375,0 0,10.85449 -32.34375,0 0,17.53418 35.99121,0 0,10.85449 z"/><path style="font-size:90px;font-weight:700;text-anchor:middle;fill:#fff;stroke:#000;stroke-width:4.44444444;stroke-miterlimit:4;stroke-opacity:1;stroke-dasharray:8.88888889,4.44444444;stroke-dashoffset:0;font-family:Arial" id="path3003" d="m 261.12793,232 0,-53.52539 -19.11621,0 0,-10.89844 51.19629,0 0,10.89844 -19.07227,0 0,53.52539 z"/></g></g></svg>