<svg xmlns:xlink="http://www.w3.org/1999/xlink" width="400" height="400" viewBox="0 0 400 400"><path d="M68 179 C68 178 95 173 95 200 C95 230 137 230 137 200 C137 170 179 170 179 200 C179 230 221 230 221 200 C221 170 263 170 263 200 C263 230 305 229.556 305 200 C305 173 332 178 332 179" style="fill:none;stroke:#fff;stroke-width:10;stroke-dasharray:10"/><path d="M140 140 C80 140 80 260 140 260 L260 260 C320 260 320 140 260 140 z" style="fill:none;stroke:#fff;stroke-width:10;stroke-dasharray:10"/></svg>