<svg xmlns="http://www.w3.org/2000/svg" xmlns:svg="http://www.w3.org/2000/svg" id="svg2" width="400" height="400" version="1.1" viewBox="0 0 400 400"><metadata id="metadata12"/><path style="fill:#fff;stroke:#000;stroke-width:5;stroke-miterlimit:4;stroke-opacity:1;stroke-dasharray:10,5;stroke-dashoffset:0" id="path6" d="m 280.92,213.75 c -0.955,-0.235 -5.285,1.445 -12.96,5.04 -5.04,2.17 -10.8,5.525 -17.285,10.09 -23.515,15.605 -40.195,36.855 -50.04,63.75 -0.48,0 -1.075,-0.605 -1.795,-1.795 -8.885,-26.405 -26.885,-48.38 -53.995,-65.92 -6.005,-3.845 -14.29,-7.68 -24.845,-11.53 -0.245,-0.48 -0.245,-0.84 0,-1.075 2.635,-1.2 6.355,-2.765 11.16,-4.69 12.235,-4.315 25.315,-13.8 39.24,-28.445 13.915,-14.65 23.035,-28.33 27.365,-41.065 0.715,-1.68 1.67,-3.475 2.87,-5.4 4.08,12.735 11.76,26.055 23.045,39.98 12.235,14.885 24.715,25.33 37.44,31.33 2.635,1.445 7.19,3.615 13.67,6.485 1.92,0.245 3.96,1.33 6.13,3.245 z m -17.64,-88.595 -6.825,4.66 -10.585,-11.465 -22.55,22.735 -22.42,-22.94 -23.81,23.065 -23.895,-24.415 -12.295,12.315 -6.145,-4.315 18.36,-17.795 23.76,24.27 23.76,-23.035 23.41,23.035 22.315,-23.035 z"/></svg>