<svg xmlns="http://www.w3.org/2000/svg" xmlns:svg="http://www.w3.org/2000/svg" id="svg2" width="400" height="400" version="1.1" viewBox="0 0 400 400"><metadata id="metadata20"/><path style="fill:#fff;stroke:#000;stroke-width:6;fill-opacity:1;stroke-opacity:1;stroke-miterlimit:4;stroke-dasharray:12,6;stroke-dashoffset:0" id="rect4" d="M 115 125 L 115 245 L 165 245 L 165 190 L 177 190 L 177 235 L 195 235 L 195 255.125 C 177.05679 255.91998 159.47523 261.01358 146.875 271.09375 L 153.125 278.90625 C 164.35529 269.92201 182.13889 265 200 265 C 217.86111 265 235.64471 269.92201 246.875 278.90625 L 253.125 271.09375 C 240.52477 261.01358 222.94321 255.91998 205 255.125 L 205 235 L 223 235 L 223 190 L 235 190 L 235 245 L 285 245 L 285 125 L 235 125 L 235 180 L 223 180 L 223 135 L 177 135 L 177 180 L 165 180 L 165 125 L 115 125 z"/></svg>