<svg xmlns="http://www.w3.org/2000/svg" xmlns:svg="http://www.w3.org/2000/svg" id="svg2" width="400" height="400" version="1.1" viewBox="0 0 400 400"><metadata id="metadata10"/><g style="font-size:140px;font-weight:700;text-anchor:middle;fill:#fff;font-family:Arial;stroke:#000;stroke-opacity:1;stroke-width:6;stroke-miterlimit:4;stroke-dasharray:12,6;stroke-dashoffset:0" id="text4"><path style="font-size:140px;font-weight:700;text-anchor:middle;fill:#fff;font-family:Arial;stroke:#000;stroke-opacity:1;stroke-width:6;stroke-miterlimit:4;stroke-dasharray:12,6;stroke-dashoffset:0" id="path2988" d="m 187.96875,149.78516 20.16602,0 0,63.4375 c -7e-5,8.2943 -0.72924,14.6745 -2.1875,19.14062 -1.9597,5.83335 -5.51439,10.51596 -10.66407,14.04785 -5.14978,3.5319 -11.94014,5.29785 -20.37109,5.29785 -9.88935,0 -17.50002,-2.76855 -22.83203,-8.30566 -5.33204,-5.5371 -8.02084,-13.66046 -8.06641,-24.37012 l 19.07227,-2.1875 c 0.22784,5.74222 1.07094,9.7982 2.52929,12.16797 2.18748,3.60028 5.5143,5.40041 9.98047,5.40039 4.51168,2e-5 7.70178,-1.28742 9.57032,-3.8623 1.86844,-2.57485 2.80268,-7.91827 2.80273,-16.03028 z"/><path style="font-size:140px;font-weight:700;text-anchor:middle;fill:#fff;font-family:Arial;stroke:#000;stroke-opacity:1;stroke-width:6;stroke-miterlimit:4;stroke-dasharray:12,6;stroke-dashoffset:0" id="path2990" d="m 229.12109,250 0,-100.21484 20.23438,0 0,100.21484 z"/></g></svg>