<svg xmlns="http://www.w3.org/2000/svg" xmlns:svg="http://www.w3.org/2000/svg" id="svg2" width="400" height="400" version="1.1" viewBox="0 0 400 400"><metadata id="metadata20"/><path style="fill:#fff;stroke:#000;stroke-width:6;fill-opacity:1;stroke-opacity:1;stroke-miterlimit:4;stroke-dasharray:12,6;stroke-dashoffset:0" id="polygon4" d="M 187.5 100 L 187.5 136.21875 C 178.842 137.90663 170.77807 141.27573 163.71875 146.03125 L 138.84375 121.15625 L 121.15625 138.84375 L 146.03125 163.71875 C 141.73617 170.09457 138.5719 177.2909 136.75 185 L 85 185 L 85 215 L 105.25 215 L 200 305 L 294.75 215 L 315 215 L 315 185 L 263.25 185 C 261.4281 177.2909 258.26383 170.09457 253.96875 163.71875 L 278.84375 138.84375 L 261.15625 121.15625 L 236.28125 146.03125 C 229.22193 141.27573 221.158 137.90663 212.5 136.21875 L 212.5 100 L 187.5 100 z"/></svg>