<svg xmlns:xlink="http://www.w3.org/1999/xlink" width="400" height="400" viewBox="0 0 400 400"><polygon points="180 130 180 95 220 95 220 130" style="fill:#fff;stroke:#000;stroke-width:10;stroke-dasharray:10"/><polygon points="180 218 180 183 220 183 220 218" transform="matrix(1 0 0 1 0 0) translate(-45.4545 -54.9091) translate(-6.4 -6) rotate(315.02 200 200.5) translate(0.282134 -1.98) translate(-0.00121416 -3.39411)" style="fill:#fff;stroke:#000;stroke-width:10;stroke-dasharray:10"/><polygon points="222 227 222 192 262 192 262 227" transform="matrix(1 0 0 1 0 0) translate(10.4 -71.6) rotate(44.8803 242 209.5) translate(0.0070909 -3.39411)" style="fill:#fff;stroke:#000;stroke-width:10;stroke-dasharray:10"/><path d="M130 190 C130 150 160 120 200 120 C240 120 270 150 270 190 z" style="fill:#fff;stroke:#000;stroke-width:10;stroke-dasharray:10"/><polygon points="270 260 235 235 270 210" style="fill:#fff;stroke:#000;stroke-width:10;stroke-dasharray:10"/><polygon points="220 260 185 235 220 210" style="fill:#fff;stroke:#000;stroke-width:10;stroke-dasharray:10"/><polygon points="170 260 135 235 170 210" style="fill:#fff;stroke:#000;stroke-width:10;stroke-dasharray:10"/></svg>