<svg xmlns:xlink="http://www.w3.org/1999/xlink" width="400" height="400" viewBox="0 0 400 400"><polygon points="180 130 180 95 220 95 220 130" style="fill:#fff;stroke:#000;stroke-width:10"/><polygon points="180 218 180 183 220 183 220 218" transform="matrix(1 0 0 1 0 0) translate(-45.4545 -54.9091) translate(-6.4 -6) rotate(315.02 200 200.5) translate(0.282134 -1.98) translate(-0.00121416 -3.39411)" style="fill:#fff;stroke:#000;stroke-width:10"/><polygon points="222 227 222 192 262 192 262 227" transform="matrix(1 0 0 1 0 0) translate(10.4 -71.6) rotate(44.8803 242 209.5) translate(0.0070909 -3.39411)" style="fill:#fff;stroke:#000;stroke-width:10"/><circle cx="200" cy="190" r="70" transform="matrix(1 0 0 1 0 0)" style="fill:#fff;stroke:#000;stroke-width:10"/><rect style="fill:#fff;stroke:#000;stroke-width:10" width="150" height="30" x="125" y="252" transform="matrix(1 0 0 1 0 0)"/><text style="fill:#000;font-family:Arial;font-size:78;font-weight:700;text-anchor:middle" x="200" y="220" transform="matrix(1 0 0 1 0 0)">EX</text></svg>