<svg xmlns="http://www.w3.org/2000/svg" xmlns:svg="http://www.w3.org/2000/svg" id="svg2" width="400" height="400" version="1.1" viewBox="0 0 400 400"><metadata id="metadata12"/><path id="path6" d="m 205.76,107.55 c 0.955,1.925 1.67,3.485 2.16,4.69 l 0,39.305 84.6,87.615 0,12.98 -84.6,-55.08 0,70.555 19.795,20.165 0,9.72 -23.035,-9.715 -4.68,9.715 -5.05,-9.715 -22.675,9.715 0,-9.715 19.445,-20.165 0,-70.56 -84.24,55.08 0,-12.98 84.24,-87.615 0,-39.31 1.085,-3.24 c 2.145,-4.325 4.55,-6.495 7.195,-6.495 1.915,0 3.835,1.69 5.76,5.05 z" style="fill:#fff;stroke:#000;stroke-width:6;stroke-miterlimit:4;stroke-opacity:1;stroke-dasharray:12,6;stroke-dashoffset:0"/></svg>