<svg xmlns:xlink="http://www.w3.org/1999/xlink" width="400" height="400" viewBox="0 0 400 400"><line style="stroke:#fff;stroke-width:10;stroke-dasharray:10" x1="320" x2="80" y1="121" y2="279"/><line style="stroke:#fff;stroke-width:10;stroke-dasharray:10" x1="80" x2="320" y1="121" y2="279"/><ellipse cx="200" cy="104" rx="16" ry="16" style="fill:none;stroke:#fff;stroke-width:10;stroke-dasharray:10"/><line style="stroke:#fff;stroke-width:10;stroke-dasharray:10" x1="200" x2="200" y1="120" y2="280"/><line style="stroke:#fff;stroke-width:10;stroke-dasharray:10" x1="120" x2="280" y1="130" y2="130"/><path d="M100 200 C150 300 250 300 300 200 C250 315 150 315 100 200" style="fill:#fff;stroke:#fff;stroke-width:10;stroke-dasharray:10"/><path d="M100 200 C108 245 113 245 113 245 L128 225 C115 220 110 210 103 203" style="fill:#fff;stroke:#fff;stroke-width:10;stroke-dasharray:10"/><path d="M300 200 C292 245 287 245 287 245 L272 225 C285 220 290 210 297 203" style="fill:#fff;stroke:#fff;stroke-width:10;stroke-dasharray:10"/></svg>