<svg xmlns="http://www.w3.org/2000/svg" xmlns:svg="http://www.w3.org/2000/svg" id="svg2" width="400" height="400" version="1.1" viewBox="0 0 400 400"><metadata id="metadata12"/><path style="fill:none;stroke:#fff;stroke-width:10;stroke-linecap:butt;stroke-linejoin:miter;stroke-miterlimit:4;stroke-opacity:1;stroke-dasharray:20,10;stroke-dashoffset:0;display:inline" id="path2990-7-4" d="m 200,103.21932 0,120.50422"/><path style="fill:none;stroke:#fff;stroke-width:10;stroke-linecap:butt;stroke-linejoin:miter;stroke-miterlimit:4;stroke-opacity:1;stroke-dasharray:20,10;stroke-dashoffset:0;display:inline" id="path2990-1-4-8" d="m 230.1191,123.47586 0,89.2497"/><path style="fill:none;stroke:#fff;stroke-width:10;stroke-linecap:butt;stroke-linejoin:miter;stroke-miterlimit:4;stroke-opacity:1;stroke-dasharray:20,10;stroke-dashoffset:0;display:inline" id="path2990-1-4-1" d="m 170,123.30623 0,89.2497"/><path style="fill:none;stroke:#fff;stroke-width:8;stroke-linecap:butt;stroke-linejoin:miter;stroke-miterlimit:4;stroke-opacity:1;stroke-dasharray:16,8;stroke-dashoffset:0" id="path3026" d="m 142.5,272.78068 c -30,0 -25,25 0,25 25,0 85,0 115,0 30,0 25,-25 0,-25 -25,0 -115,0 -115,0 z"/><path style="fill:none;stroke:#fff;stroke-width:10;stroke-linecap:butt;stroke-linejoin:miter;stroke-miterlimit:4;stroke-opacity:1;stroke-dasharray:20,10;stroke-dashoffset:0;display:inline" id="path2990-1-4-1-8" d="m 229.55478,146.7929 -59.51495,0"/><path id="path3947" d="m 229.55478,167.47794 -59.51495,0" style="fill:none;stroke:#fff;stroke-width:10;stroke-linecap:butt;stroke-linejoin:miter;stroke-miterlimit:4;stroke-opacity:1;stroke-dasharray:20,10;stroke-dashoffset:0;display:inline"/><path style="fill:none;stroke:#fff;stroke-width:10;stroke-linecap:butt;stroke-linejoin:miter;stroke-miterlimit:4;stroke-opacity:1;stroke-dasharray:20,10;stroke-dashoffset:0;display:inline" id="path3949" d="m 229.55478,187.73205 -59.51495,0"/><path style="fill:none;stroke:#fff;stroke-width:20.110612620000001;stroke-miterlimit:4;stroke-opacity:1;stroke-dasharray:40.221225259999997,20.110612620000001;stroke-dashoffset:0" id="path4285" d="m 66.795464,3.1056736 a 27.149124,27.149124 0 1 1 -54.298249,0 27.149124,27.149124 0 1 1 54.298249,0 z" transform="matrix(0.68367749,0,0,0.68367749,173.06648,243.77686)"/></svg>