<svg xmlns="http://www.w3.org/2000/svg" xmlns:svg="http://www.w3.org/2000/svg" id="svg2" width="400" height="400" version="1.1" viewBox="0 0 400 400"><metadata id="metadata14"/><polyline style="fill:none;stroke:#fff;stroke-width:10;stroke-dasharray:10" id="polyline4" points="80 121 200 220 200 180 320 279"/><g id="g6" transform="translate(75 -20) scale(0.8 0.8)"><g style="font-size:65px;font-weight:700;text-anchor:middle;fill:#fff;font-family:Arial" id="text8"><path style="font-size:65px;font-weight:700;text-anchor:middle;fill:#fff;font-family:Arial" id="path2992" d="m 157.85156,223 0,-46.52832 9.14063,0 19.04297,31.07178 0,-31.07178 8.72802,0 0,46.52832 -9.42627,0 -18.75732,-30.3418 0,30.3418 z"/><path style="font-size:65px;font-weight:700;text-anchor:middle;fill:#fff;font-family:Arial" id="path2994" d="m 234.49951,205.89307 9.10889,2.88818 c -1.39653,5.07813 -3.71871,8.8497 -6.96655,11.3147 -3.24792,2.465 -7.3686,3.69751 -12.36206,3.69751 -6.17841,0 -11.25653,-2.1106 -15.23438,-6.33179 -3.97787,-4.22118 -5.9668,-9.99225 -5.9668,-17.31323 0,-7.74411 1.99951,-13.75851 5.99854,-18.04322 3.99901,-4.28462 9.25698,-6.42695 15.77392,-6.427 5.69171,5e-5 10.31491,1.68218 13.86963,5.04639 2.11585,1.98897 3.70276,4.84541 4.76075,8.56934 l -9.29932,2.22167 c -0.55016,-2.41207 -1.69803,-4.31637 -3.4436,-5.71289 -1.74564,-1.39644 -3.86681,-2.09468 -6.36353,-2.09472 -3.44891,4e-5 -6.24717,1.23783 -8.39478,3.71338 -2.14763,2.47562 -3.22144,6.48521 -3.22143,12.02881 -1e-5,5.88217 1.05793,10.07162 3.17383,12.56835 2.11586,2.49676 4.86651,3.74513 8.25195,3.74512 2.49672,1e-5 4.64434,-0.79345 6.44287,-2.38037 1.79847,-1.5869 3.08916,-4.08364 3.87207,-7.49023 z"/></g></g></svg>