<svg xmlns="http://www.w3.org/2000/svg" xmlns:svg="http://www.w3.org/2000/svg" id="svg2" width="400" height="400" version="1.1" viewBox="0 0 400 400"><metadata id="metadata16"/><line style="stroke:#fff;stroke-width:10;stroke-dasharray:10" id="line4" x1="60" x2="340" y1="245" y2="245"/><polyline style="fill:none;stroke:#fff;stroke-width:10;stroke-dasharray:10" id="polyline6" points="50 140 90 200 50 260"/><polyline style="fill:none;stroke:#fff;stroke-width:10;stroke-dasharray:10" id="polyline8" points="350 140 310 200 350 260"/><g style="font-size:90px;font-weight:700;text-anchor:middle;fill:#fff;stroke:none;font-family:Arial" id="text10"><path style="font-size:90px;font-weight:700;text-anchor:middle;fill:#fff;stroke:none;font-family:Arial" id="path2994" d="m 178.72949,207.31348 12.61231,3.99902 c -1.93366,7.03126 -5.14898,12.25343 -9.646,15.6665 -4.49712,3.41309 -10.20268,5.11963 -17.1167,5.11963 -8.55471,0 -15.58595,-2.92236 -21.09375,-8.76709 -5.50782,-5.84471 -8.26172,-13.83542 -8.26172,-23.97217 0,-10.72261 2.76855,-19.05024 8.30567,-24.98291 5.53709,-5.93255 12.81735,-8.89886 21.84082,-8.89892 7.88081,6e-5 14.28218,2.32916 19.2041,6.9873 2.92963,2.75397 5.12689,6.70904 6.5918,11.86524 l -12.87598,3.07617 c -0.76177,-3.3398 -2.35112,-5.97651 -4.76807,-7.91016 -2.41703,-1.93354 -5.35404,-2.90033 -8.81103,-2.90039 -4.77542,6e-5 -8.64993,1.71392 -11.62354,5.1416 -2.97365,3.42778 -4.46046,8.97954 -4.46045,16.65528 -1e-5,8.14455 1.46483,13.94533 4.39453,17.40234 2.92967,3.45704 6.73826,5.18556 11.42579,5.18555 3.45699,1e-5 6.43062,-1.09862 8.92089,-3.2959 2.49019,-2.19725 4.2773,-5.65428 5.36133,-10.37109 z"/><path style="font-size:90px;font-weight:700;text-anchor:middle;fill:#fff;stroke:none;font-family:Arial" id="path2996" d="m 260.64355,231 -14.15039,0 -5.625,-14.63379 -25.75195,0 L 209.79883,231 196,231 l 25.09277,-64.42383 13.75489,0 z m -23.95019,-25.48828 -8.87695,-23.90625 -8.70118,23.90625 z"/></g></svg>