<svg xmlns="http://www.w3.org/2000/svg" xmlns:svg="http://www.w3.org/2000/svg" id="svg2" width="400" height="400" version="1.1" viewBox="0 0 400 400"><metadata id="metadata16"/><line style="stroke:#fff;stroke-width:10;stroke-dasharray:10" id="line4" x1="140" x2="260" y1="200" y2="200"/><path style="fill:none;stroke:#fff;stroke-width:10;stroke-dasharray:10" id="path6" d="M285 175 C250 175 250 225 285 225"/><path style="fill:none;stroke:#fff;stroke-width:10;stroke-dasharray:10" id="path8" d="M115 175 C150 175 150 225 115 225"/><g style="font-size:65px;font-weight:700;text-anchor:middle;fill:#fff;fill-opacity:1;stroke:none;stroke-width:6;stroke-miterlimit:4;stroke-opacity:1;stroke-dasharray:12,6;stroke-dashoffset:0;font-family:Arial" id="text10"><path style="font-size:65px;font-weight:700;text-anchor:middle;fill:#fff;fill-opacity:1;stroke:none;stroke-width:6;stroke-miterlimit:4;stroke-opacity:1;stroke-dasharray:12,6;stroke-dashoffset:0;font-family:Arial" id="path2994" d="m 155.75635,180 0,-46.52832 34.49951,0 0,7.87109 -25.10498,0 0,10.31494 23.35937,0 0,7.83936 -23.35937,0 0,12.66357 25.99365,0 0,7.83936 z"/><path style="font-size:65px;font-weight:700;text-anchor:middle;fill:#fff;fill-opacity:1;stroke:none;stroke-width:6;stroke-miterlimit:4;stroke-opacity:1;stroke-dasharray:12,6;stroke-dashoffset:0;font-family:Arial" id="path2996" d="m 197.27002,157.02148 c 0,-4.73955 0.70882,-8.71741 2.12646,-11.93359 1.05794,-2.36975 2.50203,-4.49622 4.33228,-6.37939 1.83023,-1.8831 3.83503,-3.27958 6.0144,-4.18946 2.89875,-1.22716 6.24184,-1.84077 10.0293,-1.84082 6.85544,5e-5 12.34086,2.12651 16.4563,6.3794 4.11535,4.25296 6.17305,10.16686 6.1731,17.7417 -5e-5,7.51141 -2.04188,13.38827 -6.12549,17.63061 -4.0837,4.24235 -9.54268,6.36353 -16.37696,6.36353 -6.91896,0 -12.42026,-2.1106 -16.5039,-6.33179 -4.08367,-4.22118 -6.12549,-10.03457 -6.12549,-17.44019 z m 9.68018,-0.31738 c -2e-5,5.26857 1.21662,9.2623 3.6499,11.9812 2.43325,2.71892 5.52244,4.07838 9.26758,4.07837 3.74508,1e-5 6.8184,-1.34887 9.21997,-4.04663 2.40149,-2.69774 3.60225,-6.74437 3.60229,-12.13989 -4e-5,-5.332 -1.16906,-9.30986 -3.50708,-11.9336 -2.33808,-2.62366 -5.44314,-3.9355 -9.31518,-3.93554 -3.8721,4e-5 -6.99302,1.32775 -9.3628,3.98315 -2.3698,2.65547 -3.5547,6.65978 -3.55468,12.01294 z"/></g></svg>