<svg xmlns="http://www.w3.org/2000/svg" xmlns:svg="http://www.w3.org/2000/svg" id="svg2" width="400" height="400" version="1.1" viewBox="0 0 400 400"><metadata id="metadata12"/><g id="g4" transform="matrix(5,0,0,5,106,155)" style="stroke:#000;stroke-width:1.20000005;stroke-miterlimit:4;stroke-opacity:1;stroke-dasharray:2.4,1.2;stroke-dashoffset:0"><path style="fill:#fff;stroke:#000;stroke-width:1.20000005;stroke-miterlimit:4;stroke-opacity:1;stroke-dasharray:2.4,1.2;stroke-dashoffset:0" id="path6" d="m 37.656,9.836 c -0.385,0.387 -0.77,0.578 -1.152,0.578 L 30.455,9.191 c -0.48,0.242 -1.199,0.555 -2.16,0.939 -1.488,0.289 -3.719,0.818 -6.695,1.588 l 12.672,5.127 c -0.385,0.385 -1.248,0.77 -2.592,1.154 l -16.488,-4.85 c -1.871,0.434 -3.744,0.889 -5.615,1.367 -3.602,0.865 -5.881,1.297 -6.84,1.297 C 0.912,15.814 0,15.504 0,14.879 c 0,-0.432 0.336,-1.02 1.008,-1.764 0.672,-0.744 1.248,-1.164 1.729,-1.26 2.254,-0.576 5.615,-1.369 10.08,-2.377 0.432,-1.344 1.127,-3.432 2.088,-6.264 0.719,-0.287 1.32,-0.479 1.801,-0.576 0,1.922 0.143,3.889 0.432,5.904 C 19.633,8.012 22.92,7.24 27,6.227 c 0.238,-0.096 0.432,-0.41 0.576,-0.941 0.191,-0.82 0.287,-1.254 0.287,-1.303 0.289,-0.047 0.672,-0.168 1.152,-0.363 0.336,-0.723 0.84,-1.664 1.512,-2.822 0.047,0 0.84,-0.266 2.377,-0.797 l -1.441,7.377 z"/></g></svg>