<svg xmlns="http://www.w3.org/2000/svg" xmlns:svg="http://www.w3.org/2000/svg" id="svg2" width="400" height="400" version="1.1" viewBox="0 0 400 400"><metadata id="metadata20"/><g id="g8" transform="matrix(0.9,0,0,0.9,12,-3)"><g id="g10" transform="matrix(1.4,0,0,1.4,-70,-20)"><path style="fill:none;stroke:#fff;stroke-width:10;stroke-dasharray:10" id="path12" d="m 140,115 c 0,55 30,75 80,70"/><polyline style="fill:none;stroke:#fff;stroke-width:10;stroke-dasharray:10" id="polyline14" points="145 150 200 110 200 150 255 110"/></g></g><g id="g4" transform="translate(0,65)" style="stroke:none;stroke-width:6;stroke-miterlimit:4;stroke-opacity:1;stroke-dasharray:12,6;stroke-dashoffset:0"><g style="font-size:90px;font-weight:700;text-anchor:middle;fill:#fff;stroke:none;stroke-width:6;stroke-miterlimit:4;stroke-opacity:1;stroke-dasharray:12,6;stroke-dashoffset:0;font-family:Arial" id="text6"><path style="font-size:90px;font-weight:700;text-anchor:middle;fill:#fff;stroke:none;stroke-width:6;stroke-miterlimit:4;stroke-opacity:1;stroke-dasharray:12,6;stroke-dashoffset:0;font-family:Arial" id="path2998" d="m 156.3623,232 0,-64.42383 19.46778,0 11.68945,43.94531 11.55762,-43.94531 19.51172,0 0,64.42383 -12.08496,0 0,-50.71289 L 193.71582,232 l -12.52441,0 -12.74414,-50.71289 0,50.71289 z"/><path style="font-size:90px;font-weight:700;text-anchor:middle;fill:#fff;stroke:none;stroke-width:6;stroke-miterlimit:4;stroke-opacity:1;stroke-dasharray:12,6;stroke-dashoffset:0;font-family:Arial" id="path3000" d="m 231.20117,232 0,-64.42383 13.00781,0 0,64.42383 z"/></g></g></svg>