<svg xmlns="http://www.w3.org/2000/svg" xmlns:svg="http://www.w3.org/2000/svg" id="svg2" width="400" height="400" version="1.1" viewBox="0 0 400 400"><metadata id="metadata20"/><polyline style="fill:none;stroke:#fff;stroke-width:10;stroke-dasharray:10" id="polyline4" points="80 121 200 220 200 180 320 279"/><line style="stroke:#fff;stroke-width:10;stroke-dasharray:10" id="line6" x1="200" x2="200" y1="110" y2="305"/><line style="stroke:#fff;stroke-width:10;stroke-dasharray:10" id="line8" x1="135" x2="265" y1="115" y2="115"/><line style="stroke:#fff;stroke-width:10;stroke-dasharray:10" id="line10" x1="155" x2="245" y1="140" y2="140"/><g id="g12" transform="translate(80 160) scale(0.6 0.6)"><g style="font-size:150px;font-weight:700;text-anchor:middle;fill:#fff;font-family:Arial" id="text14"><path style="font-size:150px;font-weight:700;text-anchor:middle;fill:#fff;font-family:Arial" id="path2998" d="m 225.41504,190.52246 21.02051,6.66504 c -3.22276,11.71877 -8.58164,20.42238 -16.07666,26.11084 -7.4952,5.68848 -17.00447,8.53271 -28.52784,8.53271 -14.25785,0 -25.97659,-4.8706 -35.15625,-14.61181 -9.17969,-9.74119 -13.76953,-23.05905 -13.76953,-39.95362 0,-17.87102 4.61425,-31.7504 13.84278,-41.63818 9.22848,-9.88759 21.36226,-14.83143 36.40136,-14.83154 13.1347,1.1e-4 23.80363,3.88194 32.00684,11.64551 4.88272,4.58993 8.54482,11.18172 10.98633,19.77539 l -21.45996,5.12695 c -1.26961,-5.56633 -3.91853,-9.96085 -7.94678,-13.18359 -4.02839,-3.22257 -8.9234,-4.8339 -14.68506,-4.83399 -7.95903,9e-5 -14.41654,2.85654 -19.37256,8.56934 -4.95608,5.71296 -7.43411,14.96589 -7.43408,27.75879 -3e-5,13.57426 2.44137,23.24222 7.32422,29.0039 4.88277,5.76174 11.23042,8.6426 19.04297,8.64258 5.76166,2e-5 10.71771,-1.83103 14.86816,-5.49316 4.15032,-3.66209 7.12883,-9.4238 8.93555,-17.28516 z"/></g></g></svg>