<svg xmlns="http://www.w3.org/2000/svg" xmlns:svg="http://www.w3.org/2000/svg" id="svg2" width="400" height="400" version="1.1" viewBox="0 0 400 400"><metadata id="metadata24"/><g id="g4" transform="translate(50 40) scale(0.6 0.6)"><g style="font-size:90px;font-weight:700;text-anchor:middle;fill:#fff;font-family:Arial" id="text6"><path style="font-size:90px;font-weight:700;text-anchor:middle;fill:#fff;font-family:Arial" id="path3002" d="m 134.03809,232 0,-64.42383 47.76855,0 0,10.89844 -34.76074,0 0,14.28223 32.34375,0 0,10.85449 -32.34375,0 0,17.53418 35.99121,0 0,10.85449 z"/><path style="font-size:90px;font-weight:700;text-anchor:middle;fill:#fff;font-family:Arial" id="path3004" d="m 203.2959,232 -15.38086,-64.42383 13.31543,0 9.71191,44.25293 11.77735,-44.25293 15.46875,0 11.29394,45 9.8877,-45 13.0957,0 L 256.82129,232 243.02246,232 230.19043,183.83594 217.40234,232 z"/></g></g><g id="g8" transform="translate(10 0) scale(0.95 0.88)"><path style="fill:none;stroke:#fff;stroke-width:10;stroke-dasharray:10" id="path10" d="M140 140 C80 140 80 260 140 260 L260 260 C320 260 320 140 260 140 z"/></g><ellipse style="fill:none;stroke:#fff;stroke-width:10;stroke-dasharray:10" id="ellipse12" cx="120" cy="245" rx="13" ry="13"/><ellipse style="fill:none;stroke:#fff;stroke-width:10;stroke-dasharray:10" id="ellipse14" cx="200" cy="245" rx="13" ry="13"/><ellipse style="fill:none;stroke:#fff;stroke-width:10;stroke-dasharray:10" id="ellipse16" cx="280" cy="245" rx="13" ry="13"/><line style="stroke:#fff;stroke-width:10;stroke-dasharray:10" id="line18" x1="320" x2="80" y1="121" y2="279"/></svg>