<svg xmlns:xlink="http://www.w3.org/1999/xlink" width="400" height="400" viewBox="0 0 400 400"><polygon points="125 250 125 150 275 150 275 250" style="fill:#fff;stroke:#000;stroke-width:10"/><ellipse cx="250" cy="255" rx="20" ry="20" style="fill:#fff;stroke:#000;stroke-width:10"/><ellipse cx="150" cy="255" rx="20" ry="20" style="fill:#fff;stroke:#000;stroke-width:10"/><rect style="fill:none;stroke:#000;stroke-width:5" width="31" height="43" x="142" y="160" transform="matrix(1 0 0 1 0 0)"/><rect style="fill:none;stroke:#000;stroke-width:5" width="31" height="43" x="185" y="160" transform="matrix(1 0 0 1 0 0)"/><rect style="fill:none;stroke:#000;stroke-width:5" width="31" height="43" x="228" y="160" transform="matrix(1 0 0 1 0 0)"/><line style="stroke:#000;stroke-width:10" x1="200" x2="200" y1="204" y2="250" transform="matrix(1 0 0 1 0 0)"/><line style="stroke:#000;stroke-width:10" x1="181" x2="181" y1="205" y2="250" transform="matrix(1 0 0 1 0 0) translate(1 0) translate(-1 0) translate(0 -1)"/><line style="stroke:#000;stroke-width:10" x1="219" x2="219" y1="205" y2="250" transform="matrix(1 0 0 1 0 0) translate(0 -1)"/></svg>