<svg xmlns="http://www.w3.org/2000/svg" xmlns:svg="http://www.w3.org/2000/svg" id="svg2" width="400" height="400" version="1.1" viewBox="0 0 400 400"><metadata id="metadata20"/><path style="fill:#fff;fill-opacity:1;stroke:#000;stroke-width:6;stroke-miterlimit:4;stroke-opacity:1;stroke-dasharray:12,6;stroke-dashoffset:0" id="rect4" d="m 115,125 0,120 50,0 0,-55 12,0 0,45 18,0 0,20.125 c -17.94321,0.79498 -35.52477,5.88858 -48.125,15.96875 l 6.25,7.8125 C 164.35529,269.92201 182.13889,265 200,265 c 17.86111,0 35.64471,4.92201 46.875,13.90625 l 6.25,-7.8125 C 240.52477,261.01358 222.94321,255.91998 205,255.125 l 0,-20.125 18,0 0,-45 12,0 0,55 50,0 0,-120 -50,0 0,55 -12,0 0,-45 -46,0 0,45 -12,0 0,-55 -50,0 z"/></svg>