<svg xmlns="http://www.w3.org/2000/svg" xmlns:svg="http://www.w3.org/2000/svg" id="svg2" width="400" height="400" version="1.1" viewBox="0 0 400 400"><metadata id="metadata16"/><polyline style="fill:none;stroke:#fff;stroke-width:5;stroke-miterlimit:4;stroke-dasharray:10,5;stroke-dashoffset:0" id="polyline6" points="120 255 120 165 181 105"/><polyline style="fill:none;stroke:#fff;stroke-width:5;stroke-miterlimit:4;stroke-dasharray:10,5;stroke-dashoffset:0" id="polyline8" points="280 255 280 165 219 105"/><polyline style="fill:none;stroke:#fff;stroke-width:5;stroke-miterlimit:4;stroke-opacity:1;stroke-dasharray:10,5;stroke-dashoffset:0" id="polyline6-1" points="120 255 120 165 181 105"/><polyline style="fill:none;stroke:#fff;stroke-width:5;stroke-miterlimit:4;stroke-opacity:1;stroke-dasharray:10,5;stroke-dashoffset:0" id="polyline8-7" points="280 255 280 165 219 105"/><g style="font-size:60px;fill:#fff;stroke:none;stroke-width:6;stroke-miterlimit:4;stroke-opacity:1;stroke-dasharray:12,6;stroke-dashoffset:0;font-family:Arial" id="text10"><path style="font-size:60px;fill:#fff;stroke:none;stroke-width:6;stroke-miterlimit:4;stroke-opacity:1;stroke-dasharray:12,6;stroke-dashoffset:0;font-family:Arial" id="path3006" d="m 185.55664,310 0,-37.88086 -14.15039,0 0,-5.06836 34.04297,0 0,5.06836 -14.20899,0 0,37.88086 z"/><path style="font-size:60px;fill:#fff;stroke:none;stroke-width:6;stroke-miterlimit:4;stroke-opacity:1;stroke-dasharray:12,6;stroke-dashoffset:0;font-family:Arial" id="path3008" d="m 211.60156,310 0,-42.94922 28.97461,0 0,5.06836 -23.29101,0 0,13.30078 20.15625,0 0,5.06836 -20.15625,0 0,19.51172 z"/></g><path style="fill:#fff;stroke:#000;stroke-width:6;stroke-miterlimit:4;stroke-opacity:1;stroke-dasharray:12,6;stroke-dashoffset:0" id="polyline4" d="m 135,255 0,-85 65,-65 65,65 0,85 z"/></svg>