<svg xmlns="http://www.w3.org/2000/svg" xmlns:svg="http://www.w3.org/2000/svg" id="svg2" width="400" height="400" version="1.1" viewBox="0 0 400 400"><metadata id="metadata10"/><g style="font-size:140px;font-weight:700;text-anchor:middle;fill:#fff;font-family:Arial;stroke:#000;stroke-opacity:1;stroke-width:6;stroke-miterlimit:4;stroke-dasharray:12,6;stroke-dashoffset:0" id="text4"><path style="font-size:140px;font-weight:700;text-anchor:middle;fill:#fff;font-family:Arial;stroke:#000;stroke-opacity:1;stroke-width:6;stroke-miterlimit:4;stroke-dasharray:12,6;stroke-dashoffset:0" id="path2988" d="m 117.35352,250 0,-99.39453 20.23437,0 0,82.50976 50.3125,0 0,16.88477 z"/><path style="font-size:140px;font-weight:700;text-anchor:middle;fill:#fff;font-family:Arial;stroke:#000;stroke-opacity:1;stroke-width:6;stroke-miterlimit:4;stroke-dasharray:12,6;stroke-dashoffset:0" id="path2990" d="m 266.51367,213.1543 19.61914,6.2207 c -3.0079,10.93752 -8.00952,19.06088 -15.00488,24.37012 -6.99551,5.30924 -15.87083,7.96386 -26.62598,7.96386 -13.30733,0 -24.24482,-4.54589 -32.8125,-13.63769 -8.56772,-9.09178 -12.85157,-21.52178 -12.85156,-37.29004 -10e-6,-16.67962 4.30663,-29.63371 12.91992,-38.8623 8.61326,-9.22842 19.93811,-13.84268 33.97461,-13.84278 12.25905,1e-4 22.21672,3.62315 29.87305,10.86914 4.5572,4.28394 7.97517,10.43628 10.2539,18.45703 l -20.02929,4.78516 c -1.18497,-5.19524 -3.6573,-9.2968 -7.41699,-12.30469 -3.75983,-3.00773 -8.32851,-4.51163 -13.70606,-4.51172 -7.42843,9e-5 -13.45544,2.6661 -18.08105,7.99805 -4.62568,5.3321 -6.93851,13.96816 -6.93848,25.9082 -3e-5,12.66931 2.27862,21.69274 6.83594,27.07032 4.55725,5.37762 10.48172,8.06642 17.77343,8.0664 5.37755,2e-5 10.0032,-1.70896 13.87696,-5.12695 3.87363,-3.41795 6.65357,-8.79554 8.33984,-16.13281 z"/></g></svg>