<svg xmlns="http://www.w3.org/2000/svg" xmlns:svg="http://www.w3.org/2000/svg" id="svg2" width="400" height="400" version="1.1" viewBox="0 0 400 400"><metadata id="metadata10"/><g style="font-size:140px;font-weight:700;text-anchor:middle;fill:#fff;font-family:Arial;stroke:#000;stroke-opacity:1;stroke-width:6;stroke-miterlimit:4;stroke-dasharray:12,6;stroke-dashoffset:0" id="text4"><path style="font-size:140px;font-weight:700;text-anchor:middle;fill:#fff;font-family:Arial;stroke:#000;stroke-opacity:1;stroke-width:6;stroke-miterlimit:4;stroke-dasharray:12,6;stroke-dashoffset:0" id="path2988" d="m 109.01367,250 0,-100.21484 32.4707,0 c 12.30464,1e-4 20.32546,0.5014 24.0625,1.5039 5.74212,1.50401 10.55006,4.77386 14.42383,9.80957 3.87362,5.03589 5.81046,11.54142 5.81055,19.5166 -9e-5,6.15241 -1.11662,11.32493 -3.34961,15.51758 -2.23315,4.19276 -5.07006,7.4854 -8.51074,9.87793 -3.44083,2.39262 -6.93855,3.97628 -10.49317,4.75098 -4.83078,0.95707 -11.82622,1.43558 -20.98632,1.43555 l -13.19336,0 0,37.80273 z m 20.23438,-83.26172 0,28.4375 11.07422,0 c 7.97521,6e-5 13.30723,-0.52403 15.99609,-1.57226 2.68874,-1.04812 4.79649,-2.68875 6.32324,-4.92188 1.52663,-2.23301 2.28997,-4.83066 2.29004,-7.79297 -7e-5,-3.64576 -1.07103,-6.65357 -3.21289,-9.02344 -2.14199,-2.36971 -4.85357,-3.85083 -8.13477,-4.44336 -2.41541,-0.45564 -7.26892,-0.68351 -14.56054,-0.68359 z"/><path style="font-size:140px;font-weight:700;text-anchor:middle;fill:#fff;font-family:Arial;stroke:#000;stroke-opacity:1;stroke-width:6;stroke-miterlimit:4;stroke-dasharray:12,6;stroke-dashoffset:0" id="path2990" d="m 249.15039,213.1543 0,-16.88477 43.61328,0 0,39.92188 c -4.23838,4.10157 -10.37932,7.71322 -18.42285,10.83496 -8.04369,3.12174 -16.18984,4.68261 -24.43848,4.68261 -10.48181,0 -19.61917,-2.19889 -27.41211,-6.59668 -7.79299,-4.39777 -13.6491,-10.68683 -17.56836,-18.86718 -3.91927,-8.18031 -5.87891,-17.07841 -5.8789,-26.69434 -1e-5,-10.43614 2.18749,-19.71022 6.5625,-27.82226 4.37498,-8.1119 10.77797,-14.33259 19.20898,-18.66211 6.42575,-3.32673 14.42378,-4.99014 23.99414,-4.99024 12.44134,1e-4 22.15976,2.60915 29.15528,7.82715 6.99535,5.21819 11.49567,12.43009 13.50097,21.63574 l -20.09765,3.75977 c -1.41284,-4.9218 -4.06746,-8.80689 -7.96387,-11.65528 -3.89655,-2.84822 -8.76146,-4.27237 -14.59473,-4.27246 -8.84119,9e-5 -15.87081,2.80282 -21.08886,8.40821 -5.21813,5.60554 -7.82718,13.92259 -7.82715,24.95117 -3e-5,11.89457 2.6432,20.81546 7.92969,26.76269 5.28641,5.94729 12.21349,8.92092 20.78125,8.9209 4.23822,2e-5 8.48789,-0.83169 12.74902,-2.49511 4.26099,-1.6634 7.91822,-3.68 10.97168,-6.04981 l 0,-12.71484 z"/></g></svg>