<svg xmlns:xlink="http://www.w3.org/1999/xlink" width="400" height="400" viewBox="0 0 400 400"><polygon points="180 130 180 95 220 95 220 130" style="fill:#fff;stroke:#000;stroke-width:10"/><polygon points="180 218 180 183 220 183 220 218" transform="matrix(1 0 0 1 0 0) translate(-45.4545 -54.9091) translate(-6.4 -6) rotate(315.02 200 200.5) translate(0.282134 -1.98) translate(-0.00121416 -3.39411)" style="fill:#fff;stroke:#000;stroke-width:10"/><polygon points="222 227 222 192 262 192 262 227" transform="matrix(1 0 0 1 0 0) translate(10.4 -71.6) rotate(44.8803 242 209.5) translate(0.0070909 -3.39411)" style="fill:#fff;stroke:#000;stroke-width:10"/><circle cx="200" cy="190" r="70" transform="matrix(1 0 0 1 0 0)" style="fill:#fff;stroke:#000;stroke-width:10"/><line style="stroke:#000;stroke-width:10" x1="200" x2="200" y1="260" y2="295"/><line style="stroke:#000;stroke-width:10" x1="135" x2="265" y1="292" y2="292"/></svg>