<svg xmlns="http://www.w3.org/2000/svg" xmlns:svg="http://www.w3.org/2000/svg" id="E-NPBC---------" width="298" height="223.482" version="1.1" viewBox="0 0 298 223.482"><metadata id="metadata26"/><g id="g3" transform="translate(-52.5,-86.5)"><svg id="_0.FLD____________" width="400" height="400" version="1.1" viewBox="0 0 400 400"><g id="g6" transform="translate(0,39)"><rect id="rect8" width="180" height="117" x="110" y="134" style="fill:none;stroke:#fff;stroke-width:5;stroke-opacity:1"/><polygon id="polygon10" points="110 133 200 50 290 133" style="fill:none;stroke:#fff;stroke-width:5;stroke-opacity:1"/><g id="g12" transform="translate(0,-79.5181)"><rect id="rect14" width="297" height="25" x="53" y="325" style="fill:#fff;stroke:#fff;stroke-width:1;stroke-opacity:1;fill-opacity:1"/><line id="line16" x1="55" x2="55" y1="327" y2="303" style="fill:none;stroke:#fff;stroke-width:5;stroke-linecap:round;stroke-opacity:1"/><line id="line18" x1="348" x2="348" y1="327" y2="303" style="fill:none;stroke:#fff;stroke-width:5;stroke-linecap:round;stroke-opacity:1"/><path id="path20" d="m 56.0121,301.195 c 15.7703,43.368 41.3285,0.979 43.6667,1.666 11.6432,3.425 6.5902,17.877 26.6662,14.334 6.893,-1.216 18.375,-13.817 21.667,-14 8.528,-0.474 12.331,21.518 29.667,17.333 8.142,-1.965 13.503,-14.612 19.333,-16 5.044,-1.201 5.56,8.471 8,10.667 6.418,5.775 20.418,7.493 28.333,4.666 9.404,-3.358 10.196,-16.56 16.667,-19.333 6.987,-2.994 6.789,15.596 14,18 23.53,7.843 22.533,-12.1 36.333,-19 4.098,-2.049 2.503,9.064 5.334,12.667 9.592,12.208 27.837,2.698 36.666,-5.667 3.273,-3.1 3.776,-4.342 5.334,1 0.853,2.925 2.174,19.492 0,21.667 -2.906,2.905 -17.578,4.559 -19,4.666 -29.862,2.254 -266.9378,4.204 -274.0002,-11.333" style="fill:#fff;stroke:#fff;stroke-width:1;fill-opacity:1;stroke-opacity:1"/></g></g></svg></g></svg>