<svg xmlns="http://www.w3.org/2000/svg" xmlns:svg="http://www.w3.org/2000/svg" id="E-NPBM---------" width="286.84" height="172.511" version="1.1" viewBox="0 0 286.84 172.511"><metadata id="metadata14"/><g id="g3" transform="translate(-65.55645,-107.517)"><svg id="_0.TSNMI__________" width="400" height="400" version="1.1" viewBox="0 0 400 400"><g id="g6" transform="matrix(150,0,0,150,19.00005,36)"><path id="path8" d="M 0.310382,1.62187 1.33133,1.61981 2.1264,1.62685 C 1.94136,1.62685 1.79573,1.5824 1.6886,1.5021 1.59241,1.43001 1.49118,1.29797 1.49118,1.13182 c 0,-0.234328 0.17761,-0.425777 0.40941,-0.425777 l 0.01637,0 c 0.16918,0 0.21157,0.073441 0.30568,0.136465 C 2.17067,0.619417 1.94965,0.47678 1.67132,0.47678 l -0.00546,0 c -0.47149,0 -1.15995,0.85309 -1.35548,1.14509 l -4e-6,0 z" style="fill:#fff;fill-opacity:1"/></g></svg></g></svg>