<svg xmlns="http://www.w3.org/2000/svg" xmlns:svg="http://www.w3.org/2000/svg" id="E-NPAG---------" width="248.112" height="273.608" version="1.1" viewBox="0 0 248.112 273.608"><metadata id="metadata18"/><g id="g3" transform="translate(-80.62522,-57.86154)"><svg id="_0.VLCTHT_________" width="400" height="400" version="1.1" viewBox="0 0 400 400"><g id="g6" transform="scale(170,170)"><g id="_64124992"><path style="fill:none;fill-opacity:1;stroke:#fff;stroke-opacity:1;stroke-width:7.00000351999999992;stroke-miterlimit:4;stroke-dasharray:7.00000351999999992,7.00000351999999992;stroke-dashoffset:0" id="_65373472" d="M 54.125 99.9375 C 42.84737 99.9375 29.32345 160.81425 24.8125 172.09375 C 18.04599 196.90355 4.51112 226.2569 0 248.8125 L 74.4375 251.0625 L 74.4375 244.28125 L 11.28125 242.03125 L 54.125 108.9375 L 193.96875 108.9375 L 236.84375 242.03125 L 173.6875 244.28125 L 173.6875 251.0625 L 248.125 248.8125 C 243.6132 226.2569 230.0802 196.90355 223.3125 172.09375 C 218.8024 160.81425 205.24655 99.9375 193.96875 99.9375 L 54.125 99.9375 z" transform="matrix(0.00588235,0,0,0.00588235,0.47426599,0.340362)"/><path id="_64119160" d="m 1.05806,1.77734 0,0.03981 c 0,0.06634 0.06634,0.13267 0.13268,0.13267 l 0.02654,0 c 0.06634,0 0.13268,-0.06633 0.13268,-0.13267 l 0,-0.03981 C 1.34996,1.711 1.28361,1.64466 1.21728,1.64466 l -0.02654,0 c -0.06634,0 -0.13268,0.06634 -0.13268,0.13268 z" style="fill:#fff;fill-opacity:1"/></g><g id="_63611392" transform="translate(0,0.01176471)"><path id="_65601640" d="m 1.07719,0.370488 0,0.063594 C 1.10204,0.433523 1.1415,0.40061 1.18764,0.40061 l 0.01005,0 c 0.04164,0 0.068,0.006209 0.08649,0.03065 C 1.30104,0.453551 1.30427,0.493972 1.29191,0.521618 1.26742,0.576413 1.16756,0.62422 1.16756,0.634905 l 0,0.10376 0.06695,0 0,-0.076984 c 0,-0.013028 0.14057,-0.076016 0.14057,-0.167354 l 0,-0.036815 c 0,-0.062906 -0.07739,-0.11715 -0.14392,-0.11715 l -0.03682,0 c -0.02346,0 -0.11715,0.0147 -0.11715,0.030126 z" style="fill:#fff;fill-opacity:1"/><polygon id="_66123952" points="1.164 .879 1.238 .879 1.238 .802 1.164 .802" style="fill:#fff;fill-opacity:1"/></g></g></svg></g></svg>