<svg xmlns="http://www.w3.org/2000/svg" xmlns:svg="http://www.w3.org/2000/svg" id="E-NPCC---------" width="356" height="126" version="1.1" viewBox="0 0 356 126"><metadata id="metadata14"/><g id="g3" transform="translate(-22,-137)"><svg id="_0.MICROB_________" width="400" height="400" version="1.1" viewBox="0 0 400 400"><ellipse id="ellipse6" cx="200" cy="200" d="m 375,200 c 0,33.13708 -78.35017,60 -175,60 -96.64983,0 -175,-26.86292 -175,-60 0,-33.13708 78.35017,-60 175,-60 96.64983,0 175,26.86292 175,60 z" rx="175" ry="60" style="fill:none;stroke:#fff;stroke-width:6;stroke-opacity:1"/><ellipse id="ellipse8" cx="130" cy="197" d="m 155.5,197 c 0,14.08326 -11.41674,25.5 -25.5,25.5 -14.08326,0 -25.5,-11.41674 -25.5,-25.5 0,-14.08326 11.41674,-25.5 25.5,-25.5 14.08326,0 25.5,11.41674 25.5,25.5 z" rx="25.5" ry="25.5" style="fill:#fff;stroke:#fff;stroke-width:1;stroke-opacity:1;fill-opacity:1"/></svg></g></svg>