<svg xmlns="http://www.w3.org/2000/svg" xmlns:svg="http://www.w3.org/2000/svg" id="E-NPAE---------" width="314.168" height="111.206" version="1.1" viewBox="0 0 314.168 111.206"><metadata id="metadata14"/><g id="g3" transform="translate(-48.590791,-140.6671)"><svg id="_0.SBSDNC_________" width="400" height="400" version="1.1" viewBox="0 0 400 400"><g id="g6" transform="matrix(170,0,0,170,-0.9999995,-74.99992)"><path id="path8" d="m 0.748402,1.27272 1.387888,0 -0.91428,0 0,0.03295 c 0,0.03071 -0.03068,0.03348 -0.04468,0.05416 C 1.16322,1.38065 1.16854,1.42146 1.18389,1.43851 1.241,1.50194 1.16024,1.53109 1.16024,1.57336 c 0,0.01912 0.02471,0.0591 0.02471,0.08237 0,0.0257 -0.04119,0.0302 -0.04119,0.04942 l 0,0.01236 c 0,0.0336 0.02883,0.05324 0.02883,0.06589 0,0.03274 -0.02784,0.03436 -0.03551,0.0798 -0.00826,0.04893 -1.2e-4,0.05611 -0.06333,0.05611 l -0.00412,0 C 1.03453,1.91931 1.03801,1.87963 1.02822,1.85364 1.01858,1.82805 0.979028,1.83397 0.979028,1.79164 l 0,-0.00824 c 0,-0.00979 0.012354,-0.01636 0.012354,-0.03707 0,-0.02696 -0.065893,-0.02204 -0.065893,-0.05354 0,-0.02402 0.008236,-0.03628 0.008236,-0.05765 0,-0.03866 -0.081996,-0.04651 -0.079209,-0.08658 L 0.859591,1.48688 C 0.847044,1.46814 0.806055,1.43826 0.806055,1.4251 l 0,-0.00823 c 0,-0.01257 0.003953,-0.01663 0.005351,-0.02321 L 0.748398,1.27272 0.295181,1.2721 0.748398,1.27272 z" style="fill:#fff;stroke:#fff;stroke-width:.00694094;fill-opacity:1;stroke-opacity:1"/></g></svg></g></svg>