<svg xmlns="http://www.w3.org/2000/svg" xmlns:svg="http://www.w3.org/2000/svg" id="E-NPAB---------" width="155.767" height="184.823" version="1.1" viewBox="0 0 155.767 184.823"><metadata id="metadata15"/><g id="g3" transform="translate(-123.6024,-98.2268)"><svg id="_0.AVL____________" width="400" height="400" version="1.1" viewBox="0 0 400 400"><g id="g6" transform="matrix(100,0,0,100,80,71)"><polygon id="_65492976" points="1.36 .517 1.18 .619 1.195 .654 1.381 .544 1.381 .754 1.421 .754 1.422 .546 1.6 .653 1.619 .62 1.435 .517 1.623 .407 1.597 .378 1.421 .478 1.421 .272 1.381 .272 1.381 .478 1.196 .379 1.181 .406" style="fill:#fff;fill-opacity:1"/><polygon id="_66340648" points="1.578 1.759 1.298 .743 .436 2.04 1.683 2.04 1.471 1.79" style="fill:#fff;fill-opacity:1"/><polygon id="_65105008" points="1.917 2.12 1.994 1.795 1.88 1.829 1.607 .879 1.517 .902 1.792 1.853 1.676 1.891" style="fill:#fff;fill-opacity:1"/></g></svg></g></svg>