<svg xmlns="http://www.w3.org/2000/svg" xmlns:svg="http://www.w3.org/2000/svg" id="E-NPBF---------" width="199.748" height="185.319" version="1.1" viewBox="0 0 199.748 185.319"><metadata id="metadata14"/><g id="g3" transform="translate(-98.77308,-105.44225)"><svg id="_0.INV____________" width="400" height="400" version="1.1" viewBox="0 0 400 400"><g id="g6" transform="matrix(140,0,0,140,16.00004,8.000006)"><polygon id="_65829736" points=".591 .696 .591 .848 2.018 .848 2.018 .696" style="fill:#fff;fill-opacity:1"/><path id="_64553904" d="m 0.759413,1.14087 c 0,-0.02053 0.073772,-0.07052 0.1085,-0.07052 l 0.005425,0 c 0.058575,0 0.160182,0.16274 0.271252,0.16274 l 0.03255,0 c 0.09662,0 0.20218,-0.16274 0.26582,-0.16274 0.06216,0 0.1569,0.16274 0.27125,0.16274 l 0.01627,0 c 0.15201,0 0.18771,-0.07769 0.27668,-0.12477 L 1.91106,0.993082 C 1.8507,1.02551 1.8377,1.07647 1.7424,1.08814 1.70312,1.09295 1.62573,1.018 1.59354,0.990291 1.45159,0.868137 1.35994,0.936941 1.24665,1.02593 1.17645,1.08108 1.17766,1.12082 1.09435,1.05006 1.05495,1.01659 0.994563,0.963886 0.947631,0.941803 0.880438,0.910189 0.794552,0.929492 0.744147,0.96285 0.716662,0.981039 0.612938,1.0551 0.612938,1.08662 l 0,0.9331 0.146476,0 z" style="fill:#fff;fill-opacity:1"/></g></svg></g></svg>