<svg xmlns="http://www.w3.org/2000/svg" xmlns:svg="http://www.w3.org/2000/svg" id="svg2" width="400" height="400" version="1.1" viewBox="0 0 400 400"><metadata id="metadata38"/><text style="font-size:52px;font-weight:700;text-anchor:middle;fill:#000;font-family:Arial" id="text4" x="200" y="140">REL</text><path style="fill:#fff;stroke:#000;stroke-width:4;stroke-dasharray:10" id="path6" d="m 157.81,232.467 c -4.079,1.019 -30.313,-2.496 -31.81,0 -3.522,5.87 12.62,9.849 12,16.666 -0.62,6.821 -26.769,5 -27.333,8.667 -1.73,11.244 54.028,18.209 60,20 11.033,3.31 14.489,13.345 26.666,16.667 13.019,3.55 30.872,-12.56 46,-11.334 3.214,0.261 23.762,7.096 27.334,4 13.535,-11.73 -22.724,-20.95 -27.334,-27.333 -6.435,-8.91 35.087,-10.044 -4.285,-18.19"/><g id="g8" transform="matrix(0,1,-1,0,324.25,68.582996)"><rect style="fill:#fff;stroke:#000;stroke-width:3;stroke-dasharray:10" id="rect10" width="105" height="78" x="86" y="87"/><ellipse style="fill:#fff;stroke:#000;stroke-width:3;stroke-dasharray:10" id="ellipse12" cx="82" cy="126" d="m 92,126 c 0,21.53911 -4.477153,39 -10,39 -5.522847,0 -10,-17.46089 -10,-39 0,-21.53911 4.477153,-39 10,-39 5.522847,0 10,17.46089 10,39 z" rx="10" ry="39" transform="translate(4,0)"/><ellipse style="fill:#fff;stroke:#000;stroke-width:3;stroke-dasharray:10" id="ellipse14" cx="82" cy="126" d="m 92,126 c 0,21.53911 -4.477153,39 -10,39 -5.522847,0 -10,-17.46089 -10,-39 0,-21.53911 4.477153,-39 10,-39 5.522847,0 10,17.46089 10,39 z" rx="10" ry="39" transform="translate(109,-0.5)"/><rect style="fill:#fff;stroke:none" id="rect16" width="14" height="75" x="176" y="88" transform="matrix(1.08571,0,0,0.994805,-15.08496,0.85198)"/></g><g id="g18" transform="matrix(71.276665,0,0,71.276665,106.88966,113.25586)"><path style="fill:#fff;stroke-dasharray:10" id="path20" d="m 0.906547,1.24253 0,0.10719 0.089323,0 0,-0.19652 C 0.984102,1.16109 0.906547,1.23159 0.906547,1.24253 z"/><polygon style="fill:#fff;stroke-dasharray:10" id="polygon22" points="1.103 1.35 1.21 1.35 1.209 .942 1.106 1.045"/><path style="fill:#fff;stroke-dasharray:10" id="path24" d="m 1.33531,1.34972 0.10719,0 0,-0.29924 c 0,-0.01102 -0.09409,-0.098413 -0.10719,-0.107189 z"/><path style="fill:#fff;stroke-dasharray:10" id="path26" d="m 1.54969,1.34972 0.08932,0 0,-0.09826 c 0,-0.01707 -0.00137,-0.00162 0.00359,-0.0125 L 1.54969,1.1532 z"/><polygon style="fill:#fff;stroke-dasharray:10" id="polygon28" points=".79 1.363 1.272 1.829 1.755 1.363"/><path style="fill:#000;stroke-dasharray:10" id="path30" d="M 0.790134,1.36342 1.75513,1.36312 1.27167,1.82876 z M 1.33531,0.94329 C 1.34841,0.952066 1.4425,1.03946 1.4425,1.05048 l 0,0.29924 -0.10719,0 z m -0.12597,-9.17e-4 9.1e-4,0.407347 -0.10719,0 L 1.10605,1.04457 1.20934,0.942372 z M 0.906547,1.24253 c 0,-0.01094 0.077555,-0.08144 0.089323,-0.08933 l 0,0.19652 -0.089323,0 z M 1.54969,1.1532 1.6426,1.23895 C 1.63764,1.24984 1.63901,1.23439 1.63901,1.25146 l 0,0.09826 -0.08932,0 z M 1.78608,1.35832 1.27338,0.857813 0.761902,1.35689 1.27335,1.85499 z"/></g><path style="fill:none;stroke:#000;stroke-width:1;stroke-dasharray:10" id="path32" d="m 250.707,244.61 -4.572,-1.429"/></svg>