<svg xmlns="http://www.w3.org/2000/svg" xmlns:svg="http://www.w3.org/2000/svg" id="svg2" width="400" height="400" version="1.1" viewBox="0 0 400 400"><metadata id="metadata18"/><rect style="fill:#fff;stroke:none" id="rect4" width="34" height="25" x="166" y="262"/><path style="fill:#fff;stroke:#000;stroke-width:4;stroke-dasharray:10" id="path6" d="m 115.5,242.289 c -28.528397,-31.12199 26.641,-36.40099 44,-41.99999 13.876,-4.477 13.567,-16.276 23.5,-23.5 12.984,-9.443 34.969,-1.816 49,-10 11.29,-6.586 23.494,-27.50001 36.5,-29.00001 23.291,-2.688 34.995,33.34101 25,50.00001 -7.7,12.833 -30.139,7.548 -38.5,18 -12.154,15.191 3.345,34.90099 -21.5,41.99999"/><rect style="fill:#000;stroke:#000;stroke-width:1;stroke-dasharray:10" id="rect8" width="130" height="22" x="115" y="241"/><line style="stroke:#000;stroke-width:6;stroke-dasharray:10" id="line10" x1="166" x2="166" y1="257" y2="287"/><line style="stroke:#000;stroke-width:6;stroke-dasharray:10" id="line12" x1="200" x2="200" y1="258" y2="287"/></svg>