<svg xmlns="http://www.w3.org/2000/svg" xmlns:svg="http://www.w3.org/2000/svg" id="svg2" width="400" height="400" version="1.1" viewBox="0 0 400 400"><metadata id="metadata10"/><g style="font-size:95px;font-weight:700;text-anchor:middle;fill:#fff;stroke:#000;stroke-width:6;stroke-miterlimit:4;stroke-opacity:1;stroke-dasharray:12,6;stroke-dashoffset:0;font-family:arial" id="text4"><path style="font-size:95px;font-weight:700;text-anchor:middle;fill:#fff;stroke:#000;stroke-width:6;stroke-miterlimit:4;stroke-opacity:1;stroke-dasharray:12,6;stroke-dashoffset:0;font-family:arial" id="path2988" d="m 170.54443,235 -14.93652,0 -5.9375,-15.44678 -27.18262,0 L 116.875,235 l -14.56543,0 26.48682,-68.00293 14.51904,0 z m -25.28076,-26.9043 -9.37012,-25.23437 -9.18457,25.23437 z"/><path style="font-size:95px;font-weight:700;text-anchor:middle;fill:#fff;stroke:#000;stroke-width:6;stroke-miterlimit:4;stroke-opacity:1;stroke-dasharray:12,6;stroke-dashoffset:0;font-family:arial" id="path2990" d="m 193.18115,235 0,-56.49902 -20.17822,0 0,-11.50391 54.04053,0 0,11.50391 -20.13184,0 0,56.49902 z"/><path style="font-size:95px;font-weight:700;text-anchor:middle;fill:#fff;stroke:#000;stroke-width:6;stroke-miterlimit:4;stroke-opacity:1;stroke-dasharray:12,6;stroke-dashoffset:0;font-family:arial" id="path2992" d="m 279.46045,209.99756 13.31299,4.22119 c -2.04108,7.42189 -5.43504,12.93417 -10.18189,16.53687 -4.74695,3.6027 -10.76949,5.40405 -18.06762,5.40405 -9.02998,0 -16.45185,-3.08472 -22.26563,-9.25415 -5.81381,-6.16942 -8.72071,-14.60407 -8.7207,-25.30396 -1e-5,-11.31831 2.92235,-20.10859 8.76709,-26.37085 5.8447,-6.26214 13.52943,-9.39324 23.0542,-9.39331 8.31864,7e-5 15.07563,2.45857 20.27099,7.37549 3.09239,2.90696 5.41172,7.08176 6.95801,12.52441 l -13.59131,3.24707 c -0.80408,-3.52534 -2.48173,-6.30854 -5.03296,-8.3496 -2.55131,-2.04096 -5.65148,-3.06147 -9.30053,-3.06153 -5.04072,6e-5 -9.13048,1.80914 -12.26929,5.42725 -3.13886,3.61821 -4.70827,9.47839 -4.70825,17.58056 -2e-5,8.59704 1.5462,14.72008 4.63867,18.36915 3.09242,3.6491 7.1126,5.47364 12.06055,5.47363 3.64905,1e-5 6.78788,-1.15966 9.4165,-3.47901 2.62853,-2.31932 4.51492,-5.9684 5.65918,-10.94726 z"/></g></svg>