<svg xmlns="http://www.w3.org/2000/svg" xmlns:svg="http://www.w3.org/2000/svg" id="svg2" width="400" height="400" version="1.1" viewBox="0 0 400 400"><metadata id="metadata34"/><g id="g4" transform="matrix(100,0,0,100,75,70)" style="stroke:#000;stroke-width:.06;stroke-miterlimit:4;stroke-opacity:1;stroke-dasharray:.12,.06;stroke-dashoffset:0"><path style="fill:#fff;stroke:#000;stroke-width:.06;stroke-miterlimit:4;stroke-opacity:1;stroke-dasharray:.12,.06;stroke-dashoffset:0" id="path6" d="m 0.613965,0.769417 1.289455,0 C 1.86795,0.744767 1.26133,0.445724 1.25604,0.445724 c -0.00466,0 -0.622706,0.306854 -0.64208,0.323693 z"/><path style="fill:#000;stroke:#000;stroke-width:.06;stroke-miterlimit:4;stroke-opacity:1;stroke-dasharray:.12,.06;stroke-dashoffset:0" id="path8" d="M 0.613965,0.769417 C 0.633339,0.752578 1.25139,0.445724 1.25604,0.445724 c 0.0053,0 0.61192,0.299043 0.64739,0.323693 l -1.28946,0 z m -0.201642,0.031839 0,0.010614 c 0,0.014331 0.002532,0.01463 0.005307,0.026531 0.011898,0.002772 0.012197,0.005307 0.026532,0.005307 l 1.623768,0 c 0.01745,0 0.04245,-0.016157 0.04245,-0.026535 0,-0.056098 -0.04317,-0.05852 -0.08139,-0.077799 C 1.9907,0.720055 1.95622,0.702933 1.91935,0.684515 1.84621,0.647968 1.7733,0.614122 1.69827,0.576598 1.65492,0.554917 1.26485,0.360822 1.25605,0.360822 c -0.0068,0 -0.389547,0.19213 -0.429823,0.212256 C 0.754821,0.60876 0.684601,0.641197 0.61218,0.677421 0.574695,0.696169 0.543554,0.711725 0.50605,0.730484 0.476951,0.74504 0.412325,0.763197 0.412325,0.801256 z"/><polygon style="fill:#000;stroke:#000;stroke-width:.06;stroke-miterlimit:4;stroke-opacity:1;stroke-dasharray:.12,.06;stroke-dashoffset:0" id="polygon10" points="1.813 1.709 2.01 1.709 2.01 1.613 1.972 1.613 1.974 1.592 1.951 1.014 1.951 .976 2.01 .976 2.01 .897 1.813 .897 1.813 .976 1.866 .976 1.868 1.088 1.85 1.613 1.813 1.613"/><polygon style="fill:#000;stroke:#000;stroke-width:.06;stroke-miterlimit:4;stroke-opacity:1;stroke-dasharray:.12,.06;stroke-dashoffset:0" id="polygon12" points="1.585 1.613 1.549 1.613 1.532 .976 1.585 .976 1.585 .897 1.394 .897 1.394 .976 1.448 .976 1.436 1.422 1.426 1.613 1.394 1.613 1.394 1.709 1.585 1.709"/><polygon style="fill:#000;stroke:#000;stroke-width:.06;stroke-miterlimit:4;stroke-opacity:1;stroke-dasharray:.12,.06;stroke-dashoffset:0" id="polygon14" points=".503 .897 .503 .976 .563 .976 .54 1.613 .503 1.613 .503 1.709 .704 1.709 .704 1.613 .667 1.613 .656 1.396 .646 .976 .704 .976 .704 .897"/><polygon style="fill:#000;stroke:#000;stroke-width:.06;stroke-miterlimit:4;stroke-opacity:1;stroke-dasharray:.12,.06;stroke-dashoffset:0" id="polygon16" points=".656 1.396 .667 1.613"/><polygon style="fill:#000;stroke:#000;stroke-width:.06;stroke-miterlimit:4;stroke-opacity:1;stroke-dasharray:.12,.06;stroke-dashoffset:0" id="polygon18" points="1.436 1.422 1.426 1.613"/><polygon style="fill:#000;stroke:#000;stroke-width:.06;stroke-miterlimit:4;stroke-opacity:1;stroke-dasharray:.12,.06;stroke-dashoffset:0" id="polygon20" points="1.123 1.709 1.123 1.613 1.081 1.613 1.081 1.56 1.066 1.029 1.065 .976 1.123 .976 1.123 .897 .927 .897 .927 .976 .985 .976 .985 1.029 .964 1.592 .964 1.613 .927 1.613 .927 1.709"/><polygon style="fill:#000;stroke:#000;stroke-width:.06;stroke-miterlimit:4;stroke-opacity:1;stroke-dasharray:.12,.06;stroke-dashoffset:0" id="polygon22" points="2.047 1.836 2.047 1.762 .465 1.762 .465 1.836"/><polygon style="fill:#000;stroke:#000;stroke-width:.06;stroke-miterlimit:4;stroke-opacity:1;stroke-dasharray:.12,.06;stroke-dashoffset:0" id="polygon24" points="2.105 1.995 2.105 1.921 .412 1.921 .412 1.995"/><polygon style="fill:#000;stroke:#000;stroke-width:.06;stroke-miterlimit:4;stroke-opacity:1;stroke-dasharray:.12,.06;stroke-dashoffset:0" id="polygon26" points=".503 .897 .503 .976 .563 .976 .54 1.613 .503 1.613 .503 1.709 .704 1.709 .704 1.613 .667 1.613 .656 1.396 .646 .976 .704 .976 .704 .897"/><polygon style="fill:#000;stroke:#000;stroke-width:.06;stroke-miterlimit:4;stroke-opacity:1;stroke-dasharray:.12,.06;stroke-dashoffset:0" id="polygon28" points="1.585 1.613 1.549 1.613 1.532 .976 1.585 .976 1.585 .897 1.394 .897 1.394 .976 1.448 .976 1.436 1.422 1.426 1.613 1.394 1.613 1.394 1.709 1.585 1.709"/></g></svg>