<svg xmlns="http://www.w3.org/2000/svg" xmlns:svg="http://www.w3.org/2000/svg" id="svg2" width="400" height="400" version="1.1" viewBox="0 0 400 400"><metadata id="metadata44"/><g id="g4" transform="matrix(100,0,0,100,73,65)"><path style="fill:#000" id="path6" d="m 1.1695,1.3378 0.17508,0 c 0.01445,0 0.11125,-0.1503 0.12505,-0.17091 l -0.42518,0 C 1.05892,1.18851 1.15317,1.3378 1.1695,1.3378 z"/><path style="fill:#000" id="path8" d="M 0.940598,1.22611 1.04445,1.40032 C 1.05177,1.39861 1.06529,1.39578 1.06529,1.38782 1.06529,1.37344 0.972436,1.24775 0.964893,1.21605 z"/><path style="fill:#000" id="path10" d="m 1.44879,1.38365 c 0,0.01368 0.00841,0.01564 0.01827,0.01505 L 1.57294,1.22669 1.55717,1.21691 C 1.55077,1.2216 1.44879,1.3815 1.44879,1.38365 z"/><polygon style="fill:#000" id="polygon12" points="1.378 1.404 1.136 1.404 1.136 1.429 1.378 1.429"/><polygon style="fill:#000" id="polygon14" points="1.699 1.242 1.679 1.234 1.515 1.496 1.539 1.504"/><polygon style="fill:#000" id="polygon16" points=".999 1.496 .832 1.233 .815 1.242 .982 1.505"/><polygon style="fill:#000" id="polygon18" points="1.465 1.509 1.053 1.509 1.053 1.534 1.465 1.534"/><path style="fill:#000" id="path20" d="m 0.690138,1.26277 c 0,0.00819 0.092595,0.14723 0.104094,0.16685 0.009327,0.01591 0.104752,0.16662 0.108496,0.16662 0.011146,0 0.012327,-0.00601 0.017071,-0.01276 L 0.706811,1.25027 C 0.701543,1.25305 0.690138,1.25599 0.690138,1.26277 z"/><polygon style="fill:#000" id="polygon22" points="1.828 1.26 1.807 1.25 1.594 1.583 1.614 1.599"/><path style="fill:#fff" id="path24" d="M 0.381677,1.63376 0.390012,1.5754 c -0.008725,0 -0.008335,0.04535 -0.008335,0.05836 z"/><polygon style="fill:#000" id="polygon26" points="1.553 1.613 .965 1.613 .965 1.638 1.553 1.638"/><path style="fill:#000" id="path28" d="m 0.44837,1.67544 c 0.007689,0 0.008339,-0.05742 0.008339,-0.07086 z"/><path style="fill:#fff" id="path30" d="m 0.873547,1.71713 0.766983,0 0,0.02918 -0.766983,0 z m 0.091705,-0.10421 0.587748,0 0,0.02501 -0.587748,0 z m 0.087538,-0.10421 0.41267,0 0,0.02501 -0.41267,0 z m 0.08337,-0.10422 0.24177,0 0,0.02502 -0.24177,0 z M 1.69472,1.69212 1.6673,1.68223 1.93232,1.26694 c 0.00732,0.0017 0.02085,0.00454 0.02085,0.0125 0,0.00768 -0.11433,0.17942 -0.12846,0.20502 C 1.80095,1.52752 1.70346,1.65941 1.69472,1.69212 z M 0.560064,1.27581 0.584734,1.26507 0.843781,1.68268 0.824076,1.69177 z M 0.902725,1.59624 C 0.898981,1.59624 0.803556,1.44553 0.794229,1.42962 0.782729,1.41 0.690135,1.27096 0.690135,1.26277 c 0,-0.00678 0.011406,-0.00972 0.016673,-0.0125 L 0.919796,1.58348 C 0.915052,1.59023 0.913871,1.59624 0.902725,1.59624 z M 1.80717,1.2502 1.8276,1.25971 1.61399,1.59944 1.59426,1.58347 z M 1.67934,1.2344 1.69896,1.24178 1.53945,1.5039 1.5148,1.49577 z M 0.831737,1.23337 0.999402,1.4957 0.981953,1.50459 0.815307,1.24216 z M 1.44878,1.38365 c 0,-0.00214 0.10199,-0.16205 0.10838,-0.16673 L 1.57294,1.2267 1.46705,1.3987 C 1.45719,1.39929 1.44878,1.39733 1.44878,1.38365 z M 0.96489,1.21605 c 0.007544,0.03171 0.1004,0.15739 0.1004,0.17177 0,0.00797 -0.01353,0.0108 -0.02084,0.01251 L 0.940596,1.22612 z M 1.1695,1.3378 c -0.01633,0 -0.11058,-0.14929 -0.12505,-0.1709 l 0.42518,0 C 1.45583,1.1875 1.35903,1.3378 1.34458,1.3378 z M 0.456705,1.60458 c 0,0.01345 -6.49e-4,0.07086 -0.008338,0.07086 l -0.00417,0.12506 1.629853,0 0.00171,-0.05438 -0.03089,-0.27076 0,-0.02501 -0.00834,0 0,-0.01667 C 2.03653,1.3884 1.96573,1.16762 1.9465,1.13188 1.93574,1.11189 1.92872,1.08562 1.91848,1.06402 1.90676,1.03931 1.8939,1.0225 1.8823,1.00016 1.85896,0.955236 1.83263,0.922641 1.80235,0.884193 1.69576,0.748799 1.51096,0.629173 1.26955,0.629173 l -0.02501,0 C 0.974497,0.629173 0.7828,0.775567 0.6743,0.938468 0.611741,1.03239 0.57328,1.12222 0.533103,1.23912 0.505548,1.31931 0.458894,1.50648 0.456709,1.60458 z"/><path style="fill:#000" id="path32" d="M 1.69472,1.69211 C 1.70345,1.65941 1.80094,1.52752 1.82471,1.48446 1.83883,1.45885 1.95316,1.28711 1.95316,1.27944 1.95316,1.27147 1.93964,1.26864 1.93232,1.26693 L 1.6673,1.68222 1.69472,1.69211 z"/><polygon style="fill:#000" id="polygon34" points=".585 1.265 .56 1.276 .824 1.692 .844 1.683"/><polygon style="fill:#000" id="polygon36" points="1.641 1.717 .874 1.717 .874 1.746 1.641 1.746"/><path style="fill:#fff;fill-opacity:1;stroke:#000;stroke-width:.06;stroke-miterlimit:4;stroke-opacity:1;stroke-dasharray:.12,.06;stroke-dashoffset:0" id="path38" d="m 0.390012,1.5754 -0.008335,0.05836 -0.008339,0.14172 0,0.09587 1.771572,0 0,-0.025 c 0,-0.05059 0.00194,-0.1587 -0.00583,-0.2026 C 2.12838,1.58325 2.12599,1.51506 2.11322,1.45702 2.10185,1.40529 2.03956,1.13902 2.01568,1.12938 2.01568,1.08999 1.92835,0.940011 1.90731,0.908452 1.86366,0.843 1.8139,0.782747 1.7523,0.734153 1.62861,0.636575 1.48969,0.558307 1.26954,0.558307 l -0.02501,0 c -0.293969,0 -0.489638,0.147736 -0.614421,0.319303 C 0.595404,0.925331 0.571633,0.97211 0.544294,1.02522 0.515093,1.08196 0.501696,1.13106 0.477601,1.19196 0.447424,1.26823 0.392219,1.47614 0.390007,1.5754 z"/></g><g id="g3819" transform="matrix(100,0,0,100,73,65)"><path style="fill:#000" id="path3821" d="m 1.1695,1.3378 0.17508,0 c 0.01445,0 0.11125,-0.1503 0.12505,-0.17091 l -0.42518,0 C 1.05892,1.18851 1.15317,1.3378 1.1695,1.3378 z"/><path style="fill:#000" id="path3823" d="M 0.940598,1.22611 1.04445,1.40032 C 1.05177,1.39861 1.06529,1.39578 1.06529,1.38782 1.06529,1.37344 0.972436,1.24775 0.964893,1.21605 z"/><path style="fill:#000" id="path3825" d="m 1.44879,1.38365 c 0,0.01368 0.00841,0.01564 0.01827,0.01505 L 1.57294,1.22669 1.55717,1.21691 C 1.55077,1.2216 1.44879,1.3815 1.44879,1.38365 z"/><polygon style="fill:#000" id="polygon3827" points="1.378 1.429 1.378 1.404 1.136 1.404 1.136 1.429"/><polygon style="fill:#000" id="polygon3829" points="1.539 1.504 1.699 1.242 1.679 1.234 1.515 1.496"/><polygon style="fill:#000" id="polygon3831" points=".982 1.505 .999 1.496 .832 1.233 .815 1.242"/><polygon style="fill:#000" id="polygon3833" points="1.465 1.534 1.465 1.509 1.053 1.509 1.053 1.534"/><path style="fill:#000" id="path3835" d="m 0.690138,1.26277 c 0,0.00819 0.092595,0.14723 0.104094,0.16685 0.009327,0.01591 0.104752,0.16662 0.108496,0.16662 0.011146,0 0.012327,-0.00601 0.017071,-0.01276 L 0.706811,1.25027 C 0.701543,1.25305 0.690138,1.25599 0.690138,1.26277 z"/><polygon style="fill:#000" id="polygon3837" points="1.614 1.599 1.828 1.26 1.807 1.25 1.594 1.583"/><polygon style="fill:#000" id="polygon3841" points="1.553 1.638 1.553 1.613 .965 1.613 .965 1.638"/><path style="fill:#000" id="path3847" d="M 1.69472,1.69211 C 1.70345,1.65941 1.80094,1.52752 1.82471,1.48446 1.83883,1.45885 1.95316,1.28711 1.95316,1.27944 1.95316,1.27147 1.93964,1.26864 1.93232,1.26693 L 1.6673,1.68222 1.69472,1.69211 z"/><polygon style="fill:#000" id="polygon3849" points=".844 1.683 .585 1.265 .56 1.276 .824 1.692"/><polygon style="fill:#000" id="polygon3851" points="1.641 1.746 1.641 1.717 .874 1.717 .874 1.746"/></g></svg>