<svg xmlns="http://www.w3.org/2000/svg" xmlns:svg="http://www.w3.org/2000/svg" id="svg2" width="400" height="400" version="1.1" viewBox="0 0 400 400"><metadata id="metadata36"/><g id="g4" transform="scale(100) translate(0.75 0.89)" style="fill:#fff;stroke:#fff;stroke-opacity:1;stroke-width:.06;stroke-miterlimit:4;stroke-dasharray:.12,.06;stroke-dashoffset:0;fill-opacity:1"><path style="fill:#fff;stroke:#fff;stroke-opacity:1;stroke-width:.06;stroke-miterlimit:4;stroke-dasharray:.12,.06;stroke-dashoffset:0;fill-opacity:1" id="path6" d="M1.1116 1.10947 L1.3864 1.11129 C1.40147 1.11129 1.54745 0.889297 1.5621 0.861612 L0.938836 0.860962 z"/><polygon style="fill:#fff;stroke:#fff;stroke-opacity:1;stroke-width:.06;stroke-miterlimit:4;stroke-dasharray:.12,.06;stroke-dashoffset:0;fill-opacity:1" id="polygon8" points=".781 .951 .948 1.209 .975 1.19 .813 .936"/><polygon style="fill:#fff;stroke:#fff;stroke-opacity:1;stroke-width:.06;stroke-miterlimit:4;stroke-dasharray:.12,.06;stroke-dashoffset:0;fill-opacity:1" id="polygon10" points="1.528 1.193 1.564 1.207 1.724 .95 1.693 .937"/><polygon style="fill:#fff;stroke:#fff;stroke-opacity:1;stroke-width:.06;stroke-miterlimit:4;stroke-dasharray:.12,.06;stroke-dashoffset:0;fill-opacity:1" id="polygon12" points="1.077 1.25 1.423 1.25 1.423 1.208 1.077 1.208"/><polygon style="fill:#fff;stroke:#fff;stroke-opacity:1;stroke-width:.06;stroke-miterlimit:4;stroke-dasharray:.12,.06;stroke-dashoffset:0;fill-opacity:1" id="polygon14" points=".596 .978 .837 1.362 .871 1.346 .628 .958"/><path style="fill:#fff;stroke:#fff;stroke-opacity:1;stroke-width:.06;stroke-miterlimit:4;stroke-dasharray:.12,.06;stroke-dashoffset:0;fill-opacity:1" id="path16" d="M1.6407 1.33786 C1.6407 1.35283 1.65687 1.35486 1.66766 1.36048 L1.908 0.974214 L1.87652 0.95871 C1.86288 1.00977 1.6407 1.32217 1.6407 1.33786 z"/><polygon style="fill:#fff;stroke:#fff;stroke-opacity:1;stroke-width:.06;stroke-miterlimit:4;stroke-dasharray:.12,.06;stroke-dashoffset:0;fill-opacity:1" id="polygon18" points=".947 1.407 1.557 1.407 1.557 1.366 .947 1.366"/><polygon style="fill:#fff;stroke:#fff;stroke-opacity:1;stroke-width:.06;stroke-miterlimit:4;stroke-dasharray:.12,.06;stroke-dashoffset:0;fill-opacity:1" id="polygon20" points=".409 1.002 .725 1.504 .76 1.484 .442 .981"/><path style="fill:#fff;stroke:#fff;stroke-opacity:1;stroke-width:.06;stroke-miterlimit:4;stroke-dasharray:.12,.06;stroke-dashoffset:0;fill-opacity:1" id="path22" d="M1.75168 1.48119 C1.75168 1.48536 1.7752 1.50148 1.77841 1.50366 L2.09898 1.00232 L2.10457 1.00254 L2.06609 0.981827 C2.03406 1.04236 1.75168 1.4654 1.75168 1.48119 z"/><polygon style="fill:#fff;stroke:#fff;stroke-opacity:1;stroke-width:.06;stroke-miterlimit:4;stroke-dasharray:.12,.06;stroke-dashoffset:0;fill-opacity:1" id="polygon24" points=".818 1.56 1.692 1.56 1.692 1.518 .818 1.518"/><path style="fill:#fff;stroke:#fff;stroke-opacity:1;stroke-width:.06;stroke-miterlimit:4;stroke-dasharray:.12,.06;stroke-dashoffset:0;fill-opacity:1" id="path26" d="M1.85848 1.62482 C1.86442 1.62791 1.88273 1.6384 1.89039 1.6384 C1.89522 1.6384 2.25181 1.07753 2.28828 1.0228 L2.25085 1.00945 z"/><polygon style="fill:#fff;stroke:#fff;stroke-opacity:1;stroke-width:.06;stroke-miterlimit:4;stroke-dasharray:.12,.06;stroke-dashoffset:0;fill-opacity:1" id="polygon28" points=".226 1.024 .619 1.639 .646 1.625 .253 1.009"/><polygon style="fill:#fff;stroke:#fff;stroke-opacity:1;stroke-width:.06;stroke-miterlimit:4;stroke-dasharray:.12,.06;stroke-dashoffset:0;fill-opacity:1" id="polygon30" points=".688 1.717 1.816 1.717 1.816 1.68 .688 1.68"/></g></svg>