<svg xmlns="http://www.w3.org/2000/svg" xmlns:svg="http://www.w3.org/2000/svg" id="svg2" width="400" height="400" version="1.1" viewBox="0 0 400 400"><metadata id="metadata16"/><g id="g4" transform="matrix(100,0,0,100,69,70)" style="stroke:#000;stroke-width:.06;stroke-miterlimit:4;stroke-opacity:1;stroke-dasharray:.12,.06;stroke-dashoffset:0"><path style="fill:#fff;stroke:#000;stroke-width:.06;stroke-miterlimit:4;stroke-opacity:1;stroke-dasharray:.12,.06;stroke-dashoffset:0" id="path6" d="M 0.403118,0.916508 C 0.453039,0.928134 0.566031,0.990335 0.62385,1.0128 0.695862,1.04077 0.768748,1.07948 0.843933,1.10973 0.895051,1.1303 1.27623,1.30397 1.28876,1.30397 1.31204,1.30397 1.68565,1.13428 1.74003,1.11114 1.81733,1.07825 1.88815,1.04533 1.96508,1.01413 2.02413,0.990173 2.13818,0.928464 2.1895,0.916507 l 0,-0.080515 -1.786386,0 0,0.080515 z"/><path style="fill:#000;stroke:#000;stroke-width:.06;stroke-miterlimit:4;stroke-opacity:1;stroke-dasharray:.12,.06;stroke-dashoffset:0" id="path8" d="M 0.403118,0.966827 1.2937,1.35407 2.1895,0.966827 l 0,0.795063 -1.786386,0 0,-0.795063 z M 1.96508,1.01413 C 1.88815,1.04533 1.81733,1.07825 1.74004,1.11114 1.68565,1.13428 1.31205,1.30397 1.28877,1.30397 1.27624,1.30397 0.895054,1.1303 0.843936,1.10973 0.768751,1.07949 0.695865,1.04077 0.623853,1.0128 0.566034,0.990335 0.453042,0.928135 0.403121,0.916509 l 0,-0.080516 1.786389,0 0,0.080516 C 2.13818,0.928465 2.02414,0.990174 1.96508,1.01413 z m -1.602212,0.79305 1.866902,0 0,-1.011439 -1.866902,0 z"/><polygon style="fill:#fff;stroke:#000;stroke-width:.06;stroke-miterlimit:4;stroke-opacity:1;stroke-dasharray:.12,.06;stroke-dashoffset:0" id="polygon10" points=".403 1.762 2.189 1.762 2.189 .967 1.294 1.354 .403 .967"/></g></svg>