<svg xmlns:xlink="http://www.w3.org/1999/xlink" width="400" height="400" viewBox="0 0 400 400"><rect style="fill:#fff;stroke:none;stroke-width:1" width="34" height="25" x="166" y="262" transform="matrix(1 0 0 1 0 0)"/><path d="M117.5 243.289 C88.9716 212.167 144.141 206.888 161.5 201.289 C175.376 196.812 175.067 185.013 185 177.789 C197.984 168.346 219.969 175.973 234 167.789 C245.29 161.203 257.494 140.289 270.5 138.789 C293.791 136.101 305.495 172.13 295.5 188.789 C287.8 201.622 265.361 196.337 257 206.789 C244.846 221.98 260.345 241.69 235.5 248.789" transform="matrix(1 0 0 1 0 0) translate(-1 0) translate(-1 0) translate(0 -1)" style="fill:#fff;stroke:#000;stroke-width:4"/><rect style="fill:#000;stroke:#000;stroke-width:1" width="130" height="22" x="115" y="241" transform="matrix(1 0 0 1 0 0)"/><line style="stroke:#000;stroke-width:6" x1="166" x2="166" y1="257" y2="287" transform="matrix(1 0 0 1 0 0)"/><line style="stroke:#000;stroke-width:6" x1="200" x2="200" y1="258" y2="287" transform="matrix(1 0 0 1 0 0)"/></svg>