<svg xmlns="http://www.w3.org/2000/svg" xmlns:svg="http://www.w3.org/2000/svg" id="svg2" width="400" height="400" version="1.1" viewBox="0 0 400 400"><metadata id="metadata26"/><path style="fill:#000;stroke:#000;stroke-width:6;stroke-miterlimit:4;stroke-opacity:1;stroke-dasharray:12,6;stroke-dashoffset:0" id="path20" d="m 102.3465,202.074 196.2225,-0.093 -98.157,98.158 z M 269.596,170.0358 c 1.549,1.0378 15.229,14.7132 15.229,15.6012 l 0,14.858 -15.229,0 z m -30.831,-30.8307 c 1.549,1.0374 15.229,14.7134 15.229,15.6012 l 0,45.6887 -15.229,0 z m -61.291,-14.8583 c 0,-0.8882 13.68,-14.5638 15.23,-15.6016 l 0,91.7498 -15.23,0 z m -30.4595,30.4594 c 0,-0.8878 13.6807,-14.5638 15.2299,-15.6012 l 0,61.29 -15.2299,0 z m -15.6906,15.1402 0.0894,30.5486 -14.8583,0 0,-14.486 c 0,-0.718 -0.117,-0.662 -0.2823,-1.025 z m 76.9811,-61.2012 15.512,15.3197 c -0.396,0.8894 -0.282,-0.3957 -0.282,1.0244 l 0,75.4057 -15.23,0 z M 92.318,200.403 200.598,308.683 308.692,200.403 200.412,92.3087 z"/></svg>