<svg xmlns="http://www.w3.org/2000/svg" xmlns:svg="http://www.w3.org/2000/svg" id="svg2" width="400" height="400" version="1.1" viewBox="0 0 400 400"><metadata id="metadata15"/><ellipse style="fill:#fff;stroke:#000;stroke-width:6;stroke-miterlimit:4;stroke-opacity:1;stroke-dasharray:12,6;stroke-dashoffset:0" id="ellipse4" cx="200" cy="200" rx="30" ry="30" transform="translate(3.1503906e-6,0)"/><g id="g6" transform="matrix(0,1,-1,0,399.53029,-0.69752)" style="stroke:#000;stroke-width:6;stroke-miterlimit:4;stroke-opacity:1;stroke-dasharray:12,6;stroke-dashoffset:0"><path id="1" d="M 114,250 C 96,220 96,180 114,150 l 47,27 c -8,13 -8,33 0,46 z" style="fill:#fff;stroke:#000;stroke-width:6;stroke-miterlimit:4;stroke-opacity:1;stroke-dasharray:12,6;stroke-dashoffset:0"/><path id="2" d="M 114,250 C 96,220 96,180 114,150 l 47,27 c -8,13 -8,33 0,46 z" transform="matrix(-0.49936535,0.86639151,-0.86639151,-0.49936535,473.83698,126.6133)" style="fill:#fff;stroke:#000;stroke-width:6;stroke-miterlimit:4;stroke-opacity:1;stroke-dasharray:12,6;stroke-dashoffset:0"/><path id="3" d="M 114,250 C 96,220 96,180 114,150 l 47,27 c -8,13 -8,33 0,46 z" transform="matrix(-0.49824564,-0.86703592,0.86703592,-0.49824564,126.04388,473.01499)" style="fill:#fff;stroke:#000;stroke-width:6;stroke-miterlimit:4;stroke-opacity:1;stroke-dasharray:12,6;stroke-dashoffset:0"/></g></svg>