<svg xmlns="http://www.w3.org/2000/svg" xmlns:svg="http://www.w3.org/2000/svg" id="svg2" width="400" height="400" version="1.1" viewBox="0 0 400 400"><metadata id="metadata34"/><path style="fill:#fff;fill-opacity:1" id="path6" d="m 189.307,171.3626 c 0.331,4.365 3.913,9.5754 8.017,10.4784 l -3.165,-12.5403 z"/><path style="fill:#fff;fill-opacity:1;stroke:#fff;stroke-width:6;stroke-miterlimit:4;stroke-opacity:1;stroke-dasharray:12,6;stroke-dashoffset:0" id="path8" d="m 184.343,161.0425 0,3.4079 c 0,10.9866 5.212,21.6586 14.316,23.5796 9.13,1.926 17.492,-11.362 17.492,-20.1718 l 0,-3.7866 c 0,-7.4169 -5.194,-21.5224 -7.43,-28.165 -1.182,-3.511 -7.6,-26.3634 -9.61,-26.3634 -2.074,0 -2.226,11.2465 -2.801,13.4811 -1.376,5.3397 -2.251,8.0417 -3.87,12.7921 -1.959,5.7484 -8.097,18.9685 -8.097,25.226 z"/><polygon style="fill:#fff;fill-opacity:1;stroke:#fff;stroke-width:.06;stroke-miterlimit:4;stroke-opacity:1;stroke-dasharray:.12,.06;stroke-dashoffset:0" id="polygon10" points="1.976 1.146 1.412 1.146 1.412 1.218 1.336 1.213 1.359 1.282 1.332 1.285 1.291 1.263 1.282 1.339 1.256 1.301 1.173 1.327 1.157 1.248 1.106 1.28 1.09 1.24 1.028 1.251 1.066 1.183 1.051 1.146 .495 1.146 .495 1.456 1.976 1.456" transform="matrix(100,0,0,100,75,76)"/><path style="fill:#fff;fill-opacity:1" id="path12" d="m 204.413,231.096 c 0,4.988 8.341,4.679 8.126,-0.313 -0.25,-5.825 -8.126,-4.576 -8.126,-0.823 z"/><path style="fill:#fff;fill-opacity:1" id="path14" d="m 194.189,240.184 c 1.609,0 3.408,-2.066 3.408,-3.787 l 0,-0.378 c 0,-5.555 -7.952,-4.448 -7.952,-0.757 l 0,1.893 c 0,1.68 2.609,3.029 4.544,3.029 z"/><path style="fill:#fff;fill-opacity:1" id="path16" d="m 201.005,248.894 c 0,1.59 1.679,3.787 3.03,3.787 l 1.893,0 c 1.11,0 3.029,-1.92 3.029,-3.03 l 0,-1.893 c 0,-1.468 -2.081,-3.029 -3.787,-3.029 l -0.378,0 c -1.904,0 -3.787,1.883 -3.787,3.786 z"/><path style="fill:#fff;fill-opacity:1" id="path18" d="m 194.946,255.71 c 1.468,0 3.03,-2.081 3.03,-3.787 0,-2.376 -1.789,-4.165 -4.166,-4.165 -1.457,0 -3.787,1.624 -3.787,3.029 l 0,1.515 c 0,1.712 1.755,3.408 3.03,3.408 z"/><path style="fill:#fff;fill-opacity:1" id="path20" d="m 196.461,265.934 c 0,1.457 1.624,3.787 3.03,3.787 l 1.514,0 c 1.872,0 3.408,-1.537 3.408,-3.408 l 0,-1.515 c 0,-1.274 -1.696,-3.029 -3.408,-3.029 l -0.757,0 c -2.158,0 -3.787,1.992 -3.787,4.165 z"/><path style="fill:#fff;fill-opacity:1" id="path22" d="m 211.986,276.915 c 3.313,0 5.425,-4.424 2.842,-7.007 -2.583,-2.584 -7.007,-0.471 -7.007,2.842 0,2.012 2.153,4.165 4.165,4.165 z"/><path style="fill:#fff;fill-opacity:1" id="path24" d="m 190.781,279.187 c 0,1.706 1.561,3.787 3.03,3.787 l 1.514,0 c 2.042,0 3.408,-1.873 3.408,-3.787 l 0,-0.379 c 0,-1.706 -1.561,-3.786 -3.029,-3.786 l -1.893,0 c -1.351,0 -3.03,2.196 -3.03,3.786 z"/><path style="fill:#fff;fill-opacity:1" id="path26" d="m 205.928,286.382 c 2.042,0 3.408,-1.872 3.408,-3.787 0,-1.705 -1.561,-3.786 -3.029,-3.786 l -1.894,0 c -1.274,0 -3.029,1.696 -3.029,3.408 l 0,0.757 c 0,1.872 1.537,3.408 3.408,3.408 z"/></svg>