<svg xmlns="http://www.w3.org/2000/svg" xmlns:svg="http://www.w3.org/2000/svg" id="svg2" width="400" height="400" version="1.1" viewBox="0 0 400 400"><metadata id="metadata14"/><g id="g4" transform="matrix(110,0,0,110,60.00005,60.99995)" style="stroke:#000;stroke-width:.05454545;stroke-miterlimit:4;stroke-opacity:1;stroke-dasharray:.10909091,.05454545;stroke-dashoffset:0"><path style="fill:#fff;stroke:#000;stroke-width:.05454545;stroke-miterlimit:4;stroke-opacity:1;stroke-dasharray:.10909091,.05454545;stroke-dashoffset:0" id="path6" d="m 1.09409,0.836276 0,1.350954 c 0,0.03101 0.10644,0.02863 0.14321,0.02863 l 0.04774,0 c 0.03676,0 0.14321,0.00238 0.14321,-0.02863 l 0,-1.350954 c 0,-0.104626 -0.33416,-0.103654 -0.33416,0 z"/><path style="fill:#000;stroke:#000;stroke-width:.05454545;stroke-miterlimit:4;stroke-opacity:1;stroke-dasharray:.10909091,.05454545;stroke-dashoffset:0" id="path8" d="m 1.09409,0.836276 c 0,-0.103654 0.33416,-0.104626 0.33416,0 l 0,1.350954 c 0,0.03101 -0.10645,0.02863 -0.14321,0.02863 l -0.04774,0 c -0.03677,0 -0.14321,0.00238 -0.14321,-0.02863 z m 0.12889,-0.501232 -0.15753,0 0,0.071602 0.15276,0 0,0.076382 -0.09071,0 0,0.047733 0.09071,0 0,0.12889 -0.1098,0 0,0.109795 C 1.08304,0.776221 1.06067,0.807969 1.06067,0.841052 l 0,1.331848 c 0,0.08016 0.09122,0.07638 0.17186,0.07638 l 0.05728,0 c 0.08179,0 0.17185,0.00503 0.17185,-0.07638 l 0,-1.322308 C 1.46166,0.782635 1.4187,0.782521 1.4187,0.759895 l 0,-0.100248 -0.11457,0 0,-0.253004 0.15276,0 0,-0.071602 -0.1623,0 0,-0.06206 -0.07161,0 0,0.06206 z"/></g></svg>