<svg xmlns="http://www.w3.org/2000/svg" xmlns:svg="http://www.w3.org/2000/svg" id="svg2" width="400" height="400" version="1.1" viewBox="0 0 400 400"><metadata id="metadata24"/><g id="g4" transform="scale(120) translate(0.391667 0.55) translate(-0.0333333 0)" style="stroke:#000;stroke-opacity:1;stroke-width:.05;stroke-miterlimit:4;stroke-dasharray:.1,.05;stroke-dashoffset:0"><polygon style="fill:#fff;stroke:#000;stroke-opacity:1;stroke-width:.05;stroke-miterlimit:4;stroke-dasharray:.1,.05;stroke-dashoffset:0" id="polygon6" points=".808 1.157 .948 1.157 .948 .809 .808 .809"/><polygon style="fill:#fff;stroke:#000;stroke-opacity:1;stroke-width:.05;stroke-miterlimit:4;stroke-dasharray:.1,.05;stroke-dashoffset:0" id="polygon8" points="1.713 1.157 1.783 1.157 1.783 1.053 1.713 1.053"/><polygon style="fill:#fff;stroke:#000;stroke-opacity:1;stroke-width:.05;stroke-miterlimit:4;stroke-dasharray:.1,.05;stroke-dashoffset:0" id="polygon10" points=".6 1.296 1.922 1.296 1.922 1.227 .6 1.227"/><polygon style="fill:#fff;stroke:#000;stroke-opacity:1;stroke-width:.05;stroke-miterlimit:4;stroke-dasharray:.1,.05;stroke-dashoffset:0" id="polygon12" points="1.713 1.471 1.783 1.471 1.783 1.366 1.713 1.366"/><polygon style="fill:#fff;stroke:#000;stroke-opacity:1;stroke-width:.05;stroke-miterlimit:4;stroke-dasharray:.1,.05;stroke-dashoffset:0" id="polygon14" points=".808 1.714 .948 1.714 .948 1.366 .808 1.366"/></g><text style="fill:#000;font-family:arial;font-size:65;font-weight:700;text-anchor:middle" id="text18" x="200" y="170" transform="translate(2.11846 -3.39014) scale(1 1) translate(-2.11846 3.39014) translate(139.44 63.52) scale(1 1) translate(-139.44 -63.52) translate(1 0)">I</text></svg>