<svg xmlns="http://www.w3.org/2000/svg" xmlns:svg="http://www.w3.org/2000/svg" id="svg2" width="400" height="400" version="1.1" viewBox="0 0 400 400"><metadata id="metadata34"/><g id="g4" transform="matrix(100,0,0,100,66,74)" style="stroke:#000;stroke-width:.06;stroke-miterlimit:4;stroke-opacity:1;stroke-dasharray:.12,.06;stroke-dashoffset:0"><path style="fill:#000;stroke:#000;stroke-width:.06;stroke-miterlimit:4;stroke-opacity:1;stroke-dasharray:.12,.06;stroke-dashoffset:0" id="path6" d="m 1.62516,0.507937 0.27422,0 0,-0.07761 -0.32596,0 c 0.00792,0.014968 0.03532,0.07761 0.05174,0.07761 z"/><path style="fill:#000;stroke:#000;stroke-width:.06;stroke-miterlimit:4;stroke-opacity:1;stroke-dasharray:.12,.06;stroke-dashoffset:0" id="path8" d="m 1.57859,0.59072 0.03622,0 0,0.01552 c 0,0.073941 0.0683,0.129346 0.14486,0.129346 0.09501,0 0.1397,-0.080851 0.1397,-0.181083 l -0.27939,0 c -0.01467,0 -0.03473,0.026275 -0.04139,0.036217 z"/><path style="fill:#000;stroke:#000;stroke-width:.06;stroke-miterlimit:4;stroke-opacity:1;stroke-dasharray:.12,.06;stroke-dashoffset:0" id="path10" d="m 0.802516,1.29437 0,0.01035 c 0,0.01621 0.045461,0.06726 0.072433,0.06726 l 0.01552,0 c 0.036653,0 0.492271,-0.33946 0.574301,-0.38287 l 0.00267,0.34848 0.37502,-0.555433 -0.37769,0 C 1.44532,0.782157 1.16144,0.99324 1.11917,1.0212 1.06275,1.05853 0.9993,1.10175 0.945977,1.14292 0.896949,1.18077 0.802516,1.21498 0.802516,1.29437 z"/><path style="fill:#000;stroke:#000;stroke-width:.06;stroke-miterlimit:4;stroke-opacity:1;stroke-dasharray:.12,.06;stroke-dashoffset:0" id="path12" d="m 0.626602,1.47028 0,-0.688122 -0.082784,0 c -0.0202,0 -0.046563,0.01974 -0.046563,0.036217 l 0,0.610515 c 0,0.02298 0.012174,0.03222 0.025871,0.04139 z"/><path style="fill:#000;stroke:#000;stroke-width:.06;stroke-miterlimit:4;stroke-opacity:1;stroke-dasharray:.12,.06;stroke-dashoffset:0" id="path14" d="m 1.57342,1.33576 0.31043,0 0,0.12935 -0.41391,0 0,0.62604 0.20696,0 c 0.02704,0 0.03772,-0.17612 0.04345,-0.21007 C 1.73199,1.8122 1.74902,1.72245 1.75451,1.65654 l 0.00826,3.1e-4 0.06417,0.4343 0.2173,0 0,-1.231385 c 0,-0.026327 -0.05128,-0.077606 -0.08278,-0.077606 l -0.00517,0 C 1.93338,0.782159 1.78471,1.01881 1.76175,1.05327 1.73586,1.09209 1.57886,1.3154 1.57342,1.33576 z"/><polygon style="fill:#000;stroke:#000;stroke-width:.06;stroke-miterlimit:4;stroke-opacity:1;stroke-dasharray:.12,.06;stroke-dashoffset:0" id="polygon16" points="1.32 2.101 1.32 1.47 .627 1.47 .627 2.101"/><line id="line18" x1="1.467" x2="1.47" y1="1.338" y2="1.465" style="stroke:#000;stroke-width:.06;stroke-miterlimit:4;stroke-opacity:1;stroke-dasharray:.12,.06;stroke-dashoffset:0"/><line id="line20" x1="1.842" x2="1.956" y1=".782" y2=".782" style="stroke:#000;stroke-width:.06;stroke-miterlimit:4;stroke-opacity:1;stroke-dasharray:.12,.06;stroke-dashoffset:0"/><line id="line24" x1="1.625" x2="1.62" y1=".508" y2=".555" style="stroke:#000;stroke-width:.06;stroke-miterlimit:4;stroke-opacity:1;stroke-dasharray:.12,.06;stroke-dashoffset:0"/></g></svg>