<svg xmlns="http://www.w3.org/2000/svg" xmlns:svg="http://www.w3.org/2000/svg" id="svg2" width="400" height="400" version="1.1" viewBox="0 0 400 400"><metadata id="metadata14"/><g style="font-size:52px;font-weight:700;text-anchor:middle;fill:#000;font-family:Arial" id="text4"><path style="font-size:52px;font-weight:700;text-anchor:middle;fill:#000;font-family:Arial" id="path3771" d="m 132.89258,148 0,-37.22266 27.59961,0 0,6.29688 -20.08399,0 0,8.25195 18.6875,0 0,6.27149 -18.6875,0 0,10.13086 20.79492,0 0,6.27148 z"/><path style="font-size:52px;font-weight:700;text-anchor:middle;fill:#000;font-family:Arial" id="path3773" d="m 191.44336,134.31445 7.28711,2.31055 c -1.11722,4.06251 -2.97497,7.07976 -5.57324,9.05176 -2.59834,1.972 -5.89488,2.958 -9.88965,2.95801 -4.94272,-1e-5 -9.00522,-1.68848 -12.1875,-5.06543 -3.1823,-3.37695 -4.77344,-7.99381 -4.77344,-13.85059 0,-6.19529 1.59961,-11.00681 4.79883,-14.43457 3.19921,-3.4277 7.40558,-5.14156 12.61914,-5.1416 4.55336,4e-5 8.25192,1.34574 11.0957,4.03711 1.69268,1.59118 2.96221,3.87633 3.8086,6.85547 l -7.43946,1.77734 c -0.44013,-1.92966 -1.35842,-3.4531 -2.75488,-4.57031 -1.39651,-1.11716 -3.09345,-1.67575 -5.09082,-1.67578 -2.75913,3e-5 -4.99774,0.99026 -6.71582,2.9707 -1.71811,1.98049 -2.57716,5.18817 -2.57715,9.62305 -1e-5,4.70574 0.84634,8.0573 2.53906,10.05468 1.6927,1.99741 3.89322,2.9961 6.60157,2.9961 1.99737,0 3.71547,-0.63476 5.15429,-1.9043 1.43878,-1.26952 2.47133,-3.26692 3.09766,-5.99219 z"/><path style="font-size:52px;font-weight:700;text-anchor:middle;fill:#000;font-family:Arial" id="path3775" d="m 205.20508,148 0,-37.22266 27.59961,0 0,6.29688 -20.08399,0 0,8.25195 18.6875,0 0,6.27149 -18.6875,0 0,10.13086 20.79492,0 0,6.27148 z"/><path style="font-size:52px;font-weight:700;text-anchor:middle;fill:#000;font-family:Arial" id="path3777" d="m 239.93945,148 0,-37.22266 12.06055,0 c 4.57029,4e-5 7.54946,0.18624 8.9375,0.5586 2.13279,0.55863 3.91859,1.77314 5.35742,3.64355 1.43877,1.87048 2.15817,4.28681 2.1582,7.24903 -3e-5,2.28518 -0.41474,4.2064 -1.24414,5.76367 -0.82945,1.55731 -1.88316,2.78029 -3.16113,3.66894 -1.27802,0.88869 -2.57717,1.47691 -3.89746,1.76465 -1.79429,0.35548 -4.3926,0.53322 -7.79492,0.5332 l -4.90039,0 0,14.04102 z m 7.51563,-30.92578 0,10.5625 4.11328,0 c 2.96222,2e-5 4.94269,-0.19464 5.94141,-0.58399 0.99867,-0.3893 1.78155,-0.99867 2.34863,-1.82812 0.56703,-0.8294 0.85056,-1.79425 0.85058,-2.89453 -2e-5,-1.35414 -0.39781,-2.47133 -1.19336,-3.35156 -0.79559,-0.88018 -1.80275,-1.43031 -3.02148,-1.65039 -0.89715,-0.16924 -2.69989,-0.25388 -5.4082,-0.25391 z"/></g><ellipse style="fill:#000;stroke:#000;stroke-width:6;stroke-miterlimit:4;stroke-dasharray:12,6;stroke-dashoffset:0" id="ellipse6" cx="200" cy="230" rx="80" ry="80"/><polygon style="fill:#fff;stroke:#000;stroke-width:6;stroke-linejoin:bevel;stroke-miterlimit:4;stroke-dasharray:12,6;stroke-dashoffset:0" id="polygon8" points="131 270 200 150 269 270"/></svg>