<svg xmlns="http://www.w3.org/2000/svg" xmlns:svg="http://www.w3.org/2000/svg" id="svg2" width="400" height="400" version="1.1" viewBox="0 0 400 400"><metadata id="metadata14"/><ellipse style="fill:#000;stroke:#000;stroke-width:6;stroke-miterlimit:4;stroke-dasharray:12,6;stroke-dashoffset:0" id="ellipse4" cx="200" cy="230" rx="80" ry="80"/><polygon style="fill:#fff;stroke:#000;stroke-width:6;stroke-linejoin:bevel;stroke-miterlimit:4;stroke-dasharray:12,6;stroke-dashoffset:0" id="polygon6" points="131 270 200 150 269 270"/><g style="font-size:52px;font-weight:700;text-anchor:middle;fill:#000;font-family:Arial" id="text8"><path style="font-size:52px;font-weight:700;text-anchor:middle;fill:#000;font-family:Arial" id="path3760" d="m 165.72266,135.88867 7.3125,-0.71094 c 0.44009,2.45444 1.33299,4.25717 2.67871,5.40821 1.34569,1.15105 3.16111,1.72657 5.44629,1.72656 2.42055,1e-5 4.24444,-0.51204 5.47168,-1.53613 1.22719,-1.02408 1.84079,-2.22167 1.84082,-3.59278 -3e-5,-0.88019 -0.25817,-1.62922 -0.77442,-2.24707 -0.5163,-0.61782 -1.41766,-1.15526 -2.7041,-1.6123 -0.88023,-0.30467 -2.88609,-0.84634 -6.01758,-1.625 -4.02865,-0.99868 -6.85547,-2.22589 -8.48047,-3.68164 -2.28516,-2.04816 -3.42773,-4.5449 -3.42773,-7.49024 0,-1.8958 0.53743,-3.66891 1.6123,-5.31933 1.07487,-1.65036 2.62369,-2.90719 4.64649,-3.77051 2.02277,-0.86324 4.4645,-1.29488 7.32519,-1.29492 4.67186,4e-5 8.18846,1.02412 10.54981,3.07226 2.3613,2.04821 3.6012,4.78193 3.71972,8.20118 l -7.51562,0.33007 c -0.32164,-1.91273 -1.01142,-3.28805 -2.06934,-4.12597 -1.05796,-0.83786 -2.64487,-1.25681 -4.76074,-1.25684 -2.18361,3e-5 -3.89324,0.4486 -5.1289,1.3457 -0.79559,0.57555 -1.19337,1.34574 -1.19336,2.31055 -1e-5,0.88024 0.37238,1.63349 1.11718,2.25977 0.94791,0.79559 3.24999,1.62502 6.90625,2.48828 3.65623,0.8633 6.36033,1.7562 8.11231,2.67871 1.75192,0.92254 3.12302,2.18361 4.11328,3.7832 0.9902,1.59963 1.48532,3.57586 1.48535,5.92871 -3e-5,2.13282 -0.59248,4.13022 -1.77734,5.99219 -1.18493,1.86198 -2.86071,3.24577 -5.02735,4.15137 -2.16669,0.9056 -4.86655,1.3584 -8.09961,1.3584 -4.70574,0 -8.31967,-1.08757 -10.84179,-3.2627 -2.52214,-2.17512 -4.02865,-5.34472 -4.51953,-9.50879 z"/><path style="font-size:52px;font-weight:700;text-anchor:middle;fill:#000;font-family:Arial" id="path3762" d="m 235.92773,148 -8.17578,0 -3.25,-8.45508 -14.8789,0 -3.07227,8.45508 -7.97266,0 14.49805,-37.22266 7.94727,0 z m -13.83789,-14.72656 -5.1289,-13.8125 -5.02735,13.8125 z"/></g></svg>