<svg xmlns="http://www.w3.org/2000/svg" xmlns:svg="http://www.w3.org/2000/svg" id="svg2" width="400" height="400" version="1.1" viewBox="0 0 400 400"><metadata id="metadata14"/><ellipse style="fill:#000;stroke:#000;stroke-width:6;stroke-miterlimit:4;stroke-dasharray:12,6;stroke-dashoffset:0" id="ellipse4" cx="200" cy="230" rx="80" ry="80"/><polygon style="fill:#fff;stroke:#000;stroke-width:6;stroke-linejoin:bevel;stroke-miterlimit:4;stroke-dasharray:12,6;stroke-dashoffset:0" id="polygon6" points="131 270 200 150 269 270"/><g style="font-size:52px;font-weight:700;text-anchor:middle;fill:#000;font-family:Arial" id="text8"><path style="font-size:52px;font-weight:700;text-anchor:middle;fill:#000;font-family:Arial" id="path3779" d="m 141.62695,148 0,-37.22266 27.59961,0 0,6.29688 -20.08398,0 0,8.25195 18.6875,0 0,6.27149 -18.6875,0 0,10.13086 20.79492,0 0,6.27148 z"/><path style="font-size:52px;font-weight:700;text-anchor:middle;fill:#000;font-family:Arial" id="path3781" d="m 176.13281,148 0,-37.22266 7.51563,0 0,37.22266 z"/><path style="font-size:52px;font-weight:700;text-anchor:middle;fill:#000;font-family:Arial" id="path3783" d="m 214.59961,134.31445 7.28711,2.31055 c -1.11722,4.06251 -2.97497,7.07976 -5.57324,9.05176 -2.59834,1.972 -5.89488,2.958 -9.88965,2.95801 -4.94272,-1e-5 -9.00522,-1.68848 -12.1875,-5.06543 -3.1823,-3.37695 -4.77344,-7.99381 -4.77344,-13.85059 0,-6.19529 1.59961,-11.00681 4.79883,-14.43457 3.19921,-3.4277 7.40558,-5.14156 12.61914,-5.1416 4.55336,4e-5 8.25192,1.34574 11.0957,4.03711 1.69268,1.59118 2.96221,3.87633 3.8086,6.85547 l -7.43946,1.77734 c -0.44013,-1.92966 -1.35842,-3.4531 -2.75488,-4.57031 -1.39651,-1.11716 -3.09345,-1.67575 -5.09082,-1.67578 -2.75913,3e-5 -4.99774,0.99026 -6.71582,2.9707 -1.71811,1.98049 -2.57716,5.18817 -2.57715,9.62305 -1e-5,4.70574 0.84634,8.0573 2.53906,10.05468 1.6927,1.99741 3.89322,2.9961 6.60157,2.9961 1.99737,0 3.71547,-0.63476 5.15429,-1.9043 1.43878,-1.26952 2.47133,-3.26692 3.09766,-5.99219 z"/><path style="font-size:52px;font-weight:700;text-anchor:middle;fill:#000;font-family:Arial" id="path3785" d="m 252.17773,134.31445 7.28711,2.31055 c -1.11722,4.06251 -2.97496,7.07976 -5.57324,9.05176 -2.59833,1.972 -5.89488,2.958 -9.88965,2.95801 -4.94272,-1e-5 -9.00522,-1.68848 -12.1875,-5.06543 -3.18229,-3.37695 -4.77344,-7.99381 -4.77343,-13.85059 -1e-5,-6.19529 1.5996,-11.00681 4.79882,-14.43457 3.19921,-3.4277 7.40559,-5.14156 12.61914,-5.1416 4.55337,4e-5 8.25193,1.34574 11.09571,4.03711 1.69267,1.59118 2.9622,3.87633 3.80859,6.85547 l -7.43945,1.77734 c -0.44013,-1.92966 -1.35843,-3.4531 -2.75488,-4.57031 -1.39651,-1.11716 -3.09345,-1.67575 -5.09083,-1.67578 -2.75913,3e-5 -4.99773,0.99026 -6.71582,2.9707 -1.71811,1.98049 -2.57715,5.18817 -2.57714,9.62305 -1e-5,4.70574 0.84634,8.0573 2.53906,10.05468 1.69269,1.99741 3.89321,2.9961 6.60156,2.9961 1.99738,0 3.71547,-0.63476 5.1543,-1.9043 1.43877,-1.26952 2.47133,-3.26692 3.09765,-5.99219 z"/></g></svg>