<svg xmlns:xlink="http://www.w3.org/1999/xlink" width="400" height="400" viewBox="0 0 400 400"><g transform="translate(0 -9.5)"><line style="stroke:#fff;stroke-width:15;stroke-dasharray:10" x1="200" x2="200" y1="300" y2="126" transform="matrix(1 0 0 1 0 0)"/><line style="stroke:#fff;stroke-width:15;stroke-dasharray:10" x1="160" x2="240" y1="293" y2="293" transform="matrix(1 0 0 1 0 0)"/><line style="stroke:#fff;stroke-width:15;stroke-dasharray:10" x1="212" x2="160" y1="130" y2="130" transform="matrix(1 0 0 1 0 0)"/><line style="stroke:#fff;stroke-width:15;stroke-dasharray:10" x1="170" x2="140" y1="130" y2="228" transform="matrix(1 0 0 1 0 0)"/><line style="stroke:#fff;stroke-linecap:round;stroke-width:15;stroke-dasharray:10" x1="200" x2="252" y1="177" y2="177" transform="matrix(1 0 0 1 0 0)"/><line style="stroke:#fff;stroke-width:15;stroke-dasharray:10" x1="252" x2="252" y1="177" y2="195" transform="matrix(1 0 0 1 0 0)"/></g></svg>