<svg xmlns:xlink="http://www.w3.org/1999/xlink" width="400" height="400" viewBox="0 0 400 400"><rect style="fill:#fff;stroke:#000;stroke-width:4;stroke-dasharray:10" width="137" height="36" x="122" y="128" transform="matrix(1 0 0 1 0 0)"/><rect style="fill:#000;stroke:#000;stroke-width:1;stroke-dasharray:10" width="89" height="23" x="146" y="140" transform="matrix(1 0 0 1 0 0)"/><path d="M152 163.628 C154.493 191.055 183.848 188.218 197 205.128 C203.056 212.914 197.505 224.839 209 229.628 C220.715 234.509 283.501 251.804 291 245.628 C316.771 224.405 287.314 221.849 279.5 210.128 C269.277 194.793 260.484 171.225 235.5 163.628" transform="matrix(1 0 0 1 0 0)" style="fill:#fff;stroke:#000;stroke-width:3;stroke-dasharray:10"/></svg>