<svg xmlns:xlink="http://www.w3.org/1999/xlink" width="400" height="400" viewBox="0 0 400 400"><rect style="fill:#fff;stroke:none;stroke-width:1;stroke-dasharray:10" width="21" height="50" x="268" y="180" transform="matrix(1 0 0 1 0 0)"/><rect style="fill:#fff;stroke:none;stroke-width:1;stroke-dasharray:10" width="48" height="26" x="239" y="174" transform="matrix(1 0 0 1 0 0)"/><rect style="fill:#fff;stroke:none;stroke-width:1;stroke-dasharray:10" width="23" height="49" x="109" y="181" transform="matrix(1 0 0 1 0 0)"/><rect style="fill:#fff;stroke:none;stroke-width:1;stroke-dasharray:10" width="48" height="24" x="112" y="175" transform="matrix(1 0 0 1 0 0)"/><line style="stroke:#000;stroke-width:6;stroke-dasharray:10" x1="99" x2="301" y1="240" y2="240" transform="matrix(1 0 0 1 0 0) translate(0 -1) translate(0 -1) translate(0 -1) translate(0 -1) translate(0 -1) translate(0 -1) translate(0 -1) translate(0 -1) translate(1 0) translate(0 -1) translate(-1 0) translate(1 0) translate(-1 0)"/><rect style="fill:#fff;stroke:#000;stroke-width:6;stroke-dasharray:10" width="78" height="74" x="161" y="155" transform="matrix(1 0 0 1 0 0) translate(0 1) translate(0 -1) translate(0 1) translate(0 1) translate(0 1) translate(0 -1) translate(0 -1)"/><line style="stroke:#000;stroke-width:6;stroke-dasharray:10" x1="159" x2="128" y1="173" y2="173" transform="matrix(1 0 0 1 0 0)"/><line style="stroke:#000;stroke-width:6;stroke-dasharray:10" x1="161" x2="134" y1="200" y2="200" transform="matrix(1 0 0 1 0 0)"/><line style="stroke:#000;stroke-width:6;stroke-dasharray:10" x1="239" x2="266" y1="200" y2="200" transform="matrix(1 0 0 1 0 0)"/><line style="stroke:#000;stroke-width:6;stroke-dasharray:10" x1="239" x2="272" y1="173" y2="173" transform="matrix(1 0 0 1 0 0)"/><line style="stroke:#000;stroke-width:6;stroke-dasharray:10" x1="132" x2="132" y1="229" y2="206" transform="matrix(1 0 0 1 0 0)"/><line style="stroke:#000;stroke-width:6;stroke-dasharray:10" x1="268" x2="268" y1="229" y2="207" transform="matrix(1 0 0 1 0 0)"/><line style="stroke:#000;stroke-width:6;stroke-dasharray:10" x1="109" x2="109" y1="229" y2="189" transform="matrix(1 0 0 1 0 0)"/><line style="stroke:#000;stroke-width:6;stroke-dasharray:10" x1="291" x2="291" y1="229" y2="189" transform="matrix(1 0 0 1 0 0)"/><path d="M108.947 192.666 C108.751 175.653 114.679 172.888 129.614 172.888" transform="matrix(1 0 0 1 0 0)" style="fill:none;stroke:#000;stroke-width:6;stroke-dasharray:10"/><path d="M138.947 199.999 C131.137 199.372 132.058 200.715 132.058 206.888" transform="matrix(1 0 0 1 0 0)" style="fill:none;stroke:#000;stroke-width:6;stroke-dasharray:10"/><path d="M263.621 200.027 C269.109 199.027 267.985 202.458 268.066 208.055" transform="matrix(1 0 0 1 0 0)" style="fill:none;stroke:#000;stroke-width:6;stroke-dasharray:10"/><path d="M291.01 192.971 C291.378 175.91 287.23 172.842 270.26 172.916" transform="matrix(1 0 0 1 0 0)" style="fill:none;stroke:#000;stroke-width:6;stroke-dasharray:10"/><path d="M114.501 175.638 L120.279 173.86" transform="matrix(1 0 0 1 0 0)" style="fill:none;stroke:#000;stroke-width:1;stroke-dasharray:10"/><path d="M267.549 201.513 L268.799 205.263" transform="matrix(1 0 0 1 0 0)" style="fill:none;stroke:#000;stroke-width:1;stroke-dasharray:10"/></svg>