<svg xmlns="http://www.w3.org/2000/svg" xmlns:svg="http://www.w3.org/2000/svg" id="svg2" width="400" height="400" version="1.1" viewBox="0 0 400 400"><metadata id="metadata16"/><g id="g4" transform="matrix(115,0,0,115,53.999975,53.99998)" style="stroke:#000;stroke-width:.05217391;stroke-miterlimit:4;stroke-opacity:1;stroke-dasharray:.10434783,.05217391;stroke-dashoffset:0"><polygon style="fill:#fff;stroke:#000;stroke-width:.05217391;stroke-miterlimit:4;stroke-opacity:1;stroke-dasharray:.10434783,.05217391;stroke-dashoffset:0" id="polygon6" points=".757 1.158 .757 1.026 .432 1.026 .432 1.158"/><polygon style="fill:#fff;stroke:#000;stroke-width:.05217391;stroke-miterlimit:4;stroke-opacity:1;stroke-dasharray:.10434783,.05217391;stroke-dashoffset:0" id="polygon8" points="2.11 1.158 2.11 1.026 1.78 1.026 1.78 1.158"/><path style="fill:#fff;stroke:#000;stroke-width:.05217391;stroke-miterlimit:4;stroke-opacity:1;stroke-dasharray:.10434783,.05217391;stroke-dashoffset:0" id="path10" d="m 1.19371,0.79052 0.17647,-7.83e-4 c 0.02042,0 0.05187,0.124417 0.05187,0.15089 L 1.45369,1.03391 c 0.00106,0.00761 0.0438,0.14348 0.0438,0.15191 l 0,0.01414 -0.42176,-6e-4 z M 0.761915,0.789737 1.00431,0.790323 0.926947,1.03493 c 0,0.03761 -0.042437,0.12385 -0.042437,0.15089 l 0,0.01414 -0.452661,0 0,0.1556 0.403173,8.6e-4 -0.025953,0.06516 -0.002,0.01824 -0.055933,0.18084 -0.078811,0.24887 c 0.025303,0 0.201717,0.00324 0.210441,-0.00175 C 0.887085,1.86532 0.926439,1.71963 0.933077,1.70119 0.942971,1.67371 1.03068,1.37384 1.03068,1.36971 l 0,-0.01415 L 1.54109,1.3566 1.6861,1.86953 1.90048,1.87025 1.86896,1.76739 1.85365,1.70991 1.8016,1.54023 1.78285,1.47889 1.7474,1.35556 l 0.34421,0 0,-0.1556 L 1.69632,1.19972 1.63423,1.00664 1.63099,0.988737 1.60972,0.923466 1.57294,0.789738 l 0.23104,0 0,-0.155602 -1.04206,0 0,0.155602 -4e-6,0 z"/></g></svg>