<svg xmlns="http://www.w3.org/2000/svg" xmlns:svg="http://www.w3.org/2000/svg" id="svg2" width="400" height="400" version="1.1" viewBox="0 0 400 400"><metadata id="metadata18"/><g id="g4" transform="matrix(100,0,0,100,74,63)" style="fill:#fff;fill-opacity:1;stroke:#000;stroke-width:.06;stroke-miterlimit:4;stroke-opacity:1;stroke-dasharray:.12,.06;stroke-dashoffset:0"><path style="fill:#fff;fill-opacity:1;stroke:#000;stroke-width:.06;stroke-miterlimit:4;stroke-opacity:1;stroke-dasharray:.12,.06;stroke-dashoffset:0" id="path6-1" d="m 1.10993,1.0681 c 0,-0.01639 0.01949,-0.03984 0.03187,-0.03984 l 0.24301,0 c 0.01146,0 0.03187,0.03551 0.03187,0.04382 l 0,0.01594 c 0,0.02232 -0.03187,0.01746 -0.03187,0.03585 l 0,0.12748 c 0,0.01208 0.24699,0.34371 0.24699,0.37048 l 0,0.08366 c 0,0.07653 -0.16854,0.14342 -0.25496,0.14342 l -0.22707,0 C 1.09872,1.84891 1.02488,1.83092 0.993583,1.80989 0.970977,1.7947 0.894811,1.73852 0.894811,1.70947 l 0,-0.03585 c 0,-0.06104 0.08963,-0.1761 0.117639,-0.22496 C 1.02936,1.41915 1.13782,1.24875 1.13782,1.23143 l 0,-0.10756 C 1.13782,1.10535 1.10993,1.1089 1.10993,1.0681 z m 0.26691,-0.099594 -0.864466,0 0,0.924224 1.501856,0 0,-0.924224 -0.16731,0 0,-0.33463 -0.11154,0 0,0.33463 -0.247,0 0,-0.33463 -0.11154,0 z"/><path style="fill:#fff;fill-opacity:1;stroke:#000;stroke-width:.06;stroke-miterlimit:4;stroke-opacity:1;stroke-dasharray:.12,.06;stroke-dashoffset:0" id="path8-7" d="m 0.48448,1.92459 1.55763,0 0,-0.987957 -0.15935,0 0,-0.33463 -0.17926,0 0,0.33463 -0.17927,0 0,-0.33463 -0.17927,0 0,0.33463 -0.86048,0 z"/></g><path id="path6" d="m 174.841,191.135 18.608,0 c 3.073,0 9.077,-4.056 9.077,-7.262 l 0,-6.354 c 0,-2.3525 -5.566,-6.8076 -8.623,-6.8076 l -19.062,0 z" style="fill:#fff"/><path id="path8" d="m 174.841,170.711 19.062,0 c 3.057,0 8.623,4.4551 8.623,6.808 l 0,6.354 c 0,3.206 -6.004,7.262 -9.077,7.262 l -18.608,0 z m -12.2543,66.263 12.2543,0 0,-32.678 4.318,0.169 18.931,24.876 -21.888,27.603 14.715,0.168 14.787,-17.414 c 3.093,0.826 10.371,14.77 14.069,17.246 l 15.431,0 c -2.238,-4.229 -20.877,-25.92 -20.877,-27.685 0,-0.809 18.6,-24.285 20.423,-25.87 l -15.153,-0.158 -14.116,15.411 -10.67,-14.346 c 13.109,-3.054 20.878,-8.337 20.878,-24.508 l 0,-1.361 c 0,-4.9882 -4.165,-11.7717 -6.91,-14.4224 -2.58,-2.4909 -10.166,-6.0019 -15.33,-6.0019 l -30.8622,0 z" style="fill:#000"/></svg>