<svg xmlns="http://www.w3.org/2000/svg" xmlns:svg="http://www.w3.org/2000/svg" id="svg2" width="400" height="400" version="1.1" viewBox="0 0 400 400"><metadata id="metadata12"/><g id="g4" transform="matrix(100,0,0,100,74,66)" style="stroke:#000;stroke-width:.06;stroke-miterlimit:4;stroke-opacity:1;stroke-dasharray:.12,.06;stroke-dashoffset:0"><path style="fill:#fff;stroke:#000;stroke-width:.06;stroke-miterlimit:4;stroke-opacity:1;stroke-dasharray:.12,.06;stroke-dashoffset:0" id="path6" d="m 1.60673,1.61271 0.39294,0 0,0.10076 0.22669,0 0,-0.58941 -0.22669,0 0,0.09571 -0.38286,0 c -0.01022,0 -0.06549,-0.066 -0.06549,-0.08563 l 0,-0.141059 -0.24685,0 0,-0.206543 0.3073,0 0,-0.090678 -0.705272,0 0,0.090678 0.302252,0 0,0.206543 -0.221653,0 0,0.166239 L 0.98301,1.15631 0.938116,1.21708 0.508522,1.21977 l 0,-0.09571 -0.221657,0 0,0.58941 0.221657,0 0,-0.10076 0.423161,0 c 0.009028,0 0.051233,0.06079 0.059497,0.07148 0.01181,0.01529 0.05442,0.04682 0.07242,0.05856 0.04815,0.03143 0.11785,0.06139 0.19553,0.06139 l 0.01511,0 c 0.08838,0 0.14585,-0.02586 0.20316,-0.0588 C 1.51269,1.72507 1.59665,1.65048 1.60673,1.61271 z"/></g></svg>