<svg xmlns="http://www.w3.org/2000/svg" xmlns:svg="http://www.w3.org/2000/svg" id="svg2" width="400" height="400" version="1.1" viewBox="0 0 400 400"><metadata id="metadata26"/><g id="g4" transform="scale(100) translate(0.87 0.88) translate(-0.13 -0.06) translate(0.01 -0.06)" style="stroke:#000;stroke-opacity:1;stroke-width:.06;stroke-miterlimit:4;stroke-dasharray:.12,.06;stroke-dashoffset:0"><path style="fill:#000;stroke:#000;stroke-opacity:1;stroke-width:.06;stroke-miterlimit:4;stroke-dasharray:.12,.06;stroke-dashoffset:0" id="path20" d="M0.273465 1.26074 L2.23569 1.25981 L1.25412 2.24139 zM1.94596 0.940358 C1.96145 0.950736 2.09825 1.08749 2.09825 1.09637 L2.09825 1.24495 L1.94596 1.24495 zM1.63765 0.632051 C1.65314 0.642425 1.78994 0.779185 1.78994 0.788063 L1.78994 1.24495 L1.63765 1.24495 zM1.02474 0.483468 C1.02474 0.474586 1.16154 0.33783 1.17704 0.327452 L1.17704 1.24495 L1.02474 1.24495 zM0.720145 0.788062 C0.720145 0.779184 0.856952 0.642424 0.872444 0.63205 L0.872444 1.24495 L0.720145 1.24495 zM0.563239 0.939464 L0.564133 1.24495 L0.41555 1.24495 L0.41555 1.10009 C0.41555 1.09291 0.41438 1.09347 0.412727 1.08984 zM1.33305 0.327452 L1.48817 0.480649 C1.48421 0.489543 1.48535 0.476692 1.48535 0.490893 L1.48535 1.24495 L1.33305 1.24495 zM0.17318 1.24403 L1.25598 2.32683 L2.33692 1.24403 L1.25412 0.163087 z"/></g></svg>