<svg xmlns="http://www.w3.org/2000/svg" xmlns:svg="http://www.w3.org/2000/svg" id="svg2" width="400" height="400" version="1.1" viewBox="0 0 400 400"><metadata id="metadata16"/><g id="g4" transform="matrix(100,0,0,100,75,72.000003)" style="stroke:#000;stroke-width:.06;stroke-miterlimit:4;stroke-opacity:1;stroke-dasharray:.12,.06;stroke-dashoffset:0"><path style="fill:#fff;stroke:#000;stroke-width:.06;stroke-miterlimit:4;stroke-opacity:1;stroke-dasharray:.12,.06;stroke-dashoffset:0" id="path6" d="m 1.16313,1.58838 0.17669,0 0,-0.29448 0.60858,0 0,-0.621673 -0.15705,0 0,0.464623 -0.45153,0 0,-0.268304 c 0,-0.023465 0.05213,-0.031488 0.07433,-0.043457 C 1.43311,0.814877 1.46765,0.789428 1.4823,0.775444 1.51974,0.739684 1.56218,0.685503 1.57685,0.627869 1.61705,0.46994 1.57109,0.364215 1.48221,0.274625 1.40658,0.198396 1.25118,0.152523 1.12371,0.207447 1.03355,0.246298 0.914462,0.361187 0.914462,0.482451 l 0,0.078532 c 0,0.069358 0.047504,0.15537 0.083334,0.191508 C 1.02241,0.777325 1.04209,0.79577 1.07361,0.814097 1.09787,0.828207 1.16313,0.847526 1.16313,0.868546 l 0,0.268304 -0.45153,0 0,-0.464623 -0.157055,0 0,0.621673 0.608585,0 z"/><polygon style="fill:#fff;stroke:#000;stroke-width:.06;stroke-miterlimit:4;stroke-opacity:1;stroke-dasharray:.12,.06;stroke-dashoffset:0" id="polygon8" points=".986 1.588 .986 2.302 1.163 2.302 1.163 1.588"/><polygon style="fill:#fff;stroke:#000;stroke-width:.06;stroke-miterlimit:4;stroke-opacity:1;stroke-dasharray:.12,.06;stroke-dashoffset:0" id="polygon10" points="1.34 2.302 1.516 2.302 1.516 1.588 1.34 1.588"/></g></svg>