<svg xmlns="http://www.w3.org/2000/svg" xmlns:svg="http://www.w3.org/2000/svg" id="svg2" width="400" height="400" version="1.1" viewBox="0 0 400 400"><metadata id="metadata26"/><path style="fill:#000;stroke:#000;stroke-width:5.99999952;stroke-miterlimit:4;stroke-opacity:1;stroke-dasharray:12.0000001,5.9999995;stroke-dashoffset:0" id="path6" d="m 205.44722,173.24967 c -14.9798,0 -25.8049,-9.2499 -25.8049,-24.12245 l 0,-2.805 c 0,-12.82149 24.1219,-33.59499 24.1219,-56.66001 7.447,8.5679 6.028,20.44834 11.5511,29.4008 3.1471,5.09982 14.2549,20.87492 14.2549,26.69843 l 0,2.805 c 0,14.10123 -9.9407,24.68323 -24.123,24.68323 z m -29.1709,-26.92745 0,2.805 c 0,36.74825 56.6588,35.27865 56.6588,2.24422 l 0,-5.61 c 0,-9.4666 -12.1,-22.32307 -15.8917,-31.23087 -5.8509,-13.74868 -2.8622,-23.7457 -16.6452,-31.03903 0,29.89613 -24.1219,47.12719 -24.1219,62.83068 z"/><path style="fill:#fff;stroke:#000;stroke-width:5.99999952;stroke-miterlimit:4;stroke-opacity:1;stroke-dasharray:12.0000001,5.9999995;stroke-dashoffset:0" id="path10" d="m 195.09512,213.56137 -6.8486,-10.56 -1.8007,20.1091 -13.5311,-13.959 4.4792,15.8433 -18.18168,-0.3663 16.51298,12.1781 -27.49868,1.518 c 4.04921,2.8138 46.24928,13.3012 55.02948,12.8183 l 38.6991,-4.5496 -21.8141,-6.9311 24.574,-12.5697 -22.5654,2.1736 10.076,-15.8862 -20.7889,11.4235 6.6418,-22.0341 -14.5046,18.2391 -2.9216,-25.2395 z"/><path style="fill:#fff;stroke:#000;stroke-width:5.99999952;stroke-miterlimit:4;stroke-opacity:1;stroke-dasharray:12.0000001,5.9999995;stroke-dashoffset:0" id="path12" d="m 268.83912,257.95847 c -1.6082,-1.1176 -26.2702,-10.0166 -27.9565,-9.9528 -10.2091,0.3795 -22.0462,3.7818 -34.8744,3.7818 l -5.049,0 c -10.8372,0 -54.53932,-10.5435 -60.01545,-13.9568 l 5.03888,-0.6281 3.36578,0 -0.0403,-0.9713 -5.57755,-1.9921 24.1307,-1.5246 c -3.31386,-4.9489 -18.99018,-2.805 -26.92745,-2.805 -10.09789,0 -20.19534,0 -30.29334,0 1.71798,1.4927 60.49219,30.3853 65.42789,32.1838 4.2845,1.5609 80.2725,-4.1349 92.7707,-4.1349 z"/><path style="fill:#fff;stroke:#000;stroke-width:5.99999952;stroke-miterlimit:4;stroke-opacity:1;stroke-dasharray:12.0000001,5.9999995;stroke-dashoffset:0" id="path14" d="m 105.03064,243.37357 69.80798,39.2667 0.3157,-0.5588 0,-15.708 c 0,-2.8193 -63.20281,-30.7076 -70.12368,-35.3419 z"/><polygon style="fill:#fff;stroke:#000;stroke-width:.05454545;stroke-miterlimit:4;stroke-opacity:1;stroke-dasharray:.10909091,.05454545;stroke-dashoffset:0" id="polygon16" points="1.115 1.941 1.1 1.939 1.1 2.103 1.992 2.051 1.992 1.9" transform="matrix(110,0,0,110,57.00002,51.99997)"/></svg>