<svg xmlns="http://www.w3.org/2000/svg" xmlns:svg="http://www.w3.org/2000/svg" id="svg2" width="400" height="400" version="1.1" viewBox="0 0 400 400"><metadata id="metadata14"/><g id="g4" transform="matrix(5,0,0,5,110,141)" style="stroke:#000;stroke-width:1.20000005;stroke-miterlimit:4;stroke-opacity:1;stroke-dasharray:2.4,1.2;stroke-dashoffset:0"><path style="fill:#fff;stroke:#000;stroke-width:1.20000005;stroke-miterlimit:4;stroke-opacity:1;stroke-dasharray:2.4,1.2;stroke-dashoffset:0" id="path6" d="m 35.928,17.965 c -0.24,-0.047 -1.225,0.338 -2.951,1.15 -1.105,0.48 -2.377,1.223 -3.816,2.229 -5.281,3.498 -9,8.217 -11.16,14.156 -0.098,0 -0.24,-0.119 -0.432,-0.359 C 16.753,32.555 15.288,29.967 13.176,27.379 10.967,24.602 8.424,22.301 5.545,20.481 4.199,19.619 2.352,18.758 0,17.895 -0.039,17.799 -0.039,17.727 0,17.678 0.623,17.391 1.463,17.032 2.52,16.6 5.254,15.69 8.17,13.606 11.268,10.348 14.364,7.09 16.391,4.026 17.352,1.151 17.496,0.768 17.711,0.383 18,0 c 0.91,2.828 2.639,5.773 5.184,8.84 2.688,3.305 5.447,5.652 8.279,7.041 0.625,0.289 1.633,0.744 3.025,1.365 0.43,0.049 0.91,0.289 1.44,0.719 z"/></g><g style="font-size:52px;font-weight:700;text-anchor:middle;fill:#fff;font-family:Arial" id="text8" transform="translate(1.9209295e-8,-4e-6)"><path style="font-size:52px;font-weight:700;text-anchor:middle;fill:#fff;font-family:Arial" id="path2992" d="m 185.01953,97.777344 14.87891,0 c 2.94529,3.7e-5 5.14158,0.122758 6.58886,0.368164 1.44724,0.245479 2.74216,0.757523 3.88477,1.536133 1.14255,0.778679 2.0947,1.815459 2.85645,3.110349 0.76168,1.29495 1.14254,2.74645 1.14257,4.35449 -3e-5,1.74352 -0.46976,3.34313 -1.40918,4.79883 -0.93948,1.45575 -2.21324,2.54755 -3.82129,3.27539 2.2682,0.66018 4.01169,1.78583 5.23047,3.37696 1.21872,1.59116 1.82809,3.4616 1.82813,5.61132 -4e-5,1.69272 -0.39359,3.33888 -1.18067,4.93848 -0.78714,1.59961 -1.86201,2.87761 -3.2246,3.83399 -1.36266,0.95638 -3.04268,1.54459 -5.04004,1.76464 -1.25263,0.13542 -4.27411,0.22006 -9.06446,0.25391 l -12.66992,0 z m 7.51563,6.195316 0,8.60742 4.92578,0 c 2.92836,2e-5 4.74802,-0.0423 5.45898,-0.12695 1.28644,-0.15233 2.29783,-0.59666 3.03418,-1.33301 0.7363,-0.73631 1.10447,-1.70538 1.10449,-2.90723 -2e-5,-1.15101 -0.3174,-2.08623 -0.95214,-2.80566 -0.63479,-0.71937 -1.57848,-1.15525 -2.83106,-1.30762 -0.74481,-0.0846 -2.88609,-0.12692 -6.42383,-0.12695 z m 0,14.80273 0,9.95313 6.95703,0 c 2.70831,0 4.42641,-0.0762 5.15429,-0.22852 1.11717,-0.20312 2.027,-0.69823 2.7295,-1.48535 0.70244,-0.7871 1.05368,-1.84081 1.05371,-3.16113 -3e-5,-1.11718 -0.27086,-2.0651 -0.8125,-2.84375 -0.5417,-0.77864 -1.32457,-1.34569 -2.34864,-1.70118 -1.02411,-0.35545 -3.24578,-0.53318 -6.66503,-0.5332 z"/></g></svg>