<svg xmlns="http://www.w3.org/2000/svg" xmlns:svg="http://www.w3.org/2000/svg" id="svg2" width="400" height="400" version="1.1" viewBox="0 0 400 400"><metadata id="metadata12"/><g id="g4" transform="matrix(100,0,0,100,80,74)" style="stroke:#000;stroke-width:.06;stroke-miterlimit:4;stroke-opacity:1;stroke-dasharray:.12,.06;stroke-dashoffset:0"><path style="fill:#fff;stroke:#000;stroke-width:.06;stroke-miterlimit:4;stroke-opacity:1;stroke-dasharray:.12,.06;stroke-dashoffset:0" id="path6" d="m 0.83763,0.60552 0.32943,0 c 0.07627,0 0.15457,0.094898 0.15128,0.181531 -0.0034,0.089744 -0.07288,0.165543 -0.16305,0.165543 l -0.31766,0 z m -0.217657,1.14711 0.217657,0 0,-0.55885 0.058823,0 c 0.01426,0 0.341197,0.40266 0.341197,0.42943 0,0.01548 -0.34139,0.41603 -0.376492,0.48238 L 1.12351,2.10356 1.38068,1.79828 1.62001,2.10559 1.89246,2.10415 1.5121,1.62155 1.87296,1.17614 1.6176,1.17393 1.3753,1.44351 1.19058,1.19378 C 1.40361,1.14416 1.54354,1.02316 1.54354,0.764355 c 0,-0.201791 -0.17627,-0.38237 -0.37648,-0.38237 l -0.547087,0 z"/></g></svg>