<svg xmlns="http://www.w3.org/2000/svg" xmlns:svg="http://www.w3.org/2000/svg" id="svg2" width="400" height="400" version="1.1" viewBox="0 0 400 400"><metadata id="metadata14"/><g id="g4" transform="translate(110 111) scale(5 5) translate(0 6)" style="stroke:#000;stroke-opacity:1;stroke-width:1.2;stroke-miterlimit:4;stroke-dasharray:2.4,1.2;stroke-dashoffset:0"><path style="fill:#fff;stroke:#000;stroke-opacity:1;stroke-width:1.2;stroke-miterlimit:4;stroke-dasharray:2.4,1.2;stroke-dashoffset:0" id="path6" d="M35.928 17.965 C35.688 17.918 34.703 18.303 32.977 19.115 C31.872 19.595 30.6 20.338 29.161 21.344 C23.88 24.842 20.161 29.561 18.001 35.5 C17.903 35.5 17.761 35.381 17.569 35.141 C16.753 32.555 15.288 29.967 13.176 27.379 C10.967 24.602 8.424 22.301 5.545 20.481 C4.199 19.619 2.352 18.758 0 17.895 C-0.039 17.799 -0.039 17.727 0 17.678 C0.623 17.391 1.463 17.032 2.52 16.6 C5.254 15.69 8.17 13.606 11.268 10.348 C14.364 7.09 16.391 4.026 17.352 1.151 C17.496 0.768 17.711 0.383 18 0 C18.91 2.828 20.639 5.773 23.184 8.84 C25.872 12.145 28.631 14.492 31.463 15.881 C32.088 16.17 33.096 16.625 34.488 17.246 C34.918 17.295 35.398 17.535 35.928 17.965 z"/></g><g style="font-size:52px;font-weight:700;text-anchor:middle;fill:#fff;font-family:Arial" id="text8"><path style="font-size:52px;font-weight:700;text-anchor:middle;fill:#fff;font-family:Arial" id="path2992" d="m 208.81055,121.31445 7.28711,2.31055 c -1.11723,4.06251 -2.97497,7.07976 -5.57325,9.05176 -2.59833,1.972 -5.89488,2.958 -9.88964,2.95801 -4.94273,-1e-5 -9.00522,-1.68848 -12.1875,-5.06543 -3.1823,-3.37695 -4.77344,-7.99381 -4.77344,-13.85059 0,-6.19529 1.5996,-11.00681 4.79883,-14.43457 3.1992,-3.427699 7.40558,-5.141564 12.61914,-5.141602 4.55336,3.8e-5 8.25192,1.34574 11.0957,4.037112 1.69268,1.59118 2.96221,3.87633 3.80859,6.85547 l -7.43945,1.77734 c -0.44013,-1.92966 -1.35842,-3.4531 -2.75488,-4.57031 -1.39651,-1.11716 -3.09345,-1.67575 -5.09082,-1.67578 -2.75913,3e-5 -4.99774,0.99026 -6.71582,2.9707 -1.71811,1.98049 -2.57716,5.18817 -2.57715,9.62305 -1e-5,4.70574 0.84634,8.0573 2.53906,10.05468 1.6927,1.99741 3.89321,2.9961 6.60156,2.9961 1.99738,0 3.71548,-0.63476 5.1543,-1.9043 1.43878,-1.26952 2.47133,-3.26692 3.09766,-5.99219 z"/></g></svg>