<svg xmlns="http://www.w3.org/2000/svg" xmlns:svg="http://www.w3.org/2000/svg" id="svg2" width="400" height="400" version="1.1" viewBox="0 0 400 400"><metadata id="metadata10"/><g style="font-size:95px;font-weight:700;text-anchor:middle;fill:#fff;stroke:#000;stroke-width:6;stroke-miterlimit:4;stroke-opacity:1;stroke-dasharray:12,6;stroke-dashoffset:0;font-family:arial" id="text4"><path style="font-size:95px;font-weight:700;text-anchor:middle;fill:#fff;stroke:#000;stroke-width:6;stroke-miterlimit:4;stroke-opacity:1;stroke-dasharray:12,6;stroke-dashoffset:0;font-family:arial" id="path2988" d="m 175.83252,235 -14.93652,0 -5.9375,-15.44678 -27.18262,0 -5.61279,15.44678 -14.56543,0 26.48681,-68.00293 14.51905,0 z m -25.28076,-26.9043 -9.37012,-25.23437 -9.18457,25.23437 z"/><path style="font-size:95px;font-weight:700;text-anchor:middle;fill:#fff;stroke:#000;stroke-width:6;stroke-miterlimit:4;stroke-opacity:1;stroke-dasharray:12,6;stroke-dashoffset:0;font-family:arial" id="path2990" d="m 198.46924,235 0,-56.49902 -20.17822,0 0,-11.50391 54.04052,0 0,11.50391 -20.13183,0 0,56.49902 z"/><path style="font-size:95px;font-weight:700;text-anchor:middle;fill:#fff;stroke:#000;stroke-width:6;stroke-miterlimit:4;stroke-opacity:1;stroke-dasharray:12,6;stroke-dashoffset:0;font-family:arial" id="path2992" d="m 241.33057,235 0,-68.00293 46.61865,0 0,11.50391 -32.88818,0 0,16.09619 28.38867,0 0,11.5039 -28.38867,0 0,28.89893 z"/></g></svg>