<svg xmlns:xlink="http://www.w3.org/1999/xlink" width="400" height="400" viewBox="0 0 400 400"><g transform="scale(100) translate(0.72 0.74)"><polygon points=".488 .762 2.06 .765 1.275 .384" style="fill:#fff"/><polygon points=".91 1.388 1.148 1.388 1.148 1.626 1.401 1.626 1.401 1.388 1.64 1.388 1.64 1.129 1.401 1.129 1.401 .886 1.148 .886 1.148 1.129 .91 1.129" style="fill:#fff"/><polygon points=".575 .922 .606 .922 .606 1.616 .575 1.616 .575 1.712 .758 1.712 .758 1.616 .722 1.616 .722 .922 .758 .922 .758 .83 .575 .83" style="fill:#fff"/><polygon points="1.792 .922 1.822 .922 1.822 1.616 1.792 1.616 1.792 1.712 1.974 1.712 1.974 1.616 1.939 1.616 1.939 .922 1.974 .922 1.974 .83 1.792 .83" style="fill:#fff"/><polygon points=".53 1.819 2.015 1.819 2.015 1.743 .53 1.743" style="fill:#fff"/><polygon points=".484 1.966 2.065 1.966 2.065 1.895 .484 1.895" style="fill:#fff"/></g></svg>