<svg xmlns:xlink="http://www.w3.org/1999/xlink" width="400" height="400" viewBox="0 0 400 400"><polygon points="199.5 100 228.355 149.522 285.67 149.75 257.21 199.5 285.67 249.25 228.355 249.478 199.5 299 170.645 249.478 113.33 249.25 141.79 199.5 113.33 149.75 170.645 149.522" transform="matrix(1 0 0 1 0 0)" style="fill:#fff;stroke:#fff;stroke-width:1"/><ellipse cx="199" cy="99" rx="12" ry="12" transform="matrix(1 0 0 1 0 0)" style="fill:#fff;stroke:#fff;stroke-width:1"/><ellipse cx="199" cy="299" rx="12" ry="12" transform="matrix(1 0 0 1 0 0)" style="fill:#fff;stroke:#fff;stroke-width:1"/><ellipse cx="115" cy="150" rx="12" ry="12" transform="matrix(1 0 0 1 0 0)" style="fill:#fff;stroke:#fff;stroke-width:1"/><ellipse cx="285" cy="149" rx="12" ry="12" transform="matrix(1 0 0 1 0 0)" style="fill:#fff;stroke:#fff;stroke-width:1"/><ellipse cx="285" cy="250" rx="12" ry="12" transform="matrix(1 0 0 1 0 0)" style="fill:#fff;stroke:#fff;stroke-width:1"/><ellipse cx="115" cy="250" rx="12" ry="12" transform="matrix(1 0 0 1 0 0)" style="fill:#fff;stroke:#fff;stroke-width:1"/></svg>