<svg xmlns="http://www.w3.org/2000/svg" xmlns:svg="http://www.w3.org/2000/svg" id="svg2" width="400" height="400" version="1.1" viewBox="0 0 400 400"><metadata id="metadata18"/><g id="g4" transform="matrix(100,0,0,100,79,73)" style="stroke:#000;stroke-width:.06;stroke-miterlimit:4;stroke-opacity:1;stroke-dasharray:.12,.06;stroke-dashoffset:0"><path style="fill:#fff;stroke:#000;stroke-width:.06;stroke-miterlimit:4;stroke-opacity:1;stroke-dasharray:.12,.06;stroke-dashoffset:0" id="path6" d="m 0.61522,0.610618 c 0,0.049492 0.069555,0.110008 0.12572,0.110008 l 0.00524,0 c 0.104878,0 0.108406,-0.085189 0.130961,-0.094291 l 0,-0.073339 c 0,-0.044657 -0.071291,-0.099531 -0.130961,-0.099531 -0.058236,0 -0.130961,0.053917 -0.130961,0.099531 z"/><path style="fill:#fff;stroke:#000;stroke-width:.06;stroke-miterlimit:4;stroke-opacity:1;stroke-dasharray:.12,.06;stroke-dashoffset:0" id="path8" d="m 1.53195,0.584425 c 0,0.066886 0.05889,0.136201 0.12572,0.136201 l 0.00524,0 c 0.03979,0 0.06858,-0.015567 0.09046,-0.03526 C 1.76498,0.674929 1.79912,0.624835 1.79912,0.610618 l 0,-0.041905 c 0,-0.059618 -0.06928,-0.115248 -0.13621,-0.115248 -0.07374,0 -0.13096,0.059086 -0.13096,0.13096 z"/><path style="fill:#fff;stroke:#000;stroke-width:.06;stroke-miterlimit:4;stroke-opacity:1;stroke-dasharray:.12,.06;stroke-dashoffset:0" id="path10" d="m 0.505213,0.982547 0.057622,0 0,1.089603 0.151917,0 0,-0.6391 0.068098,0 0,0.6391 0.146677,0 0,-1.089603 0.057622,0 0,0.408603 0.115251,0 0,-0.471462 -0.00598,-0.057532 -0.00974,-9.4e-5 c 0,-0.057583 -0.04166,-0.110008 -0.099531,-0.110008 l -0.481937,0 c -0.074244,0 -0.110008,0.086028 -0.110008,0.162394 l 0,0.476702 0.110008,0 z"/><path style="fill:#fff;stroke:#000;stroke-width:.06;stroke-miterlimit:4;stroke-opacity:1;stroke-dasharray:.12,.06;stroke-dashoffset:0" id="path12" d="m 1.47433,1.0035 0,-0.010476 L 1.48909,0.97661 1.47957,1.01398 1.38438,1.35046 1.38004,1.37019 1.3688,1.38528 l 7.6e-4,0.02158 -0.05024,0.16677 0.1812,8.6e-4 0,0.49242 0.13096,0 0,-0.49242 0.06811,0 0,0.49242 0.13096,0 0,-0.49242 0.1781,0 L 1.97583,1.44246 1.97198,1.42257 1.8515,1.01398 1.84004,0.977539 1.85494,0.994335 1.85674,1.0035 c 0.05219,0.06004 0.13592,0.35621 0.21478,0.35621 l 0.01047,0 c 0.03069,0 0.05239,-0.02785 0.05239,-0.05762 l 0,-0.01572 C 2.13438,1.27406 2.01568,1.03638 2.00146,0.994976 1.98397,0.944036 1.95758,0.890767 1.93528,0.846385 1.90917,0.794448 1.90415,0.752051 1.82007,0.752051 l -0.30907,0 c -0.08513,0 -0.08942,0.045264 -0.11733,0.097445 C 1.37159,0.890763 1.34738,0.950008 1.33078,0.99615 1.31643,1.03607 1.20193,1.27295 1.20193,1.28637 l 0,0.01572 c 0,0.03269 0.01499,0.05762 0.04715,0.05762 l 0.02095,0 c 0.05875,0 0.15927,-0.3044 0.2043,-0.35621 z"/></g></svg>