<svg xmlns="http://www.w3.org/2000/svg" xmlns:svg="http://www.w3.org/2000/svg" id="svg2" width="400" height="400" version="1.1" viewBox="0 0 400 400"><metadata id="metadata26"/><g id="g4" transform="matrix(100,0,0,100,74,63)" style="fill:#fff;fill-opacity:1;stroke:#000;stroke-width:.06;stroke-miterlimit:4;stroke-opacity:1;stroke-dasharray:.12,.06;stroke-dashoffset:0"><path style="fill:#fff;fill-opacity:1;stroke:#000;stroke-width:.06;stroke-miterlimit:4;stroke-opacity:1;stroke-dasharray:.12,.06;stroke-dashoffset:0" id="path6" d="m 1.10993,1.0681 c 0,-0.01639 0.01949,-0.03984 0.03187,-0.03984 l 0.24301,0 c 0.01146,0 0.03187,0.03551 0.03187,0.04382 l 0,0.01594 c 0,0.02232 -0.03187,0.01746 -0.03187,0.03585 l 0,0.12748 c 0,0.01208 0.24699,0.34371 0.24699,0.37048 l 0,0.08366 c 0,0.07653 -0.16854,0.14342 -0.25496,0.14342 l -0.22707,0 C 1.09872,1.84891 1.02488,1.83092 0.993583,1.80989 0.970977,1.7947 0.894811,1.73852 0.894811,1.70947 l 0,-0.03585 c 0,-0.06104 0.08963,-0.1761 0.117639,-0.22496 C 1.02936,1.41915 1.13782,1.24875 1.13782,1.23143 l 0,-0.10756 C 1.13782,1.10535 1.10993,1.1089 1.10993,1.0681 z m 0.26691,-0.099594 -0.864466,0 0,0.924224 1.501856,0 0,-0.924224 -0.16731,0 0,-0.33463 -0.11154,0 0,0.33463 -0.247,0 0,-0.33463 -0.11154,0 z"/><path style="fill:#fff;fill-opacity:1;stroke:#000;stroke-width:.06;stroke-miterlimit:4;stroke-opacity:1;stroke-dasharray:.12,.06;stroke-dashoffset:0" id="path8-1" d="m 0.48448,1.92459 1.55763,0 0,-0.987957 -0.15935,0 0,-0.33463 -0.17926,0 0,0.33463 -0.17927,0 0,-0.33463 -0.17927,0 0,0.33463 -0.86048,0 z"/></g><path id="path8" d="m 162.6547,197.253 0,10.719 8.9323,0 0,-19.652 c -1.1768,0.789 -8.9323,7.839 -8.9323,8.933 z" style="fill:#fff"/><polygon id="polygon10" points="1.21 1.35 1.209 .942 1.106 1.045 1.103 1.35" transform="matrix(100,0,0,100,72,73)" style="fill:#fff"/><path id="path12" d="m 205.531,207.972 10.719,0 0,-29.924 c 0,-1.102 -9.409,-9.8413 -10.719,-10.7189 z" style="fill:#fff"/><path id="path14" d="m 226.969,207.972 8.932,0 0,-9.826 c 0,-1.707 -0.137,-0.162 0.359,-1.25 l -9.291,-8.576 z" style="fill:#fff"/><polygon id="polygon16" points=".79 1.363 1.272 1.829 1.755 1.363" transform="matrix(100,0,0,100,72,73)" style="fill:#fff"/><path id="path18" d="m 151.0134,209.342 96.4996,-0.03 -48.346,46.564 z m 54.5176,-42.013 c 1.31,0.8776 10.719,9.617 10.719,10.719 l 0,29.924 -10.719,0 z m -12.597,-0.0917 0.091,40.7347 -10.719,0 0.299,-30.515 10.329,-10.2198 z m -30.2793,30.0157 c 0,-1.094 7.7555,-8.144 8.9323,-8.933 l 0,19.652 -8.9323,0 z m 64.3143,-8.933 9.291,8.575 c -0.496,1.089 -0.359,-0.456 -0.359,1.251 l 0,9.826 -8.932,0 z m 23.639,20.512 -51.27,-50.0507 -51.1478,49.9077 51.1448,49.81 z" style="fill:#000"/></svg>