<svg xmlns="http://www.w3.org/2000/svg" xmlns:svg="http://www.w3.org/2000/svg" id="svg2" width="400" height="400" version="1.1" viewBox="0 0 400 400"><metadata id="metadata20"/><g id="g4" transform="scale(110) translate(0.572727 0.818182)"><path id="path2991" d="m 1.2571092,0.64107412 0,0.36113778 0.1366466,0 -0.384228,0.3587525 0.6211014,0.4146121 -0.2388255,-0.7733646" style="fill:none;stroke:#fff;stroke-width:.05454545;stroke-linecap:butt;stroke-linejoin:round;stroke-miterlimit:4;stroke-opacity:1;stroke-dasharray:.10909091,.05454545;stroke-dashoffset:.06545454"/><path style="fill:none;stroke:#fff;stroke-width:.05454545;stroke-linecap:butt;stroke-linejoin:round;stroke-miterlimit:4;stroke-opacity:1;stroke-dasharray:.10909091,.05454545;stroke-dashoffset:.06545454" id="path2993" d="m 1.2532961,1.0022118 -0.1366468,0 0.384228,0.3587525 L 0.87977579,1.7755764 1.1186015,1.0022118"/><path id="path3763" d="m 1.1550504,0.72961257 0.207051,0" style="fill:none;stroke:#fff;stroke-width:.05454545;stroke-linecap:butt;stroke-linejoin:round;stroke-miterlimit:4;stroke-opacity:1;stroke-dasharray:.10909091,.05454545;stroke-dashoffset:.06545454"/><path style="fill:none;stroke:#fff;stroke-width:.05454545;stroke-linecap:butt;stroke-linejoin:round;stroke-miterlimit:4;stroke-opacity:1;stroke-dasharray:.10909091,.05454545;stroke-dashoffset:.06545454" id="path3765" d="m 1.1177812,0.84556103 0.27395,0"/><path style="fill:none;stroke:#fff;stroke-width:5.99999952;stroke-linecap:butt;stroke-linejoin:round;stroke-miterlimit:4;stroke-opacity:1;stroke-dasharray:11.9999988,5.9999994;stroke-dashoffset:0" id="path3781" d="M 139.23371,252.09576 A 79.24749,79.24749 0 0 1 181.52492,121.08563" transform="matrix(0.00909091,0,0,0.00909091,-0.51939794,-0.87635558)"/><path id="path3794" d="M 127.14271,234.63694 A 79.24749,79.24749 0 0 1 181.52492,121.08563" transform="matrix(0.00567711,0,0,0.00567711,0.13980464,-0.18317138)" style="fill:none;stroke:#fff;stroke-width:9.60796165;stroke-linecap:butt;stroke-linejoin:round;stroke-miterlimit:4;stroke-opacity:1;stroke-dasharray:19.21592308,9.60796154;stroke-dashoffset:0"/><path id="path3796" d="M 139.23371,252.09576 A 79.24749,79.24749 0 0 1 181.52492,121.08563" transform="matrix(-0.00909091,0,0,0.00909091,3.0103076,-0.87635558)" style="fill:none;stroke:#fff;stroke-width:5.99999952;stroke-linecap:butt;stroke-linejoin:round;stroke-miterlimit:4;stroke-opacity:1;stroke-dasharray:11.9999988,5.9999994;stroke-dashoffset:0"/><path style="fill:none;stroke:#fff;stroke-width:9.60796165;stroke-linecap:butt;stroke-linejoin:round;stroke-miterlimit:4;stroke-opacity:1;stroke-dasharray:19.21592308,9.60796154;stroke-dashoffset:0" id="path3798" d="M 127.14271,234.63694 A 79.24749,79.24749 0 0 1 181.52492,121.08563" transform="matrix(-0.00567711,0,0,0.00567711,2.3511048,-0.18317138)"/><path style="fill:none;stroke:#fff;stroke-width:.05454545;stroke-linecap:butt;stroke-linejoin:round;stroke-miterlimit:4;stroke-opacity:1;stroke-dasharray:.10909091,.05454545;stroke-dashoffset:.06545454" id="path3096" d="m 1.2571092,0.64107412 0,0.36113778 0.1366466,0 -0.384228,0.3587525 0.6211014,0.4146121 -0.2388255,-0.7733646"/><path id="path3098" d="m 1.2532961,1.0022118 -0.1366468,0 0.384228,0.3587525 L 0.87977579,1.7755764 1.1186015,1.0022118" style="fill:none;stroke:#fff;stroke-width:.05454545;stroke-linecap:butt;stroke-linejoin:round;stroke-miterlimit:4;stroke-opacity:1;stroke-dasharray:.10909091,.05454545;stroke-dashoffset:.06545454"/><path style="fill:none;stroke:#fff;stroke-width:.05454545;stroke-linecap:butt;stroke-linejoin:round;stroke-miterlimit:4;stroke-opacity:1;stroke-dasharray:.10909091,.05454545;stroke-dashoffset:.06545454" id="path3100" d="m 1.1550504,0.72961257 0.207051,0"/><path id="path3102" d="m 1.1177812,0.84556103 0.27395,0" style="fill:none;stroke:#fff;stroke-width:.05454545;stroke-linecap:butt;stroke-linejoin:round;stroke-miterlimit:4;stroke-opacity:1;stroke-dasharray:.10909091,.05454545;stroke-dashoffset:.06545454"/><path id="path3104" d="M 139.23371,252.09576 A 79.24749,79.24749 0 0 1 181.52492,121.08563" transform="matrix(0.00909091,0,0,0.00909091,-0.51939794,-0.87635558)" style="fill:none;stroke:#fff;stroke-width:5.99999952;stroke-linecap:butt;stroke-linejoin:round;stroke-miterlimit:4;stroke-opacity:1;stroke-dasharray:11.9999988,5.9999994;stroke-dashoffset:0"/><path style="fill:none;stroke:#fff;stroke-width:9.60796165;stroke-linecap:butt;stroke-linejoin:round;stroke-miterlimit:4;stroke-opacity:1;stroke-dasharray:19.21592308,9.60796154;stroke-dashoffset:0" id="path3106" d="M 127.14271,234.63694 A 79.24749,79.24749 0 0 1 181.52492,121.08563" transform="matrix(0.00567711,0,0,0.00567711,0.13980464,-0.18317138)"/><path style="fill:none;stroke:#fff;stroke-width:5.99999952;stroke-linecap:butt;stroke-linejoin:round;stroke-miterlimit:4;stroke-opacity:1;stroke-dasharray:11.9999988,5.9999994;stroke-dashoffset:0" id="path3108" d="M 139.23371,252.09576 A 79.24749,79.24749 0 0 1 181.52492,121.08563" transform="matrix(-0.00909091,0,0,0.00909091,3.0103076,-0.87635558)"/><path id="path3110" d="M 127.14271,234.63694 A 79.24749,79.24749 0 0 1 181.52492,121.08563" transform="matrix(-0.00567711,0,0,0.00567711,2.3511048,-0.18317138)" style="fill:none;stroke:#fff;stroke-width:9.60796165;stroke-linecap:butt;stroke-linejoin:round;stroke-miterlimit:4;stroke-opacity:1;stroke-dasharray:19.21592308,9.60796154;stroke-dashoffset:0"/></g></svg>