<svg xmlns="http://www.w3.org/2000/svg" xmlns:svg="http://www.w3.org/2000/svg" id="svg2" width="400" height="400" version="1.1" viewBox="0 0 400 400"><metadata id="metadata20"/><g id="g4" transform="matrix(100,0,0,100,74,65)" style="stroke:#000;stroke-width:.06;stroke-miterlimit:4;stroke-opacity:1;stroke-dasharray:.12,.06;stroke-dashoffset:0"><path style="fill:#000;stroke:#000;stroke-width:.06;stroke-miterlimit:4;stroke-opacity:1;stroke-dasharray:.12,.06;stroke-dashoffset:0" id="path6" d="m 1.24822,0.881551 c 0.18588,0 0.57622,-0.110949 0.64297,-0.210626 C 1.82155,0.634075 1.26393,0.271842 1.25931,0.271842 c -0.01051,0 -0.622743,0.384575 -0.637432,0.404626 0.064095,0.08748 0.414552,0.205083 0.582002,0.205083 z"/><path style="fill:#000;stroke:#000;stroke-width:.06;stroke-miterlimit:4;stroke-opacity:1;stroke-dasharray:.12,.06;stroke-dashoffset:0" id="path8" d="m 1.71382,1.77949 0.01109,0.13303 0.0168,0.32147 0.07188,1e-5 C 1.81359,2.08221 1.78532,1.91919 1.78587,1.76841 1.78618,1.68378 1.77612,1.61233 1.775,1.52985 1.77318,1.39497 1.78093,1.45393 1.8413,1.36378 L 1.83434,1.28632 1.83576,1.25847 l -0.10531,0 0,-0.404634 C 1.66845,0.868277 1.5986,0.899072 1.52315,0.918139 1.45924,0.934289 1.36153,0.953607 1.28702,0.953607 l -0.06097,0 c -0.18883,0 -0.304514,-0.066118 -0.448971,-0.099771 l 0,0.404634 -0.105315,0 0,0.01662 -0.006531,0.09415 0.079819,0.09335 -0.050154,0.77147 0.076638,-6e-5 0,-0.08314 0.034756,-0.5431 C 0.819788,1.6177 0.859422,1.67614 0.881013,1.69773 0.903583,1.7203 0.941745,1.75245 0.968768,1.77071 1.02395,1.808 1.10734,1.86707 1.18725,1.87372 l 0,0.36028 0.13857,0 0,-0.36028 C 1.41873,1.85208 1.48013,1.81732 1.54603,1.7669 1.58082,1.74029 1.60143,1.7228 1.63205,1.69218 1.64885,1.67538 1.69365,1.61295 1.70828,1.60766 l 0,0.0776 z"/><line id="line10" x1=".777" x2=".778" y1=".854" y2=".775" style="stroke:#000;stroke-width:.06;stroke-miterlimit:4;stroke-opacity:1;stroke-dasharray:.12,.06;stroke-dashoffset:0"/><line id="line12" x1="1.73" x2="1.73" y1=".854" y2=".772" style="stroke:#000;stroke-width:.06;stroke-miterlimit:4;stroke-opacity:1;stroke-dasharray:.12,.06;stroke-dashoffset:0"/><path style="fill:#fff;stroke:#000;stroke-width:.06;stroke-miterlimit:4;stroke-opacity:1;stroke-dasharray:.12,.06;stroke-dashoffset:0" id="path14" d="m 1.20388,0.881551 c -0.10791,0 -0.291819,-0.048839 -0.426118,-0.106984 L 0.777081,0.853835 C 0.921538,0.887488 1.03722,0.953606 1.22605,0.953606 l 0.06097,0 c 0.07451,0 0.17222,-0.019319 0.23613,-0.035468 0.07546,-0.019067 0.14531,-0.049862 0.2073,-0.064303 l -8e-5,-0.08161 C 1.58144,0.833496 1.37056,0.881552 1.24822,0.881552 z"/></g></svg>