<svg xmlns="http://www.w3.org/2000/svg" xmlns:svg="http://www.w3.org/2000/svg" id="svg2" width="400" height="400" version="1.1" viewBox="0 0 400 400"><metadata id="metadata16"/><g id="g4" transform="scale(115) translate(0.469565 0.469565)" style="stroke:#000;stroke-opacity:1;stroke-width:.05217391;stroke-miterlimit:4;stroke-dasharray:.10434783,.05217391;stroke-dashoffset:0"><polygon style="fill:#fff;stroke:#000;stroke-opacity:1;stroke-width:.05217391;stroke-miterlimit:4;stroke-dasharray:.10434783,.05217391;stroke-dashoffset:0" id="polygon6" points=".432 1.158 .757 1.158 .757 1.026 .432 1.026"/><polygon style="fill:#fff;stroke:#000;stroke-opacity:1;stroke-width:.05217391;stroke-miterlimit:4;stroke-dasharray:.10434783,.05217391;stroke-dashoffset:0" id="polygon8" points="1.78 1.158 2.11 1.158 2.11 1.026 1.78 1.026"/><path style="fill:#fff;stroke:#000;stroke-opacity:1;stroke-width:.05217391;stroke-miterlimit:4;stroke-dasharray:.10434783,.05217391;stroke-dashoffset:0" id="path10" d="M1.19371 0.79052 L1.37018 0.789737 C1.3906 0.789737 1.42205 0.914154 1.42205 0.940627 L1.45369 1.03391 C1.45475 1.04152 1.49749 1.17739 1.49749 1.18582 L1.49749 1.19996 L1.07573 1.19936 zM0.761915 0.789737 L1.00431 0.790323 L0.926947 1.03493 C0.926947 1.07254 0.88451 1.15878 0.88451 1.18582 L0.88451 1.19996 L0.431849 1.19996 L0.431849 1.35556 L0.835022 1.35642 L0.809069 1.42158 L0.807069 1.43982 L0.751136 1.62066 L0.672325 1.86953 C0.697628 1.86953 0.874042 1.87277 0.882766 1.86778 C0.887085 1.86532 0.926439 1.71963 0.933077 1.70119 C0.942971 1.67371 1.03068 1.37384 1.03068 1.36971 L1.03068 1.35556 L1.54109 1.3566 L1.6861 1.86953 L1.90048 1.87025 L1.86896 1.76739 L1.85365 1.70991 L1.8016 1.54023 L1.78285 1.47889 L1.7474 1.35556 L2.09161 1.35556 L2.09161 1.19996 L1.69632 1.19972 L1.63423 1.00664 L1.63099 0.988737 L1.60972 0.923466 L1.57294 0.789738 L1.80398 0.789738 L1.80398 0.634136 L0.76192 0.634136 L0.76192 0.789738 L0.761916 0.789738 z"/></g></svg>