<svg xmlns="http://www.w3.org/2000/svg" xmlns:svg="http://www.w3.org/2000/svg" id="svg2" width="400" height="400" version="1.1" viewBox="0 0 400 400"><metadata id="metadata20"/><path style="fill:#fff;stroke:#000;stroke-width:6;stroke-miterlimit:4;stroke-opacity:1;stroke-dasharray:12,6;stroke-dashoffset:0" id="path6" d="m 184.50084,215.3028 -1.0932,0 c -1.2756,0 -2.7348,-1.4592 -2.7348,-2.7348 l 0,-31.176 c 0,-1.2804 0.9072,-2.1864 2.1876,-2.1864 l 1.6404,0 c 1.2804,0 2.1876,0.906 2.1876,2.1864 l 0,29.5356 c 0,1.9488 -0.2664,4.3752 -2.1876,4.3752 z m -59.61636,-37.1916 0,89.1516 71.64876,0 0,-159.70728 c -19.3644,0 -42.52512,8.8842 -52.3698,18.73176 -10.73388,10.73712 -19.27884,30.72312 -19.27896,51.82392 z"/><path style="fill:#000;stroke:#000;stroke-width:6;stroke-miterlimit:4;stroke-opacity:1;stroke-dasharray:12,6;stroke-dashoffset:0" id="path8" d="m 184.50084,215.3028 c 1.9212,0 2.1876,-2.4264 2.1876,-4.3752 l 0,-29.5356 c 0,-1.2804 -0.9072,-2.1864 -2.1876,-2.1864 l -1.6404,0 c -1.2804,0 -2.1876,0.906 -2.1876,2.1864 l 0,31.176 c 0,1.2756 1.4592,2.7348 2.7348,2.7348 z"/><path style="fill:#000;stroke:#000;stroke-width:6;stroke-miterlimit:4;stroke-opacity:1;stroke-dasharray:12,6;stroke-dashoffset:0" id="path10" d="m 212.39604,181.392 0,31.176 c 0,1.2744 1.4592,2.7348 2.7348,2.7348 l 1.0932,0 c 1.7688,0 2.7348,-1.986 2.7348,-3.8292 l 0,-29.5344 c 0,-1.2756 -1.4592,-2.7348 -2.7348,-2.7348 l -1.6404,0 c -1.2804,0 -2.1876,0.9072 -2.1876,2.1876 z"/><path style="fill:#fff;stroke:#000;stroke-width:6;stroke-miterlimit:4;stroke-opacity:1;stroke-dasharray:12,6;stroke-dashoffset:0" id="path12" d="m 212.39604,181.392 c 0,-1.2804 0.9072,-2.1876 2.1876,-2.1876 l 1.6404,0 c 1.2756,0 2.7348,1.4592 2.7348,2.7348 l 0,29.5344 c 0,1.8432 -0.966,3.8292 -2.7348,3.8292 l -1.0932,0 c -1.2756,0 -2.7348,-1.4592 -2.7348,-2.7348 z m -9.8448,85.8696 71.6484,0 0,-82.5876 c 0,-26.1864 -4.9032,-42.89616 -17.3496,-57.03432 -9.2688,-10.52976 -34.596,-20.0844 -54.2988,-20.0844 z"/></svg>