<svg xmlns:xlink="http://www.w3.org/1999/xlink" width="400" height="400" viewBox="0 0 400 400"><g transform="scale(100) translate(0.75 0.7)"><path d="M0.613965 0.769417 L1.90342 0.769417 C1.86795 0.744767 1.26133 0.445724 1.25604 0.445724 C1.25138 0.445724 0.633334 0.752578 0.61396 0.769417 z" style="fill:#fff"/><path d="M0.613965 0.769417 C0.633339 0.752578 1.25139 0.445724 1.25604 0.445724 C1.26134 0.445724 1.86796 0.744767 1.90343 0.769417 L0.61397 0.769417 zM0.412323 0.801256 L0.412323 0.81187 C0.412323 0.826201 0.414855 0.8265 0.41763 0.838401 C0.429528 0.841173 0.429827 0.843708 0.444162 0.843708 L2.06793 0.843708 C2.08538 0.843708 2.11038 0.827551 2.11038 0.817173 C2.11038 0.761075 2.06721 0.758653 2.02899 0.739374 C1.9907 0.720055 1.95622 0.702933 1.91935 0.684515 C1.84621 0.647968 1.7733 0.614122 1.69827 0.576598 C1.65492 0.554917 1.26485 0.360822 1.25605 0.360822 C1.24925 0.360822 0.866503 0.552952 0.826227 0.573078 C0.754821 0.60876 0.684601 0.641197 0.61218 0.677421 C0.574695 0.696169 0.543554 0.711725 0.50605 0.730484 C0.476951 0.74504 0.412325 0.763197 0.412325 0.801256 z" style="fill:#000"/><polygon points="1.813 .976 1.866 .976 1.868 1.088 1.85 1.613 1.813 1.613 1.813 1.709 2.01 1.709 2.01 1.613 1.972 1.613 1.974 1.592 1.951 1.014 1.951 .976 2.01 .976 2.01 .897 1.813 .897" style="fill:#000"/><polygon points="1.436 1.422 1.426 1.613 1.394 1.613 1.394 1.709 1.585 1.709 1.585 1.613 1.549 1.613 1.532 .976 1.585 .976 1.585 .897 1.394 .897 1.394 .976 1.448 .976" style="fill:#000"/><polygon points=".667 1.613 .656 1.396 .646 .976 .704 .976 .704 .897 .503 .897 .503 .976 .563 .976 .54 1.613 .503 1.613 .503 1.709 .704 1.709 .704 1.613" style="fill:#000"/><polygon points=".667 1.613 .656 1.396" style="fill:#000"/><polygon points="1.426 1.613 1.436 1.422" style="fill:#000"/><polygon points=".985 1.029 .964 1.592 .964 1.613 .927 1.613 .927 1.709 1.123 1.709 1.123 1.613 1.081 1.613 1.081 1.56 1.066 1.029 1.065 .976 1.123 .976 1.123 .897 .927 .897 .927 .976 .985 .976" style="fill:#000"/><polygon points=".465 1.836 2.047 1.836 2.047 1.762 .465 1.762" style="fill:#000"/><polygon points=".412 1.995 2.105 1.995 2.105 1.921 .412 1.921" style="fill:#000"/><polygon points=".667 1.613 .656 1.396 .646 .976 .704 .976 .704 .897 .503 .897 .503 .976 .563 .976 .54 1.613 .503 1.613 .503 1.709 .704 1.709 .704 1.613" style="fill:#000"/><polygon points="1.436 1.422 1.426 1.613 1.394 1.613 1.394 1.709 1.585 1.709 1.585 1.613 1.549 1.613 1.532 .976 1.585 .976 1.585 .897 1.394 .897 1.394 .976 1.448 .976" style="fill:#000"/></g></svg>