<svg xmlns="http://www.w3.org/2000/svg" xmlns:svg="http://www.w3.org/2000/svg" id="svg2" width="400" height="400" version="1.1" viewBox="0 0 400 400"><metadata id="metadata34"/><g id="g4" transform="scale(100) translate(0.75 0.76)" style="fill:#000"><path style="fill:#fff;fill-opacity:1" id="path6" d="M1.14307 0.953626 C1.14638 0.997276 1.1822 1.04938 1.22324 1.05841 L1.19159 0.933007 z"/><path style="fill:#fff;stroke:#fff;stroke-opacity:1;stroke-width:.06;stroke-miterlimit:4;stroke-dasharray:.12,.06;stroke-dashoffset:0;fill-opacity:1" id="path8" d="m 1.09343,0.850425 0,0.034079 c 0,0.109866 0.05212,0.216586 0.14316,0.235796 0.0913,0.01926 0.17492,-0.11362 0.17492,-0.201718 l 0,-0.037866 c 0,-0.074169 -0.05194,-0.215224 -0.0743,-0.28165 -0.01182,-0.03511 -0.076,-0.263634 -0.0961,-0.263634 -0.02074,0 -0.02226,0.112465 -0.02801,0.134811 C 1.19934,0.52364 1.19059,0.55066 1.1744,0.598164 1.15481,0.655648 1.09343,0.787849 1.09343,0.850424 z"/><polygon style="fill:#fff;stroke:#fff;stroke-opacity:1;stroke-width:.06;stroke-miterlimit:4;stroke-dasharray:.12,.06;stroke-dashoffset:0;fill-opacity:1" id="polygon10" points="1.066 1.183 1.051 1.146 .495 1.146 .495 1.456 1.976 1.456 1.976 1.146 1.412 1.146 1.412 1.218 1.336 1.213 1.359 1.282 1.332 1.285 1.291 1.263 1.282 1.339 1.256 1.301 1.173 1.327 1.157 1.248 1.106 1.28 1.09 1.24 1.028 1.251"/><path style="fill:#fff;fill-opacity:1" id="path12" d="M1.29413 1.55096 C1.29413 1.60084 1.37754 1.59775 1.37539 1.54783 C1.37289 1.48958 1.29413 1.50207 1.29413 1.5396 z"/><path style="fill:#fff;fill-opacity:1" id="path14" d="M1.19189 1.64184 C1.20798 1.64184 1.22597 1.62118 1.22597 1.60397 L1.22597 1.60019 C1.22597 1.54464 1.14645 1.55571 1.14645 1.59262 L1.14645 1.61155 C1.14645 1.62835 1.17254 1.64184 1.19189 1.64184 z"/><path style="fill:#fff;fill-opacity:1" id="path16" d="M1.26005 1.72894 C1.26005 1.74484 1.27684 1.76681 1.29035 1.76681 L1.30928 1.76681 C1.32038 1.76681 1.33957 1.74761 1.33957 1.73651 L1.33957 1.71758 C1.33957 1.7029 1.31876 1.68729 1.3017 1.68729 L1.29792 1.68729 C1.27888 1.68729 1.26005 1.70612 1.26005 1.72515 z"/><path style="fill:#fff;fill-opacity:1" id="path18" d="M1.19946 1.7971 C1.21414 1.7971 1.22976 1.77629 1.22976 1.75923 C1.22976 1.73547 1.21187 1.71758 1.1881 1.71758 C1.17353 1.71758 1.15023 1.73382 1.15023 1.74787 L1.15023 1.76302 C1.15023 1.78014 1.16778 1.7971 1.18053 1.7971 z"/><path style="fill:#fff;fill-opacity:1" id="path20" d="M1.21461 1.89934 C1.21461 1.91391 1.23085 1.93721 1.24491 1.93721 L1.26005 1.93721 C1.27877 1.93721 1.29413 1.92184 1.29413 1.90313 L1.29413 1.88798 C1.29413 1.87524 1.27717 1.85769 1.26005 1.85769 L1.25248 1.85769 C1.2309 1.85769 1.21461 1.87761 1.21461 1.89934 z"/><path style="fill:#fff;fill-opacity:1" id="path22" d="M1.36986 2.00915 C1.40299 2.00915 1.42411 1.96491 1.39828 1.93908 C1.37245 1.91324 1.32821 1.93437 1.32821 1.9675 C1.32821 1.98762 1.34974 2.00915 1.36986 2.00915 z"/><path style="fill:#fff;fill-opacity:1" id="path24" d="M1.15781 2.03187 C1.15781 2.04893 1.17342 2.06974 1.18811 2.06974 L1.20325 2.06974 C1.22367 2.06974 1.23733 2.05101 1.23733 2.03187 L1.23733 2.02808 C1.23733 2.01102 1.22172 1.99022 1.20704 1.99022 L1.18811 1.99022 C1.1746 1.99022 1.15781 2.01218 1.15781 2.02808 z"/><path style="fill:#fff;fill-opacity:1" id="path26" d="M1.30928 2.10382 C1.3297 2.10382 1.34336 2.0851 1.34336 2.06595 C1.34336 2.0489 1.32775 2.02809 1.31307 2.02809 L1.29413 2.02809 C1.28139 2.02809 1.26384 2.04505 1.26384 2.06217 L1.26384 2.06974 C1.26384 2.08846 1.27921 2.10382 1.29792 2.10382 z"/></g></svg>