<svg xmlns="http://www.w3.org/2000/svg" xmlns:svg="http://www.w3.org/2000/svg" id="svg2" width="400" height="400" version="1.1" viewBox="0 0 400 400"><metadata id="metadata20"/><g id="g4" transform="matrix(100,0,0,100,48.3,52.2)"><g id="g6" transform="scale(1.2,1.2)" style="fill:#fff;fill-opacity:1;stroke:#000;stroke-width:.03333333;stroke-miterlimit:4;stroke-opacity:1;stroke-dasharray:.06666667,.03333333;stroke-dashoffset:0"><polygon style="fill:#fff;fill-opacity:1;stroke:#000;stroke-width:.03333333;stroke-miterlimit:4;stroke-opacity:1;stroke-dasharray:.06666667,.03333333;stroke-dashoffset:0" id="polygon8" points="1.07 .923 .842 .663 .921 .959 .619 .944 .617 .949 .897 1.152 .42 1.183 .835 1.304 .836 1.311 .544 1.48 .545 1.484 .923 1.439 .802 1.647 1.025 1.554 .944 1.897 1.155 1.622 1.271 2.064 1.279 2.064 1.302 1.62 1.527 1.894 1.448 1.533 1.708 1.677 1.55 1.488 1.939 1.599 1.684 1.363 2.013 1.313 1.638 1.21 2.08 .985 1.681 1.021 1.843 .761 1.495 .95 1.617 .558 1.364 .891 1.322 .447 1.219 .756 1.102 .574"/></g></g><g style="font-size:81px;font-weight:700;text-anchor:middle;fill:#000;font-family:Arial" id="text14"><path style="font-size:81px;font-weight:700;text-anchor:middle;fill:#000;font-family:Arial" id="path2998" d="m 204.94385,217.0498 -10.08545,0 c -0.0264,-1.45017 -0.0396,-2.33347 -0.0395,-2.6499 -2e-5,-3.26951 0.5405,-5.95896 1.62158,-8.06836 1.08103,-2.10934 3.24314,-4.48239 6.48633,-7.11914 3.24313,-2.63668 5.18112,-4.36373 5.81396,-5.18115 0.97555,-1.29195 1.46335,-2.71578 1.46338,-4.27148 -3e-5,-2.16207 -0.86356,-4.01436 -2.59057,-5.55689 -1.72709,-1.54243 -4.05399,-2.31367 -6.98072,-2.31372 -2.82131,5e-5 -5.18117,0.80425 -7.07959,2.4126 -1.89845,1.60844 -3.20363,4.06059 -3.91552,7.35644 l -10.20411,-1.26562 c 0.29004,-4.71968 2.30053,-8.72749 6.0315,-12.02344 3.73094,-3.29584 8.62864,-4.94379 14.69311,-4.94385 6.38083,6e-5 11.45651,1.66778 15.22705,5.00318 3.77047,3.3355 5.65572,7.21806 5.65577,11.6477 -5e-5,2.45219 -0.69219,4.7725 -2.07642,6.96094 -1.38432,2.18851 -4.34403,5.168 -8.87915,8.93848 -2.34671,1.95119 -3.8035,3.52004 -4.37036,4.70654 -0.56693,1.18654 -0.82401,3.3091 -0.77124,6.36767 z M 194.8584,232 l 0,-11.11377 11.11377,0 0,11.11377 z"/></g></svg>