<svg xmlns="http://www.w3.org/2000/svg" xmlns:svg="http://www.w3.org/2000/svg" id="svg2" width="400" height="400" version="1.1" viewBox="0 0 400 400"><metadata id="metadata15"/><ellipse style="fill:#fff;stroke:#000;stroke-width:6;stroke-opacity:1;stroke-miterlimit:4;stroke-dasharray:12,6;stroke-dashoffset:0" id="ellipse4" cx="200" cy="200" rx="30" ry="30" transform="matrix(1 0 0 1 0 0)"/><g id="g6" transform="matrix(6.12303e-017 1 -1 6.12303e-017 393.816 6.15962) translate(-6.85714 -5.71429)" style="stroke:#000;stroke-opacity:1;stroke-width:6;stroke-miterlimit:4;stroke-dasharray:12,6;stroke-dashoffset:0"><path id="1" d="M114 250 C96 220 96 180 114 150 L161 177 C153 190 153 210 161 223 z" style="fill:#fff;stroke:#000;stroke-width:6;stroke-opacity:1;stroke-miterlimit:4;stroke-dasharray:12,6;stroke-dashoffset:0"/><path id="2" d="M114 250 C96 220 96 180 114 150 L161 177 C153 190 153 210 161 223 z" transform="rotate(120.132 130.75 200) translate(-104.35 -60.2598) rotate(0.357613 125.778 193.304) translate(-0.861723 0.507379) translate(0.861723 -0.507379) rotate(0.574712 125.695 193.451) rotate(358.362 125.566 193.689) rotate(0.854696 126.051 193.203) rotate(359.838 125.743 193.365) rotate(359.839 125.781 193.298)" style="fill:#fff;stroke:#000;stroke-width:6;stroke-opacity:1;stroke-miterlimit:4;stroke-dasharray:12,6;stroke-dashoffset:0"/><path id="3" d="M114 250 C96 220 96 180 114 150 L161 177 C153 190 153 210 161 223 z" transform="rotate(240.116 130.75 200) translate(-103.619 59.8911)" style="fill:#fff;stroke:#000;stroke-width:6;stroke-opacity:1;stroke-miterlimit:4;stroke-dasharray:12,6;stroke-dashoffset:0"/></g></svg>