<svg xmlns="http://www.w3.org/2000/svg" xmlns:svg="http://www.w3.org/2000/svg" id="svg2" width="400" height="400" version="1.1" viewBox="0 0 400 400"><metadata id="metadata44"/><g id="g4" transform="scale(120) translate(0.416667 0.408333)" style="stroke:#000;stroke-opacity:1;stroke-width:.05;stroke-miterlimit:4;stroke-dasharray:.1,.1;stroke-dashoffset:0"><polygon style="fill:#fff;stroke:#000;stroke-opacity:1;stroke-width:.05;stroke-miterlimit:4;stroke-dasharray:.1,.1;stroke-dashoffset:0" id="polygon6" points="1.219 .567 1.263 .567 1.263 .365 1.219 .365"/><polygon style="fill:#fff;stroke:#000;stroke-opacity:1;stroke-width:.05;stroke-miterlimit:4;stroke-dasharray:.1,.1;stroke-dashoffset:0" id="polygon8" points=".666 .728 .856 .918 .885 .887 .692 .695 .691 .7"/><polygon style="fill:#fff;stroke:#000;stroke-opacity:1;stroke-width:.05;stroke-miterlimit:4;stroke-dasharray:.1,.1;stroke-dashoffset:0" id="polygon10" points="1.601 .883 1.632 .914 1.816 .728 1.788 .702"/><polygon style="fill:#fff;stroke:#000;stroke-opacity:1;stroke-width:.05;stroke-miterlimit:4;stroke-dasharray:.1,.1;stroke-dashoffset:0" id="polygon12" points=".443 1.294 .71 1.294 .715 1.255 .443 1.255"/><polygon style="fill:#fff;stroke:#000;stroke-opacity:1;stroke-width:.05;stroke-miterlimit:4;stroke-dasharray:.1,.1;stroke-dashoffset:0" id="polygon14" points="1.78 1.294 2.034 1.294 2.034 1.255 1.78 1.255"/><path style="fill:#fff;stroke:#000;stroke-opacity:1;stroke-width:.05;stroke-miterlimit:4;stroke-dasharray:.1,.1;stroke-dashoffset:0" id="path16" d="M1.06554 0.96978 L1.06554 0.98293 C1.06554 0.993237 1.09511 1.07332 1.10011 1.08862 C1.11505 1.13435 1.11482 1.15876 1.11375 1.20646 C1.08871 1.20438 1.02295 1.14472 1.00855 1.1232 C0.973453 1.07074 0.972048 1.05197 0.955965 0.98293 C0.936941 0.996871 0.91652 1.06225 0.91652 1.09689 L0.91652 1.1451 C0.91652 1.26074 0.990744 1.3213 0.995414 1.3774 C0.97678 1.37306 0.89439 1.31145 0.882536 1.29743 C0.867866 1.28006 0.814918 1.18785 0.802563 1.18455 C0.802563 1.26682 0.82426 1.32818 0.84587 1.38669 C0.857544 1.41828 0.869807 1.44595 0.880862 1.47442 C0.898331 1.51941 0.910768 1.51668 0.93487 1.54752 C0.994477 1.62379 1.13031 1.71927 1.26278 1.71927 L1.28031 1.71927 C1.32522 1.71927 1.4141 1.68343 1.44543 1.66525 C1.49376 1.63717 1.5381 1.60896 1.56962 1.5659 C1.62848 1.48552 1.67916 1.37189 1.67916 1.23276 L1.68015 1.17566 L1.67478 1.12757 L1.66601 1.12757 C1.64326 1.22523 1.57947 1.30438 1.49946 1.34672 C1.49946 1.2711 1.52773 1.23677 1.53804 1.1705 C1.54584 1.12035 1.51807 1.02695 1.51699 0.978549 C1.50768 0.985367 1.49158 1.09087 1.46525 1.12404 C1.45791 1.13328 1.3592 1.23289 1.3592 1.18893 L1.3592 1.1451 C1.3592 1.08272 1.39865 1.04534 1.39865 0.974167 C1.39865 0.957348 1.32701 0.85047 1.31349 0.842675 L1.31537 0.860206 C1.31537 0.884277 1.30727 0.945352 1.30056 0.963734 C1.29633 0.975309 1.25347 1.02676 1.24524 1.02676 C1.22018 1.02676 1.19265 0.966073 1.19265 0.934718 L1.19265 0.912805 C1.19265 0.853195 1.25076 0.786171 1.24683 0.746029 L1.23648 0.684887 C1.22475 0.693482 1.21076 0.747962 1.20324 0.765608 C1.1911 0.794104 1.17439 0.81099 1.1568 0.83312 C1.1418 0.851994 1.06554 0.950774 1.06554 0.96978 z"/><polygon style="fill:#fff;stroke:#000;stroke-opacity:1;stroke-width:.05;stroke-miterlimit:4;stroke-dasharray:.1,.1;stroke-dashoffset:0" id="polygon18" points=".666 1.823 .694 1.852 .878 1.666 .85 1.639"/><polygon style="fill:#fff;stroke:#000;stroke-opacity:1;stroke-width:.05;stroke-miterlimit:4;stroke-dasharray:.1,.1;stroke-dashoffset:0" id="polygon20" points="1.608 1.67 1.79 1.852 1.816 1.823 1.634 1.644"/><polygon style="fill:#fff;stroke:#000;stroke-opacity:1;stroke-width:.05;stroke-miterlimit:4;stroke-dasharray:.1,.1;stroke-dashoffset:0" id="polygon22" points="1.219 2.074 1.263 2.074 1.263 1.811 1.219 1.811"/></g><line style="stroke:none;stroke-width:8" id="line24" x1="199" x2="199" y1="118" y2="90" transform="matrix(1 0 0 1 0 0)"/><line style="stroke:none;stroke-width:8" id="line26" x1="155" x2="129" y1="158" y2="133" transform="matrix(1 0 0 1 0 0)"/><line style="stroke:none;stroke-width:8" id="line28" x1="243" x2="267" y1="158" y2="134" transform="matrix(1 0 0 1 0 0)"/><line style="stroke:none;stroke-width:8" id="line30" x1="136" x2="101" y1="202" y2="202" transform="matrix(1 0 0 1 0 0)"/><line style="stroke:none;stroke-width:8" id="line32" x1="154" x2="131" y1="246" y2="271" transform="matrix(1 0 0 1 0 0)"/><line style="stroke:none;stroke-width:8" id="line34" x1="199" x2="199" y1="266" y2="299" transform="matrix(1 0 0 1 0 0)"/><line style="stroke:none;stroke-width:8" id="line36" x1="244" x2="268" y1="247" y2="271" transform="matrix(1 0 0 1 0 0)"/><line style="stroke:none;stroke-width:8" id="line38" x1="263" x2="295" y1="202" y2="202" transform="matrix(1 0 0 1 0 0)"/></svg>