<svg xmlns="http://www.w3.org/2000/svg" xmlns:svg="http://www.w3.org/2000/svg" id="svg2" width="400" height="400" version="1.1" viewBox="0 0 400 400"><metadata id="metadata32"/><g id="g4" transform="matrix(100,0,0,100,73.3333,79.3333)" style="fill:#000"><path style="fill:#fff;stroke:#fff;stroke-width:.06;stroke-miterlimit:4;stroke-opacity:1;stroke-dasharray:.12,.06;stroke-dashoffset:0" id="path6" d="m 0.754035,0.616189 0.090409,0 0,0.670071 0.207406,0 0,-0.670071 0.08508,0 0,0.12763 C 1.14364,0.73891 1.16884,0.711126 1.16884,0.701276 l 0,-0.116996 -0.1489,0 0,0.67007 -0.14891,0 0,-0.67007 -0.143583,0 0,0.67007 -0.122315,0 0,0.76579 1.281638,0 0,-0.71793 C 1.87782,1.30821 1.86019,1.32635 1.86019,1.33944 l 0,0.64347 -1.228464,0 0,-0.69665 0.122311,0 0,-0.670071 z"/><path style="fill:#fff" id="path8" d="m 1.13693,1.28626 0.08509,0 C 1.21849,1.2711 1.2138,1.25435 1.19543,1.25435 l -0.02659,0 0,-0.06381 c 0,-0.02163 -0.02099,-0.05657 -0.03191,-0.06914 z"/><path style="fill:#fff;stroke:#fff;stroke-width:.06;stroke-miterlimit:4;stroke-opacity:1;stroke-dasharray:.12,.06;stroke-dashoffset:0" id="path10" d="m 1.48261,0.66937 c 0,-0.080701 0.07977,-0.173791 0.07977,-0.21272 0,-0.032118 -0.01779,-0.097402 -0.04255,-0.106362 0,0.166413 -0.20208,0.300535 -0.20208,0.366941 l 0,0.010638 c 0,0.016437 0.04514,0.122492 0.05325,0.154146 C 1.38131,0.922249 1.40486,1.01269 1.40816,1.05226 1.26421,1.04906 1.23798,0.822029 1.16885,0.77573 L 1.1623,0.844734 1.16353,0.951222 c 0,0.109408 0.07869,0.267428 0.13153,0.325818 0.02329,0.02573 0.09729,0.08554 0.12901,0.09967 0.02007,0.00893 0.14663,0.06909 0.15426,0.06909 0.03385,0 0.21507,-0.16969 0.24605,-0.20067 0.05879,-0.05879 0.0943,-0.22436 0.0943,-0.347085 l 0,-0.015957 L 1.90201,0.748434 C 1.87956,0.762221 1.85245,0.880517 1.83722,0.912296 1.80179,0.986201 1.79612,0.984638 1.71128,1.0044 1.70492,0.718859 1.8672,0.810496 1.64747,0.557689 1.64747,0.671665 1.62555,0.741992 1.55174,0.781047 1.51999,0.764248 1.48261,0.716846 1.48261,0.66937 z"/><polygon style="fill:#fff" id="polygon12" points=".898 1.595 .898 1.451 .765 1.451 .765 1.595"/><polygon style="fill:#fff" id="polygon14" points="1.185 1.595 1.185 1.451 1.047 1.451 1.047 1.595"/><polygon style="fill:#fff" id="polygon16" points="1.472 1.595 1.472 1.451 1.328 1.451 1.328 1.595"/><path style="fill:#fff" id="path18" d="m 1.61024,1.5947 0.14359,0 0,-0.14359 -0.0585,0 c -0.02819,0 -0.05838,0.03542 -0.08509,0.04255 z"/><polygon style="fill:#fff" id="polygon20" points=".898 1.845 .898 1.706 .765 1.706 .765 1.845"/><polygon style="fill:#fff" id="polygon22" points="1.185 1.845 1.185 1.706 1.047 1.706 1.047 1.845"/><polygon style="fill:#fff" id="polygon24" points="1.472 1.845 1.472 1.706 1.328 1.706 1.328 1.845"/><polygon style="fill:#fff" id="polygon26" points="1.754 1.845 1.754 1.706 1.61 1.706 1.61 1.845"/></g></svg>