<svg xmlns:xlink="http://www.w3.org/1999/xlink" width="400" height="400" viewBox="0 0 400 400"><g transform="scale(120) translate(0.391667 0.55) translate(-0.0333333 0)"><polygon points=".808 1.157 .948 1.157 .948 .809 .808 .809" style="fill:#fff"/><polygon points="1.713 1.157 1.783 1.157 1.783 1.053 1.713 1.053" style="fill:#fff"/><polygon points=".6 1.296 1.922 1.296 1.922 1.227 .6 1.227" style="fill:#fff"/><polygon points="1.713 1.471 1.783 1.471 1.783 1.366 1.713 1.366" style="fill:#fff"/><polygon points=".808 1.714 .948 1.714 .948 1.366 .808 1.366" style="fill:#fff"/><path d="M0.808362 1.36611 L0.947598 1.36611 L0.947598 1.7142 L0.808362 1.7142 zM1.78302 1.47054 L1.7134 1.47054 L1.7134 1.36611 L1.78302 1.36611 zM0.599506 1.29649 L0.599506 1.22687 L1.92225 1.22687 L1.92225 1.29649 zM1.78302 1.15726 L1.7134 1.15726 L1.7134 1.05283 L1.78302 1.05283 zM0.808362 0.809165 L0.947598 0.809165 L0.947598 1.15726 L0.808362 1.15726 zM0.738744 1.15726 L0.52989 1.15726 L0.52989 1.36611 L0.738744 1.36611 L0.738744 1.78382 L1.01722 1.78382 L1.01722 1.36611 L1.64378 1.36611 L1.64378 1.54016 L1.85263 1.54016 L1.85263 1.36611 L1.99187 1.36611 L1.99187 1.15726 L1.85263 1.15726 L1.85263 0.983213 L1.64378 0.983213 L1.64378 1.15726 L1.01722 1.15726 L1.01722 0.739547 L0.738744 0.739547 z" style="fill:#000"/></g><text style="fill:#000;font-family:arial;font-size:65;font-weight:700;text-anchor:middle" x="200" y="170" transform="translate(2.11846 -3.39014) scale(1 1) translate(-2.11846 3.39014) translate(139.44 63.52) scale(1 1) translate(-139.44 -63.52) translate(1 0) translate(1 0) translate(1 0) translate(1 0)">A</text></svg>