<svg xmlns:xlink="http://www.w3.org/1999/xlink" width="400" height="400" viewBox="0 0 400 400"><g><g transform="scale(100) translate(0.72 0.81) translate(0.005 -0.04) translate(-0.272 -0.248) translate(0.01 0) translate(0.01 0) translate(0.01 0) translate(0.01 0) translate(0 -0.01) translate(-0.01 0) translate(0 0.01) translate(0.01 0) translate(0 0.01) translate(-0.01 0) translate(0 -0.01) scale(1.2)"><polygon points="1.617 .558 1.364 .891 1.322 .447 1.219 .756 1.102 .574 1.07 .923 .842 .663 .921 .959 .619 .944 .617 .949 .897 1.152 .42 1.183 .835 1.304 .836 1.311 .544 1.48 .545 1.484 .923 1.439 .802 1.647 1.025 1.554 .944 1.897 1.155 1.622 1.271 2.064 1.279 2.064 1.302 1.62 1.527 1.894 1.448 1.533 1.708 1.677 1.55 1.488 1.939 1.599 1.684 1.363 2.013 1.313 1.638 1.21 2.08 .985 1.681 1.021 1.843 .761 1.495 .95" style="fill:#000"/></g></g><g transform="scale(100) translate(0.72 0.81) translate(0.005 -0.04)"><polygon points="1.617 .558 1.364 .891 1.322 .447 1.219 .756 1.102 .574 1.07 .923 .842 .663 .921 .959 .619 .944 .617 .949 .897 1.152 .42 1.183 .835 1.304 .836 1.311 .544 1.48 .545 1.484 .923 1.439 .802 1.647 1.025 1.554 .944 1.897 1.155 1.622 1.271 2.064 1.279 2.064 1.302 1.62 1.527 1.894 1.448 1.533 1.708 1.677 1.55 1.488 1.939 1.599 1.684 1.363 2.013 1.313 1.638 1.21 2.08 .985 1.681 1.021 1.843 .761 1.495 .95" style="fill:#fff"/></g><text style="fill:#000;font-family:Arial;font-size:81;font-weight:700;text-anchor:middle" x="200" y="232">?</text></svg>