<svg xmlns="http://www.w3.org/2000/svg" xmlns:svg="http://www.w3.org/2000/svg" id="svg2" width="400" height="400" version="1.1" viewBox="0 0 400 400"><metadata id="metadata18"/><g id="g4" transform="translate(0,-30)" style="stroke:#000;stroke-width:6;stroke-miterlimit:4;stroke-opacity:1;stroke-dasharray:12,6;stroke-dashoffset:0"><ellipse style="fill:#000;stroke:#000;stroke-width:6;stroke-miterlimit:4;stroke-opacity:1;stroke-dasharray:12,6;stroke-dashoffset:0" id="ellipse6" cx="200" cy="230" d="m 280,230 c 0,44.18278 -35.81722,80 -80,80 -44.18278,0 -80,-35.81722 -80,-80 0,-44.18278 35.81722,-80 80,-80 44.18278,0 80,35.81722 80,80 z" rx="80" ry="80"/><polygon style="fill:#fff;stroke:#000;stroke-width:6;stroke-linejoin:bevel;stroke-miterlimit:4;stroke-opacity:1;stroke-dasharray:12,6;stroke-dashoffset:0" id="polygon8" points="131 270 200 150 269 270"/></g><g id="g10" transform="translate(0,-30)"><g style="font-size:80px;font-weight:700;text-anchor:middle;fill:#000;font-family:Times New Roman" id="text12"><path style="font-size:80px;font-weight:700;text-anchor:middle;fill:#000;font-family:Times New Roman" id="path2996" d="m 200.39062,195.78125 c 1.6927,5e-5 3.12499,0.5925 4.29688,1.77734 1.17186,1.18495 1.75779,2.61073 1.75781,4.27735 -2e-5,1.66671 -0.59246,3.08598 -1.77734,4.25781 -1.18491,1.17192 -2.61069,1.75785 -4.27735,1.75781 -1.66667,4e-5 -3.08594,-0.58589 -4.25781,-1.75781 -1.17188,-1.17183 -1.75782,-2.5911 -1.75781,-4.25781 -1e-5,-1.66662 0.58593,-3.0924 1.75781,-4.27735 1.17187,-1.18484 2.59114,-1.77729 4.25781,-1.77734 z m 5.46875,17.69531 0,28.94531 c -1e-5,2.57813 0.29947,4.22527 0.89844,4.94141 0.59894,0.71615 1.77082,1.1263 3.51563,1.23047 l 0,1.40625 -19.72657,0 0,-1.40625 c 1.61459,-0.0521 2.8125,-0.52083 3.59375,-1.40625 0.52083,-0.59895 0.78125,-2.1875 0.78125,-4.76563 l 0,-21.32812 c 0,-2.57809 -0.29948,-4.22523 -0.89843,-4.94141 -0.59897,-0.71611 -1.75782,-1.12626 -3.47657,-1.23047 l 0,-1.44531 z"/></g></g></svg>