<svg xmlns="http://www.w3.org/2000/svg" xmlns:svg="http://www.w3.org/2000/svg" id="svg2" width="400" height="400" version="1.1" viewBox="0 0 400 400"><metadata id="metadata32"/><g id="g4" transform="scale(140) translate(0.185714 0.185714)"><path style="fill:#fff;stroke-width:.04285714;stroke-miterlimit:4;stroke-dasharray:.08571429,.04285714;stroke:#000;stroke-opacity:1;stroke-dashoffset:0" id="path6" d="M1.21083 0.670409 L1.17467 0.670409 L1.17467 0.70657 L1.1602 0.70657 C1.06713 0.70657 0.983035 0.79659 0.975594 0.880428 L1.13841 0.871188 L1.13489 0.872913 L1.31211 0.872023 L1.4965 0.876527 C1.49304 0.834928 1.45506 0.781393 1.43059 0.758019 C1.3926 0.721731 1.35544 0.716424 1.29761 0.702956 L1.29761 0.670409 L1.26146 0.670409 L1.26146 0.601704 L1.21083 0.601704 z"/><path style="fill:#fff;stroke-width:.04285714;stroke-miterlimit:4;stroke-dasharray:.08571429,.04285714;stroke:#000;stroke-opacity:1;stroke-dashoffset:0" id="path8" d="M1.22891 0.97778 L1.25785 0.976867 L1.53989 0.981394 C1.56482 0.964709 1.56063 0.969918 1.55798 0.938 C1.47794 0.919355 1.14953 0.909622 1.05611 0.924304 C1.02061 0.929886 0.970673 0.925689 0.932603 0.930981 C0.902677 0.935138 0.886772 0.981559 0.964933 0.981394 C1.05585 0.981205 1.13646 0.97778 1.22891 0.97778 z"/><path style="fill:#fff;stroke-width:.04285714;stroke-miterlimit:4;stroke-dasharray:.08571429,.04285714;stroke:#000;stroke-opacity:1;stroke-dashoffset:0" id="path10" d="M1.19637 1.30323 C1.20276 1.31277 1.21079 1.33577 1.22168 1.33577 L1.247 1.33577 C1.25624 1.33577 1.27231 1.30786 1.27231 1.30684 C1.27231 1.29417 1.25864 1.27068 1.247 1.27068 L1.22168 1.27068 C1.21079 1.27068 1.20276 1.29369 1.19637 1.30323 z"/><path style="fill:#000;stroke-width:.04285714;stroke-miterlimit:4;stroke-dasharray:.08571429,.04285714;stroke:#000;stroke-opacity:1;stroke-dashoffset:0" id="path12" d="M1.19637 1.30323 C1.20276 1.29369 1.21079 1.27068 1.22168 1.27068 L1.247 1.27068 C1.25864 1.27068 1.27231 1.29417 1.27231 1.30684 C1.27231 1.30786 1.25624 1.33577 1.247 1.33577 L1.22168 1.33577 C1.21079 1.33577 1.20276 1.31277 1.19637 1.30323 zM1.14574 1.30323 L1.18552 1.37917 L1.27592 1.37917 C1.28845 1.37917 1.31849 1.31527 1.32662 1.30319 L1.28316 1.22367 L1.19637 1.22367 C1.18247 1.22367 1.15304 1.28944 1.14574 1.30323 z"/><polygon style="fill:#fff;stroke-width:.04285714;stroke-miterlimit:4;stroke-dasharray:.08571429,.04285714;stroke:#000;stroke-opacity:1;stroke-dashoffset:0" id="polygon14" points=".762 1.245 .701 1.245 .701 1.314 .762 1.314 .762 1.433 .813 1.433 .813 1.126 .762 1.126"/><polygon style="fill:#fff;stroke-width:.04285714;stroke-miterlimit:4;stroke-dasharray:.08571429,.04285714;stroke:#000;stroke-opacity:1;stroke-dashoffset:0" id="polygon16" points="1.656 1.433 1.71 1.433 1.71 1.314 1.768 1.314 1.768 1.245 1.71 1.245 1.71 1.126 1.656 1.126"/><path style="fill:#fff;stroke-width:.04285714;stroke-miterlimit:4;stroke-dasharray:.08571429,.04285714;stroke:#000;stroke-opacity:1;stroke-dashoffset:0" id="path18" d="M1.14574 1.30323 C1.15304 1.28944 1.18247 1.22367 1.19637 1.22367 L1.28315 1.22367 L1.32662 1.30319 C1.31848 1.31527 1.28844 1.37917 1.27592 1.37917 L1.18552 1.37917 zM1.21444 1.46595 L1.25784 1.46595 C1.3298 1.46595 1.40197 1.37909 1.40197 1.30323 C1.40197 1.22493 1.32925 1.14051 1.25422 1.14051 L1.21806 1.14051 C1.14433 1.14051 1.07237 1.22225 1.06964 1.29972 C1.0669 1.37737 1.14388 1.46595 1.21444 1.46595 z"/><path style="fill:#000;stroke-width:.04285714;stroke-miterlimit:4;stroke-dasharray:.08571429,.04285714;stroke:#000;stroke-opacity:1;stroke-dashoffset:0" id="path20" d="M1.21445 1.46595 C1.14388 1.46595 1.06691 1.37736 1.06964 1.29972 C1.07237 1.22225 1.14434 1.1405 1.21807 1.1405 L1.25423 1.1405 C1.32925 1.1405 1.40198 1.22492 1.40198 1.30323 C1.40198 1.37908 1.32981 1.46595 1.25784 1.46595 zM1.02642 1.28876 L1.02642 1.3213 C1.02642 1.41359 1.12271 1.51296 1.21445 1.51296 L1.25784 1.51296 C1.35761 1.51296 1.4495 1.40874 1.4495 1.30323 C1.4495 1.19588 1.35579 1.09349 1.25423 1.09349 L1.21807 1.09349 C1.12157 1.09349 1.02641 1.19122 1.02641 1.28876 z"/><path style="fill:#fff;stroke-width:.04285714;stroke-miterlimit:4;stroke-dasharray:.08571429,.04285714;stroke:#000;stroke-opacity:1;stroke-dashoffset:0" id="path22" d="M1.02641 1.28876 C1.02641 1.19122 1.12156 1.09349 1.21806 1.09349 L1.25422 1.09349 C1.35578 1.09349 1.44949 1.19588 1.44949 1.30322 C1.44949 1.40874 1.35761 1.51296 1.25784 1.51296 L1.21445 1.51296 C1.1227 1.51296 1.02641 1.41359 1.02641 1.3213 zM0.975768 1.02796 L0.975784 1.17666 L0.863686 1.17666 L0.863686 1.39001 L0.975784 1.39001 L0.974804 1.69805 L0.892615 1.72631 C0.911426 1.75198 1.11516 1.78417 1.17828 1.78417 L1.294 1.78417 C1.35826 1.78417 1.55612 1.75352 1.57651 1.72493 L1.4965 1.70099 L1.4965 1.39001 L1.6086 1.39001 L1.6086 1.17666 L1.4965 1.17666 L1.49652 1.02796 L1.27592 1.02117 L1.19631 1.01973 L0.975769 1.02796 z"/><path style="fill:#fff;stroke-width:.04285714;stroke-miterlimit:4;stroke-dasharray:.08571429,.04285714;stroke:#000;stroke-opacity:1;stroke-dashoffset:0" id="path26" d="M1.17829 1.83479 C1.11914 1.83479 1.06557 1.82632 1.01582 1.81646 C0.980605 1.80948 0.90129 1.77886 0.878157 1.77694 L0.878157 1.79501 C0.878157 1.84581 1.10527 1.87457 1.17829 1.87457 L1.29401 1.87457 C1.36728 1.87457 1.59053 1.84632 1.59053 1.79501 L1.59053 1.77694 C1.56851 1.77877 1.48921 1.80923 1.45287 1.81646 C1.40308 1.82637 1.35369 1.83479 1.29401 1.83479 z"/></g></svg>