<svg xmlns="http://www.w3.org/2000/svg" xmlns:svg="http://www.w3.org/2000/svg" id="svg2" width="400" height="400" version="1.1" viewBox="0 0 400 400"><metadata id="metadata18"/><g id="g4" transform="scale(100) translate(0.74 0.63)" style="stroke:#000;stroke-opacity:1;stroke-width:.06;stroke-miterlimit:4;stroke-dasharray:.12,.06;stroke-dashoffset:0;fill:#fff;fill-opacity:1"><path style="fill:#fff;stroke:#000;stroke-opacity:1;stroke-width:.06;stroke-miterlimit:4;stroke-dasharray:.12,.06;stroke-dashoffset:0;fill-opacity:1" id="path6" d="M1.10993 1.0681 C1.10993 1.05171 1.12942 1.02826 1.1418 1.02826 L1.38481 1.02826 C1.39627 1.02826 1.41668 1.06377 1.41668 1.07208 L1.41668 1.08802 C1.41668 1.11034 1.38481 1.10548 1.38481 1.12387 L1.38481 1.25135 C1.38481 1.26343 1.6318 1.59506 1.6318 1.62183 L1.6318 1.70549 C1.6318 1.78202 1.46326 1.84891 1.37684 1.84891 L1.14977 1.84891 C1.09872 1.84891 1.02488 1.83092 0.993583 1.80989 C0.970977 1.7947 0.894811 1.73852 0.894811 1.70947 L0.894811 1.67362 C0.894811 1.61258 0.984441 1.49752 1.01245 1.44866 C1.02936 1.41915 1.13782 1.24875 1.13782 1.23143 L1.13782 1.12387 C1.13782 1.10535 1.10993 1.1089 1.10993 1.0681 zM1.37684 0.968506 L0.512374 0.968506 L0.512374 1.89273 L2.01423 1.89273 L2.01423 0.968506 L1.84692 0.968506 L1.84692 0.633876 L1.73538 0.633876 L1.73538 0.968506 L1.48838 0.968506 L1.48838 0.633876 L1.37684 0.633876 z"/><path style="fill:#fff;stroke:#000;stroke-opacity:1;stroke-width:.06;stroke-miterlimit:4;stroke-dasharray:.12,.06;stroke-dashoffset:0;fill-opacity:1" id="path8" d="m 0.48448,1.92459 1.55763,0 0,-0.987957 -0.15935,0 0,-0.33463 -0.17926,0 0,0.33463 -0.17927,0 0,-0.33463 -0.17927,0 0,0.33463 -0.86048,0 z"/></g><text style="fill:#000;font-family:arial;font-size:85;font-weight:700;text-anchor:middle" id="text12" x="200" y="235">$</text></svg>