<svg xmlns="http://www.w3.org/2000/svg" xmlns:svg="http://www.w3.org/2000/svg" id="svg2" width="400" height="400" version="1.1" viewBox="0 0 400 400"><metadata id="metadata20"/><g id="g4" transform="scale(100) translate(0.74 0.65)" style="stroke:#000;stroke-opacity:1;stroke-width:.06;stroke-miterlimit:4;stroke-dasharray:.12,.06;stroke-dashoffset:0"><path style="fill:#000;stroke:#000;stroke-opacity:1;stroke-width:.06;stroke-miterlimit:4;stroke-dasharray:.12,.06;stroke-dashoffset:0" id="path6" d="M1.24822 0.881551 C1.4341 0.881551 1.82444 0.770602 1.89119 0.670925 C1.82155 0.634075 1.26393 0.271842 1.25931 0.271842 C1.2488 0.271842 0.636567 0.656417 0.621878 0.676468 C0.685973 0.763948 1.03643 0.881551 1.20388 0.881551 z"/><path style="fill:#000;stroke:#000;stroke-opacity:1;stroke-width:.06;stroke-miterlimit:4;stroke-dasharray:.12,.06;stroke-dashoffset:0" id="path8" d="M1.71382 1.77949 L1.72491 1.91252 L1.74171 2.23399 L1.81359 2.234 C1.81359 2.08221 1.78532 1.91919 1.78587 1.76841 C1.78618 1.68378 1.77612 1.61233 1.775 1.52985 C1.77318 1.39497 1.78093 1.45393 1.8413 1.36378 L1.83434 1.28632 L1.83576 1.25847 L1.73045 1.25847 L1.73045 0.853836 C1.66845 0.868277 1.5986 0.899072 1.52315 0.918139 C1.45924 0.934289 1.36153 0.953607 1.28702 0.953607 L1.22605 0.953607 C1.03722 0.953607 0.921536 0.887489 0.777079 0.853836 L0.777079 1.25847 L0.671764 1.25847 L0.671764 1.27509 L0.665233 1.36924 L0.745052 1.46259 L0.694898 2.23406 L0.771536 2.234 L0.771536 2.15086 L0.806292 1.60776 C0.819788 1.6177 0.859422 1.67614 0.881013 1.69773 C0.903583 1.7203 0.941745 1.75245 0.968768 1.77071 C1.02395 1.808 1.10734 1.86707 1.18725 1.87372 L1.18725 2.234 L1.32582 2.234 L1.32582 1.87372 C1.41873 1.85208 1.48013 1.81732 1.54603 1.7669 C1.58082 1.74029 1.60143 1.7228 1.63205 1.69218 C1.64885 1.67538 1.69365 1.61295 1.70828 1.60766 L1.70828 1.68526 z"/><line id="line10" x1=".777" x2=".778" y1=".854" y2=".775" style="stroke:#000;stroke-opacity:1;stroke-width:.06;stroke-miterlimit:4;stroke-dasharray:.12,.06;stroke-dashoffset:0"/><line id="line12" x1="1.73" x2="1.73" y1=".854" y2=".772" style="stroke:#000;stroke-opacity:1;stroke-width:.06;stroke-miterlimit:4;stroke-dasharray:.12,.06;stroke-dashoffset:0"/><path style="fill:#fff;stroke:#000;stroke-opacity:1;stroke-width:.06;stroke-miterlimit:4;stroke-dasharray:.12,.06;stroke-dashoffset:0" id="path14" d="M1.20388 0.881551 C1.09597 0.881551 0.912061 0.832712 0.777762 0.774567 L0.777081 0.853835 C0.921538 0.887488 1.03722 0.953606 1.22605 0.953606 L1.28702 0.953606 C1.36153 0.953606 1.45924 0.934287 1.52315 0.918138 C1.59861 0.899071 1.66846 0.868276 1.73045 0.853835 L1.73037 0.772225 C1.58144 0.833496 1.37056 0.881552 1.24822 0.881552 z"/></g></svg>