<svg xmlns="http://www.w3.org/2000/svg" xmlns:svg="http://www.w3.org/2000/svg" id="svg2" width="400" height="400" version="1.1" viewBox="0 0 400 400"><metadata id="metadata22"/><g id="g4" transform="matrix(100,0,0,100,74,63)" style="fill:#fff;fill-opacity:1;stroke:#000;stroke-width:.06;stroke-miterlimit:4;stroke-opacity:1;stroke-dasharray:.12,.06;stroke-dashoffset:0"><path style="fill:#fff;fill-opacity:1;stroke:#000;stroke-width:.06;stroke-miterlimit:4;stroke-opacity:1;stroke-dasharray:.12,.06;stroke-dashoffset:0" id="path6" d="m 1.10993,1.0681 c 0,-0.01639 0.01949,-0.03984 0.03187,-0.03984 l 0.24301,0 c 0.01146,0 0.03187,0.03551 0.03187,0.04382 l 0,0.01594 c 0,0.02232 -0.03187,0.01746 -0.03187,0.03585 l 0,0.12748 c 0,0.01208 0.24699,0.34371 0.24699,0.37048 l 0,0.08366 c 0,0.07653 -0.16854,0.14342 -0.25496,0.14342 l -0.22707,0 C 1.09872,1.84891 1.02488,1.83092 0.993583,1.80989 0.970977,1.7947 0.894811,1.73852 0.894811,1.70947 l 0,-0.03585 c 0,-0.06104 0.08963,-0.1761 0.117639,-0.22496 C 1.02936,1.41915 1.13782,1.24875 1.13782,1.23143 l 0,-0.10756 C 1.13782,1.10535 1.10993,1.1089 1.10993,1.0681 z m 0.26691,-0.099594 -0.864466,0 0,0.924224 1.501856,0 0,-0.924224 -0.16731,0 0,-0.33463 -0.11154,0 0,0.33463 -0.247,0 0,-0.33463 -0.11154,0 z"/><path style="fill:#fff;fill-opacity:1;stroke:#000;stroke-width:.06;stroke-miterlimit:4;stroke-opacity:1;stroke-dasharray:.12,.06;stroke-dashoffset:0" id="path8" d="m 0.48448,1.92459 1.55763,0 0,-0.987957 -0.15935,0 0,-0.33463 -0.17926,0 0,0.33463 -0.17927,0 0,-0.33463 -0.17927,0 0,0.33463 -0.86048,0 z"/></g><g id="g12" transform="scale(90) translate(1.02222 0.988889)"><path style="fill:#fff" id="path14" d="M1.05415 1.24589 C1.08652 1.24859 1.15801 1.28049 1.19202 1.29136 C1.22428 1.30167 1.31008 1.27272 1.3537 1.27272 L1.3537 1.11176 L1.05415 1.11176 z"/><path style="fill:#000" id="path16" d="M1.05415 1.11176 L1.3537 1.11176 L1.3537 1.27271 C1.31008 1.27271 1.22428 1.30167 1.19202 1.29136 C1.15801 1.28049 1.08652 1.24858 1.05415 1.24589 zM0.522119 1.11176 L0.982619 1.11176 L0.982619 1.27719 C0.982619 1.29383 1.06546 1.3157 1.08406 1.32328 C1.09384 1.32728 1.19248 1.36217 1.19307 1.36461 L1.39225 1.34028 L1.41371 1.41517 L1.44312 1.51861 C1.45046 1.52957 1.46994 1.58506 1.46994 1.60356 L1.46994 1.60803 C1.46994 1.63952 1.45206 1.66122 1.45206 1.70639 L1.82792 1.70629 L1.80233 1.62225 L1.78689 1.57383 L1.70243 1.29507 C1.69589 1.28531 1.68901 1.27602 1.68901 1.2593 C1.68901 1.22437 1.79677 1.14446 1.8183 1.11189 L1.74266 0.87928 L0.522122 0.87928 L0.522122 1.11176 z"/></g></svg>