<svg xmlns="http://www.w3.org/2000/svg" xmlns:svg="http://www.w3.org/2000/svg" id="svg2" width="400" height="400" version="1.1" viewBox="0 0 400 400"><metadata id="metadata20"/><g id="g4" transform="matrix(120,0,0,120,67.66644,38.66664)" style="stroke:#000;stroke-width:.05;stroke-miterlimit:4;stroke-opacity:1;stroke-dasharray:.1,.05;stroke-dashoffset:0"><path style="fill:none;stroke:#000;stroke-width:.05;stroke-miterlimit:4;stroke-opacity:1;stroke-dasharray:.1,.05;stroke-dashoffset:0" id="path6" d="M 1.05415,1.24589 C 1.08652,1.24859 1.15801,1.28049 1.19202,1.29136 1.22428,1.30167 1.31008,1.27272 1.3537,1.27272 l 0,-0.16096 -0.29955,0 z"/><path style="fill:#000;stroke:#000;stroke-width:.05;stroke-miterlimit:4;stroke-opacity:1;stroke-dasharray:.1,.05;stroke-dashoffset:0" id="path8" d="m 1.05415,1.11176 0.29955,0 0,0.16095 c -0.04362,0 -0.12942,0.02896 -0.16168,0.01865 C 1.15801,1.28049 1.08652,1.24858 1.05415,1.24589 z m -0.532031,0 0.4605,0 0,0.16543 c 0,0.01664 0.082841,0.03851 0.101441,0.04609 0.00978,0.004 0.10842,0.03889 0.10901,0.04133 L 1.39225,1.34028 1.41371,1.41517 1.44312,1.51861 c 0.00734,0.01096 0.02682,0.06645 0.02682,0.08495 l 0,0.00447 c 0,0.03149 -0.01788,0.05319 -0.01788,0.09836 L 1.82792,1.70629 1.80233,1.62225 1.78689,1.57383 1.70243,1.29507 C 1.69589,1.28531 1.68901,1.27602 1.68901,1.2593 c 0,-0.03493 0.10776,-0.11484 0.12929,-0.14741 l -0.07564,-0.23261 -1.220538,0 0,0.23248 z"/></g><path style="fill:#fff;stroke:#000;stroke-width:4;stroke-dasharray:10" id="path10" d="m 213.778,223.339 -20.889,-16.445 -78.222,-0.888 0.889,64.888 80.444,-0.444 18.222,-21.778 z"/><line style="stroke:#000;stroke-width:2;stroke-dasharray:10" id="line12" x1="201" x2="221" y1="240" y2="188"/><text style="font-size:55px;font-weight:700;fill:#000;font-family:Arial" id="text14" x="145" y="258">$</text></svg>