<svg xmlns="http://www.w3.org/2000/svg" xmlns:svg="http://www.w3.org/2000/svg" id="svg2" width="400" height="400" version="1.1" viewBox="0 0 400 400"><metadata id="metadata36"/><g id="g4" transform="matrix(100,0,0,100,75,89)" style="fill:#fff;fill-opacity:1;stroke:#fff;stroke-width:.06;stroke-miterlimit:4;stroke-opacity:1;stroke-dasharray:.12,.06;stroke-dashoffset:0"><path style="fill:#fff;fill-opacity:1;stroke:#fff;stroke-width:.06;stroke-miterlimit:4;stroke-opacity:1;stroke-dasharray:.12,.06;stroke-dashoffset:0" id="path6" d="m 1.1116,1.10947 0.2748,0.00182 c 0.01507,0 0.16105,-0.221993 0.1757,-0.249678 l -0.623264,-6.5e-4 z"/><polygon style="fill:#fff;fill-opacity:1;stroke:#fff;stroke-width:.06;stroke-miterlimit:4;stroke-opacity:1;stroke-dasharray:.12,.06;stroke-dashoffset:0" id="polygon8" points=".948 1.209 .975 1.19 .813 .936 .781 .951"/><polygon style="fill:#fff;fill-opacity:1;stroke:#fff;stroke-width:.06;stroke-miterlimit:4;stroke-opacity:1;stroke-dasharray:.12,.06;stroke-dashoffset:0" id="polygon10" points="1.564 1.207 1.724 .95 1.693 .937 1.528 1.193"/><polygon style="fill:#fff;fill-opacity:1;stroke:#fff;stroke-width:.06;stroke-miterlimit:4;stroke-opacity:1;stroke-dasharray:.12,.06;stroke-dashoffset:0" id="polygon12" points="1.423 1.25 1.423 1.208 1.077 1.208 1.077 1.25"/><polygon style="fill:#fff;fill-opacity:1;stroke:#fff;stroke-width:.06;stroke-miterlimit:4;stroke-opacity:1;stroke-dasharray:.12,.06;stroke-dashoffset:0" id="polygon14" points=".837 1.362 .871 1.346 .628 .958 .596 .978"/><path style="fill:#fff;fill-opacity:1;stroke:#fff;stroke-width:.06;stroke-miterlimit:4;stroke-opacity:1;stroke-dasharray:.12,.06;stroke-dashoffset:0" id="path16" d="m 1.6407,1.33786 c 0,0.01497 0.01617,0.017 0.02696,0.02262 L 1.908,0.974214 1.87652,0.95871 C 1.86288,1.00977 1.6407,1.32217 1.6407,1.33786 z"/><polygon style="fill:#fff;fill-opacity:1;stroke:#fff;stroke-width:.06;stroke-miterlimit:4;stroke-opacity:1;stroke-dasharray:.12,.06;stroke-dashoffset:0" id="polygon18" points="1.557 1.407 1.557 1.366 .947 1.366 .947 1.407"/><polygon style="fill:#fff;fill-opacity:1;stroke:#fff;stroke-width:.06;stroke-miterlimit:4;stroke-opacity:1;stroke-dasharray:.12,.06;stroke-dashoffset:0" id="polygon20" points=".725 1.504 .76 1.484 .442 .981 .409 1.002"/><path style="fill:#fff;fill-opacity:1;stroke:#fff;stroke-width:.06;stroke-miterlimit:4;stroke-opacity:1;stroke-dasharray:.12,.06;stroke-dashoffset:0" id="path22" d="m 1.75168,1.48119 c 0,0.00417 0.02352,0.02029 0.02673,0.02247 L 2.09898,1.00232 2.10457,1.00254 2.06609,0.981827 C 2.03406,1.04236 1.75168,1.4654 1.75168,1.48119 z"/><polygon style="fill:#fff;fill-opacity:1;stroke:#fff;stroke-width:.06;stroke-miterlimit:4;stroke-opacity:1;stroke-dasharray:.12,.06;stroke-dashoffset:0" id="polygon24" points="1.692 1.56 1.692 1.518 .818 1.518 .818 1.56"/><path style="fill:#fff;fill-opacity:1;stroke:#fff;stroke-width:.06;stroke-miterlimit:4;stroke-opacity:1;stroke-dasharray:.12,.06;stroke-dashoffset:0" id="path26" d="m 1.85848,1.62482 c 0.00594,0.00309 0.02425,0.01358 0.03191,0.01358 0.00483,0 0.36142,-0.56087 0.39789,-0.6156 L 2.25085,1.00945 z"/><polygon style="fill:#fff;fill-opacity:1;stroke:#fff;stroke-width:.06;stroke-miterlimit:4;stroke-opacity:1;stroke-dasharray:.12,.06;stroke-dashoffset:0" id="polygon28" points=".619 1.639 .646 1.625 .253 1.009 .226 1.024"/><polygon style="fill:#fff;fill-opacity:1;stroke:#fff;stroke-width:.06;stroke-miterlimit:4;stroke-opacity:1;stroke-dasharray:.12,.06;stroke-dashoffset:0" id="polygon30" points="1.816 1.717 1.816 1.68 .688 1.68 .688 1.717"/></g></svg>