<svg xmlns="http://www.w3.org/2000/svg" xmlns:svg="http://www.w3.org/2000/svg" id="svg2" width="400" height="400" version="1.1" viewBox="0 0 400 400"><metadata id="metadata22"/><polygon id="polygon6" points=".824 .677 .336 .677 .336 1.012 .824 1.012 .824 1.042 .891 1.042 .891 .648 .824 .648" transform="matrix(100,0,0,100,74,73)" style="fill:#fff;stroke:#000;stroke-width:.06;stroke-miterlimit:4;stroke-opacity:1;stroke-dasharray:.12,.06;stroke-dashoffset:0"/><path id="path8" d="m 173.9138,151.9902 -0.003,0.2921 c 20.2473,0 40.4233,3.0004 51.4733,12.1823 7.146,5.9378 7.716,11.2254 7.716,23.9264 0,10.211 1.322,20.847 11.167,20.847 l 1.861,0 c 4.278,0 7.074,-6.474 7.074,-10.796 l 0,-2.233 c 0,-12.756 -8.283,-26.7431 -14.798,-33.2238 -3.912,-3.8906 -8.846,-7.5292 -15.131,-9.0662 -5.413,-1.324 -15.103,-2.7535 -21.443,-2.7535 l -4.473,-0.1386 z" style="fill:#fff;stroke:#000;stroke-width:6;stroke-miterlimit:4;stroke-opacity:1;stroke-dasharray:12,6;stroke-dashoffset:0"/><path id="path14" d="m 107.6484,228.223 0,33.503 183.8946,0 0,-32.759 -7.786,1.323 -2.637,-0.206 c -5.56,0 -9.083,-1.737 -12.287,-4.092 -1.486,-1.092 -2.753,-2.767 -3.788,-4.401 -0.992,-1.565 -0.68,-5.28 -2.538,-5.28 l -1.117,0 c -1.962,0 -1.815,3.854 -2.969,5.593 -1.092,1.646 -2.215,3.088 -3.873,4.316 -3.215,2.381 -7.445,3.864 -12.887,3.864 l -2.234,0 c -7.891,0 -17.124,-5.278 -17.124,-12.656 -0.767,-0.514 -0.966,-1.117 -1.861,-1.117 l -0.744,0 c -1.786,0 -1.958,3.712 -2.842,5.348 -0.828,1.532 -2.5,3.388 -3.787,4.402 -2.996,2.362 -6.738,4.023 -11.984,4.023 l -2.234,0 c -8.767,0 -18.241,-5.271 -18.241,-13.401 -0.834,-0.195 -0.856,-0.372 -1.861,-0.372 l -0.744,0 c -1.413,0 -1.492,3.73 -2.675,5.515 -1.3666,2.06 -1.8335,2.81 -3.8709,4.319 -3.148,2.331 -6.7768,3.939 -12.0673,3.939 l -2.6059,0 c -8.7709,0 -16.8343,-5.447 -17.4961,-13.401 -0.8351,-0.195 -0.8559,-0.372 -1.8614,-0.372 l -0.3721,0 c -1.652,0 -1.924,3.781 -2.9878,5.574 -0.987,1.663 -2.2224,3.134 -3.8551,4.334 -3.448,2.534 -6.7142,3.865 -12.5146,3.865 l -2.6055,0 c -2.8445,0 -5.5929,-0.881 -7.4453,-1.861 z" style="fill:#fff;stroke:#000;stroke-width:6;stroke-miterlimit:4;stroke-opacity:1;stroke-dasharray:12,6;stroke-dashoffset:0"/></svg>