<svg xmlns="http://www.w3.org/2000/svg" xmlns:svg="http://www.w3.org/2000/svg" id="svg2" width="400" height="400" version="1.1" viewBox="0 0 400 400"><metadata id="metadata20"/><path id="path2991" d="m 201.28199,160.51819 0,39.72515 15.03113,0 -42.26508,39.46278 68.32115,45.60733 -26.2708,-85.07011" style="fill:none;stroke:#fff;stroke-width:5.99999952;stroke-linecap:butt;stroke-linejoin:round;stroke-miterlimit:4;stroke-opacity:1;stroke-dasharray:12.0000001,5.9999995;stroke-dashoffset:7.1999994"/><path style="fill:none;stroke:#fff;stroke-width:5.99999952;stroke-linecap:butt;stroke-linejoin:round;stroke-miterlimit:4;stroke-opacity:1;stroke-dasharray:12.0000001,5.9999995;stroke-dashoffset:7.1999994" id="path2993" d="m 200.86255,200.24333 -15.03114,0 42.26508,39.46278 -68.32117,45.60733 26.27083,-85.07011"/><path id="path3763" d="m 190.05553,170.25742 22.77561,0" style="fill:none;stroke:#fff;stroke-width:5.99999952;stroke-linecap:butt;stroke-linejoin:round;stroke-miterlimit:4;stroke-opacity:1;stroke-dasharray:12.0000001,5.9999995;stroke-dashoffset:7.1999994"/><path style="fill:none;stroke:#fff;stroke-width:5.99999952;stroke-linecap:butt;stroke-linejoin:round;stroke-miterlimit:4;stroke-opacity:1;stroke-dasharray:12.0000001,5.9999995;stroke-dashoffset:7.1999994" id="path3765" d="m 185.95592,183.01175 30.13449,0"/><path style="fill:none;stroke:#fff;stroke-width:5.99999952;stroke-linecap:butt;stroke-linejoin:round;stroke-miterlimit:4;stroke-opacity:1;stroke-dasharray:11.9999988,5.9999994;stroke-dashoffset:0" id="path3781" d="M 139.23371,252.09576 A 79.24749,79.24749 0 0 1 181.52492,121.08563" transform="translate(5.8662084,-6.3990815)"/><path id="path3794" d="M 127.14271,234.63694 A 79.24749,79.24749 0 0 1 181.52492,121.08563" transform="matrix(0.6244821,0,0,0.6244821,78.378492,69.851179)" style="fill:none;stroke:#fff;stroke-width:9.60796165;stroke-linecap:butt;stroke-linejoin:round;stroke-miterlimit:4;stroke-opacity:1;stroke-dasharray:19.21592308,9.60796154;stroke-dashoffset:0"/><path id="path3796" d="M 139.23371,252.09576 A 79.24749,79.24749 0 0 1 181.52492,121.08563" transform="matrix(-1.0000001,0,0,1.0000001,394.13381,-6.3990815)" style="fill:none;stroke:#fff;stroke-width:5.99999952;stroke-linecap:butt;stroke-linejoin:round;stroke-miterlimit:4;stroke-opacity:1;stroke-dasharray:11.9999988,5.9999994;stroke-dashoffset:0"/><path style="fill:none;stroke:#fff;stroke-width:9.60796165;stroke-linecap:butt;stroke-linejoin:round;stroke-miterlimit:4;stroke-opacity:1;stroke-dasharray:19.21592308,9.60796154;stroke-dashoffset:0" id="path3798" d="M 127.14271,234.63694 A 79.24749,79.24749 0 0 1 181.52492,121.08563" transform="matrix(-0.6244821,0,0,0.6244821,321.62151,69.851179)"/><path style="fill:none;stroke:#fff;stroke-width:5.99999952;stroke-linecap:butt;stroke-linejoin:round;stroke-miterlimit:4;stroke-opacity:1;stroke-dasharray:12.0000001,5.9999995;stroke-dashoffset:7.1999994" id="path3096" d="m 201.28199,160.51819 0,39.72515 15.03113,0 -42.26508,39.46278 68.32115,45.60733 -26.2708,-85.07011"/><path id="path3098" d="m 200.86255,200.24333 -15.03114,0 42.26508,39.46278 -68.32117,45.60733 26.27083,-85.07011" style="fill:none;stroke:#fff;stroke-width:5.99999952;stroke-linecap:butt;stroke-linejoin:round;stroke-miterlimit:4;stroke-opacity:1;stroke-dasharray:12.0000001,5.9999995;stroke-dashoffset:7.1999994"/><path style="fill:none;stroke:#fff;stroke-width:5.99999952;stroke-linecap:butt;stroke-linejoin:round;stroke-miterlimit:4;stroke-opacity:1;stroke-dasharray:12.0000001,5.9999995;stroke-dashoffset:7.1999994" id="path3100" d="m 190.05553,170.25742 22.77561,0"/><path id="path3102" d="m 185.95592,183.01175 30.13449,0" style="fill:none;stroke:#fff;stroke-width:5.99999952;stroke-linecap:butt;stroke-linejoin:round;stroke-miterlimit:4;stroke-opacity:1;stroke-dasharray:12.0000001,5.9999995;stroke-dashoffset:7.1999994"/><path id="path3104" d="M 139.23371,252.09576 A 79.24749,79.24749 0 0 1 181.52492,121.08563" transform="translate(5.8662084,-6.3990815)" style="fill:none;stroke:#fff;stroke-width:5.99999952;stroke-linecap:butt;stroke-linejoin:round;stroke-miterlimit:4;stroke-opacity:1;stroke-dasharray:11.9999988,5.9999994;stroke-dashoffset:0"/><path style="fill:none;stroke:#fff;stroke-width:9.60796165;stroke-linecap:butt;stroke-linejoin:round;stroke-miterlimit:4;stroke-opacity:1;stroke-dasharray:19.21592308,9.60796154;stroke-dashoffset:0" id="path3106" d="M 127.14271,234.63694 A 79.24749,79.24749 0 0 1 181.52492,121.08563" transform="matrix(0.6244821,0,0,0.6244821,78.378492,69.851179)"/><path style="fill:none;stroke:#fff;stroke-width:5.99999952;stroke-linecap:butt;stroke-linejoin:round;stroke-miterlimit:4;stroke-opacity:1;stroke-dasharray:11.9999988,5.9999994;stroke-dashoffset:0" id="path3108" d="M 139.23371,252.09576 A 79.24749,79.24749 0 0 1 181.52492,121.08563" transform="matrix(-1.0000001,0,0,1.0000001,394.13381,-6.3990815)"/><path id="path3110" d="M 127.14271,234.63694 A 79.24749,79.24749 0 0 1 181.52492,121.08563" transform="matrix(-0.6244821,0,0,0.6244821,321.62151,69.851179)" style="fill:none;stroke:#fff;stroke-width:9.60796165;stroke-linecap:butt;stroke-linejoin:round;stroke-miterlimit:4;stroke-opacity:1;stroke-dasharray:19.21592308,9.60796154;stroke-dashoffset:0"/></svg>