<svg xmlns:xlink="http://www.w3.org/1999/xlink" width="400" height="400" viewBox="0 0 400 400"><g transform="scale(100) translate(0.72 0.73)"><path d="M1.27335 1.85499 L0.761901 1.35689 L1.27338 0.857809 L1.78608 1.35832 zM1.4023 0.8361 L0.433122 0.8361 L0.433122 1.87227 L2.1169 1.87227 L2.1169 0.8361 L1.92932 0.8361 L1.92932 0.460935 L1.80426 0.460935 L1.80426 0.8361 L1.52736 0.8361 L1.52736 0.460935 L1.4023 0.460935 L1.4023 0.8361 z" style="fill:#fff"/><path d="M0.906547 1.24253 L0.906547 1.34972 L0.99587 1.34972 L0.99587 1.1532 C0.984102 1.16109 0.906547 1.23159 0.906547 1.24253 z" style="fill:#fff"/><polygon points="1.106 1.045 1.103 1.35 1.21 1.35 1.209 .942" style="fill:#fff"/><path d="M1.33531 1.34972 L1.4425 1.34972 L1.4425 1.05048 C1.4425 1.03946 1.34841 0.952067 1.33531 0.943291 z" style="fill:#fff"/><path d="M1.54969 1.34972 L1.63901 1.34972 L1.63901 1.25146 C1.63901 1.23439 1.63764 1.24984 1.6426 1.23896 L1.54969 1.1532 z" style="fill:#fff"/><polygon points="1.272 1.829 1.755 1.363 .79 1.363" style="fill:#fff"/><path d="M0.790134 1.36342 L1.75513 1.36312 L1.27167 1.82876 zM1.33531 0.94329 C1.34841 0.952066 1.4425 1.03946 1.4425 1.05048 L1.4425 1.34972 L1.33531 1.34972 zM1.20934 0.942373 L1.21025 1.34972 L1.10306 1.34972 L1.10605 1.04457 L1.20934 0.942372 zM0.906547 1.24253 C0.906547 1.23159 0.984102 1.16109 0.99587 1.1532 L0.99587 1.34972 L0.906547 1.34972 zM1.54969 1.1532 L1.6426 1.23895 C1.63764 1.24984 1.63901 1.23439 1.63901 1.25146 L1.63901 1.34972 L1.54969 1.34972 zM1.78608 1.35832 L1.27338 0.857813 L0.761902 1.35689 L1.27335 1.85499 z" style="fill:#000"/><path d="M1.4023 0.460933 L1.52736 0.460933 L1.52736 0.836098 L1.80426 0.836098 L1.80426 0.460933 L1.92932 0.460933 L1.92932 0.836098 L2.1169 0.836098 L2.1169 1.87227 L0.433122 1.87227 L0.433122 0.836098 L1.4023 0.836098 L1.4023 0.460933 zM0.40186 1.908 L2.14817 1.908 L2.14817 0.804833 L1.96952 0.804833 L1.96952 0.425203 L1.76854 0.425203 L1.76854 0.804833 L1.56756 0.804833 L1.56756 0.425203 L1.36658 0.425203 L1.36658 0.804833 L0.401863 0.804833 L0.401863 1.908 z" style="fill:#000"/></g></svg>