<svg xmlns="http://www.w3.org/2000/svg" xmlns:svg="http://www.w3.org/2000/svg" id="svg2" width="400" height="400" version="1.1" viewBox="0 0 400 400"><metadata id="metadata32"/><g id="g4" transform="scale(100) translate(0.733333 0.793333)" style="fill:#000"><path style="fill:#fff;stroke:#fff;stroke-opacity:1;stroke-width:.06;stroke-miterlimit:4;stroke-dasharray:.12,.06;stroke-dashoffset:0" id="path6" d="M0.754035 0.616189 L0.844444 0.616189 L0.844444 1.28626 L1.05185 1.28626 L1.05185 0.616189 L1.13693 0.616189 L1.13693 0.743819 C1.14364 0.73891 1.16884 0.711126 1.16884 0.701276 L1.16884 0.58428 L1.01994 0.58428 L1.01994 1.25435 L0.87103 1.25435 L0.87103 0.58428 L0.727447 0.58428 L0.727447 1.25435 L0.605132 1.25435 L0.605132 2.02014 L1.88677 2.02014 L1.88677 1.30221 C1.87782 1.30821 1.86019 1.32635 1.86019 1.33944 L1.86019 1.98291 L0.631726 1.98291 L0.631726 1.28626 L0.754037 1.28626 L0.754037 0.616189 z"/><path style="fill:#fff" id="path8" d="M1.13693 1.28626 L1.22202 1.28626 C1.21849 1.2711 1.2138 1.25435 1.19543 1.25435 L1.16884 1.25435 L1.16884 1.19054 C1.16884 1.16891 1.14785 1.13397 1.13693 1.1214 z"/><path style="fill:#fff;stroke:#fff;stroke-opacity:1;stroke-width:.06;stroke-miterlimit:4;stroke-dasharray:.12,.06;stroke-dashoffset:0" id="path10" d="M1.48261 0.66937 C1.48261 0.588669 1.56238 0.495579 1.56238 0.45665 C1.56238 0.424532 1.54459 0.359248 1.51983 0.350288 C1.51983 0.516701 1.31775 0.650823 1.31775 0.717229 L1.31775 0.727867 C1.31775 0.744304 1.36289 0.850359 1.371 0.882013 C1.38131 0.922249 1.40486 1.01269 1.40816 1.05226 C1.26421 1.04906 1.23798 0.822029 1.16885 0.77573 L1.1623 0.844734 L1.16353 0.951222 C1.16353 1.06063 1.24222 1.21865 1.29506 1.27704 C1.31835 1.30277 1.39235 1.36258 1.42407 1.37671 C1.44414 1.38564 1.5707 1.4458 1.57833 1.4458 C1.61218 1.4458 1.7934 1.27611 1.82438 1.24513 C1.88317 1.18634 1.91868 1.02077 1.91868 0.898045 L1.91868 0.882088 L1.90201 0.748434 C1.87956 0.762221 1.85245 0.880517 1.83722 0.912296 C1.80179 0.986201 1.79612 0.984638 1.71128 1.0044 C1.70492 0.718859 1.8672 0.810496 1.64747 0.557689 C1.64747 0.671665 1.62555 0.741992 1.55174 0.781047 C1.51999 0.764248 1.48261 0.716846 1.48261 0.66937 z"/><polygon style="fill:#fff" id="polygon12" points=".765 1.595 .898 1.595 .898 1.451 .765 1.451"/><polygon style="fill:#fff" id="polygon14" points="1.047 1.595 1.185 1.595 1.185 1.451 1.047 1.451"/><polygon style="fill:#fff" id="polygon16" points="1.328 1.595 1.472 1.595 1.472 1.451 1.328 1.451"/><path style="fill:#fff" id="path18" d="M1.61024 1.5947 L1.75383 1.5947 L1.75383 1.45111 L1.69533 1.45111 C1.66714 1.45111 1.63695 1.48653 1.61024 1.49366 z"/><polygon style="fill:#fff" id="polygon20" points=".765 1.845 .898 1.845 .898 1.706 .765 1.706"/><polygon style="fill:#fff" id="polygon22" points="1.047 1.845 1.185 1.845 1.185 1.706 1.047 1.706"/><polygon style="fill:#fff" id="polygon24" points="1.328 1.845 1.472 1.845 1.472 1.706 1.328 1.706"/><polygon style="fill:#fff" id="polygon26" points="1.61 1.845 1.754 1.845 1.754 1.706 1.61 1.706"/></g></svg>