<svg xmlns="http://www.w3.org/2000/svg" xmlns:svg="http://www.w3.org/2000/svg" id="svg2" width="400" height="400" version="1.1" viewBox="0 0 400 400"><metadata id="metadata50"/><g id="g4" transform="matrix(0.7,0,0,0.7,85.000299,28)" style="stroke:#000;stroke-width:8.5714283;stroke-miterlimit:4;stroke-opacity:1;stroke-dasharray:17.14285714,8.57142857;stroke-dashoffset:0"><ellipse style="fill:#000;stroke:#000;stroke-width:8.5714283;stroke-miterlimit:4;stroke-opacity:1;stroke-dasharray:17.14285714,8.57142857;stroke-dashoffset:0" id="ellipse6" cx="223" cy="186.5" d="m 250,186.5 c 0,36.72694 -12.08831,66.5 -27,66.5 -14.91169,0 -27,-29.77306 -27,-66.5 0,-36.72694 12.08831,-66.5 27,-66.5 14.91169,0 27,29.77306 27,66.5 z" rx="27" ry="66.5" transform="matrix(0.9753044,0.22086494,-0.22086494,0.9753044,40.867118,-36.394156)"/><ellipse style="fill:#000;stroke:#000;stroke-width:8.5714283;stroke-miterlimit:4;stroke-opacity:1;stroke-dasharray:17.14285714,8.57142857;stroke-dashoffset:0" id="ellipse8" cx="174" cy="144" d="m 208,144 c 0,22.09139 -15.22232,40 -34,40 -18.77768,0 -34,-17.90861 -34,-40 0,-22.09139 15.22232,-40 34,-40 18.77768,0 34,17.90861 34,40 z" rx="34" ry="40" transform="translate(-16,31)"/><rect style="fill:#000;stroke:#000;stroke-width:8.34745026;stroke-miterlimit:4;stroke-opacity:1;stroke-dasharray:16.6949005,8.34745025;stroke-dashoffset:0" id="rect10" width="107" height="62" x="82" y="184" transform="matrix(0.96064313,0.35567623,-0.35825708,0.96493723,91.816011,56.675512)"/><g id="g12" transform="matrix(0.94188754,0.33592834,-0.33592834,0.94188754,74.339719,63.557802)" style="stroke:#000;stroke-width:8.5714283;stroke-miterlimit:4;stroke-opacity:1;stroke-dasharray:17.14285714,8.57142857;stroke-dashoffset:0"><ellipse style="fill:#fff;stroke:#000;stroke-width:8.5714283;stroke-miterlimit:4;stroke-opacity:1;stroke-dasharray:17.14285714,8.57142857;stroke-dashoffset:0" id="ellipse14" cx="150" cy="240" d="m 206,240 c 0,11.04569 -25.07205,20 -56,20 -30.92795,0 -56,-8.95431 -56,-20 0,-11.04569 25.07205,-20 56,-20 30.92795,0 56,8.95431 56,20 z" rx="56" ry="20"/></g><g id="g16" transform="matrix(0.94188754,0.33592834,-0.33592834,0.94188754,70.339715,69.557802)" style="stroke:#000;stroke-width:8.5714283;stroke-miterlimit:4;stroke-opacity:1;stroke-dasharray:17.14285714,8.57142857;stroke-dashoffset:0"><ellipse style="fill:#000;stroke:#000;stroke-width:8.5714283;stroke-miterlimit:4;stroke-opacity:1;stroke-dasharray:17.14285714,8.57142857;stroke-dashoffset:0" id="ellipse18" cx="150" cy="240" d="m 206,240 c 0,11.04569 -25.07205,20 -56,20 -30.92795,0 -56,-8.95431 -56,-20 0,-11.04569 25.07205,-20 56,-20 30.92795,0 56,8.95431 56,20 z" rx="56" ry="20"/><ellipse style="fill:#fff;stroke:#000;stroke-width:8.5714283;stroke-miterlimit:4;stroke-opacity:1;stroke-dasharray:17.14285714,8.57142857;stroke-dashoffset:0" id="ellipse20" cx="149" cy="241" d="m 172,241 c 0,3.86599 -10.29745,7 -23,7 -12.70255,0 -23,-3.13401 -23,-7 0,-3.86599 10.29745,-7 23,-7 12.70255,0 23,3.13401 23,7 z" rx="23" ry="7"/></g><line style="stroke:#000;stroke-width:9.32971573;stroke-miterlimit:4;stroke-opacity:1;stroke-dasharray:18.65943195,9.32971598;stroke-dashoffset:0" id="line22" x1="135" x2="126" y1="240" y2="263" transform="matrix(0.87878768,0,0,0.960474,12.704572,18.464768)"/><line style="stroke:#000;stroke-width:8.5714283;stroke-miterlimit:4;stroke-opacity:1;stroke-dasharray:17.14285714,8.57142857;stroke-dashoffset:0" id="line24" x1="207" x2="202" y1="262" y2="277" transform="translate(-9,12.1667)"/><rect style="fill:#000;stroke:#000;stroke-width:8.5714283;stroke-miterlimit:4;stroke-opacity:1;stroke-dasharray:17.14285714,8.57142857;stroke-dashoffset:0" id="rect26" width="75" height="86" x="119" y="110" transform="matrix(0.94628209,0.32334223,-0.32334223,0.94628209,79.87821,27.615833)"/><ellipse style="fill:#000;stroke:#000;stroke-width:8.5714283;stroke-miterlimit:4;stroke-opacity:1;stroke-dasharray:17.14285714,8.57142857;stroke-dashoffset:0" id="ellipse28" cx="193" cy="157" d="m 216,157 c 0,8.83656 -10.29745,16 -23,16 -12.70255,0 -23,-7.16344 -23,-16 0,-8.83656 10.29745,-16 23,-16 12.70255,0 23,7.16344 23,16 z" rx="23" ry="16" transform="translate(2,-5)"/><ellipse style="fill:#fff;stroke:#000;stroke-width:9.32359791;stroke-miterlimit:4;stroke-opacity:1;stroke-dasharray:18.64719493,9.32359746;stroke-dashoffset:0" id="ellipse30" cx="222.5" cy="147" d="m 245,147 c 0,17.12083 -10.07359,31 -22.5,31 -12.42641,0 -22.5,-13.87917 -22.5,-31 0,-17.12083 10.07359,-31 22.5,-31 12.42641,0 22.5,13.87917 22.5,31 z" rx="22.5" ry="31" transform="matrix(1,0,0,0.84516089,-29.2,57.561333)"/><ellipse style="fill:#fff;stroke:#000;stroke-width:9.41312122;stroke-miterlimit:4;stroke-opacity:1;stroke-dasharray:18.8262418,9.4131209;stroke-dashoffset:0" id="ellipse32" cx="159.5" cy="147" d="m 175,147 c 0,13.80712 -6.93959,25 -15.5,25 -8.56041,0 -15.5,-11.19288 -15.5,-25 0,-13.80712 6.93959,-25 15.5,-25 8.56041,0 15.5,11.19288 15.5,25 z" rx="15.5" ry="25" transform="matrix(0.870968,0,0,0.952,2.5806042,33.856)"/><path style="fill:#000;stroke:#000;stroke-width:8.5714283;stroke-miterlimit:4;stroke-opacity:1;stroke-dasharray:17.14285714,8.57142857;stroke-dashoffset:0" id="path34" d="m 129.2,205.489 c 3.128,9.383 5.2,16.168 5.2,26 l -1.6,13.2 c 27.169,19.923 22.873,-24.429 1.2,-39.6" transform="translate(2,-6)"/><path style="fill:#000;stroke:#000;stroke-width:8.5714283;stroke-miterlimit:4;stroke-opacity:1;stroke-dasharray:17.14285714,8.57142857;stroke-dashoffset:0" id="path36" d="m 135.542,147.231 c 96.058,-57.6352 119.147,12.11 84.94,4.217" transform="translate(3,-3)"/><path style="fill:#000;stroke:#000;stroke-width:8.5714283;stroke-miterlimit:4;stroke-opacity:1;stroke-dasharray:17.14285714,8.57142857;stroke-dashoffset:0" id="path38" d="m 136,146.8 c 26.222,-30.592 69.075,-42.607 96.8,-4.8" transform="translate(-1,-1)"/><ellipse style="fill:#fff;stroke:#000;stroke-width:5.45081139;stroke-miterlimit:4;stroke-opacity:1;stroke-dasharray:10.90162309,5.45081154;stroke-dashoffset:0" id="ellipse40" cx="192.5" cy="222.5" d="m 219,222.5 c 0,4.14214 -11.86445,7.5 -26.5,7.5 -14.63555,0 -26.5,-3.35786 -26.5,-7.5 0,-4.14214 11.86445,-7.5 26.5,-7.5 14.63555,0 26.5,3.35786 26.5,7.5 z" rx="26.5" ry="7.5" transform="matrix(1.3675455,0.45807439,-0.54457048,1.6257728,21.627731,-184.5763)"/><g id="g42" transform="matrix(0.94188754,0.33592834,-0.33592834,0.94188754,94.339703,9.5578452)" style="stroke:#000;stroke-width:8.5714283;stroke-miterlimit:4;stroke-opacity:1;stroke-dasharray:17.14285714,8.57142857;stroke-dashoffset:0"><ellipse style="fill:#000;stroke:#000;stroke-width:8.5714283;stroke-miterlimit:4;stroke-opacity:1;stroke-dasharray:17.14285714,8.57142857;stroke-dashoffset:0" id="ellipse44" cx="150" cy="240" d="m 206,240 c 0,11.04569 -25.07205,20 -56,20 -30.92795,0 -56,-8.95431 -56,-20 0,-11.04569 25.07205,-20 56,-20 30.92795,0 56,8.95431 56,20 z" rx="56" ry="20"/></g></g></svg>