<svg xmlns="http://www.w3.org/2000/svg" xmlns:svg="http://www.w3.org/2000/svg" id="svg2" width="400" height="400" version="1.1" viewBox="0 0 400 400"><metadata id="metadata44"/><g id="g4" transform="matrix(120,0,0,120,50.00004,48.99996)" style="stroke:#000;stroke-width:.05;stroke-miterlimit:4;stroke-opacity:1;stroke-dasharray:.1,.1;stroke-dashoffset:0"><polygon style="fill:#fff;stroke:#000;stroke-width:.05;stroke-miterlimit:4;stroke-opacity:1;stroke-dasharray:.1,.1;stroke-dashoffset:0" id="polygon6" points="1.263 .567 1.263 .365 1.219 .365 1.219 .567"/><polygon style="fill:#fff;stroke:#000;stroke-width:.05;stroke-miterlimit:4;stroke-opacity:1;stroke-dasharray:.1,.1;stroke-dashoffset:0" id="polygon8" points=".666 .728 .856 .918 .885 .887 .692 .695 .691 .7"/><polygon style="fill:#fff;stroke:#000;stroke-width:.05;stroke-miterlimit:4;stroke-opacity:1;stroke-dasharray:.1,.1;stroke-dashoffset:0" id="polygon10" points="1.632 .914 1.816 .728 1.788 .702 1.601 .883"/><polygon style="fill:#fff;stroke:#000;stroke-width:.05;stroke-miterlimit:4;stroke-opacity:1;stroke-dasharray:.1,.1;stroke-dashoffset:0" id="polygon12" points=".71 1.294 .715 1.255 .443 1.255 .443 1.294"/><polygon style="fill:#fff;stroke:#000;stroke-width:.05;stroke-miterlimit:4;stroke-opacity:1;stroke-dasharray:.1,.1;stroke-dashoffset:0" id="polygon14" points="2.034 1.294 2.034 1.255 1.78 1.255 1.78 1.294"/><path style="fill:#fff;stroke:#000;stroke-width:.05;stroke-miterlimit:4;stroke-opacity:1;stroke-dasharray:.1,.1;stroke-dashoffset:0" id="path16" d="m 1.06554,0.96978 0,0.01315 c 0,0.010307 0.02957,0.09039 0.03457,0.10569 C 1.11505,1.13435 1.11482,1.15876 1.11375,1.20646 1.08871,1.20438 1.02295,1.14472 1.00855,1.1232 0.973453,1.07074 0.972048,1.05197 0.955965,0.98293 0.936941,0.996871 0.91652,1.06225 0.91652,1.09689 l 0,0.04821 c 0,0.11564 0.074224,0.1762 0.078894,0.2323 C 0.97678,1.37306 0.89439,1.31145 0.882536,1.29743 0.867866,1.28006 0.814918,1.18785 0.802563,1.18455 c 0,0.08227 0.021697,0.14363 0.043307,0.20214 0.011674,0.03159 0.023937,0.05926 0.034992,0.08773 0.017469,0.04499 0.029906,0.04226 0.054008,0.0731 0.059607,0.07627 0.19544,0.17175 0.32791,0.17175 l 0.01753,0 c 0.04491,0 0.13379,-0.03584 0.16512,-0.05402 C 1.49376,1.63717 1.5381,1.60896 1.56962,1.5659 1.62848,1.48552 1.67916,1.37189 1.67916,1.23276 l 9.9e-4,-0.0571 -0.00537,-0.04809 -0.00877,0 C 1.64326,1.22523 1.57947,1.30438 1.49946,1.34672 1.49946,1.2711 1.52773,1.23677 1.53804,1.1705 1.54584,1.12035 1.51807,1.02695 1.51699,0.978549 1.50768,0.985367 1.49158,1.09087 1.46525,1.12404 1.45791,1.13328 1.3592,1.23289 1.3592,1.18893 l 0,-0.04383 c 0,-0.06238 0.03945,-0.09976 0.03945,-0.170933 0,-0.016819 -0.07164,-0.123697 -0.08516,-0.131492 l 0.00188,0.017531 c 0,0.024071 -0.0081,0.085146 -0.01481,0.103528 C 1.29633,0.975309 1.25347,1.02676 1.24524,1.02676 1.22018,1.02676 1.19265,0.966073 1.19265,0.934718 l 0,-0.021913 c 0,-0.05961 0.05811,-0.126634 0.05418,-0.166776 L 1.23648,0.684887 C 1.22475,0.693482 1.21076,0.747962 1.20324,0.765608 1.1911,0.794104 1.17439,0.81099 1.1568,0.83312 1.1418,0.851994 1.06554,0.950774 1.06554,0.96978 z"/><polygon style="fill:#fff;stroke:#000;stroke-width:.05;stroke-miterlimit:4;stroke-opacity:1;stroke-dasharray:.1,.1;stroke-dashoffset:0" id="polygon18" points=".694 1.852 .878 1.666 .85 1.639 .666 1.823"/><polygon style="fill:#fff;stroke:#000;stroke-width:.05;stroke-miterlimit:4;stroke-opacity:1;stroke-dasharray:.1,.1;stroke-dashoffset:0" id="polygon20" points="1.79 1.852 1.816 1.823 1.634 1.644 1.608 1.67"/><polygon style="fill:#fff;stroke:#000;stroke-width:.05;stroke-miterlimit:4;stroke-opacity:1;stroke-dasharray:.1,.1;stroke-dashoffset:0" id="polygon22" points="1.263 2.074 1.263 1.811 1.219 1.811 1.219 2.074"/></g><line style="stroke:none" id="line24" x1="199" x2="199" y1="118" y2="90"/><line style="stroke:none" id="line26" x1="155" x2="129" y1="158" y2="133"/><line style="stroke:none" id="line28" x1="243" x2="267" y1="158" y2="134"/><line style="stroke:none" id="line30" x1="136" x2="101" y1="202" y2="202"/><line style="stroke:none" id="line32" x1="154" x2="131" y1="246" y2="271"/><line style="stroke:none" id="line34" x1="199" x2="199" y1="266" y2="299"/><line style="stroke:none" id="line36" x1="244" x2="268" y1="247" y2="271"/><line style="stroke:none" id="line38" x1="263" x2="295" y1="202" y2="202"/></svg>