<svg xmlns="http://www.w3.org/2000/svg" xmlns:svg="http://www.w3.org/2000/svg" id="svg2" width="400" height="400" version="1.1" viewBox="0 0 400 400"><metadata id="metadata16"/><g id="g4" transform="scale(100) translate(0.73 0.72) translate(0.01 0) translate(0.01 0)" style="stroke:#000;stroke-opacity:1;stroke-width:.06;stroke-miterlimit:4;stroke-dasharray:.12,.06;stroke-dashoffset:0"><path style="fill:#fff;stroke:#000;stroke-opacity:1;stroke-width:.06;stroke-miterlimit:4;stroke-dasharray:.12,.06;stroke-dashoffset:0" id="path6" d="M1.16313 1.58838 L1.33982 1.58838 L1.33982 1.2939 L1.9484 1.2939 L1.9484 0.672227 L1.79135 0.672227 L1.79135 1.13685 L1.33982 1.13685 L1.33982 0.868546 C1.33982 0.845081 1.39195 0.837058 1.41415 0.825089 C1.43311 0.814877 1.46765 0.789428 1.4823 0.775444 C1.51974 0.739684 1.56218 0.685503 1.57685 0.627869 C1.61705 0.46994 1.57109 0.364215 1.48221 0.274625 C1.40658 0.198396 1.25118 0.152523 1.12371 0.207447 C1.03355 0.246298 0.914462 0.361187 0.914462 0.482451 L0.914462 0.560983 C0.914462 0.630341 0.961966 0.716353 0.997796 0.752491 C1.02241 0.777325 1.04209 0.79577 1.07361 0.814097 C1.09787 0.828207 1.16313 0.847526 1.16313 0.868546 L1.16313 1.13685 L0.7116 1.13685 L0.7116 0.672227 L0.554545 0.672227 L0.554545 1.2939 L1.16313 1.2939 z"/><polygon style="fill:#fff;stroke:#000;stroke-opacity:1;stroke-width:.06;stroke-miterlimit:4;stroke-dasharray:.12,.06;stroke-dashoffset:0" id="polygon8" points="1.163 1.588 .986 1.588 .986 2.302 1.163 2.302"/><polygon style="fill:#fff;stroke:#000;stroke-opacity:1;stroke-width:.06;stroke-miterlimit:4;stroke-dasharray:.12,.06;stroke-dashoffset:0" id="polygon10" points="1.34 1.588 1.34 2.302 1.516 2.302 1.516 1.588"/></g></svg>