<svg xmlns="http://www.w3.org/2000/svg" xmlns:svg="http://www.w3.org/2000/svg" id="svg2" width="400" height="400" version="1.1" viewBox="0 0 400 400"><metadata id="metadata12"/><g id="g4" transform="matrix(100,0,0,100,74,77)" style="stroke:#000;stroke-width:.06;stroke-miterlimit:4;stroke-opacity:1;stroke-dasharray:.12,.06;stroke-dashoffset:0"><path style="fill:#fff;stroke:#000;stroke-width:.06;stroke-miterlimit:4;stroke-opacity:1;stroke-dasharray:.12,.06;stroke-dashoffset:0" id="path6" d="m 1.07278,1.03405 0.41983,0 0,0.23252 C 1.42874,1.26657 1.30946,1.306 1.26737,1.2919 1.20893,1.27233 1.13267,1.24177 1.07278,1.22782 z m -0.749236,0 0.652354,0 0,0.23898 c 0,0.02236 0.101842,0.05015 0.123552,0.0573 0.04741,0.01564 0.08902,0.03384 0.1372,0.05013 C 1.28689,1.39744 1.32082,1.39004 1.38539,1.37895 1.4248,1.37218 1.52742,1.36818 1.55074,1.35699 1.56625,1.42357 1.667,1.70605 1.667,1.73807 1.667,1.7784 1.63568,1.83669 1.63471,1.88017 L 2.17264,1.87959 1.96898,1.23269 2.16434,1.04051 C 2.14488,0.999954 2.06161,0.704644 2.03516,0.704644 l -1.711618,0 0,0.329406 z"/></g></svg>