<svg xmlns="http://www.w3.org/2000/svg" xmlns:svg="http://www.w3.org/2000/svg" id="svg2" width="400" height="400" version="1.1" viewBox="0 0 400 400"><metadata id="metadata22"/><g id="g4" transform="matrix(100,0,0,100,72,74)" style="stroke:#000;stroke-width:.06;stroke-miterlimit:4;stroke-opacity:1;stroke-dasharray:.12,.06;stroke-dashoffset:0"><polygon style="fill:#fff;stroke:#000;stroke-width:.06;stroke-miterlimit:4;stroke-opacity:1;stroke-dasharray:.12,.06;stroke-dashoffset:0" id="polygon6" points="1.275 .384 .488 .762 2.06 .765"/><polygon style="fill:#fff;stroke:#000;stroke-width:.06;stroke-miterlimit:4;stroke-opacity:1;stroke-dasharray:.12,.06;stroke-dashoffset:0" id="polygon8" points="1.64 1.388 1.64 1.129 1.401 1.129 1.401 .886 1.148 .886 1.148 1.129 .91 1.129 .91 1.388 1.148 1.388 1.148 1.626 1.401 1.626 1.401 1.388"/><polygon style="fill:#fff;stroke:#000;stroke-width:.06;stroke-miterlimit:4;stroke-opacity:1;stroke-dasharray:.12,.06;stroke-dashoffset:0" id="polygon10" points=".758 1.712 .758 1.616 .722 1.616 .722 .922 .758 .922 .758 .83 .575 .83 .575 .922 .606 .922 .606 1.616 .575 1.616 .575 1.712"/><polygon style="fill:#fff;stroke:#000;stroke-width:.06;stroke-miterlimit:4;stroke-opacity:1;stroke-dasharray:.12,.06;stroke-dashoffset:0" id="polygon12" points="1.974 1.712 1.974 1.616 1.939 1.616 1.939 .922 1.974 .922 1.974 .83 1.792 .83 1.792 .922 1.822 .922 1.822 1.616 1.792 1.616 1.792 1.712"/><polygon style="fill:#fff;stroke:#000;stroke-width:.06;stroke-miterlimit:4;stroke-opacity:1;stroke-dasharray:.12,.06;stroke-dashoffset:0" id="polygon14" points="2.015 1.819 2.015 1.743 .53 1.743 .53 1.819"/><polygon style="fill:#fff;stroke:#000;stroke-width:.06;stroke-miterlimit:4;stroke-opacity:1;stroke-dasharray:.12,.06;stroke-dashoffset:0" id="polygon16" points="2.065 1.966 2.065 1.895 .484 1.895 .484 1.966"/></g></svg>